<?xml version="1.0" encoding="UTF-8"?>
<svg id="Layer_1" data-name="Layer 1" xmlns="http://www.w3.org/2000/svg" xmlns:xlink="http://www.w3.org/1999/xlink" viewBox="0 0 720 720">
  <defs>
    <style>
      .cls-1 {
        fill: #f66;
      }

      .cls-1, .cls-2, .cls-3, .cls-4, .cls-5 {
        stroke-linejoin: round;
      }

      .cls-1, .cls-3, .cls-4, .cls-5 {
        stroke-width: 18.08px;
      }

      .cls-1, .cls-4, .cls-5 {
        stroke: #003;
      }

      .cls-6, .cls-3, .cls-5 {
        fill: none;
      }

      .cls-2 {
        fill: #fff;
        stroke: #6ff;
        stroke-width: 14.4px;
      }

      .cls-7 {
        fill: #d9ffff;
      }

      .cls-3 {
        stroke: #eee;
      }

      .cls-8 {
        fill: #003;
      }

      .cls-9 {
        fill: #6ff;
      }

      .cls-10 {
        fill: #eee;
      }

      .cls-4 {
        fill: #6ff;
      }

      .cls-11 {
        clip-path: url(#clippath);
      }
    </style>
    <clipPath id="clippath">
      <circle class="cls-6" cx="438.08" cy="331.65" r="100.03"/>
    </clipPath>
  </defs>
  <g>
    <g>
      <g>
        <polygon class="cls-5" points="503.68 539.95 232.4 539.95 209.8 336.51 241.44 302.58 241.44 223.46 277.61 223.46 277.61 268.67 367.33 186.23 526.29 336.51 503.68 539.95"/>
        <line class="cls-5" x1="285.94" y1="327.08" x2="291.07" y2="419.07"/>
        <rect class="cls-8" x="375.82" y="364.03" width="92.13" height="18.08" transform="translate(25.9 773.53) rotate(-86.81)"/>
      </g>
      <polyline class="cls-5" points="432.32 539.95 443.35 609.64 433.61 658.57 477.92 662.76"/>
      <polyline class="cls-5" points="304.47 539.95 293.42 609.66 303.17 658.57 258.86 662.76"/>
      <polyline class="cls-5" points="512.68 449.92 566.23 460.27 566.73 383.59 573.36 357.36"/>
      <circle class="cls-4" cx="216.26" cy="394.38" r="21.97"/>
      <path class="cls-1" d="M477.89,491.68c-3.72,2.64-7.51,4.98-11.34,6.97-7.28,3.77-14.65,6.34-21.74,7.64-.79.15-1.58.27-2.37.38l-2.5-5.5c-4.4-9.67-.13-21.08,9.54-25.48,9.67-4.4,21.08-.13,25.48,9.54l2.94,6.45Z"/>
      <path class="cls-5" d="M375.26,488.11c24.55,26.83,68.33,27.62,102.66,3.61"/>
    </g>
    <g>
      <g class="cls-11">
        <rect class="cls-7" x="319.43" y="188.29" width="266.35" height="299.11"/>
        <path class="cls-8" d="M468.18,315.93c-.47,54.37-2.46,112.27-5.71,170.91-19.34-2.7-39.18-5.56-59.32-8.53,10.39-110.88,17.43-219.02,18.89-305.26,14.85,3.16,29.47,6.54,43.67,10.1,1.64,31.31,2.46,65.39,2.56,101.34l-26.24,20.92,26.15,10.52ZM485.89,299.8c0-4.87-3.94-8.81-8.81-8.81s-8.81,3.94-8.81,8.81,3.94,8.81,8.81,8.81,8.81-3.94,8.81-8.81Z"/>
      </g>
      <rect class="cls-9" x="327.38" y="413.23" width="21.14" height="156.51" transform="translate(312.47 -104.43) rotate(32.06)"/>
      <rect class="cls-9" x="270" y="468.46" width="50.87" height="181.78" rx="5.69" ry="5.69" transform="translate(342.01 -71.51) rotate(32.06)"/>
      <path class="cls-2" d="M335.61,267.47c35.45-56.59,110.06-73.73,166.65-38.28,56.59,35.45,73.73,110.06,38.28,166.65-35.45,56.59-110.06,73.73-166.65,38.28-56.59-35.45-73.73-110.06-38.28-166.65ZM388.01,411.58c44.14,27.65,102.34,14.28,130-29.86,27.65-44.14,14.28-102.34-29.86-130-44.14-27.65-102.34-14.28-130,29.86-27.65,44.14-14.28,102.34,29.86,130Z"/>
    </g>
    <polyline class="cls-5" points="222.65 452.22 180.83 531.06 247.55 582.22 259.55 561.25"/>
    <polyline class="cls-5" points="294.86 582.91 247.55 582.22 283.65 608.27"/>
    <polyline class="cls-5" points="536.07 350.47 566.73 383.59 566.63 399.39 566.73 383.59 522.17 379.02"/>
  </g>
  <path class="cls-10" d="M158.31,227.48s-31.02-4.85-55.63-24.23c-30.59-24.08-60.86-77.91-18.84-112,69.09-56.06,128.31,57.27,74.47,136.23ZM121.21,158.19c13.33,0,24.13-10.8,24.13-24.13s-10.8-24.13-24.13-24.13-24.13,10.8-24.13,24.13,10.8,24.13,24.13,24.13Z"/>
  <path class="cls-3" d="M469.5,96.3c23.8-25.5,63.79-26.88,89.29-3.05,20.39,19.06,21.5,51.02,2.44,71.43-15.24,16.32-40.82,17.2-57.14,1.97-13.07-12.18-13.77-32.66-1.56-45.71,9.74-10.44,26.13-11.01,36.57-1.24,8.36,7.8,8.79,20.91.99,29.25"/>
</svg>