<?xml version="1.0" encoding="UTF-8"?>
<svg id="Layer_1" data-name="Layer 1" xmlns="http://www.w3.org/2000/svg" viewBox="0 0 720 720">
  <defs>
    <style>
      .cls-1 {
        stroke: #eee;
      }

      .cls-1, .cls-2, .cls-3 {
        stroke-linejoin: round;
        stroke-width: 18.08px;
      }

      .cls-1, .cls-3 {
        fill: none;
      }

      .cls-4 {
        fill: #6ff;
      }

      .cls-2 {
        fill: #6ff;
      }

      .cls-2, .cls-3 {
        stroke: #003;
      }

      .cls-5 {
        fill: #e6dada;
      }
    </style>
  </defs>
  <path class="cls-1" d="M511.36,88.88c1.2,34.86-26.1,64.11-60.98,65.29-27.89.94-51.28-20.88-52.24-48.78-.77-22.31,16.7-41.03,39.02-41.8,17.85-.62,32.83,13.36,33.42,31.22.5,14.27-10.69,26.26-24.98,26.74-11.43.4-21-8.57-21.39-19.98"/>
  <g>
    <path class="cls-5" d="M642.72,331.15c-7.38-4.05-16.73-6.26-24.17-10.47-1.22-1.18-.77-4.1-1.12-5.84-.55-2.74-2.68-8.35-1.36-10.49l18.36-20.99c.76-1.17,1.04-2.67.71-4.02l-14.39-20.45c-1.1-1.08-2.83-1.3-4.32-.97l-25.59,10.7-12.51-8.31c-2.08-10.93-.82-22.38-3.3-33.15l-27.3-4.68c-6.32,8.44-8.53,19.58-13.7,28.8l-14.63,2.66-22.71-19.62c-2.33-1.2-3.26-.44-5.23.62-3.67,1.99-15.42,10.2-18.38,13-1.91,1.81-2.68,3.05-1.6,5.75l10.19,25.43-7.9,12.22-9.66.84,40.88,44.42-12.06,51.39c3.28,2.47,8.81,4.86,11.06,7.07.82.81.8,1.34,1,2.35,1.64,7.98-.04,19.64,1.74,27.35.53,2.3,1.32,3.03,3.53,3.63,4.91,1.34,18.39,3.81,23.3,3.99,2.75.1,3.28-1.78,4.36-3.94,3.85-7.65,6.49-16.54,10.26-24.31,4.26.38,13.05-3.83,16.36-1.9l21.35,18.61c1.7.78,3.21.76,4.9.06,5.68-2.34,13.16-10.51,19.1-13.41,1.14-1.24,1.36-3.25,1.07-4.9l-10.25-24.96c-.03-2.86,7.3-9.79,8.12-13.35,1.04-1.06,25.5-1.41,29.64-2.28,1.49-.31,2.9-.72,3.48-2.29.8-7.58,3.43-15.75,4.03-23.24.29-3.57-.4-3.74-3.3-5.33ZM569.55,334c-2.71,15.82-17.74,26.45-33.56,23.73s-26.45-17.74-23.73-33.56c2.71-15.82,17.74-26.45,33.56-23.73,15.82,2.71,26.44,17.74,23.73,33.56Z"/>
    <g>
      <g>
        <polygon class="cls-3" points="454.46 539.65 185.12 507.24 186.98 302.55 222.46 272.65 231.91 194.1 267.81 198.42 262.41 243.3 361.34 172.17 501.21 340.36 454.46 539.65"/>
        <path class="cls-3" d="M415.2,355.39c-4.91-54.94-15.8-64.71-38.61-6.19"/>
        <path class="cls-3" d="M306.55,344.41c-1.85-54.15-18.93-61.29-39.03-2.36"/>
      </g>
      <polyline class="cls-3" points="383.61 531.12 394.21 592.53 388.81 660.35 418.74 663.02"/>
      <polyline class="cls-3" points="268.29 515.85 258.52 604.47 269.97 658.5 234.53 661.88"/>
      <circle class="cls-2" cx="186.49" cy="360.78" r="21.97"/>
      <path class="cls-3" d="M186.86,416.77l-35.21,50.82c-15.76,22.75-10.05,53.98,12.75,69.68l31.36,21.6,9.26-19.16"/>
      <path class="cls-3" d="M480.21,553.06l-2.94,18.31s14.59-2.16,19.33-3.42c24.52-6.54,27.9-36.75,15.85-55.85l-38.31-60.76"/>
    </g>
    <path class="cls-4" d="M484.06,546.2c1.3-4.8.4-5.2-3.15-8.1-9.04-7.41-21.23-12.79-30.31-20.43-1.36-1.92,0-5.79-.04-8.26-.05-3.88-1.54-12.07.81-14.66l30.39-23.96c1.33-1.4,2.1-3.37,2-5.31l-14.42-31.55c-1.22-1.76-3.53-2.49-5.65-2.43l-37.63,8.08-14.96-14.52c-.06-15.44,4.57-30.74,3.93-46.05l-36.05-13.33c-10.76,9.91-16.61,24.54-26.01,35.8l-20.64-.09-25.99-32.54c-2.87-2.24-4.34-1.43-7.29-.48-5.52,1.78-23.63,10-28.37,13.06-3.07,1.98-4.43,3.48-3.64,7.43l7.43,37.28-13.88,14.66-42.16-4.13c-3.58-.09-5.03,2.58-6.4,5.45-2.9,6.05-8.4,20.52-9.93,26.9-1.11,4.62.15,6.47,3.59,9.17,9.1,7.15,21.42,12.84,30.86,19.86-.09,4.62-.35,9.24-.38,13.87-.02,3.03,1.75,6.66-.65,8.85-4.89,4.96-31.11,22.21-32.57,26.89-.34,1.1-.14,2.55.13,3.68.82,3.46,10.89,25.08,13.04,28.37,2.05,3.15,3.76,4.4,7.76,4.35l36.97-8.14c3.31,4.57,11.78,9.99,14.61,14.04.91,1.31.75,2.03.77,3.46.2,11.31-5.05,26.78-4.58,37.76.14,3.28,1.03,4.47,3.89,5.85,6.35,3.08,24.12,9.87,30.77,11.37,3.72.84,4.93-1.6,6.95-4.26,7.2-9.46,13.06-20.91,20.18-30.54,5.71,1.61,18.78-1.9,22.79,1.57l24.39,30.81c2.12,1.5,4.19,1.85,6.67,1.33,8.34-1.75,20.63-10.99,29.47-13.43,1.87-1.39,2.68-4.09,2.71-6.41l-7.63-36.65c.69-3.91,12.45-11.5,14.47-16.14,1.69-1.18,35.15,4.56,41.01,4.43,2.11-.05,4.14-.24,5.34-2.24,3.01-10.14,8.68-20.61,11.41-30.68ZM380.37,523.38c-7.72,20.89-30.92,31.56-51.81,23.84-20.89-7.72-31.56-30.92-23.84-51.81,7.72-20.89,30.92-31.56,51.81-23.84,20.89,7.72,31.56,30.92,23.84,51.81Z"/>
    <path class="cls-5" d="M226.34,117.85c-.41-2.1-.84-2.08-2.76-2.53-4.9-1.14-10.63-.89-15.59-2.11-.89-.48-1.11-2.23-1.59-3.18-.76-1.49-2.89-4.37-2.48-5.81l7.16-15.04c.25-.79.17-1.7-.24-2.43l-11.58-9.43c-.81-.45-1.84-.29-2.64.14l-12.98,10.29-8.54-2.75c-2.96-5.95-4.09-12.73-7.26-18.52l-16.46,1.73c-2.27,5.87-1.74,12.64-3.22,18.77l-7.98,3.9-16.23-7.61c-1.53-.32-1.95.27-2.9,1.2-1.79,1.74-7.22,8.36-8.46,10.45-.81,1.35-1.05,2.19.01,3.56l9.97,12.97-2.57,8.3-17.06,6.44c-1.4.65-1.45,1.95-1.43,3.33.03,2.89.67,9.52,1.29,12.28.45,2,1.29,2.47,3.13,2.86,4.88,1.03,10.71.87,15.69,1.78.85,1.8,1.63,3.63,2.5,5.42.57,1.17,1.94,2.24,1.44,3.54-.94,2.85-7.78,14.5-7.45,16.59.08.49.43,1.01.75,1.4.98,1.18,8.98,7.61,10.44,8.47,1.39.83,2.29.98,3.82.2l12.72-10.19c2.15,1.13,6.45,1.61,8.32,2.64.6.33.68.64.96,1.19,2.23,4.32,3.15,11.3,5.43,15.44.68,1.24,1.25,1.53,2.62,1.52,3.04-.02,11.19-.79,14.04-1.48,1.6-.39,1.6-1.56,1.87-2.97.98-5.02,1.06-10.56,1.97-15.63,2.51-.47,6.89-4.31,9.1-3.74l15.28,7.24c1.1.18,1.97-.08,2.83-.76,2.89-2.26,5.87-8.17,8.81-10.8.46-.89.25-2.09-.18-2.99l-9.93-12.69c-.48-1.64,2.62-6.81,2.51-8.99.43-.78,14.43-4.94,16.67-6.1.8-.42,1.55-.88,1.63-1.88-.77-4.49-.58-9.61-1.44-14.01ZM181.97,128.81c1,9.53-5.92,18.07-15.45,19.07-9.53,1-18.07-5.92-19.07-15.45-1-9.53,5.92-18.07,15.45-19.07,9.53-1,18.07,5.92,19.07,15.45Z"/>
    <path class="cls-3" d="M246.01,558.8l-50.25.07c12.24,10.3,27.99,17.2,45.56,22.35"/>
    <polyline class="cls-3" points="439.1 547.17 477.27 571.36 432.25 574.04"/>
  </g>
</svg>