<?xml version="1.0" encoding="UTF-8"?>
<svg id="Layer_1" data-name="Layer 1" xmlns="http://www.w3.org/2000/svg" xmlns:xlink="http://www.w3.org/1999/xlink" viewBox="0 0 1080 400">
  <defs>
    <style>
      .cls-1 {
        fill: #f66;
      }

      .cls-2 {
        fill: none;
      }

      .cls-3 {
        fill: #003;
      }

      .cls-4 {
        fill: #e6dada;
      }

      .cls-5 {
        clip-path: url(#clippath);
      }
    </style>
    <clipPath id="clippath">
      <path class="cls-2" d="M-759.11-512.42h398.21c88.8,0,160.89,72.09,160.89,160.89V46.69c0,88.8-72.09,160.89-160.89,160.89h-398.21c-88.8,0-160.89-72.09-160.89-160.89v-398.21c0-88.8,72.09-160.89,160.89-160.89Z"/>
    </clipPath>
  </defs>
  <g class="cls-5">
    <path class="cls-3" d="M34.19-201.21l-399.2-247.1-173.96,106.05v-55.97h-115.65v126.47l-115.31,70.3v85.73c-43.85,22.07-74.02,67.48-74.02,119.82s31.38,99.59,76.66,121.14v401.4h111.18V126.89c47.24-20.76,80.33-67.98,80.33-122.8s-32.24-100.81-78.51-121.98v-18.63l288.81-176.06L-81.45-136.79v663.42H34.19V-201.21Z"/>
  </g>
  <g>
    <rect class="cls-2" width="1080" height="400"/>
    <g>
      <g>
        <polygon class="cls-4" points="621.37 349.03 653.64 349.03 653.64 146.03 621.37 165.71 621.37 349.03"/>
        <path class="cls-4" d="M818.62,242.25c16.87,0,28.65,12.29,28.65,29.89v76.89s31.11,0,31.11,0v-82.85c0-27-18.96-45.85-46.1-45.85-17.65,0-33.57,8.12-39.62,20.21l-.57,1.15h-3.85s0-18.87,0-18.87h-31.11s0,126.22,0,126.22h31.11s0-76.65,0-76.65c0-17.46,12.78-30.14,30.38-30.14Z"/>
        <path class="cls-4" d="M965.41,287.3c7.55,31.41,32.65,63.11,71.9,64.19v-32.47c-.16,0-.32,0-.48,0-23.92,0-43.05-26.56-49.87-53.83l-.31-1.25,48.34-41.13h-42.75s-51.66,45.2-51.66,45.2V123.04s-123.66-76.54-123.66-76.54l-56.85,34.66v-19.25s-32.27,0-32.27,0v38.92s-36.32,22.14-36.32,22.14v27.11s-1.14.58-1.14.58c-13.67,6.88-22.17,20.63-22.17,35.88,0,15.4,9.01,29.64,22.96,36.28l1.18.56v125.65s30.86,0,30.86,0v-125.17s1.24-.54,1.24-.54c14.62-6.42,24.06-20.86,24.06-36.78,0-15.66-9.23-29.99-23.51-36.53l-1.21-.56v-8.37s93.04-56.72,93.04-56.72l91.51,56.65v208.01s32.27,0,32.27,0v-44.32s24.04-20.73,24.04-20.73l.8,3.31ZM727.79,186.54c0,10.74-8.73,19.47-19.47,19.47-10.74,0-19.47-8.74-19.47-19.47s8.73-19.47,19.47-19.47c10.74,0,19.47,8.74,19.47,19.47Z"/>
        <path class="cls-4" d="M556.26,329.91h1.88s1.88,0,1.88,0l.09.94.09.94c.26,2.83.62,5.84,1.31,8.8.69,2.96,1.69,5.85,3.23,8.43h14.93s14.93,0,14.93,0c-1.27-3.02-2.21-6.26-2.84-9.75-.63-3.49-.94-7.24-.94-11.27v-32.53s0-32.53,0-32.53c0-12.84-6.37-23.75-17.31-31.44-10.94-7.69-26.43-12.18-44.69-12.18-11.97,0-23.82,2.94-33.97,8-10.15,5.07-18.62,12.26-23.83,20.78l11.3,7.21,11.3,7.21c2.83-4.27,7.56-8.54,13.8-11.73,6.25-3.2,14.01-5.32,22.89-5.32,8.59,0,16.12,2.14,21.51,5.71,5.39,3.57,8.63,8.56,8.63,14.24v2.15s0,2.15,0,2.15l-.05.15-.05.15c-1.44,4.6-5.87,7.26-12.1,8.98-6.23,1.72-14.24,2.5-22.85,3.35-13.55,1.32-28.01,2.74-39.08,7.61-11.07,4.87-18.75,13.2-18.75,28.37,0,10.7,3.87,19.25,10.97,25.12,7.11,5.87,17.45,9.06,30.41,9.06,12.24,0,22.83-2.75,30.91-6.79,8.08-4.04,13.65-9.37,15.85-14.55l.27-.63.27-.63ZM521.13,332.32c-6.43,0-11.98-1.86-15.92-5.01s-6.27-7.58-6.27-12.71c0-7.09,4.35-11.19,10.8-13.78s15-3.67,23.41-4.74c4.45-.56,8.97-1.14,13.13-1.93,4.16-.8,7.96-1.81,10.95-3.27l1.49-.72,1.49-.72v4.89s0,4.89,0,4.89c0,8.2-4.93,16.48-12.28,22.71-7.35,6.23-17.12,10.41-26.8,10.41Z"/>
        <path class="cls-4" d="M816.02,127.39c-10.94,0-19.84,8.9-19.84,19.84s8.9,19.84,19.84,19.84c10.94,0,19.84-8.9,19.84-19.84,0-10.94-8.9-19.84-19.84-19.84Z"/>
        <path class="cls-4" d="M277.14,329.91h1.88s1.88,0,1.88,0l.09.94.09.94c.26,2.83.62,5.84,1.31,8.8.69,2.96,1.69,5.85,3.23,8.43h14.93s14.93,0,14.93,0c-1.27-3.02-2.21-6.26-2.84-9.75-.63-3.49-.94-7.24-.94-11.27v-32.53s0-32.53,0-32.53c0-12.84-6.37-23.75-17.31-31.44-10.94-7.69-26.43-12.18-44.69-12.18-11.97,0-23.82,2.94-33.97,8s-18.62,12.26-23.83,20.78l11.3,7.21,11.3,7.21c2.83-4.27,7.56-8.54,13.8-11.73,6.25-3.2,14.01-5.32,22.89-5.32,8.59,0,16.12,2.14,21.51,5.71s8.63,8.56,8.63,14.24v2.15s0,2.15,0,2.15l-.05.15-.05.15c-1.44,4.6-5.87,7.26-12.1,8.98s-14.24,2.5-22.85,3.35c-13.55,1.32-28.01,2.74-39.08,7.61-11.07,4.87-18.75,13.2-18.75,28.37,0,10.7,3.87,19.25,10.97,25.12,7.11,5.87,17.45,9.06,30.41,9.06,12.24,0,22.83-2.75,30.91-6.79,8.08-4.04,13.65-9.37,15.85-14.55l.27-.63.27-.63ZM242.01,332.32c-6.43,0-11.98-1.86-15.92-5.01-3.94-3.15-6.27-7.58-6.27-12.71,0-7.09,4.35-11.19,10.8-13.78,6.45-2.59,15-3.67,23.41-4.74,4.45-.56,8.97-1.14,13.13-1.93,4.16-.8,7.96-1.81,10.95-3.27l1.49-.72,1.49-.72v4.89s0,4.89,0,4.89c0,8.2-4.93,16.48-12.28,22.71-7.35,6.23-17.12,10.41-26.8,10.41Z"/>
        <path class="cls-4" d="M142.53,312.38c-3.86,9.76-14.66,15.96-28.15,15.96-23.45,0-39.82-18.01-39.82-43.8,0-25.35,15.35-43.05,37.34-43.05,15.36,0,28.6,8.69,31.25,20.13l26.84-3.46c-2.78-24.63-24.26-39.83-56.6-39.83-42.28,0-70.69,27.01-70.69,67.21,0,40.65,28.71,67.96,71.43,67.96,27.99,0,49.32-12.86,56.24-33.72l-27.84-7.39Z"/>
        <path class="cls-4" d="M399.55,274.63c-9.05-.99-17.48-1.92-23.64-4.09-6.17-2.17-10.07-5.59-10.07-11.57,0-5.67,3.43-10.04,8.48-12.99,5.05-2.95,11.71-4.48,18.18-4.48,7.8,0,14.93,2.15,20.42,5.78s9.35,8.72,10.61,14.59l13.29-1.73,13.29-1.73c-1.36-12.39-7.34-22.41-16.97-29.33-9.63-6.92-22.92-10.75-38.89-10.75-17.43,0-31.99,4.43-42.2,12.16-10.21,7.73-16.06,18.76-16.06,31.95,0,14.99,7.68,23.31,18.44,28.2,10.76,4.9,24.61,6.37,36.94,7.69,8.73.93,16.86,1.8,22.81,3.81,5.95,2.02,9.72,5.18,9.72,10.71,0,4.91-3.11,9.22-8.27,12.29s-12.39,4.93-20.62,4.93c-9.35,0-17.74-2.48-24.21-6.75-6.47-4.28-11.03-10.36-12.71-17.57l-12.94,1.83-12.94,1.83c1.54,13.42,8.46,24.44,19.44,32.11,10.99,7.66,26.05,11.97,43.86,11.97,17.77,0,32.4-4.26,42.59-11.81,10.19-7.55,15.93-18.39,15.93-31.56,0-14.76-7.23-22.94-17.65-27.77-10.42-4.83-24.03-6.33-36.79-7.73Z"/>
      </g>
      <path class="cls-1" d="M727.79,186.54c0,10.74-8.73,19.47-19.47,19.47-10.74,0-19.47-8.74-19.47-19.47s8.73-19.47,19.47-19.47c10.74,0,19.47,8.74,19.47,19.47Z"/>
    </g>
  </g>
</svg>