<?xml version="1.0" encoding="UTF-8"?>
<svg id="Layer_1" data-name="Layer 1" xmlns="http://www.w3.org/2000/svg" viewBox="0 0 720 720">
  <defs>
    <style>
      .cls-1 {
        fill: #6ff;
      }

      .cls-1, .cls-2, .cls-3, .cls-4, .cls-5, .cls-6 {
        stroke-linejoin: round;
      }

      .cls-1, .cls-2, .cls-4, .cls-6 {
        stroke: #003;
      }

      .cls-1, .cls-5, .cls-6 {
        stroke-width: 19.43px;
      }

      .cls-2, .cls-7 {
        fill: #f66;
      }

      .cls-2, .cls-4 {
        stroke-width: 17.15px;
      }

      .cls-3 {
        stroke-width: 18.08px;
      }

      .cls-3, .cls-5 {
        stroke: #eee;
      }

      .cls-3, .cls-5, .cls-6 {
        fill: none;
      }

      .cls-4 {
        fill: #003;
      }

      .cls-8 {
        fill: #6ff;
      }
    </style>
  </defs>
  <g>
    <g>
      <polygon class="cls-6" points="517.07 593.1 227.55 548.25 233.71 333.43 274.98 305.7 287.4 224.11 327.69 233.26 320.64 279.49 430.39 218.02 569.86 401.07 517.07 593.1"/>
      <path class="cls-4" d="M446.97,507.14v.04c-5.18,20.17-34.92,32.04-68.73,26.6-34.42-5.53-60.44-26.88-59.33-48.42v-.04c.05-.84.13-1.68.25-2.51,2.07-13.53,15.59-22.39,30.12-19.81,4.47.79,12.82,5.07,13.24,5.27,7.43,3.38,15.77,6,24.64,7.56,8.83,1.55,17.37,1.91,25.28,1.25.46-.04,9.36-1.23,13.67-.46,13.88,2.46,23.41,15.05,21.4,28.14-.12.8-.31,1.59-.49,2.39h-.04Z"/>
      <path class="cls-2" d="M428.87,527.59c-7.64-13.48-24.4-24.58-45.27-28.12-21.14-3.58-41.01,1.5-52.76,12.09,10.7,10.67,27.67,19.05,47.41,22.23,19.59,3.15,37.79.48,50.63-6.2Z"/>
      <circle class="cls-7" cx="473.36" cy="471.69" r="15.08"/>
      <circle class="cls-7" cx="303.8" cy="444.18" r="15.08"/>
    </g>
    <polyline class="cls-6" points="444.45 581.85 526.87 665.64 561.95 636"/>
    <polyline class="cls-6" points="308.13 560.73 185.3 608.91 158.68 568.02"/>
    <polyline class="cls-6" points="539.48 507.78 562.86 600.2 549.31 609.83"/>
    <line class="cls-6" x1="562.86" y1="600.2" x2="606.73" y2="606.99"/>
    <path class="cls-1" d="M235.44,372.11c13.82,2.67,23.42,14.95,21.52,27.45-1.9,12.49-14.6,20.58-28.43,18.05-13.92-2.55-23.7-14.86-21.79-27.49,1.92-12.63,14.8-20.69,28.7-18.01Z"/>
    <path class="cls-8" d="M144.9,215.3l37.38-108.81c2.02-5.89,8.55-8.89,14.34-6.6l50.53,19.99c5.56,2.2,8.31,8.46,6.18,14.05l-41.73,109.09c-2.23,5.82-8.87,8.6-14.58,6.09l-46.18-20.27c-5.2-2.28-7.78-8.17-5.93-13.54Z"/>
    <path class="cls-6" d="M227.55,493.1c-105.62-41.31-146.47-165.52-86.46-288.39l64.61,1.81"/>
    <polyline class="cls-6" points="153.38 167.35 141.08 204.71 201.35 173.89"/>
    <line class="cls-5" x1="237.12" y1="81.83" x2="254.05" y2="41.16"/>
    <line class="cls-5" x1="193.41" y1="76.24" x2="182.78" y2="33.48"/>
    <line class="cls-5" x1="270.62" y1="111.05" x2="303.59" y2="81.83"/>
    <path class="cls-6" d="M319.29,378.49s9.71-28.12,27.2-31.51c17.49-3.39,15.09,41.13,15.09,41.13"/>
    <path class="cls-6" d="M484.62,402.96s.64-34.07-14.37-40.43c-15.01-6.36-26.81,32.02-26.81,32.02"/>
  </g>
  <path class="cls-3" d="M498.5,135.37c23.8-25.5,63.79-26.88,89.29-3.05,20.39,19.06,21.5,51.02,2.44,71.43-15.24,16.32-40.82,17.2-57.14,1.97-13.07-12.18-13.77-32.66-1.56-45.71,9.74-10.44,26.13-11.01,36.57-1.24,8.36,7.8,8.79,20.91.99,29.25"/>
</svg>