<?xml version="1.0" encoding="UTF-8"?>
<svg id="Layer_1" data-name="Layer 1" xmlns="http://www.w3.org/2000/svg" viewBox="0 0 720 720">
  <defs>
    <style>
      .cls-1 {
        fill: #003;
      }

      .cls-1, .cls-2, .cls-3, .cls-4, .cls-5 {
        stroke-linejoin: round;
        stroke-width: 18.08px;
      }

      .cls-1, .cls-3, .cls-4, .cls-5 {
        stroke: #003;
      }

      .cls-2 {
        stroke: #eee;
      }

      .cls-2, .cls-5 {
        fill: none;
      }

      .cls-6 {
        fill: #6ff;
      }

      .cls-3 {
        fill: #6ff;
      }

      .cls-4 {
        fill: #f66;
      }
    </style>
  </defs>
  <path class="cls-2" d="M244.09,81.33c23.8-25.5,63.79-26.88,89.29-3.05,20.39,19.06,21.5,51.02,2.44,71.43-15.24,16.32-40.82,17.2-57.14,1.97-13.07-12.18-13.77-32.66-1.56-45.71,9.74-10.44,26.13-11.01,36.57-1.24,8.36,7.8,8.79,20.91.99,29.25"/>
  <g>
    <g>
      <polygon class="cls-5" points="497.51 545.57 226.23 545.57 203.62 342.13 235.27 308.2 235.27 229.09 271.43 229.09 271.43 274.3 361.15 191.86 520.11 342.13 497.51 545.57"/>
      <path class="cls-1" d="M429.94,454.8v.05c-2.22,23.69-31.87,42.45-68.13,42.45s-65.94-18.76-68.13-42.45v-.05c-.09-.93-.14-1.85-.14-2.78,0-15.12,12.25-27.37,27.37-27.37,4.68,0,13.88,3.07,14.33,3.21,8.16,2.28,17.16,3.55,26.58,3.55s18.4-1.27,26.58-3.55c.47-.14,9.65-3.21,14.33-3.21,15.12,0,27.37,12.25,27.37,27.37,0,.93-.07,1.85-.14,2.78h-.05Z"/>
      <path class="cls-4" d="M413.98,481.19c-10.3-13.69-29.75-22.93-52.08-22.93s-41.89,9.28-52.17,23.02c12.52,9.79,31.19,16.01,52.07,16.01s39.65-6.26,52.17-16.11Z"/>
      <line class="cls-5" x1="302.37" y1="310.1" x2="307.5" y2="379.48"/>
      <line class="cls-5" x1="415.4" y1="379.48" x2="420.53" y2="310.1"/>
    </g>
    <polyline class="cls-5" points="426.14 545.57 428.13 597.18 427.44 664.19 471.74 668.38"/>
    <polyline class="cls-5" points="298.29 545.57 298.55 599.46 296.99 664.19 252.69 668.38"/>
    <path class="cls-5" d="M506.5,455.54l14.97-7.22c35.89-17.31,61.08-51.05,67.47-90.38h0v-21.93"/>
    <line class="cls-5" x1="588.94" y1="357.94" x2="634.15" y2="336.01"/>
    <path class="cls-5" d="M106.73,381.67l-6.99,16.19h0c21.24,33.72,57.59,54.95,97.39,56.88l16.6.8"/>
    <line class="cls-5" x1="54.81" y1="381.67" x2="99.74" y2="397.86"/>
    <circle class="cls-3" cx="210.09" cy="400" r="21.97"/>
    <path class="cls-6" d="M551.2,276.41c82.89,19.47,140.37-.08,150.85-43.86,11.35-47.4,16.9-101.21-75.8-116.3-104.25-16.97-156.36-25.48-168.45,28.6-12.78,57.16-28.19,103,93.4,131.56Z"/>
    <path class="cls-6" d="M583.66,252.92s-5.24,49.29-23.37,74.7c0,0,76.07-20.94,67.88-67.45-8.19-46.51-44.51-7.24-44.51-7.24Z"/>
    <path class="cls-6" d="M29.82,231.48c-9.33-69.71,11.37-115.39,48.21-120.48,39.88-5.51,84.57-5.74,89.5,71.68,5.55,87.07,8.36,130.6-37.08,136.18-48.02,5.91-86.94,14.88-100.63-87.38Z"/>
    <path class="cls-6" d="M119.7,291.67s.33,40.44,13.03,62.51c0,0-60.1-23.06-49.75-60.17,10.35-37.12,36.72-2.34,36.72-2.34Z"/>
  </g>
  <line class="cls-2" x1="518.42" y1="142.85" x2="670.66" y2="174.24"/>
  <line class="cls-2" x1="537.8" y1="185.41" x2="647.44" y2="208.02"/>
  <line class="cls-2" x1="549.11" y1="225.82" x2="642.91" y2="240.86"/>
  <line class="cls-2" x1="62.64" y1="186.58" x2="137.03" y2="186.58"/>
  <line class="cls-2" x1="65.4" y1="232.89" x2="137.03" y2="232.89"/>
  <line class="cls-2" x1="81.15" y1="154.78" x2="92.88" y2="264.08"/>
  <line class="cls-2" x1="107.26" y1="160.03" x2="121.6" y2="258.83"/>
</svg>