<?xml version="1.0" encoding="UTF-8"?>
<svg xmlns="http://www.w3.org/2000/svg" viewBox="0 0 292.34 264">
  <defs>
    <style>
      .cls-1 {
        fill: none;
        stroke: #003;
        stroke-linecap: round;
        stroke-linejoin: round;
        stroke-width: 5px;
      }

      .cls-2 {
        fill: #eee;
      }

      .cls-3 {
        fill: #fff;
      }

      .cls-4, .cls-5 {
        fill: #f66;
      }

      .cls-6 {
        isolation: isolate;
      }

      .cls-5, .cls-7 {
        mix-blend-mode: multiply;
      }

      .cls-8 {
        fill: #003;
      }

      .cls-9 {
        fill: #6ff;
      }

      .cls-10, .cls-7 {
        fill: #202040;
      }

      .cls-7 {
        opacity: .25;
      }
    </style>
  </defs>
  <g class="cls-6">
    <g id="Layer_2" data-name="Layer 2">
      <g id="Swatch_Info_Layer" data-name="Swatch Info Layer">
        <g>
          <polygon class="cls-9" points="56.17 264 36.26 104.68 115.4 22.98 264.1 112.34 251.74 261.45 208.85 264 56.17 264"/>
          <polygon class="cls-7" points="264.1 112.34 213.53 81.95 208.85 264 251.74 261.45 264.1 112.34"/>
          <polygon class="cls-4" points="0 110.3 109.79 0 194.04 9.19 292.34 107.49 286.98 120.51 216.76 113.36 123.57 34.21 37.84 117.38 11.23 120.51 0 110.3"/>
          <polygon class="cls-5" points="109.79 0 0 110.3 11.23 120.51 108.77 22.98 122.93 34.84 123.57 34.21 216.76 113.36 228.89 101.23 109.79 0"/>
          <polygon class="cls-9" points="172.6 3.06 172.6 35.23 205.28 62.81 223.15 62.81 223.15 5.11 203.23 0 172.6 3.06"/>
          <polygon class="cls-7" points="223.15 5.11 203.23 0 205.28 62.81 223.15 62.81 223.15 5.11"/>
          <g>
            <path class="cls-8" d="M106.35,259.73v-31.74c0-13.63,3.89-29.01,19.47-29.01s20.25,13.63,20.25,29.5v31.25h-39.72Z"/>
            <path class="cls-2" d="M125.83,198.98c-6.23,0-10.58,2.46-13.57,6.28-.06,4.34-.64,9.69-.64,9.69,0,0,10.6,8.84,34.17,7-1.24-12.9-6.57-22.97-19.95-22.97Z"/>
            <path class="cls-4" d="M146.08,245.91c-28.53-6.91-37.78,13.83-37.78,13.83h37.78v-13.83Z"/>
          </g>
          <path class="cls-4" d="M171.35,186.55h0c.37-3.37,2.64-5.91,5.3-5.49l12.35,1.93c4.57.71,7.57,5.59,6.17,10.47h0c-1.31,4.56-5.8,6.59-9.65,4.98l-10.68-4.45c-2.36-.98-3.84-4.22-3.49-7.44Z"/>
          <path class="cls-4" d="M84.5,186.55h0c-.37-3.37-2.64-5.91-5.3-5.49l-12.35,1.93c-4.57.71-7.57,5.59-6.17,10.47h0c1.31,4.56,5.8,6.59,9.65,4.98l10.68-4.45c2.36-.98,3.84-4.22,3.49-7.44Z"/>
          <path class="cls-1" d="M65.95,115.74s10.37-14.14,33.56-14.14"/>
          <path class="cls-1" d="M146.63,104.43s21.68-4.71,39.97,11.31"/>
          <circle class="cls-2" cx="94.7" cy="148.36" r="28.75"/>
          <circle class="cls-8" cx="85.69" cy="154.15" r="14.94"/>
          <circle class="cls-10" cx="86.6" cy="154.91" r="7.93"/>
          <circle class="cls-3" cx="84.55" cy="144.53" r="4.56"/>
          <circle class="cls-3" cx="80.22" cy="151.46" r="1.87"/>
          <g>
            <circle class="cls-2" cx="161.59" cy="146.98" r="30.13"/>
            <circle class="cls-8" cx="151.02" cy="154.15" r="14.94"/>
            <circle class="cls-10" cx="151.46" cy="154.14" r="8.71"/>
            <circle class="cls-3" cx="148.74" cy="144.53" r="4.56"/>
            <circle class="cls-3" cx="146.34" cy="154.14" r="3.1"/>
          </g>
        </g>
      </g>
    </g>
  </g>
</svg>