<?xml version="1.0" encoding="UTF-8"?>
<svg id="Layer_1" data-name="Layer 1" xmlns="http://www.w3.org/2000/svg" viewBox="0 0 720 720">
  <defs>
    <style>
      .cls-1 {
        fill: #6ff;
      }

      .cls-1, .cls-2, .cls-3, .cls-4 {
        stroke: #003;
        stroke-linejoin: round;
        stroke-width: 18.21px;
      }

      .cls-2 {
        fill: none;
      }

      .cls-3 {
        fill: #f66;
      }

      .cls-4 {
        fill: #003;
      }
    </style>
  </defs>
  <g>
    <polygon class="cls-2" points="496.39 476.27 223.2 476.27 200.44 271.4 232.31 237.23 232.31 157.56 268.73 157.56 268.73 203.09 359.08 120.07 519.15 271.4 496.39 476.27"/>
    <path class="cls-4" d="M428.35,407.62v.05c-2.23,23.86-32.1,42.75-68.61,42.75s-66.4-18.89-68.61-42.75v-.05c-.09-.93-.14-1.87-.14-2.8,0-15.23,12.34-27.57,27.57-27.57,4.71,0,13.98,3.1,14.43,3.23,8.22,2.3,17.28,3.57,26.77,3.57s18.53-1.27,26.77-3.57c.48-.14,9.72-3.23,14.43-3.23,15.23,0,27.57,12.34,27.57,27.57,0,.93-.07,1.87-.14,2.8h-.05Z"/>
    <path class="cls-3" d="M412.28,434.19c-10.37-13.79-29.96-23.09-52.45-23.09s-42.18,9.34-52.53,23.18c12.61,9.86,31.41,16.13,52.44,16.13s39.93-6.3,52.54-16.22Z"/>
    <line class="cls-2" x1="299.88" y1="239.14" x2="305.05" y2="331.77"/>
    <line class="cls-2" x1="413.71" y1="331.77" x2="418.87" y2="239.14"/>
  </g>
  <polyline class="cls-2" points="424.52 476.27 435.63 546.44 425.83 595.71 470.44 599.93"/>
  <polyline class="cls-2" points="295.77 476.27 284.65 546.46 294.47 595.71 249.85 599.93"/>
  <polyline class="cls-2" points="505.45 385.6 542.94 476.27 530.87 488.33"/>
  <line class="cls-2" x1="542.94" y1="476.27" x2="588.46" y2="476.27"/>
  <polyline class="cls-2" points="213.85 385.6 177.06 476.27 189.13 488.33"/>
  <line class="cls-2" x1="177.06" y1="476.27" x2="131.54" y2="476.27"/>
  <circle class="cls-1" cx="206.95" cy="329.67" r="22.13"/>
</svg>