<?xml version="1.0" encoding="UTF-8"?>
<svg xmlns="http://www.w3.org/2000/svg" version="1.1" viewBox="0 0 292.3 279.8">
  <!-- Generator: Adobe Illustrator 29.3.1, SVG Export Plug-In . SVG Version: 2.1.0 Build 151)  -->
  <defs>
    <style>
      .st0 {
        fill: #eee;
      }

      .st1 {
        fill: #fff;
      }

      .st2, .st3 {
        fill: #f66;
      }

      .st4 {
        isolation: isolate;
      }

      .st3, .st5 {
        mix-blend-mode: multiply;
      }

      .st6 {
        fill: #003;
      }

      .st7 {
        fill: #6ff;
      }

      .st8, .st5 {
        fill: #202040;
      }

      .st5, .st9 {
        opacity: .2;
      }

      .st9 {
        fill: #3d3d40;
      }
    </style>
  </defs>
  <g class="st4">
    <g id="Layer_1">
      <g>
        <path class="st9" d="M24.3,270.3l48.9-9.3,197-2.4c3.7,0,6.7,3.1,6.4,6.9h0c-.3,3.2-2.8,5.6-6,5.8l-54.6,3.2h-60c-1,0-2.2.9-2.7,1.8l-.3.6c-.8,1.6-2.8,2.9-4.4,2.9h-51.6c-1.3,0-2-1.6-1.1-2.5h0c.8-1,.5-2.5-.7-2.7s-.2,0-.3,0H24.7c-2.6,0-2.9-3.7-.4-4.2Z"/>
        <polygon class="st7" points="56.2 264 36.3 104.7 115.4 23 264.1 112.3 251.7 261.4 208.9 264 56.2 264"/>
        <polygon class="st5" points="264.1 112.3 213.5 81.9 208.9 264 251.7 261.4 264.1 112.3"/>
        <polygon class="st2" points="0 110.3 109.8 0 194 9.2 292.3 107.5 287 120.5 216.8 113.4 123.6 34.2 37.8 117.4 11.2 120.5 0 110.3"/>
        <polygon class="st3" points="109.8 0 0 110.3 11.2 120.5 108.8 23 122.9 34.8 123.6 34.2 216.8 113.4 228.9 101.2 109.8 0"/>
        <polygon class="st7" points="172.6 3.1 172.6 35.2 205.3 62.8 223.1 62.8 223.1 5.1 203.2 0 172.6 3.1"/>
        <polygon class="st5" points="223.1 5.1 203.2 0 205.3 62.8 223.1 62.8 223.1 5.1"/>
        <g>
          <path class="st6" d="M108.8,267.8v-31.7c0-13.6,3.9-29,19.5-29s20.3,13.6,20.3,29.5v31.3h-39.7Z"/>
          <path class="st2" d="M148.6,254c-28.5-6.9-37.8,13.8-37.8,13.8h37.8v-13.8Z"/>
          <path class="st0" d="M142.6,227.6l.8,2.7c1.5,0,3.1-.2,4.8-.3-1.2-12.9-6.6-23-20-23s-10.6,2.5-13.6,6.3c0,3.2.5,9.7.8,12.8.1,1.2.9,2.1,2,2.4,3.2.9,10.9,2.4,24.5,1.8l.5-2.8Z"/>
        </g>
        <path class="st2" d="M168.9,216.1h0c.4-3.4,2.6-5.9,5.3-5.5l12.4,1.9c4.6.7,7.6,5.6,6.2,10.5h0c-1.3,4.6-5.8,6.6-9.6,5l-10.7-4.4c-2.4-1-3.8-4.2-3.5-7.4Z"/>
        <path class="st2" d="M88.9,216.9h0c-.4-3.4-2.6-5.9-5.3-5.5l-12.4,1.9c-4.6.7-7.6,5.6-6.2,10.5h0c1.3,4.6,5.8,6.6,9.6,5l10.7-4.4c2.4-1,3.8-4.2,3.5-7.4Z"/>
        <path class="st6" d="M62.2,114.2c6.4-12.4,20.1-19.7,33.6-21.1.4,0,1-.2,1.3,0,.5.2,1,.9,1.5,2.4l.7,10c-.3,1.6-.5,2.3-.8,2.7-.2.3-.7.2-1,.3-4.6.4-9.2,1.5-13.5,3.2-4.8,1.9-9.4,4.7-13.4,7.9,0,0-8.4-5.4-8.4-5.4h0Z"/>
        <path class="st6" d="M184.6,116.1c-5-4.1-10.8-7.4-17.1-9.2-3.2-1-6.5-1.6-9.7-1.9-.3,0-.8,0-1-.3-.3-.3-.6-1.1-.8-2.7,0,0,.7-10,.7-10,.5-1.5,1-2.2,1.5-2.4.2-.1.5-.1.7,0,1.1.1,2.2.2,3.3.4,12.3,2,24.4,8.8,30.5,19.9,0,0,.4.8.4.8l-8.4,5.4h0Z"/>
        <circle class="st0" cx="94.7" cy="148.4" r="28.8"/>
        <g>
          <circle class="st6" cx="94.7" cy="159.9" r="14.9"/>
          <circle class="st8" cx="95.6" cy="160.7" r="7.9"/>
          <circle class="st1" cx="93.6" cy="150.3" r="4.6"/>
          <circle class="st1" cx="89.2" cy="157.2" r="1.9"/>
        </g>
        <circle class="st0" cx="161.6" cy="147" r="30.1"/>
        <g>
          <circle class="st6" cx="161.6" cy="160.6" r="14.9"/>
          <circle class="st8" cx="162" cy="160.5" r="8.7"/>
          <circle class="st1" cx="159.3" cy="150.9" r="4.6"/>
          <circle class="st1" cx="156.9" cy="160.5" r="3.1"/>
        </g>
      </g>
    </g>
  </g>
</svg>