<?xml version="1.0" encoding="UTF-8"?>
<svg id="Layer_1" data-name="Layer 1" xmlns="http://www.w3.org/2000/svg" viewBox="0 0 720 720">
  <defs>
    <style>
      .cls-1 {
        fill: #003;
      }

      .cls-1, .cls-2, .cls-3, .cls-4, .cls-5 {
        stroke-linejoin: round;
        stroke-width: 18.08px;
      }

      .cls-1, .cls-3, .cls-4, .cls-5 {
        stroke: #003;
      }

      .cls-2 {
        stroke: #eee;
      }

      .cls-2, .cls-5 {
        fill: none;
      }

      .cls-3 {
        fill: #6ff;
      }

      .cls-4 {
        fill: #f66;
      }
    </style>
  </defs>
  <path class="cls-2" d="M481.15,116.86c23.8-25.5,63.79-26.88,89.29-3.05,20.39,19.06,21.5,51.02,2.44,71.43-15.24,16.32-40.82,17.2-57.14,1.97-13.07-12.18-13.77-32.66-1.56-45.71,9.74-10.44,26.13-11.01,36.57-1.24,8.36,7.8,8.79,20.91.99,29.25"/>
  <path class="cls-2" d="M175.7,257.26c1.2,34.86-26.1,64.11-60.98,65.29-27.89.94-51.28-20.88-52.24-48.78-.77-22.31,16.7-41.03,39.02-41.8,17.85-.62,32.83,13.36,33.42,31.22.5,14.27-10.69,26.26-24.98,26.74-11.43.4-21-8.57-21.39-19.98"/>
  <g>
    <g>
      <polygon class="cls-5" points="515.44 537.62 244.16 537.62 221.55 334.17 253.2 300.24 253.2 221.13 289.37 221.13 289.37 266.34 379.09 183.9 538.04 334.17 515.44 537.62"/>
      <path class="cls-1" d="M311.66,459.09v-.05c2.22-23.69,31.87-42.45,68.13-42.45s65.94,18.76,68.13,42.45v.05c.09.93.14,1.85.14,2.78,0,15.12-12.25,27.37-27.37,27.37-4.68,0-13.88-3.07-14.33-3.21-8.16-2.28-17.16-3.55-26.58-3.55s-18.4,1.27-26.58,3.55c-.47.14-9.65,3.21-14.33,3.21-15.12,0-27.37-12.25-27.37-27.37,0-.93.07-1.85.14-2.78h.05Z"/>
      <path class="cls-4" d="M420.72,489.22c-4.68,0-13.88-3.07-14.33-3.21-8.16-2.28-17.16-3.55-26.58-3.55s-18.4,1.27-26.58,3.55c-.47.14-9.65,3.21-14.33,3.21-6.35,0-12.16-2.17-16.8-5.81,6.98-19.15,30.18-33.21,57.73-33.21s50.73,14.06,57.73,33.21c-4.63,3.62-10.47,5.79-16.8,5.79l-.05.02Z"/>
      <g>
        <line class="cls-5" x1="471.09" y1="317.42" x2="402.41" y2="378.84"/>
        <line class="cls-5" x1="454.86" y1="383.43" x2="404.29" y2="305.65"/>
      </g>
      <g>
        <line class="cls-5" x1="288.53" y1="317.42" x2="357.2" y2="378.84"/>
        <line class="cls-5" x1="304.76" y1="383.43" x2="355.31" y2="305.65"/>
      </g>
    </g>
    <polyline class="cls-5" points="444.07 537.62 501.15 579.1 528.86 620.58 563.16 592.21"/>
    <polyline class="cls-5" points="316.22 537.62 259.12 579.1 231.43 620.58 197.14 592.21"/>
    <polyline class="cls-5" points="524.43 447.58 561.66 537.62 549.68 549.6"/>
    <line class="cls-5" x1="561.66" y1="537.62" x2="606.87" y2="537.62"/>
    <polyline class="cls-5" points="234.87 447.58 198.34 537.62 210.32 549.6"/>
    <line class="cls-5" x1="198.34" y1="537.62" x2="153.13" y2="537.62"/>
    <circle class="cls-3" cx="228.02" cy="392.04" r="21.97"/>
  </g>
</svg>