<?xml version="1.0" encoding="UTF-8"?>
<svg id="personaje" xmlns="http://www.w3.org/2000/svg" version="1.1" viewBox="0 0 400 300">
  <!-- Generator: Adobe Illustrator 29.3.1, SVG Export Plug-In . SVG Version: 2.1.0 Build 151)  -->
  <defs>
    <style>
      .st0 {
        fill: #eee;
      }

      .st1 {
        fill: #f66;
      }

      .st2 {
        fill: none;
      }

      .st3 {
        fill: #003;
      }

      .st4 {
        fill: #6ff;
      }
    </style>
  </defs>
  <path class="st2" d="M206.4,13.5l-55.1,50.6c-1.7,1.6-4.3,2-6.4,1.1-2.2-1-3.6-3.1-3.6-5.5v-23.9h-11.9v46.2c0,1.5-.6,3-1.6,4.1l-19,20.4,1.8,16c8.5,1.6,15.4,8.6,16.6,17.6.7,5.4-.8,10.8-4.2,15.1-2.2,2.8-4.9,4.9-8.1,6.2l7.9,71.3h168.3l14-126L206.4,13.5ZM142.8,97.9l8-8.9,19.5,17.4,15.6-24,10,6.5-16.6,25.5,16.8,15-8,8.9-15.4-13.8-10.2,15.6-10-6.5,11.2-17.2-20.9-18.7ZM248.8,207.6s0,0-.1.1c-.2.2-.4.3-.6.5-.3.2-.6.4-.9.7-.4.3-.9.5-1.3.8-.2.1-.3.2-.5.3-.6.3-1.3.6-1.9.9-.2,0-.3.1-.5.2-.5.2-1.1.4-1.6.6-.2,0-.4.1-.6.2-.5.2-1,.3-1.6.4-.2,0-.4,0-.7.1-.5.1-1.1.2-1.6.2-.2,0-.4,0-.6,0-.8,0-1.5.1-2.3.1-2.5,0-6.1-.8-11-2.3h-.2c-4.9-1.4-10.3-2.1-15.8-2.1s-2.8,0-4.1.1c-4.1.3-8,.9-11.8,2h0c-4.9,1.6-8.5,2.3-11,2.3s-1.5,0-2.3-.1c-.2,0-.4,0-.6,0-.5,0-1.1-.1-1.6-.2-.2,0-.4,0-.7-.1-.5-.1-1-.2-1.6-.4-.2,0-.4-.1-.6-.2-.5-.2-1.1-.4-1.6-.6-.2,0-.3-.1-.5-.2-.6-.3-1.3-.6-1.9-.9-.2-.1-.4-.2-.6-.4-.4-.2-.9-.5-1.3-.8-.3-.2-.6-.4-.9-.7-.2-.1-.4-.3-.6-.4,0,0,0,0-.1-.1-5.6-4.4-9.2-11.2-9.2-18.8s0-1.5.1-2.4c0,0,0,0,0,0,1.8-19,23.7-33.4,50.9-33.4s49.1,14.3,50.9,33.3c0,0,0,0,0,.1,0,.9.1,1.6.1,2.4,0,7.6-3.6,14.4-9.1,18.8ZM261.5,133.7l-10,6.5-10.2-15.6-15.4,13.8-8-8.9,16.8-15-16.6-25.5,10-6.5,15.6,24,19.5-17.4,8,8.9-20.9,18.7,11.2,17.2Z"/>
  <path class="st3" d="M257.9,186.2c-1.8-19-23.7-33.3-50.9-33.3s-49.1,14.3-50.9,33.4c0,0,0,0,0,0,0,.9-.1,1.6-.1,2.4,0,7.6,3.6,14.4,9.2,18.8,0,0,0,0,.1.1.2.2.4.3.6.4.3.2.6.5.9.7.4.3.8.5,1.3.8.2.1.4.2.6.4.6.3,1.2.6,1.9.9.2,0,.3.1.5.2.5.2,1,.4,1.6.6.2,0,.4.1.6.2.5.2,1,.3,1.6.4.2,0,.4,0,.7.1.5.1,1.1.2,1.6.2.2,0,.4,0,.6,0,.8,0,1.5.1,2.3.1,2.5,0,6.1-.8,11-2.3h0c3.8-1.1,7.7-1.7,11.8-2,1.4,0,2.7-.1,4.1-.1,5.5,0,10.9.7,15.8,2.1h.2c4.9,1.6,8.5,2.4,11,2.4s1.5,0,2.3-.1c.2,0,.4,0,.6,0,.5,0,1.1-.1,1.6-.2.2,0,.4,0,.7-.1.5-.1,1-.2,1.6-.4.2,0,.4-.1.6-.2.5-.2,1.1-.4,1.6-.6.2,0,.3-.1.5-.2.7-.3,1.3-.6,1.9-.9.2,0,.4-.2.5-.3.4-.3.9-.5,1.3-.8.3-.2.6-.4.9-.7.2-.2.4-.3.6-.5,0,0,0,0,.1-.1,5.6-4.4,9.1-11.2,9.1-18.8s0-1.5-.1-2.4c0,0,0,0,0-.1ZM226.1,198.9c-6.1-1.7-12.5-2.6-19.1-2.6s-3.3,0-4.9.2c-4.9.3-9.7,1.1-14.2,2.4,0,0-.2,0-.4.1-5.4,1.7-7.2,1.8-7.4,1.8-1.1,0-2.1-.1-3.1-.4,5.6-8.1,17.1-13.4,30.1-13.4s24.5,5.3,30.1,13.4c-1,.3-2,.4-3.1.4s-2,0-7.4-1.8c-.2,0-.4-.1-.4-.1Z"/>
  <path class="st1" d="M237.1,200.4c-5.6-8.1-17.1-13.4-30.1-13.4s-24.5,5.3-30.1,13.4c1,.3,2,.4,3.1.4s2,0,7.4-1.8c.2,0,.4-.1.4-.1,4.6-1.3,9.3-2.1,14.2-2.4s3.3-.2,4.9-.2c6.6,0,13.1.9,19.1,2.6,0,0,.2,0,.4.1,5.4,1.7,7.2,1.8,7.4,1.8,1.1,0,2.1-.1,3.1-.4Z"/>
  <polygon class="st3" points="263.2 89 243.7 106.4 228.1 82.4 218.1 88.9 234.7 114.5 217.9 129.5 225.9 138.4 241.3 124.6 251.5 140.2 261.5 133.7 250.3 116.6 271.2 97.9 263.2 89"/>
  <polygon class="st3" points="162.5 140.2 172.6 124.6 188.1 138.4 196 129.5 179.2 114.5 195.8 88.9 185.8 82.4 170.2 106.4 150.7 89 142.8 97.9 163.6 116.6 152.5 133.7 162.5 140.2"/>
  <path class="st3" d="M309,179.7l8.3-74.6c.2-1.9-.5-3.7-1.8-5L210.6,1c-2.3-2.2-5.8-2.2-8.1,0l-49.2,45.2v-16.2c0-3.3-2.7-6-6-6h-23.9c-3.3,0-6,2.7-6,6v49.8l-19.3,20.7c-1.2,1.3-1.8,3-1.6,4.7l2.1,18.7c-8.1,3.5-13.3,12.1-12.2,21.3h0c1.1,9,8,16,16.5,17.6l1.8,16.6-21.7,53.4h-25.8v11.9h27.4l6.2,6.2,8.4-8.4-5.1-5.1,13.4-33,3.9,35.1c.3,3,2.9,5.3,5.9,5.3h29.2l-22.8,16.6c-.6.4-1.1.9-1.5,1.5l-14.6,21.9-17.5-14.5-7.6,9.2,22.6,18.7c1.1.9,2.4,1.4,3.8,1.4s.6,0,.9,0c1.7-.2,3.2-1.2,4.1-2.6l17.7-26.5,35.2-25.6h80.5l35.2,25.6,17.7,26.5c.9,1.4,2.4,2.3,4.1,2.6.3,0,.6,0,.9,0,1.4,0,2.7-.5,3.8-1.4l22.6-18.7-7.6-9.2-17.5,14.5-14.6-21.9c-.4-.6-.9-1.1-1.5-1.5l-22.8-16.6h28.7c3,0,5.6-2.3,5.9-5.3l3.9-35,13.6,33-5.1,5.1,8.4,8.4,6.2-6.2h27.4v-11.9h-25.8l-21.9-53ZM98.4,143.7c-.6-4.7,2.8-8.9,7.4-9.5,4.7-.6,8.9,2.8,9.5,7.4.3,2.3-.3,4.5-1.7,6.3-1.4,1.8-3.4,2.9-5.7,3.2-4.7.6-8.9-2.8-9.5-7.4ZM291.1,232.7H122.8l-7.9-71.3c3.1-1.3,5.9-3.4,8.1-6.2,3.4-4.3,4.8-9.7,4.2-15.1-1.1-9.1-8-16-16.6-17.6l-1.8-16,19-20.4c1-1.1,1.6-2.6,1.6-4.1v-46.2h11.9v23.9c0,2.4,1.4,4.5,3.6,5.5,2.2,1,4.7.5,6.4-1.1l55.1-50.6,98.7,93.3-14,126Z"/>
  <path class="st0" d="M400,50.2c-.4-10.5-4.8-20.2-12.5-27.4-9.3-8.7-21.5-13.2-34.1-12.8-12.7.4-24.5,5.8-33.2,15.1l8.7,8.1c6.5-7,15.3-11,24.9-11.3,9.5-.3,18.6,3.1,25.6,9.6,5.3,5,8.4,11.8,8.7,19.1.3,7.3-2.4,14.3-7.4,19.6-7.8,8.3-20.9,8.8-29.3,1-6.2-5.8-6.5-15.5-.7-21.7,2-2.2,4.8-3.4,7.7-3.5,3-.1,5.8,1,8,3,1.5,1.4,2.4,3.3,2.4,5.4,0,2.1-.7,4-2.1,5.5l8.7,8.1c3.6-3.8,5.4-8.8,5.3-14.1-.2-5.2-2.4-10.1-6.2-13.7-9.3-8.7-23.9-8.2-32.6,1.1-10.3,11-9.7,28.3,1.3,38.6,6.1,5.7,14,8.8,22.2,8.8.4,0,.8,0,1.1,0,8.7-.3,16.8-4,22.7-10.3,7.2-7.7,10.9-17.7,10.6-28.2Z"/>
  <path class="st0" d="M79.8,104.6l-8.7-8.1c-6.5,7-15.3,11-24.9,11.3-9.5.3-18.6-3.1-25.6-9.6-5.3-5-8.4-11.8-8.7-19.1-.3-7.3,2.4-14.3,7.4-19.6,7.8-8.3,20.9-8.8,29.3-1,6.2,5.8,6.5,15.5.7,21.7-4.2,4.5-11.2,4.7-15.7.5-1.5-1.4-2.4-3.3-2.4-5.4,0-2.1.7-4,2.1-5.5l-8.7-8.1c-3.6,3.8-5.4,8.8-5.3,14.1.2,5.2,2.4,10.1,6.2,13.7,9.3,8.7,23.9,8.2,32.6-1.1,10.3-11,9.7-28.3-1.3-38.6-6.4-5.9-14.7-9.1-23.4-8.8-8.7.3-16.8,4-22.7,10.3-14.8,15.8-13.9,40.8,1.9,55.6,8.9,8.3,20.4,12.8,32.5,12.8s1.1,0,1.7,0c12.7-.4,24.5-5.8,33.2-15.1Z"/>
  <path class="st4" d="M107.9,151.1c2.3-.3,4.3-1.4,5.7-3.2,1.4-1.8,2-4,1.7-6.3-.6-4.7-4.9-8-9.5-7.4-4.7.6-8,4.8-7.4,9.5.6,4.7,4.8,8,9.5,7.4Z"/>
</svg>