<svg id="Capa_1" enable-background="new 0 0 512.042 512.042" height="512" viewBox="0 0 512.042 512.042" width="512" xmlns="http://www.w3.org/2000/svg"><g><path d="m.021 512h330v-512h-330v512zm30-482h270v452h-270z"/><path d="m210.021 211h60v30h-60z"/><path d="m210.021 271h60v30h-60z"/><path d="m210.021 361h60v30h-60z"/><path d="m210.021 421h60v30h-60z"/><path d="m75.021 307.213 30-30 30 30 21.213-21.213-30-30 30-30-21.213-21.213-30 30-30-30-21.213 21.213 30 30-30 30z"/><path d="m105.021 414.787-30-30-21.213 21.213 51.213 51.213 66.213-66.213-21.213-21.213z"/><path d="m60.021 151h210v-90h-210zm30-60h150v30h-150z"/><path d="m467.021 121h-15v-45c0-19.555-12.541-36.228-30-42.42v-33.58h-30v33.58c-17.459 6.192-30 22.865-30 42.42v277.918c0 45.839 10.331 88.784 31.584 131.29l13.416 26.833 13.416-26.833c21.253-42.506 31.584-85.451 31.584-131.29 0-9.832 0-192.833 0-202.918h15c8.271 0 15 6.729 15 15v135h30v-135c0-24.813-20.187-45-45-45zm-75-45c0-8.271 6.729-15 15-15s15 6.729 15 15v45h-30zm30 277.918c0 29.918-4.932 58.5-15 86.599-10.068-28.099-15-56.681-15-86.599v-22.918h30zm0-52.918h-30v-150h30z"/></g></svg>