<?xml version="1.0" encoding="UTF-8"?>
<svg id="Layer_1" data-name="Layer 1" xmlns="http://www.w3.org/2000/svg" xmlns:xlink="http://www.w3.org/1999/xlink" viewBox="0 0 1080 400">
  <defs>
    <style>
      .cls-1 {
        fill: none;
      }

      .cls-2 {
        fill: #003;
      }

      .cls-3 {
        fill: #6ff;
      }

      .cls-4 {
        clip-path: url(#clippath);
      }
    </style>
    <clipPath id="clippath">
      <path class="cls-1" d="M-759.11-62.41h398.21c88.8,0,160.89,72.09,160.89,160.89v398.21c0,88.8-72.09,160.89-160.89,160.89h-398.21c-88.8,0-160.89-72.09-160.89-160.89V98.48c0-88.8,72.09-160.89,160.89-160.89Z"/>
    </clipPath>
  </defs>
  <g class="cls-4">
    <path class="cls-2" d="M34.19,248.79L-365.01,1.69l-173.96,106.05v-55.97h-115.65v126.47l-115.31,70.3v85.73c-43.85,22.07-74.02,67.48-74.02,119.82s31.38,99.59,76.66,121.14v401.4h111.18v-399.74c47.24-20.76,80.33-67.98,80.33-122.8s-32.24-100.81-78.51-121.98v-18.63l288.81-176.06L-81.45,313.22v663.42H34.19V248.79Z"/>
  </g>
  <g>
    <rect class="cls-1" width="1080" height="400"/>
    <g>
      <g>
        <path class="cls-2" d="M831.66,218.43c-18.87,0-35.26,8.94-41.47,21.36h-.5v-18.87h-35.26v130.37h35.26v-78.72c0-16.89,12.66-28.06,28.31-28.06s26.57,10.93,26.57,27.81v78.97h35.26v-84.93c0-27.56-19.62-47.93-48.18-47.93Z"/>
        <path class="cls-2" d="M988.35,264.87l51.65-43.95h-49.17l-48.81,42.71V122.06l-125.72-77.82-54.79,33.4v-17.63h-36.42v39.83l-36.32,22.14v27c-13.81,6.95-23.31,21.25-23.31,37.74s9.88,31.37,24.14,38.15v126.41h35.01v-125.89c14.88-6.54,25.3-21.41,25.3-38.68s-10.15-31.75-24.73-38.42v-5.87l90.96-55.45,89.45,55.37v208.93h36.42v-45.44l20.75-17.88c7.7,32.03,34.02,65.81,75.99,65.81v-36.75c-23.59,1.99-43.46-24.34-50.41-52.15Z"/>
        <path class="cls-2" d="M113.75,326.45c-22.35,0-37.75-17.38-37.75-41.72s13.41-40.97,35.26-40.97c15.89,0,28.31,9.69,29.55,20.36l30.79-3.97c-1.74-24.34-21.85-43.71-58.85-43.71-44.45,0-72.76,28.31-72.76,69.28s28.31,70.03,73.51,70.03c30.79,0,52.65-15.15,58.85-37.25l-31.79-8.44c-2.73,9.44-12.66,16.39-26.82,16.39Z"/>
        <path class="cls-2" d="M313.16,263.13c0-13.41-6.46-24.83-17.69-32.9-11.24-8.07-27.25-12.79-46.38-12.79-13.78,0-26.57,3.6-37.09,9.34-10.52,5.74-18.78,13.63-23.5,22.19l13.04,8.32,13.04,8.32c2.36-4.47,6.95-8.94,13.16-12.29,6.21-3.35,14.03-5.59,22.85-5.59,8.19,0,15.21,2.05,20.18,5.31s7.88,7.73,7.88,12.57v3.97c-3.23,10.31-26.45,9.5-48.86,12.63-22.41,3.14-44.02,10.21-44.02,36.29,0,11.42,4.1,20.49,11.58,26.69,7.48,6.21,18.35,9.56,31.88,9.56,12.29,0,23.22-2.73,31.69-6.92,8.47-4.19,14.5-9.84,16.98-15.68h.5c.25,2.73.62,6.02,1.43,9.38.81,3.35,2.05,6.77,4.04,9.75h34.27c-1.61-3.1-2.86-6.52-3.69-10.34-.84-3.82-1.27-8.04-1.27-12.76v-65.06ZM278.39,299.38c0,7.7-4.66,15.46-11.61,21.29s-16.2,9.75-25.39,9.75c-6.08,0-11.11-1.74-14.62-4.56s-5.49-6.74-5.49-11.08c0-9.69,9.93-13.04,22.04-15.02,12.11-1.99,26.39-2.61,35.08-6.83v6.46Z"/>
        <path class="cls-2" d="M367.29,259.16c0-4.72,2.98-8.57,7.54-11.24,4.56-2.67,10.71-4.16,17.04-4.16,7.82,0,14.84,2.23,20.05,5.93,5.21,3.69,8.63,8.85,9.25,14.68l15.27-1.99,15.27-1.99c-.87-12.54-6.39-23.53-16.2-31.38-9.81-7.85-23.9-12.57-41.91-12.57s-32.84,4.53-43.49,12.57c-10.65,8.04-16.86,19.59-16.86,33.62,0,26.45,21.98,33.28,43.95,36.38,21.98,3.1,43.95,2.48,43.95,14.03,0,4.47-3.04,8.26-7.92,10.93-4.87,2.67-11.58,4.22-18.9,4.22-9.19,0-17.45-2.55-23.68-6.89-6.24-4.35-10.46-10.49-11.58-17.69l-14.9,2.11-14.9,2.11c.99,13.29,7.33,25.27,18.44,33.93,11.11,8.66,27.01,14,47.12,14,18.25,0,33.4-4.41,43.99-12.29,10.58-7.88,16.61-19.25,16.61-33.15,0-26.45-22.04-33.03-44.08-36.1-22.04-3.07-44.08-2.64-44.08-15.05Z"/>
        <path class="cls-2" d="M592.27,263.13c0-13.41-6.46-24.83-17.69-32.9-11.24-8.07-27.25-12.79-46.38-12.79-13.78,0-26.57,3.6-37.09,9.34-10.52,5.74-18.78,13.63-23.5,22.19l13.04,8.32,13.04,8.32c2.36-4.47,6.95-8.94,13.16-12.29s14.03-5.59,22.85-5.59c8.19,0,15.21,2.05,20.18,5.31,4.97,3.26,7.88,7.73,7.88,12.57v3.97c-3.23,10.31-26.45,9.5-48.86,12.63-22.41,3.14-44.02,10.21-44.02,36.29,0,11.42,4.1,20.49,11.58,26.69,7.48,6.21,18.35,9.56,31.88,9.56,12.29,0,23.22-2.73,31.69-6.92,8.47-4.19,14.5-9.84,16.98-15.68h.5c.25,2.73.62,6.02,1.43,9.38.81,3.35,2.05,6.77,4.04,9.75h34.27c-1.61-3.1-2.86-6.52-3.69-10.34s-1.27-8.04-1.27-12.76v-65.06ZM557.51,299.38c0,7.7-4.66,15.46-11.61,21.29-6.95,5.84-16.2,9.75-25.39,9.75-6.08,0-11.11-1.74-14.62-4.56s-5.49-6.74-5.49-11.08c0-9.69,9.93-13.04,22.04-15.02,12.11-1.99,26.39-2.61,35.08-6.83v6.46Z"/>
        <path class="cls-2" d="M815.4,169.32c12.1,0,21.91-9.81,21.91-21.91s-9.81-21.91-21.91-21.91-21.91,9.81-21.91,21.91,9.81,21.91,21.91,21.91Z"/>
        <polygon class="cls-2" points="655.09 142.52 618.67 164.72 618.67 351.29 655.09 351.29 655.09 351.29 655.1 351.29 655.1 165.04 655.09 165.04 655.09 142.52"/>
      </g>
      <circle class="cls-3" cx="707.7" cy="186.72" r="17.4"/>
    </g>
  </g>
</svg>