<?xml version="1.0" encoding="UTF-8"?>
<svg id="Layer_1" data-name="Layer 1" xmlns="http://www.w3.org/2000/svg" xmlns:xlink="http://www.w3.org/1999/xlink" viewBox="0 0 1080 400">
  <defs>
    <style>
      .cls-1 {
        fill: none;
      }

      .cls-2 {
        fill: #3d3d40;
      }

      .cls-3 {
        fill: #003;
      }

      .cls-4 {
        clip-path: url(#clippath);
      }
    </style>
    <clipPath id="clippath">
      <path class="cls-1" d="M-759.11-962.42h398.21c88.8,0,160.89,72.09,160.89,160.89v398.21c0,88.8-72.09,160.89-160.89,160.89h-398.21c-88.8,0-160.89-72.09-160.89-160.89v-398.21c0-88.8,72.09-160.89,160.89-160.89Z"/>
    </clipPath>
  </defs>
  <g class="cls-4">
    <path class="cls-3" d="M34.19-651.21l-399.2-247.1-173.96,106.05v-55.97h-115.65v126.47l-115.31,70.3v85.73c-43.85,22.07-74.02,67.48-74.02,119.82s31.38,99.59,76.66,121.14V76.63h111.18v-399.74c47.24-20.76,80.33-67.98,80.33-122.8s-32.24-100.81-78.51-121.98v-18.63l288.81-176.06,284.02,175.81V76.63H34.19v-727.84Z"/>
  </g>
  <g>
    <rect class="cls-1" width="1080" height="400"/>
    <path class="cls-2" d="M140.57,310.06l31.79,8.44c-6.21,22.1-28.06,37.25-58.85,37.25-45.2,0-73.51-29.05-73.51-70.03s28.31-69.28,72.76-69.28c37,0,57.12,19.37,58.85,43.71l-30.79,3.97c-1.24-10.68-13.66-20.36-29.55-20.36-21.85,0-35.26,17.88-35.26,40.97,0,24.34,15.4,41.72,37.75,41.72,14.15,0,24.09-6.95,26.82-16.39ZM367.29,259.16c0-4.72,2.98-8.57,7.54-11.24s10.71-4.16,17.04-4.16c7.82,0,14.84,2.23,20.05,5.93,5.21,3.69,8.63,8.85,9.25,14.68l15.27-1.99,15.27-1.99c-.87-12.54-6.39-23.53-16.2-31.38-9.81-7.85-23.9-12.57-41.91-12.57s-32.84,4.53-43.49,12.57c-10.65,8.04-16.86,19.59-16.86,33.62,0,26.45,21.98,33.28,43.95,36.38,21.98,3.1,43.95,2.48,43.95,14.03,0,4.47-3.04,8.26-7.92,10.93-4.87,2.67-11.58,4.22-18.9,4.22-9.19,0-17.45-2.55-23.68-6.89-6.24-4.35-10.46-10.49-11.58-17.69l-14.9,2.11-14.9,2.11c.99,13.29,7.33,25.27,18.44,33.93,11.11,8.66,27.01,14,47.12,14,18.25,0,33.4-4.41,43.99-12.29,10.58-7.88,16.61-19.25,16.61-33.15,0-26.45-22.04-33.03-44.08-36.1-22.04-3.07-44.08-2.64-44.08-15.05ZM313.16,328.19c0,4.72.43,8.94,1.27,12.76.84,3.82,2.08,7.23,3.69,10.34h-34.27c-1.99-2.98-3.23-6.39-4.04-9.75s-1.18-6.64-1.43-9.38h-.5c-2.48,5.84-8.51,11.49-16.98,15.68-8.47,4.19-19.4,6.92-31.69,6.92-13.53,0-24.4-3.35-31.88-9.56-7.48-6.21-11.58-15.27-11.58-26.69,0-26.07,21.6-33.15,44.02-36.29,22.41-3.14,45.63-2.33,48.86-12.63v-3.97c0-4.84-2.92-9.31-7.88-12.57-4.97-3.26-11.98-5.31-20.18-5.31-8.82,0-16.64,2.23-22.85,5.59-6.21,3.35-10.8,7.82-13.16,12.29l-13.04-8.32-13.04-8.32c4.72-8.57,12.98-16.45,23.5-22.19,10.52-5.74,23.31-9.34,37.09-9.34,19.12,0,35.14,4.72,46.38,12.79,11.24,8.07,17.69,19.49,17.69,32.9v65.06ZM278.39,292.93c-8.69,4.22-22.97,4.84-35.08,6.83-12.11,1.99-22.04,5.34-22.04,15.02,0,4.35,1.99,8.26,5.49,11.08,3.51,2.82,8.54,4.56,14.62,4.56,9.19,0,18.44-3.91,25.39-9.75,6.95-5.84,11.61-13.6,11.61-21.29v-6.46ZM655.09,142.52l-36.42,22.2v186.57h36.43v-186.25h0v-22.52ZM592.27,328.19c0,4.72.43,8.94,1.27,12.76s2.08,7.23,3.69,10.34h-34.27c-1.99-2.98-3.23-6.39-4.04-9.75-.81-3.35-1.18-6.64-1.43-9.38h-.5c-2.48,5.84-8.51,11.49-16.98,15.68-8.47,4.19-19.4,6.92-31.69,6.92-13.53,0-24.4-3.35-31.88-9.56-7.48-6.21-11.58-15.27-11.58-26.69,0-26.07,21.6-33.15,44.02-36.29,22.41-3.14,45.63-2.33,48.86-12.63v-3.97c0-4.84-2.92-9.31-7.88-12.57-4.97-3.26-11.98-5.31-20.18-5.31-8.82,0-16.64,2.23-22.85,5.59-6.21,3.35-10.8,7.82-13.16,12.29l-13.04-8.32-13.04-8.32c4.72-8.57,12.98-16.45,23.5-22.19,10.52-5.74,23.31-9.34,37.09-9.34,19.12,0,35.14,4.72,46.38,12.79,11.24,8.07,17.69,19.49,17.69,32.9v65.06ZM557.51,292.93c-8.69,4.22-22.97,4.84-35.08,6.83-12.11,1.99-22.04,5.34-22.04,15.02,0,4.35,1.99,8.26,5.49,11.08,3.51,2.82,8.54,4.56,14.62,4.56,9.19,0,18.44-3.91,25.39-9.75s11.61-13.6,11.61-21.29v-6.46ZM1038.76,317.02v36.75c-41.97,0-68.29-33.77-75.99-65.81l-20.75,17.88v45.44h-36.42v-208.93l-89.45-55.37-90.96,55.45v5.87c14.57,6.67,24.73,21.37,24.73,38.42s-10.42,32.14-25.3,38.67v125.89h-35.01v-126.42c-14.26-6.79-24.14-21.33-24.14-38.15s9.5-30.79,23.31-37.74v-27l36.32-22.14v-39.83h36.42v17.63l54.79-33.4,125.72,77.82v141.56l48.81-42.71h49.17l-51.65,43.95c6.95,27.81,26.82,54.14,50.41,52.15ZM725.09,186.72c0-9.61-7.79-17.4-17.4-17.4s-17.4,7.79-17.4,17.4,7.79,17.4,17.4,17.4,17.4-7.79,17.4-17.4ZM815.4,169.32c12.1,0,21.91-9.81,21.91-21.91s-9.81-21.91-21.91-21.91-21.91,9.81-21.91,21.91,9.81,21.91,21.91,21.91ZM831.66,218.43c-18.87,0-35.26,8.94-41.47,21.36h-.5v-18.87h-35.26v130.37h35.26v-78.72c0-16.89,12.66-28.06,28.31-28.06s26.57,10.93,26.57,27.81v78.97h35.26v-84.93c0-27.56-19.62-47.93-48.18-47.93Z"/>
  </g>
</svg>