<svg xmlns="http://www.w3.org/2000/svg" width="87.538" height="106.207" viewBox="0 0 87.538 106.207"><path d="M109.9,0H45V106.207h87.538V22.635Zm1.823,10.623,10.189,10.189H111.725Zm-60.5,89.36V6.223H105.5V27.036h20.813V99.984Z" transform="translate(-45)"/><path d="M195,202h43.976v6.223H195Z" transform="translate(-163.885 -160.098)"/><path d="M105,202h12.446v6.223H105Z" transform="translate(-92.554 -160.098)"/><path d="M105,262.333h43.976v6.223H105Z" transform="translate(-92.554 -207.916)"/><path d="M347,262.333h12.446v6.223H347Z" transform="translate(-284.355 -207.916)"/><path d="M105,322.667h62.645v6.223H105Z" transform="translate(-92.554 -255.734)"/><path d="M286,383h25.1v6.223H286Z" transform="translate(-236.008 -303.552)"/><path d="M139.674,83.2l.535.093.535-.093a11.908,11.908,0,0,0,9.88-11.752V64.107l-1.078-.931a15.309,15.309,0,0,0-18.673,0l-1.078.931V71.45A11.908,11.908,0,0,0,139.674,83.2ZM136.018,67.22a9.308,9.308,0,0,1,8.383,0v4.23a5.7,5.7,0,0,1-4.191,5.5,5.7,5.7,0,0,1-4.191-5.5Z" transform="translate(-112.206 -47.554)"/></svg>