<svg xmlns="http://www.w3.org/2000/svg" width="121" height="112.487" viewBox="0 0 121 112.487"><g transform="translate(14843.269 7243.065)"><path d="M119.952,52.22a36.622,36.622,0,0,0-10.225-23.9A32.291,32.291,0,0,0,86.781,18.3h-.03a29,29,0,0,0-19.739,7.823A43.6,43.6,0,0,0,60,34.259a43.6,43.6,0,0,0-7.012-8.138A29,29,0,0,0,33.25,18.3h-.03A32.294,32.294,0,0,0,10.274,28.319,36.618,36.618,0,0,0,.049,52.216C-.527,64.3,4,77.97,12.81,90.7c10.207,14.758,25.961,27.958,45.558,38.173l1.625.847,1.625-.847c19.6-10.215,35.355-23.415,45.565-38.173,8.809-12.731,13.343-26.4,12.768-38.482ZM101.4,86.7c-9.283,13.416-23.576,25.519-41.408,35.079-17.831-9.56-32.121-21.662-41.4-35.079C10.661,75.233,6.569,63.1,7.073,52.548c.707-15.14,12.209-27.092,26.19-27.218C45.14,25.336,52.671,34.8,56.9,42.735L60,48.563l3.1-5.827c4.227-7.938,11.758-17.4,23.635-17.406,13.981.126,25.483,12.079,26.19,27.219C113.431,63.1,109.338,75.231,101.4,86.7Z" transform="translate(-14842.769 -7260.863)"/><path d="M33.218,17.8h.032a29.486,29.486,0,0,1,20.072,7.95A43.728,43.728,0,0,1,60,33.376a43.731,43.731,0,0,1,6.679-7.628A29.484,29.484,0,0,1,86.751,17.8h.03a32.79,32.79,0,0,1,23.3,10.172A37.121,37.121,0,0,1,120.451,52.2c.58,12.193-3.986,25.969-12.857,38.789-10.257,14.824-26.075,28.079-45.745,38.332l-1.856.967-1.856-.968C38.468,119.065,22.652,105.81,12.4,90.985,3.532,78.165-1.031,64.388-.45,52.193A37.114,37.114,0,0,1,9.915,27.97,32.79,32.79,0,0,1,33.216,17.8ZM59.993,129.157l1.394-.727c19.527-10.178,35.221-23.323,45.385-38.014,8.747-12.641,13.25-26.2,12.68-38.173a36.123,36.123,0,0,0-10.084-23.575A31.8,31.8,0,0,0,86.776,18.8h-.025a28.513,28.513,0,0,0-19.406,7.7,43.208,43.208,0,0,0-6.931,8.045L60,35.151l-.414-.612a43.212,43.212,0,0,0-6.931-8.045A28.514,28.514,0,0,0,33.25,18.8h-.027a31.8,31.8,0,0,0-22.59,9.87A36.116,36.116,0,0,0,.549,52.24C-.022,64.218,4.478,77.776,13.221,90.416c10.161,14.692,25.853,27.837,45.378,38.014ZM86.738,24.829c14.249.129,25.97,12.294,26.69,27.7.508,10.663-3.617,22.9-11.616,34.461C92.5,100.445,78.12,112.629,60.229,122.22l-.236.127-.236-.127c-17.89-9.591-32.266-21.775-41.575-35.235C10.187,75.427,6.065,63.189,6.573,52.524c.72-15.4,12.441-27.566,26.685-27.695,12.13.007,19.79,9.614,24.081,17.671L60,47.5l2.662-5C66.953,34.443,74.612,24.836,86.738,24.829ZM59.993,121.212c17.641-9.5,31.815-21.526,41-34.8,7.874-11.38,11.937-23.4,11.439-33.844-.695-14.872-11.982-26.619-25.7-26.743-11.625.007-19.027,9.325-23.189,17.141L60,49.626,56.456,42.97c-4.162-7.816-11.564-17.134-23.194-17.141-13.709.124-25,11.87-25.69,26.742C7.074,63.018,11.134,75.038,19,86.417,28.182,99.687,42.352,111.715,59.993,121.212Z" transform="translate(-14842.769 -7260.863)" fill="#707070"/></g></svg>