<svg id="Capa_1" enable-background="new 0 0 512.367 512.367" height="512" viewBox="0 0 512.367 512.367" width="512" xmlns="http://www.w3.org/2000/svg"><g><path d="m320.741 0-320.741 320.741 191.626 191.626 320.741-320.741zm-85.431 414.629c-24.087-24.085-63.28-24.087-87.367 0l-5.814 5.815-50.205-50.205 5.815-5.814c24.086-24.087 24.086-63.28 0-87.367l-5.815-5.814 179.32-179.32 5.814 5.815c12.044 12.043 27.863 18.064 43.684 18.064 15.819 0 31.641-6.021 43.684-18.064l5.814-5.815 50.205 50.205-5.815 5.814c-24.086 24.087-24.086 63.28 0 87.367l5.815 5.814-179.32 179.32zm200.532-200.532c-12.39-12.391-12.39-32.551 0-44.941l5.815-5.814 28.285 28.285-28.285 28.285zm-86.816-143.386-5.814 5.815c-12.392 12.389-32.552 12.39-44.941 0l-5.814-5.815 28.285-28.285zm-278.315 221.745 5.815 5.814c12.39 12.391 12.39 32.551 0 44.941l-5.815 5.814-28.285-28.285zm92.63 149.2 5.814-5.815c12.391-12.39 32.551-12.391 44.941 0l5.814 5.815-28.285 28.285z"/><path d="m202.797 202.797c-29.437 29.438-29.437 77.336 0 106.773 14.719 14.719 34.053 22.077 53.387 22.077s38.668-7.358 53.387-22.077c29.437-29.438 29.437-77.336 0-106.773-29.438-29.438-77.337-29.438-106.774 0zm85.56 85.56c-17.74 17.739-46.607 17.739-64.348 0-17.739-17.74-17.739-46.607 0-64.348 8.87-8.87 20.522-13.305 32.174-13.305s23.304 4.435 32.174 13.305c17.74 17.741 17.74 46.608 0 64.348z"/><path d="m155.06 327.308h30v30h-30z" transform="matrix(.707 -.707 .707 .707 -192.239 220.51)"/><path d="m327.308 155.06h30v30h-30z" transform="matrix(.707 -.707 .707 .707 -19.991 291.857)"/></g></svg>