<svg xmlns="http://www.w3.org/2000/svg" width="120" height="119.988" viewBox="0 0 120 119.988"><path d="M60,180.025H95.153v7.031H60Z" transform="translate(-45.939 -137.842)"/><path d="M90,120.025h7.031v7.031H90Z" transform="translate(-68.908 -91.903)"/><path d="M150,120.025h7.031v7.031H150Z" transform="translate(-114.847 -91.903)"/><path d="M150,60.025h7.031v7.031H150Z" transform="translate(-114.847 -45.964)"/><path d="M90,60.025h7.031v7.031H90Z" transform="translate(-68.908 -45.964)"/><path d="M63.275,28.147H56.244V.025H7.031V28.147H0V84.626H63.275ZM42.183,77.6H35.153V63.3h7.031Zm-14.061,0H21.092V63.3h7.031Zm28.122,0H49.214V56.269H14.061V77.6H7.031V35.178h7.031V7.056H49.214V35.178h7.031Z" transform="translate(0 -0.025)"/><path d="M269.95,297.789h7.042v21.326h42.652V297.789h7.042l-28.368-37.72Zm42.664,14.3H284.023V290.774l14.3-19.008,14.3,19.008Z" transform="translate(-206.687 -199.127)"/><path d="M120,391.025v28.357h35.153v-7.031H127.031V391.025Z" transform="translate(-91.878 -299.393)"/><path d="M317.811,148.147h7.031V120.025H300v7.031h17.811Z" transform="translate(-229.695 -91.903)"/></svg>