<svg xmlns="http://www.w3.org/2000/svg" width="108.988" height="104.118" viewBox="0 0 108.988 104.118"><path d="M0,33.86v78.9H87.249l21.739,25.213V33.86Zm102.592,86.472L90,105.723H6.4V40.9h96.2Z" transform="translate(0 -33.86)"/><path d="M70.574,129.534v15.35H64.547v7.041h47.61v-7.041h-6.092v-15.4L110.212,133l4.555-5.37L102.827,117.5V104.7H95.786v6.821l-7.434-6.305L61.937,127.627,66.492,133Zm28.45-6.027v21.377H91.66V135.85H84.619v9.034h-7V123.561l10.736-9.107Z" transform="translate(-47.422 -88.102)"/><path d="M308.649,97.025h27.026v7.041H308.649Z" transform="translate(-244.875 -82.222)"/><path d="M340.4,157.121h19.584v7.041H340.4Z" transform="translate(-269.37 -128.235)"/><path d="M340.4,217.217h19.584v7.041H340.4Z" transform="translate(-269.37 -174.247)"/><path d="M340.4,277.313h19.584v7.041H340.4Z" transform="translate(-269.37 -220.259)"/></svg>