<?xml version="1.0" encoding="UTF-8"?>
<svg id="Layer_1" xmlns="http://www.w3.org/2000/svg" version="1.1" xmlns:xlink="http://www.w3.org/1999/xlink" viewBox="0 0 1000 1100">
  <!-- Generator: Adobe Illustrator 29.3.0, SVG Export Plug-In . SVG Version: 2.1.0 Build 146)  -->
  <defs>
    <style>
      .st0, .st1, .st2, .st3, .st4 {
        fill: #6f6f6f;
      }

      .st5 {
        stroke-width: .9px;
      }

      .st5, .st6, .st7 {
        fill: none;
      }

      .st5, .st7 {
        stroke: #9b9ca4;
      }

      .st1, .st8, .st9, .st2, .st10, .st11, .st12, .st3, .st13, .st14, .st4, .st15, .st16, .st17 {
        isolation: isolate;
      }

      .st1, .st9, .st11, .st12, .st14, .st4 {
        font-size: 13px;
      }

      .st1, .st12, .st3, .st15, .st16, .st18 {
        font-family: OpenSans, 'Open Sans';
      }

      .st8, .st9, .st2, .st10, .st11, .st14, .st4, .st17 {
        font-family: OpenSans-Bold, 'Open Sans';
        font-weight: 700;
      }

      .st8, .st9, .st12, .st16 {
        fill: #999;
      }

      .st8, .st2, .st10, .st3, .st16, .st17 {
        font-size: 11.7px;
      }

      .st19 {
        fill: #6ff;
      }

      .st10 {
        fill: #202040;
      }

      .st11, .st20 {
        fill: #003;
      }

      .st21 {
        fill: #f66;
      }

      .st22 {
        clip-path: url(#clippath-1);
      }

      .st23 {
        fill: #f2f2f2;
      }

      .st14 {
        fill: #fff;
      }

      .st24 {
        fill: #eee;
      }

      .st15 {
        font-size: 14px;
      }

      .st25 {
        fill: #dedede;
      }

      .st17 {
        fill: #eee;
      }

      .st18 {
        font-size: 12.6px;
      }

      .st26 {
        clip-path: url(#clippath);
      }
    </style>
    <clipPath id="clippath">
      <rect class="st6" x="698.8" y="987.9" width="217" height="80.4"/>
    </clipPath>
    <clipPath id="clippath-1">
      <rect class="st6" x="698.8" y="987.9" width="217" height="80.4"/>
    </clipPath>
  </defs>
  <g>
    <path class="st7" d="M-619.9,64.8h78.4c6.7,0,10,3.3,10,10v182c0,6.7,3.3,10,10,10h22.5-22.5c-6.7,0-10-3.3-10-10V74.8c0-6.7-3.3-10-10-10h-78.4ZM-619.9,64.8h20.9M-499.1,266.8h10M-589.9,60.8v8M-489.1,262.8l-9,4,9,4"/>
    <g class="st13">
      <g class="st13">
        <g class="st13">
          <text class="st15" transform="translate(-596 59.8)"><tspan x="0" y="0">1</tspan></text>
        </g>
      </g>
    </g>
    <g class="st13">
      <g class="st13">
        <g class="st13">
          <text class="st15" transform="translate(-499.8 261.8)"><tspan x="0" y="0">*</tspan></text>
        </g>
      </g>
    </g>
    <path class="st7" d="M-225.2,64.8h5c3.3,0,5,1.7,5,5v227.2c0,1.2-.6,1.8-1.8,1.8h-11.8,11.8c1.2,0,1.8-.6,1.8-1.8V69.8c0-3.3-1.7-5-5-5h-5ZM-225.2,64.8h-10M-228.9,298.8h-10M-225.2,60.8v8M-238.9,294.8l9,4-9,4"/>
    <g class="st13">
      <g class="st13">
        <g class="st13">
          <text class="st15" transform="translate(-232.2 59.8)"><tspan x="0" y="0">1</tspan></text>
        </g>
      </g>
    </g>
    <g class="st13">
      <g class="st13">
        <g class="st13">
          <text class="st15" transform="translate(-235.9 293.8)"><tspan x="0" y="0">*</tspan></text>
        </g>
      </g>
    </g>
    <path class="st7" d="M-609.9,64.8h30.9c6.7,0,10,3.3,10,10v467.7c0,3.3-1.7,5-5,5h-15,15c3.3,0,5-1.7,5-5V74.8c0-6.7-3.3-10-10-10h-30.9ZM-609.9,64.8h20.9M-589,547.6h-10M-589.9,60.8v8M-599,543.6l9,4-9,4"/>
    <g class="st13">
      <g class="st13">
        <g class="st13">
          <text class="st15" transform="translate(-596 59.8)"><tspan x="0" y="0">1</tspan></text>
        </g>
      </g>
    </g>
    <g class="st13">
      <g class="st13">
        <g class="st13">
          <text class="st15" transform="translate(-596 542.6)"><tspan x="0" y="0">*</tspan></text>
        </g>
      </g>
    </g>
    <path class="st7" d="M-918.6,64.8h-22.5c-6.7,0-10,3.3-10,10v710c0,6.7-3.3,10-10,10h-55.9,55.9c6.7,0,10-3.3,10-10V74.8c0-6.7,3.3-10,10-10h22.5ZM-918.6,64.8h10M-1017,794.8h-43.6M-918.6,60.8v8M-1060.6,790.8l9,4-9,4"/>
    <g class="st13">
      <g class="st13">
        <g class="st13">
          <text class="st15" transform="translate(-919.6 59.8)"><tspan x="0" y="0">1</tspan></text>
        </g>
      </g>
    </g>
    <g class="st13">
      <g class="st13">
        <g class="st13">
          <text class="st15" transform="translate(-1057.6 789.8)"><tspan x="0" y="0">*</tspan></text>
        </g>
      </g>
    </g>
    <path class="st7" d="M-918.6,515.6h-49.2c-6.7,0-10,3.3-10,10v291.3c0,6.7-3.3,10-10,10h-29.2,29.2c6.7,0,10-3.3,10-10v-291.3c0-6.7,3.3-10,10-10h49.2ZM-918.6,515.6h10M-1017,826.8h-43.6M-918.6,511.6v8M-1060.6,822.8l9,4-9,4"/>
    <g class="st13">
      <g class="st13">
        <g class="st13">
          <text class="st15" transform="translate(-919.6 510.6)"><tspan x="0" y="0">1</tspan></text>
        </g>
      </g>
    </g>
    <g class="st13">
      <g class="st13">
        <g class="st13">
          <text class="st15" transform="translate(-1057.6 821.8)"><tspan x="0" y="0">*</tspan></text>
        </g>
      </g>
    </g>
    <path class="st7" d="M-918.6,64.8h-99.4c-6.7,0-10,3.3-10,10v372c0,6.7-3.3,10-10,10h-12.6,12.6c6.7,0,10-3.3,10-10V74.8c0-6.7,3.3-10,10-10h99.4ZM-918.6,64.8h10M-1050.6,456.8h-10M-918.6,60.8v8M-1060.6,452.8l9,4-9,4"/>
    <g class="st13">
      <g class="st13">
        <g class="st13">
          <text class="st15" transform="translate(-919.6 59.8)"><tspan x="0" y="0">1</tspan></text>
        </g>
      </g>
    </g>
    <g class="st13">
      <g class="st13">
        <g class="st13">
          <text class="st15" transform="translate(-1057.6 451.8)"><tspan x="0" y="0">*</tspan></text>
        </g>
      </g>
    </g>
    <path class="st7" d="M-918.6,64.8h-49.4c-6.7,0-10,3.3-10,10v404c0,6.7-3.3,10-10,10h-62.6,62.6c6.7,0,10-3.3,10-10V74.8c0-6.7,3.3-10,10-10h49.4ZM-918.6,64.8h10M-1050.6,488.8h-10M-918.6,60.8v8M-1060.6,484.8l9,4-9,4"/>
    <g class="st13">
      <g class="st13">
        <g class="st13">
          <text class="st15" transform="translate(-919.6 59.8)"><tspan x="0" y="0">1</tspan></text>
        </g>
      </g>
    </g>
    <g class="st13">
      <g class="st13">
        <g class="st13">
          <text class="st15" transform="translate(-1057.6 483.8)"><tspan x="0" y="0">*</tspan></text>
        </g>
      </g>
    </g>
    <path class="st7" d="M-1017,762.8h5c3.3,0,5-1.7,5-5v-227c0-6.7-3.3-10-10-10h-33.6,33.6c6.7,0,10,3.3,10,10v227c0,3.3-1.7,5-5,5h-5ZM-1017,762.8h-43.6M-1050.6,520.8h-10M-1017,758.8v8M-1060.6,516.8l9,4-9,4"/>
    <g class="st13">
      <g class="st13">
        <g class="st13">
          <text class="st15" transform="translate(-1057.6 757.8)"><tspan x="0" y="0">1</tspan></text>
        </g>
      </g>
    </g>
    <g class="st13">
      <g class="st13">
        <g class="st13">
          <text class="st15" transform="translate(-1057.6 515.8)"><tspan x="0" y="0">*</tspan></text>
        </g>
      </g>
    </g>
    <path class="st7" d="M-589,515.6h35.2c6.7,0,10,3.3,10,10v265.3c0,6.7,3.3,10,10,10h34.8-34.8c-6.7,0-10-3.3-10-10v-265.3c0-6.7-3.3-10-10-10h-35.2ZM-589,515.6h-10M-499.1,800.8h10M-589,511.6v8M-489.1,796.8l-9,4,9,4"/>
    <g class="st13">
      <g class="st13">
        <g class="st13">
          <text class="st15" transform="translate(-596 510.6)"><tspan x="0" y="0">1</tspan></text>
        </g>
      </g>
    </g>
    <g class="st13">
      <g class="st13">
        <g class="st13">
          <text class="st15" transform="translate(-499.8 795.8)"><tspan x="0" y="0">*</tspan></text>
        </g>
      </g>
    </g>
    <path class="st7" d="M-599.9,64.8h39.6c6.7,0,10,3.3,10,10v398c0,6.7,3.3,10,10,10h41.2-41.2c-6.7,0-10-3.3-10-10V74.8c0-6.7-3.3-10-10-10h-39.6ZM-599.9,64.8h20.9M-499.1,482.8h10M-589.9,60.8v8M-489.1,478.8l-9,4,9,4"/>
    <g class="st13">
      <g class="st13">
        <g class="st13">
          <text class="st15" transform="translate(-596 59.8)"><tspan x="0" y="0">1</tspan></text>
        </g>
      </g>
    </g>
    <g class="st13">
      <g class="st13">
        <g class="st13">
          <text class="st15" transform="translate(-499.8 477.8)"><tspan x="0" y="0">*</tspan></text>
        </g>
      </g>
    </g>
    <path class="st7" d="M-589,515.6h20l60-.7h10-10l-60,.7h-20ZM-589,515.6h-10M-499.1,514.8h10M-589,511.6v8M-489.1,510.8l-9,4,9,4"/>
    <g class="st13">
      <g class="st13">
        <g class="st13">
          <text class="st15" transform="translate(-596 510.6)"><tspan x="0" y="0">1</tspan></text>
        </g>
      </g>
    </g>
    <g class="st13">
      <g class="st13">
        <g class="st13">
          <text class="st15" transform="translate(-499.8 509.8)"><tspan x="0" y="0">*</tspan></text>
        </g>
      </g>
    </g>
    <path class="st7" d="M-918.6,64.8h-66.3c-5.3,0-8,2.7-8,8h0v18.5c0,6-2.5,5.5-5.6,5.5h-52.2,52.2c3.1,0,5.6-2.5,5.6-5.5v-18.5h0c0-5.3,2.7-8,8-8,0,0,66.3,0,66.3,0ZM-918.6,64.8h10M-1050.6,96.8h-10M-918.6,60.8v8M-1060.6,92.8l9,4-9,4"/>
    <g class="st13">
      <g class="st13">
        <g class="st13">
          <text class="st15" transform="translate(-919.6 59.8)"><tspan x="0" y="0">1</tspan></text>
        </g>
      </g>
    </g>
    <g class="st13">
      <g class="st13">
        <g class="st13">
          <text class="st15" transform="translate(-1057.6 91.8)"><tspan x="0" y="0">*</tspan></text>
        </g>
      </g>
    </g>
    <path class="st7" d="M-918.6,515.6h-81c-6.7,0-10-3.3-10-10V138.8c0-6.7-3.3-10-10-10h-31,31c6.7,0,10,3.3,10,10v366.7c0,6.7,3.3,10,10,10h81ZM-918.6,515.6h10M-1050.6,128.8h-10M-918.6,511.6v8M-1060.6,124.8l9,4-9,4"/>
    <g class="st13">
      <g class="st13">
        <g class="st13">
          <text class="st15" transform="translate(-919.6 510.6)"><tspan x="0" y="0">1</tspan></text>
        </g>
      </g>
    </g>
    <g class="st13">
      <g class="st13">
        <g class="st13">
          <text class="st15" transform="translate(-1057.6 123.8)"><tspan x="0" y="0">*</tspan></text>
        </g>
      </g>
    </g>
    <rect class="st20" x="-489.1" y="16.8" width="253.9" height="32"/>
    <g class="st13">
      <g class="st13">
        <text class="st14" transform="translate(-479.1 36.1)"><tspan x="0" y="0">roles</tspan></text>
      </g>
    </g>
    <rect class="st24" x="-489.1" y="48.8" width="253.9" height="32"/>
    <g class="st13">
      <g class="st13">
        <text class="st4" transform="translate(-479.1 68.1)"><tspan x="0" y="0">id</tspan></text>
      </g>
    </g>
    <path class="st0" d="M-456.3,59.1c1.6,0,3,1.3,3,3s-1.3,3-3,3-.8,0-1.1-.2l-.9.9h-.7v1h-1v1h-2v-2l2.8-2.8v-.9c0-1.6,1.3-3,3-3h0ZM-456.3,58.1c-2.2,0-3.9,1.8-3.9,3.9s0,.4,0,.5l-2.5,2.5v3c0,.3.2.5.5.5h3c.3,0,.5-.2.5-.5v-.5h.5c.3,0,.5-.2.5-.5v-.4l.8-.8h.8c2.2,0,3.9-1.8,3.9-3.9s-1.8-3.9-3.9-3.9h-.2ZM-456.3,61c0,.5.4,1,1,1s1-.4,1-1-.4-1-1-1-1,.4-1,1Z"/>
    <g class="st13">
      <g class="st13">
        <text class="st9" transform="translate(-318.1 68.1)"><tspan x="0" y="0">BINARY(16)</tspan></text>
      </g>
    </g>
    <rect class="st24" x="-489.1" y="80.8" width="253.9" height="32"/>
    <g class="st13">
      <g class="st13">
        <text class="st1" transform="translate(-479.1 100.1)"><tspan x="0" y="0">name</tspan></text>
      </g>
    </g>
    <path class="st25" d="M-267.2,87.3h20s2,0,2,2v12s0,2-2,2h-20s-2,0-2-2v-12s0-2,2-2"/>
    <path class="st0" d="M-258.4,99.8h-1.2l-4.7-7.6h0v7.6h-.9v-9h1.2l4.7,7.5h0v-7.6h1v9h0Z"/>
    <path class="st0" d="M-249.2,99.8h-1.2l-4.7-7.6h0v7.6h-.9v-9h1.2l4.7,7.5h0v-7.6h1v9h0Z"/>
    <path class="st25" d="M-284.2,87.3h9s2,0,2,2v12s0,2-2,2h-9s-2,0-2-2v-12s0-2,2-2"/>
    <path class="st0" d="M-277.2,99.8h-5v-8.9h5v.9h-3.9v2.9h3.7v.9h-3.7v3.3h3.9v.9h0Z"/>
    <g class="st13">
      <g class="st13">
        <text class="st12" transform="translate(-401.3 100.1)"><tspan x="0" y="0">roles_name_enum</tspan></text>
      </g>
    </g>
    <rect class="st19" x="-908.6" y="16.8" width="309.6" height="32"/>
    <g class="st13">
      <g class="st13">
        <text class="st11" transform="translate(-898.6 36.1)"><tspan x="0" y="0">users</tspan></text>
      </g>
    </g>
    <rect class="st24" x="-908.6" y="48.8" width="309.6" height="32"/>
    <g class="st13">
      <g class="st13">
        <text class="st4" transform="translate(-898.6 68.1)"><tspan x="0" y="0">id</tspan></text>
      </g>
    </g>
    <path class="st0" d="M-875.9,59.1c1.6,0,3,1.3,3,3s-1.3,3-3,3-.8,0-1.1-.2l-.9.9h-.7v1h-1v1h-2v-2l2.8-2.8c0-.3-.1-.6-.1-.9,0-1.6,1.3-3,3-3h0ZM-875.9,58.1c-2.2,0-3.9,1.8-3.9,3.9s0,.4,0,.5l-2.5,2.5s-.1.2-.1.3v2.7c0,.3.2.5.5.5h3c.3,0,.5-.2.5-.5v-.5h.5c.3,0,.5-.2.5-.5v-.4l.8-.8h.8c2.2,0,3.9-1.8,3.9-3.9s-1.8-3.9-3.9-3.9h0ZM-875.9,61c0,.5.4,1,1,1s1-.4,1-1-.4-1-1-1-1,.4-1,1Z"/>
    <g class="st13">
      <g class="st13">
        <text class="st9" transform="translate(-682 68.1)"><tspan x="0" y="0">BINARY(16)</tspan></text>
      </g>
    </g>
    <rect class="st24" x="-908.6" y="80.8" width="309.6" height="32"/>
    <g class="st13">
      <g class="st13">
        <text class="st1" transform="translate(-898.6 100.1)"><tspan x="0" y="0">name</tspan></text>
      </g>
    </g>
    <g class="st13">
      <g class="st13">
        <text class="st12" transform="translate(-697 100.1)"><tspan x="0" y="0">VARCHAR(100)</tspan></text>
      </g>
    </g>
    <rect class="st24" x="-908.6" y="112.8" width="309.6" height="32"/>
    <g class="st13">
      <g class="st13">
        <text class="st1" transform="translate(-898.6 132.1)"><tspan x="0" y="0">lastName</tspan></text>
      </g>
    </g>
    <g class="st13">
      <g class="st13">
        <text class="st12" transform="translate(-697 132.1)"><tspan x="0" y="0">VARCHAR(100)</tspan></text>
      </g>
    </g>
    <rect class="st24" x="-908.6" y="144.8" width="309.6" height="32"/>
    <g class="st13">
      <g class="st13">
        <text class="st1" transform="translate(-898.6 164.1)"><tspan x="0" y="0">legalId</tspan></text>
      </g>
    </g>
    <g class="st13">
      <g class="st13">
        <text class="st12" transform="translate(-689.6 164.1)"><tspan x="0" y="0">VARCHAR(20)</tspan></text>
      </g>
    </g>
    <rect class="st24" x="-908.6" y="176.8" width="309.6" height="32"/>
    <g class="st13">
      <g class="st13">
        <text class="st1" transform="translate(-898.6 196.1)"><tspan x="0" y="0">email</tspan></text>
      </g>
    </g>
    <path class="st25" d="M-631,183.3h20s2,0,2,2v12s0,2-2,2h-20s-2,0-2-2v-12s0-2,2-2"/>
    <path class="st0" d="M-622.2,195.8h-1.2l-4.7-7.6h0v7.6h-.9v-9h1.2l4.7,7.5h0v-7.6h1v9h0Z"/>
    <path class="st0" d="M-613,195.8h-1.2l-4.7-7.6h0v7.6h-.9v-9h1.2l4.7,7.5h0v-7.6h1v9h0Z"/>
    <g class="st13">
      <g class="st13">
        <text class="st12" transform="translate(-725 196.1)"><tspan x="0" y="0">VARCHAR(150)</tspan></text>
      </g>
    </g>
    <rect class="st24" x="-908.6" y="208.8" width="309.6" height="32"/>
    <g class="st13">
      <g class="st13">
        <text class="st1" transform="translate(-898.6 228.1)"><tspan x="0" y="0">password</tspan></text>
      </g>
    </g>
    <g class="st13">
      <g class="st13">
        <text class="st12" transform="translate(-697 228.1)"><tspan x="0" y="0">VARCHAR(255)</tspan></text>
      </g>
    </g>
    <rect class="st24" x="-908.6" y="240.8" width="309.6" height="32"/>
    <g class="st13">
      <g class="st13">
        <text class="st1" transform="translate(-898.6 260.1)"><tspan x="0" y="0">phone</tspan></text>
      </g>
    </g>
    <g class="st13">
      <g class="st13">
        <text class="st12" transform="translate(-697 260.1)"><tspan x="0" y="0">VARCHAR(255)</tspan></text>
      </g>
    </g>
    <rect class="st24" x="-908.6" y="272.8" width="309.6" height="32"/>
    <g class="st13">
      <g class="st13">
        <text class="st1" transform="translate(-898.6 292.1)"><tspan x="0" y="0">avatarUrl</tspan></text>
      </g>
    </g>
    <g class="st13">
      <g class="st13">
        <text class="st12" transform="translate(-697 292.1)"><tspan x="0" y="0">VARCHAR(255)</tspan></text>
      </g>
    </g>
    <rect class="st24" x="-908.6" y="304.8" width="309.6" height="32"/>
    <g class="st13">
      <g class="st13">
        <text class="st1" transform="translate(-898.6 324.1)"><tspan x="0" y="0">isEmailVerified</tspan></text>
      </g>
    </g>
    <g class="st13">
      <g class="st13">
        <text class="st12" transform="translate(-669.7 324.1)"><tspan x="0" y="0">BOOLEAN</tspan></text>
      </g>
    </g>
    <rect class="st24" x="-908.6" y="336.8" width="309.6" height="32"/>
    <g class="st13">
      <g class="st13">
        <text class="st1" transform="translate(-898.6 356.1)"><tspan x="0" y="0">isDocsVerified</tspan></text>
      </g>
    </g>
    <g class="st13">
      <g class="st13">
        <text class="st12" transform="translate(-669.7 356.1)"><tspan x="0" y="0">BOOLEAN</tspan></text>
      </g>
    </g>
    <rect class="st24" x="-908.6" y="368.8" width="309.6" height="32"/>
    <g class="st13">
      <g class="st13">
        <text class="st1" transform="translate(-898.6 388.1)"><tspan x="0" y="0">createdAt</tspan></text>
      </g>
    </g>
    <g class="st13">
      <g class="st13">
        <text class="st12" transform="translate(-680.7 388.1)"><tspan x="0" y="0">TIMESTAMP</tspan></text>
      </g>
    </g>
    <rect class="st24" x="-908.6" y="400.8" width="309.6" height="32"/>
    <g class="st13">
      <g class="st13">
        <text class="st1" transform="translate(-898.6 420.1)"><tspan x="0" y="0">updatedAt</tspan></text>
      </g>
    </g>
    <g class="st13">
      <g class="st13">
        <text class="st12" transform="translate(-680.7 420.1)"><tspan x="0" y="0">TIMESTAMP</tspan></text>
      </g>
    </g>
    <rect class="st20" x="-489.1" y="186.8" width="250.2" height="32"/>
    <g class="st13">
      <g class="st13">
        <text class="st14" transform="translate(-479.1 206.1)"><tspan x="0" y="0">userRoles</tspan></text>
      </g>
    </g>
    <rect class="st24" x="-489.1" y="218.8" width="250.2" height="32"/>
    <g class="st13">
      <g class="st13">
        <text class="st4" transform="translate(-479.1 238.1)"><tspan x="0" y="0">id</tspan></text>
      </g>
    </g>
    <path class="st0" d="M-456.3,229.1c1.6,0,3,1.3,3,3s-1.3,3-3,3-.8,0-1.1-.2l-.9.9h-.7v1h-1v1h-2v-2l2.8-2.8v-.9c0-1.6,1.3-3,3-3h0ZM-456.3,228.1c-2.2,0-3.9,1.8-3.9,3.9s0,.4,0,.5l-2.5,2.5v3c0,.3.2.5.5.5h3c.3,0,.5-.2.5-.5v-.5h.5c.3,0,.5-.2.5-.5v-.4l.8-.8h.8c2.2,0,3.9-1.8,3.9-3.9s-1.8-3.9-3.9-3.9h-.2ZM-456.3,231c0,.5.4,1,1,1s1-.4,1-1-.4-1-1-1-1,.4-1,1Z"/>
    <g class="st13">
      <g class="st13">
        <text class="st9" transform="translate(-321.8 238.1)"><tspan x="0" y="0">BINARY(16)</tspan></text>
      </g>
    </g>
    <rect class="st24" x="-489.1" y="250.8" width="250.2" height="32"/>
    <g class="st13">
      <g class="st13">
        <text class="st1" transform="translate(-479.1 270.1)"><tspan x="0" y="0">userId</tspan></text>
      </g>
    </g>
    <path class="st25" d="M-270.9,257.3h20s2,0,2,2v12s0,2-2,2h-20s-2,0-2-2v-12s0-2,2-2"/>
    <path class="st0" d="M-262,269.8h-1.2l-4.7-7.6h0v7.6h-.9v-9h1.2l4.7,7.5h0v-7.6h1v9h0Z"/>
    <path class="st0" d="M-252.9,269.8h-1.2l-4.7-7.6h0v7.6h-.9v-9h1.2l4.7,7.5h0v-7.6h1v9h0Z"/>
    <g class="st13">
      <g class="st13">
        <text class="st12" transform="translate(-344.7 270.1)"><tspan x="0" y="0">BINARY(16)</tspan></text>
      </g>
    </g>
    <rect class="st24" x="-489.1" y="282.8" width="250.2" height="32"/>
    <g class="st13">
      <g class="st13">
        <text class="st1" transform="translate(-479.1 302.1)"><tspan x="0" y="0">roleId</tspan></text>
      </g>
    </g>
    <path class="st25" d="M-270.9,289.3h20s2,0,2,2v12s0,2-2,2h-20s-2,0-2-2v-12s0-2,2-2"/>
    <path class="st0" d="M-262,301.8h-1.2l-4.7-7.6h0v7.6h-.9v-9h1.2l4.7,7.5h0v-7.6h1v9h0Z"/>
    <path class="st0" d="M-252.9,301.8h-1.2l-4.7-7.6h0v7.6h-.9v-9h1.2l4.7,7.5h0v-7.6h1v9h0Z"/>
    <g class="st13">
      <g class="st13">
        <text class="st12" transform="translate(-344.7 302.1)"><tspan x="0" y="0">BINARY(16)</tspan></text>
      </g>
    </g>
    <rect class="st24" x="-489.1" y="314.8" width="250.2" height="32"/>
    <g class="st13">
      <g class="st13">
        <text class="st1" transform="translate(-479.1 334.1)"><tspan x="0" y="0">createdAt</tspan></text>
      </g>
    </g>
    <g class="st13">
      <g class="st13">
        <text class="st12" transform="translate(-320.6 334.1)"><tspan x="0" y="0">TIMESTAMP</tspan></text>
      </g>
    </g>
    <rect class="st21" x="-908.6" y="467.6" width="309.6" height="32"/>
    <g class="st13">
      <g class="st13">
        <text class="st14" transform="translate(-898.6 486.8)"><tspan x="0" y="0">properties</tspan></text>
      </g>
    </g>
    <rect class="st24" x="-908.6" y="499.6" width="309.6" height="32"/>
    <g class="st13">
      <g class="st13">
        <text class="st4" transform="translate(-898.6 518.8)"><tspan x="0" y="0">id</tspan></text>
      </g>
    </g>
    <path class="st0" d="M-875.9,509.8c1.6,0,3,1.3,3,3s-1.3,3-3,3-.8,0-1.1-.2l-.9.9h-.7v1h-1v1h-2v-2l2.8-2.8c0-.3-.1-.6-.1-.9,0-1.6,1.3-3,3-3h0ZM-875.9,508.8c-2.2,0-3.9,1.8-3.9,3.9s0,.4,0,.5l-2.5,2.5s-.1.2-.1.3v2.7c0,.3.2.5.5.5h3c.3,0,.5-.2.5-.5v-.5h.5c.3,0,.5-.2.5-.5v-.4l.8-.8h.8c2.2,0,3.9-1.8,3.9-3.9s-1.8-3.9-3.9-3.9h0ZM-875.9,511.8c0,.5.4,1,1,1s1-.4,1-1-.4-1-1-1-1,.4-1,1Z"/>
    <g class="st13">
      <g class="st13">
        <text class="st9" transform="translate(-682 518.8)"><tspan x="0" y="0">BINARY(16)</tspan></text>
      </g>
    </g>
    <rect class="st24" x="-908.6" y="531.6" width="309.6" height="32"/>
    <g class="st13">
      <g class="st13">
        <text class="st1" transform="translate(-898.6 550.8)"><tspan x="0" y="0">ownerId</tspan></text>
      </g>
    </g>
    <path class="st25" d="M-631,538.1h20s2,0,2,2v12s0,2-2,2h-20s-2,0-2-2v-12s0-2,2-2"/>
    <path class="st0" d="M-622.2,550.6h-1.2l-4.7-7.6h0v7.6h-.9v-9h1.2l4.7,7.5h0v-7.6h1v9h0Z"/>
    <path class="st0" d="M-613,550.6h-1.2l-4.7-7.6h0v7.6h-.9v-9h1.2l4.7,7.5h0v-7.6h1v9h0Z"/>
    <g class="st13">
      <g class="st13">
        <text class="st12" transform="translate(-704.9 550.8)"><tspan x="0" y="0">BINARY(16)</tspan></text>
      </g>
    </g>
    <rect class="st24" x="-908.6" y="563.6" width="309.6" height="32"/>
    <g class="st13">
      <g class="st13">
        <text class="st1" transform="translate(-898.6 582.8)"><tspan x="0" y="0">adTitle</tspan></text>
      </g>
    </g>
    <path class="st25" d="M-631,570.1h20s2,0,2,2v12s0,2-2,2h-20s-2,0-2-2v-12s0-2,2-2"/>
    <path class="st0" d="M-622.2,582.6h-1.2l-4.7-7.6h0v7.6h-.9v-9h1.2l4.7,7.5h0v-7.6h1v9h0Z"/>
    <path class="st0" d="M-613,582.6h-1.2l-4.7-7.6h0v7.6h-.9v-9h1.2l4.7,7.5h0v-7.6h1v9h0Z"/>
    <g class="st13">
      <g class="st13">
        <text class="st12" transform="translate(-725 582.8)"><tspan x="0" y="0">VARCHAR(255)</tspan></text>
      </g>
    </g>
    <rect class="st24" x="-908.6" y="595.6" width="309.6" height="32"/>
    <g class="st13">
      <g class="st13">
        <text class="st1" transform="translate(-898.6 614.8)"><tspan x="0" y="0">description</tspan></text>
      </g>
    </g>
    <path class="st25" d="M-631,602.1h20s2,0,2,2v12s0,2-2,2h-20s-2,0-2-2v-12s0-2,2-2"/>
    <path class="st0" d="M-622.2,614.6h-1.2l-4.7-7.6h0v7.6h-.9v-9h1.2l4.7,7.5h0v-7.6h1v9h0Z"/>
    <path class="st0" d="M-613,614.6h-1.2l-4.7-7.6h0v7.6h-.9v-9h1.2l4.7,7.5h0v-7.6h1v9h0Z"/>
    <g class="st13">
      <g class="st13">
        <text class="st12" transform="translate(-666.1 614.8)"><tspan x="0" y="0">TEXT</tspan></text>
      </g>
    </g>
    <rect class="st24" x="-908.6" y="627.6" width="309.6" height="32"/>
    <g class="st13">
      <g class="st13">
        <text class="st1" transform="translate(-898.6 646.8)"><tspan x="0" y="0">formattedAddress</tspan></text>
      </g>
    </g>
    <path class="st25" d="M-631,634.1h20s2,0,2,2v12s0,2-2,2h-20s-2,0-2-2v-12s0-2,2-2"/>
    <path class="st0" d="M-622.2,646.6h-1.2l-4.7-7.6h0v7.6h-.9v-9h1.2l4.7,7.5h0v-7.6h1v9h0Z"/>
    <path class="st0" d="M-613,646.6h-1.2l-4.7-7.6h0v7.6h-.9v-9h1.2l4.7,7.5h0v-7.6h1v9h0Z"/>
    <g class="st13">
      <g class="st13">
        <text class="st12" transform="translate(-725 646.8)"><tspan x="0" y="0">VARCHAR(255)</tspan></text>
      </g>
    </g>
    <rect class="st24" x="-908.6" y="659.6" width="309.6" height="32"/>
    <g class="st13">
      <g class="st13">
        <text class="st1" transform="translate(-898.6 678.8)"><tspan x="0" y="0">addressLocality</tspan></text>
      </g>
    </g>
    <g class="st13">
      <g class="st13">
        <text class="st12" transform="translate(-697 678.8)"><tspan x="0" y="0">VARCHAR(255)</tspan></text>
      </g>
    </g>
    <rect class="st24" x="-908.6" y="691.6" width="309.6" height="32"/>
    <g class="st13">
      <g class="st13">
        <text class="st1" transform="translate(-898.6 710.8)"><tspan x="0" y="0">addressStreetName</tspan></text>
      </g>
    </g>
    <g class="st13">
      <g class="st13">
        <text class="st12" transform="translate(-697 710.8)"><tspan x="0" y="0">VARCHAR(255)</tspan></text>
      </g>
    </g>
    <rect class="st24" x="-908.6" y="723.6" width="309.6" height="32"/>
    <g class="st13">
      <g class="st13">
        <text class="st1" transform="translate(-898.6 742.8)"><tspan x="0" y="0">addressNumber</tspan></text>
      </g>
    </g>
    <g class="st13">
      <g class="st13">
        <text class="st12" transform="translate(-689.6 742.8)"><tspan x="0" y="0">VARCHAR(10)</tspan></text>
      </g>
    </g>
    <rect class="st24" x="-908.6" y="755.6" width="309.6" height="32"/>
    <g class="st13">
      <g class="st13">
        <text class="st1" transform="translate(-898.6 774.8)"><tspan x="0" y="0">addressFloorNumber</tspan></text>
      </g>
    </g>
    <g class="st13">
      <g class="st13">
        <text class="st12" transform="translate(-689.6 774.8)"><tspan x="0" y="0">VARCHAR(10)</tspan></text>
      </g>
    </g>
    <rect class="st24" x="-908.6" y="787.6" width="309.6" height="32"/>
    <g class="st13">
      <g class="st13">
        <text class="st1" transform="translate(-898.6 806.8)"><tspan x="0" y="0">hasEnergyCertificate</tspan></text>
      </g>
    </g>
    <g class="st13">
      <g class="st13">
        <text class="st12" transform="translate(-669.7 806.8)"><tspan x="0" y="0">BOOLEAN</tspan></text>
      </g>
    </g>
    <rect class="st24" x="-908.6" y="819.6" width="309.6" height="32"/>
    <g class="st13">
      <g class="st13">
        <text class="st1" transform="translate(-898.6 838.8)"><tspan x="0" y="0">zipCode</tspan></text>
      </g>
    </g>
    <path class="st25" d="M-631,826.1h20s2,0,2,2v12s0,2-2,2h-20s-2,0-2-2v-12s0-2,2-2"/>
    <path class="st0" d="M-622.2,838.6h-1.2l-4.7-7.6h0v7.6h-.9v-9h1.2l4.7,7.5h0v-7.6h1v9h0Z"/>
    <path class="st0" d="M-613,838.6h-1.2l-4.7-7.6h0v7.6h-.9v-9h1.2l4.7,7.5h0v-7.6h1v9h0Z"/>
    <g class="st13">
      <g class="st13">
        <text class="st12" transform="translate(-710.1 838.8)"><tspan x="0" y="0">VARCHAR(5)</tspan></text>
      </g>
    </g>
    <rect class="st24" x="-908.6" y="851.6" width="309.6" height="32"/>
    <g class="st13">
      <g class="st13">
        <text class="st1" transform="translate(-898.6 870.8)"><tspan x="0" y="0">location</tspan></text>
      </g>
    </g>
    <path class="st25" d="M-631,858.1h20s2,0,2,2v12s0,2-2,2h-20s-2,0-2-2v-12s0-2,2-2"/>
    <path class="st0" d="M-622.2,870.6h-1.2l-4.7-7.6h0v7.6h-.9v-9h1.2l4.7,7.5h0v-7.6h1v9h0Z"/>
    <path class="st0" d="M-613,870.6h-1.2l-4.7-7.6h0v7.6h-.9v-9h1.2l4.7,7.5h0v-7.6h1v9h0Z"/>
    <g class="st13">
      <g class="st13">
        <text class="st12" transform="translate(-675.5 870.8)"><tspan x="0" y="0">POINT</tspan></text>
      </g>
    </g>
    <rect class="st24" x="-908.6" y="883.6" width="309.6" height="32"/>
    <g class="st13">
      <g class="st13">
        <text class="st1" transform="translate(-898.6 902.8)"><tspan x="0" y="0">squareMeters</tspan></text>
      </g>
    </g>
    <g class="st13">
      <g class="st13">
        <text class="st12" transform="translate(-670.2 902.8)"><tspan x="0" y="0">SMALLINT</tspan></text>
      </g>
    </g>
    <rect class="st24" x="-908.6" y="915.6" width="309.6" height="32"/>
    <g class="st13">
      <g class="st13">
        <text class="st1" transform="translate(-898.6 934.8)"><tspan x="0" y="0">bedrooms</tspan></text>
      </g>
    </g>
    <path class="st25" d="M-631,922.1h20s2,0,2,2v12s0,2-2,2h-20s-2,0-2-2v-12s0-2,2-2"/>
    <path class="st0" d="M-622.2,934.6h-1.2l-4.7-7.6h0v7.6h-.9v-9h1.2l4.7,7.5h0v-7.6h1v9h0Z"/>
    <path class="st0" d="M-613,934.6h-1.2l-4.7-7.6h0v7.6h-.9v-9h1.2l4.7,7.5h0v-7.6h1v9h0Z"/>
    <g class="st13">
      <g class="st13">
        <text class="st12" transform="translate(-685.4 934.8)"><tspan x="0" y="0">TINYINT</tspan></text>
      </g>
    </g>
    <rect class="st24" x="-908.6" y="947.6" width="309.6" height="32"/>
    <g class="st13">
      <g class="st13">
        <text class="st1" transform="translate(-898.6 966.8)"><tspan x="0" y="0">bathrooms</tspan></text>
      </g>
    </g>
    <path class="st25" d="M-631,954.1h20s2,0,2,2v12s0,2-2,2h-20s-2,0-2-2v-12s0-2,2-2"/>
    <path class="st0" d="M-622.2,966.6h-1.2l-4.7-7.6h0v7.6h-.9v-9h1.2l4.7,7.5h0v-7.6h1v9h0Z"/>
    <path class="st0" d="M-613,966.6h-1.2l-4.7-7.6h0v7.6h-.9v-9h1.2l4.7,7.5h0v-7.6h1v9h0Z"/>
    <g class="st13">
      <g class="st13">
        <text class="st12" transform="translate(-685.4 966.8)"><tspan x="0" y="0">TINYINT</tspan></text>
      </g>
    </g>
    <rect class="st24" x="-908.6" y="979.6" width="309.6" height="32"/>
    <g class="st13">
      <g class="st13">
        <text class="st1" transform="translate(-898.6 998.8)"><tspan x="0" y="0">price</tspan></text>
      </g>
    </g>
    <path class="st25" d="M-631,986.1h20s2,0,2,2v12s0,2-2,2h-20s-2,0-2-2v-12s0-2,2-2"/>
    <path class="st0" d="M-622.2,998.6h-1.2l-4.7-7.6h0v7.6h-.9v-9h1.2l4.7,7.5h0v-7.6h1v9h0Z"/>
    <path class="st0" d="M-613,998.6h-1.2l-4.7-7.6h0v7.6h-.9v-9h1.2l4.7,7.5h0v-7.6h1v9h0Z"/>
    <g class="st13">
      <g class="st13">
        <text class="st12" transform="translate(-725.5 998.8)"><tspan x="0" y="0">DECIMAL(10,2)</tspan></text>
      </g>
    </g>
    <rect class="st24" x="-908.6" y="1011.6" width="309.6" height="32"/>
    <g class="st13">
      <g class="st13">
        <text class="st1" transform="translate(-898.6 1030.8)"><tspan x="0" y="0">status</tspan></text>
      </g>
    </g>
    <path class="st25" d="M-620,1018.1h9s2,0,2,2v12s0,2-2,2h-9s-2,0-2-2v-12s0-2,2-2"/>
    <path class="st0" d="M-613,1030.5h-5v-8.9h5v.9h-3.9v2.9h3.7v.9h-3.7v3.3h3.9v.9h0Z"/>
    <g class="st13">
      <g class="st13">
        <text class="st12" transform="translate(-772.6 1030.8)"><tspan x="0" y="0">properties_status_enum</tspan></text>
      </g>
    </g>
    <rect class="st24" x="-908.6" y="1043.6" width="309.6" height="32"/>
    <g class="st13">
      <g class="st13">
        <text class="st1" transform="translate(-898.6 1062.8)"><tspan x="0" y="0">createdAt</tspan></text>
      </g>
    </g>
    <g class="st13">
      <g class="st13">
        <text class="st12" transform="translate(-680.7 1062.8)"><tspan x="0" y="0">TIMESTAMP</tspan></text>
      </g>
    </g>
    <rect class="st24" x="-908.6" y="1075.6" width="309.6" height="32"/>
    <g class="st13">
      <g class="st13">
        <text class="st1" transform="translate(-898.6 1094.8)"><tspan x="0" y="0">updatedAt</tspan></text>
      </g>
    </g>
    <g class="st13">
      <g class="st13">
        <text class="st12" transform="translate(-680.7 1094.8)"><tspan x="0" y="0">TIMESTAMP</tspan></text>
      </g>
    </g>
    <rect class="st20" x="-1348.6" y="714.8" width="288" height="32"/>
    <g class="st13">
      <g class="st13">
        <text class="st14" transform="translate(-1338.6 734.1)"><tspan x="0" y="0">rentalContracts</tspan></text>
      </g>
    </g>
    <rect class="st24" x="-1348.6" y="746.8" width="288" height="32"/>
    <g class="st13">
      <g class="st13">
        <text class="st4" transform="translate(-1338.6 766.1)"><tspan x="0" y="0">id</tspan></text>
      </g>
    </g>
    <path class="st0" d="M-1315.9,757.1c1.6,0,3,1.3,3,3s-1.3,3-3,3-.8,0-1.1-.2l-.9.9h-.7v1h-1v1h-2v-2l2.8-2.8v-.9c0-1.6,1.3-3,3-3h0ZM-1315.9,756.1c-2.2,0-3.9,1.8-3.9,3.9s0,.4,0,.5l-2.5,2.5v3c0,.3.2.5.5.5h3c.3,0,.5-.2.5-.5v-.5h.5c.3,0,.5-.2.5-.5v-.4l.8-.8h.8c2.2,0,3.9-1.8,3.9-3.9s-1.8-3.9-3.9-3.9h-.2ZM-1315.9,759c0,.5.4,1,1,1s1-.4,1-1-.4-1-1-1-1,.4-1,1Z"/>
    <g class="st13">
      <g class="st13">
        <text class="st9" transform="translate(-1143.6 766.1)"><tspan x="0" y="0">BINARY(16)</tspan></text>
      </g>
    </g>
    <rect class="st24" x="-1348.6" y="778.8" width="288" height="32"/>
    <g class="st13">
      <g class="st13">
        <text class="st1" transform="translate(-1338.6 798.1)"><tspan x="0" y="0">tenantId</tspan></text>
      </g>
    </g>
    <path class="st25" d="M-1092.6,785.3h20s2,0,2,2v12s0,2-2,2h-20s-2,0-2-2v-12s0-2,2-2"/>
    <path class="st0" d="M-1083.8,797.8h-1.2l-4.7-7.6h0v7.6h-.9v-9h1.2l4.7,7.5h0v-7.6h1v9h-.1Z"/>
    <path class="st0" d="M-1074.6,797.8h-1.2l-4.7-7.6h0v7.6h-.9v-9h1.2l4.7,7.5h0v-7.6h1v9h-.1Z"/>
    <g class="st13">
      <g class="st13">
        <text class="st12" transform="translate(-1166.5 798.1)"><tspan x="0" y="0">BINARY(16)</tspan></text>
      </g>
    </g>
    <rect class="st24" x="-1348.6" y="810.8" width="288" height="32"/>
    <g class="st13">
      <g class="st13">
        <text class="st1" transform="translate(-1338.6 830.1)"><tspan x="0" y="0">propertyId</tspan></text>
      </g>
    </g>
    <path class="st25" d="M-1092.6,817.3h20s2,0,2,2v12s0,2-2,2h-20s-2,0-2-2v-12s0-2,2-2"/>
    <path class="st0" d="M-1083.8,829.8h-1.2l-4.7-7.6h0v7.6h-.9v-9h1.2l4.7,7.5h0v-7.6h1v9h-.1Z"/>
    <path class="st0" d="M-1074.6,829.8h-1.2l-4.7-7.6h0v7.6h-.9v-9h1.2l4.7,7.5h0v-7.6h1v9h-.1Z"/>
    <g class="st13">
      <g class="st13">
        <text class="st12" transform="translate(-1166.5 830.1)"><tspan x="0" y="0">BINARY(16)</tspan></text>
      </g>
    </g>
    <rect class="st24" x="-1348.6" y="842.8" width="288" height="32"/>
    <g class="st13">
      <g class="st13">
        <text class="st1" transform="translate(-1338.6 862.1)"><tspan x="0" y="0">startDate</tspan></text>
      </g>
    </g>
    <path class="st25" d="M-1092.6,849.3h20s2,0,2,2v12s0,2-2,2h-20s-2,0-2-2v-12s0-2,2-2"/>
    <path class="st0" d="M-1083.8,861.8h-1.2l-4.7-7.6h0v7.6h-.9v-9h1.2l4.7,7.5h0v-7.6h1v9h-.1Z"/>
    <path class="st0" d="M-1074.6,861.8h-1.2l-4.7-7.6h0v7.6h-.9v-9h1.2l4.7,7.5h0v-7.6h1v9h-.1Z"/>
    <g class="st13">
      <g class="st13">
        <text class="st12" transform="translate(-1170.3 862.1)"><tspan x="0" y="0">TIMESTAMP</tspan></text>
      </g>
    </g>
    <rect class="st24" x="-1348.6" y="874.8" width="288" height="32"/>
    <g class="st13">
      <g class="st13">
        <text class="st1" transform="translate(-1338.6 894.1)"><tspan x="0" y="0">endDate</tspan></text>
      </g>
    </g>
    <g class="st13">
      <g class="st13">
        <text class="st12" transform="translate(-1142.3 894.1)"><tspan x="0" y="0">TIMESTAMP</tspan></text>
      </g>
    </g>
    <rect class="st24" x="-1348.6" y="906.8" width="288" height="32"/>
    <g class="st13">
      <g class="st13">
        <text class="st1" transform="translate(-1338.6 926.1)"><tspan x="0" y="0">status</tspan></text>
      </g>
    </g>
    <path class="st25" d="M-1092.6,913.3h20s2,0,2,2v12s0,2-2,2h-20s-2,0-2-2v-12s0-2,2-2"/>
    <path class="st0" d="M-1083.8,925.8h-1.2l-4.7-7.6h0v7.6h-.9v-9h1.2l4.7,7.5h0v-7.6h1v9h-.1Z"/>
    <path class="st0" d="M-1074.6,925.8h-1.2l-4.7-7.6h0v7.6h-.9v-9h1.2l4.7,7.5h0v-7.6h1v9h-.1Z"/>
    <path class="st25" d="M-1109.6,913.3h9s2,0,2,2v12s0,2-2,2h-9s-2,0-2-2v-12s0-2,2-2"/>
    <path class="st0" d="M-1102.7,925.8h-5v-8.9h5v.9h-3.9v2.9h3.7v.9h-3.7v3.3h3.9v.9h0Z"/>
    <g class="st13">
      <g class="st13">
        <text class="st12" transform="translate(-1293.1 926.1)"><tspan x="0" y="0">rentalContracts_status_enum</tspan></text>
      </g>
    </g>
    <rect class="st24" x="-1348.6" y="938.8" width="288" height="32"/>
    <g class="st13">
      <g class="st13">
        <text class="st1" transform="translate(-1338.6 958.1)"><tspan x="0" y="0">createdAt</tspan></text>
      </g>
    </g>
    <g class="st13">
      <g class="st13">
        <text class="st12" transform="translate(-1142.3 958.1)"><tspan x="0" y="0">TIMESTAMP</tspan></text>
      </g>
    </g>
    <rect class="st24" x="-1348.6" y="970.8" width="288" height="32"/>
    <g class="st13">
      <g class="st13">
        <text class="st1" transform="translate(-1338.6 990.1)"><tspan x="0" y="0">updatedAt</tspan></text>
      </g>
    </g>
    <g class="st13">
      <g class="st13">
        <text class="st12" transform="translate(-1142.3 990.1)"><tspan x="0" y="0">TIMESTAMP</tspan></text>
      </g>
    </g>
    <rect class="st24" x="-1348.6" y="1002.8" width="288" height="32"/>
    <g class="st13">
      <g class="st13">
        <text class="st1" transform="translate(-1338.6 1022.1)"><tspan x="0" y="0">pdfUrl</tspan></text>
      </g>
    </g>
    <g class="st13">
      <g class="st13">
        <text class="st12" transform="translate(-1158.6 1022.1)"><tspan x="0" y="0">VARCHAR(255)</tspan></text>
      </g>
    </g>
    <rect class="st20" x="-1348.6" y="376.8" width="288" height="32"/>
    <g class="st13">
      <g class="st13">
        <text class="st14" transform="translate(-1338.6 396.1)"><tspan x="0" y="0">reviews</tspan></text>
      </g>
    </g>
    <rect class="st24" x="-1348.6" y="408.8" width="288" height="32"/>
    <g class="st13">
      <g class="st13">
        <text class="st4" transform="translate(-1338.6 428.1)"><tspan x="0" y="0">id</tspan></text>
      </g>
    </g>
    <path class="st0" d="M-1315.9,419.1c1.6,0,3,1.3,3,3s-1.3,3-3,3-.8,0-1.1-.2l-.9.9h-.7v1h-1v1h-2v-2l2.8-2.8v-.9c0-1.6,1.3-3,3-3h0ZM-1315.9,418.1c-2.2,0-3.9,1.8-3.9,3.9s0,.4,0,.5l-2.5,2.5v3c0,.3.2.5.5.5h3c.3,0,.5-.2.5-.5v-.5h.5c.3,0,.5-.2.5-.5v-.4l.8-.8h.8c2.2,0,3.9-1.8,3.9-3.9s-1.8-3.9-3.9-3.9h-.2ZM-1315.9,421c0,.5.4,1,1,1s1-.4,1-1-.4-1-1-1-1,.4-1,1Z"/>
    <g class="st13">
      <g class="st13">
        <text class="st9" transform="translate(-1143.6 428.1)"><tspan x="0" y="0">BINARY(16)</tspan></text>
      </g>
    </g>
    <rect class="st24" x="-1348.6" y="440.8" width="288" height="32"/>
    <g class="st13">
      <g class="st13">
        <text class="st1" transform="translate(-1338.6 460.1)"><tspan x="0" y="0">reviewerId</tspan></text>
      </g>
    </g>
    <path class="st25" d="M-1092.6,447.3h20s2,0,2,2v12s0,2-2,2h-20s-2,0-2-2v-12s0-2,2-2"/>
    <path class="st0" d="M-1083.8,459.8h-1.2l-4.7-7.6h0v7.6h-.9v-9h1.2l4.7,7.5h0v-7.6h1v9h-.1Z"/>
    <path class="st0" d="M-1074.6,459.8h-1.2l-4.7-7.6h0v7.6h-.9v-9h1.2l4.7,7.5h0v-7.6h1v9h-.1Z"/>
    <g class="st13">
      <g class="st13">
        <text class="st12" transform="translate(-1166.5 460.1)"><tspan x="0" y="0">BINARY(16)</tspan></text>
      </g>
    </g>
    <rect class="st24" x="-1348.6" y="472.8" width="288" height="32"/>
    <g class="st13">
      <g class="st13">
        <text class="st1" transform="translate(-1338.6 492.1)"><tspan x="0" y="0">reviewedId</tspan></text>
      </g>
    </g>
    <path class="st25" d="M-1092.6,479.3h20s2,0,2,2v12s0,2-2,2h-20s-2,0-2-2v-12s0-2,2-2"/>
    <path class="st0" d="M-1083.8,491.8h-1.2l-4.7-7.6h0v7.6h-.9v-9h1.2l4.7,7.5h0v-7.6h1v9h-.1Z"/>
    <path class="st0" d="M-1074.6,491.8h-1.2l-4.7-7.6h0v7.6h-.9v-9h1.2l4.7,7.5h0v-7.6h1v9h-.1Z"/>
    <g class="st13">
      <g class="st13">
        <text class="st12" transform="translate(-1166.5 492.1)"><tspan x="0" y="0">BINARY(16)</tspan></text>
      </g>
    </g>
    <rect class="st24" x="-1348.6" y="504.8" width="288" height="32"/>
    <g class="st13">
      <g class="st13">
        <text class="st1" transform="translate(-1338.6 524.1)"><tspan x="0" y="0">rentalId</tspan></text>
      </g>
    </g>
    <path class="st25" d="M-1092.6,511.3h20s2,0,2,2v12s0,2-2,2h-20s-2,0-2-2v-12s0-2,2-2"/>
    <path class="st0" d="M-1083.8,523.8h-1.2l-4.7-7.6h0v7.6h-.9v-9h1.2l4.7,7.5h0v-7.6h1v9h-.1Z"/>
    <path class="st0" d="M-1074.6,523.8h-1.2l-4.7-7.6h0v7.6h-.9v-9h1.2l4.7,7.5h0v-7.6h1v9h-.1Z"/>
    <g class="st13">
      <g class="st13">
        <text class="st12" transform="translate(-1166.5 524.1)"><tspan x="0" y="0">BINARY(16)</tspan></text>
      </g>
    </g>
    <rect class="st24" x="-1348.6" y="536.8" width="288" height="32"/>
    <g class="st13">
      <g class="st13">
        <text class="st1" transform="translate(-1338.6 556.1)"><tspan x="0" y="0">rating</tspan></text>
      </g>
    </g>
    <path class="st25" d="M-1092.6,543.3h20s2,0,2,2v12s0,2-2,2h-20s-2,0-2-2v-12s0-2,2-2"/>
    <path class="st0" d="M-1083.8,555.8h-1.2l-4.7-7.6h0v7.6h-.9v-9h1.2l4.7,7.5h0v-7.6h1v9h-.1Z"/>
    <path class="st0" d="M-1074.6,555.8h-1.2l-4.7-7.6h0v7.6h-.9v-9h1.2l4.7,7.5h0v-7.6h1v9h-.1Z"/>
    <g class="st13">
      <g class="st13">
        <text class="st12" transform="translate(-1147 556.1)"><tspan x="0" y="0">TINYINT</tspan></text>
      </g>
    </g>
    <rect class="st24" x="-1348.6" y="568.8" width="288" height="32"/>
    <g class="st13">
      <g class="st13">
        <text class="st1" transform="translate(-1338.6 588.1)"><tspan x="0" y="0">comment</tspan></text>
      </g>
    </g>
    <g class="st13">
      <g class="st13">
        <text class="st12" transform="translate(-1099.7 588.1)"><tspan x="0" y="0">TEXT</tspan></text>
      </g>
    </g>
    <rect class="st24" x="-1348.6" y="600.8" width="288" height="32"/>
    <g class="st13">
      <g class="st13">
        <text class="st1" transform="translate(-1338.6 620.1)"><tspan x="0" y="0">createdAt</tspan></text>
      </g>
    </g>
    <g class="st13">
      <g class="st13">
        <text class="st12" transform="translate(-1142.3 620.1)"><tspan x="0" y="0">TIMESTAMP</tspan></text>
      </g>
    </g>
    <rect class="st20" x="-489.1" y="720.8" width="250.2" height="32"/>
    <g class="st13">
      <g class="st13">
        <text class="st14" transform="translate(-479.1 740.1)"><tspan x="0" y="0">images</tspan></text>
      </g>
    </g>
    <rect class="st24" x="-489.1" y="752.8" width="250.2" height="32"/>
    <g class="st13">
      <g class="st13">
        <text class="st4" transform="translate(-479.1 772.1)"><tspan x="0" y="0">id</tspan></text>
      </g>
    </g>
    <path class="st0" d="M-456.3,763.1c1.6,0,3,1.3,3,3s-1.3,3-3,3-.8,0-1.1-.2l-.9.9h-.7v1h-1v1h-2v-2l2.8-2.8v-.9c0-1.6,1.3-3,3-3h0ZM-456.3,762.1c-2.2,0-3.9,1.8-3.9,3.9s0,.4,0,.5l-2.5,2.5v3c0,.3.2.5.5.5h3c.3,0,.5-.2.5-.5v-.5h.5c.3,0,.5-.2.5-.5v-.4l.8-.8h.8c2.2,0,3.9-1.8,3.9-3.9s-1.8-3.9-3.9-3.9h-.2ZM-456.3,765c0,.5.4,1,1,1s1-.4,1-1-.4-1-1-1-1,.4-1,1Z"/>
    <g class="st13">
      <g class="st13">
        <text class="st9" transform="translate(-321.8 772.1)"><tspan x="0" y="0">BINARY(16)</tspan></text>
      </g>
    </g>
    <rect class="st24" x="-489.1" y="784.8" width="250.2" height="32"/>
    <g class="st13">
      <g class="st13">
        <text class="st1" transform="translate(-479.1 804.1)"><tspan x="0" y="0">propertyId</tspan></text>
      </g>
    </g>
    <path class="st25" d="M-270.9,791.3h20s2,0,2,2v12s0,2-2,2h-20s-2,0-2-2v-12s0-2,2-2"/>
    <path class="st0" d="M-262,803.8h-1.2l-4.7-7.6h0v7.6h-.9v-9h1.2l4.7,7.5h0v-7.6h1v9h0Z"/>
    <path class="st0" d="M-252.9,803.8h-1.2l-4.7-7.6h0v7.6h-.9v-9h1.2l4.7,7.5h0v-7.6h1v9h0Z"/>
    <g class="st13">
      <g class="st13">
        <text class="st12" transform="translate(-344.7 804.1)"><tspan x="0" y="0">BINARY(16)</tspan></text>
      </g>
    </g>
    <rect class="st24" x="-489.1" y="816.8" width="250.2" height="32"/>
    <g class="st13">
      <g class="st13">
        <text class="st1" transform="translate(-479.1 836.1)"><tspan x="0" y="0">imageUrl</tspan></text>
      </g>
    </g>
    <path class="st25" d="M-270.9,823.3h20s2,0,2,2v12s0,2-2,2h-20s-2,0-2-2v-12s0-2,2-2"/>
    <path class="st0" d="M-262,835.8h-1.2l-4.7-7.6h0v7.6h-.9v-9h1.2l4.7,7.5h0v-7.6h1v9h0Z"/>
    <path class="st0" d="M-252.9,835.8h-1.2l-4.7-7.6h0v7.6h-.9v-9h1.2l4.7,7.5h0v-7.6h1v9h0Z"/>
    <g class="st13">
      <g class="st13">
        <text class="st12" transform="translate(-364.8 836.1)"><tspan x="0" y="0">VARCHAR(255)</tspan></text>
      </g>
    </g>
    <rect class="st24" x="-489.1" y="848.8" width="250.2" height="32"/>
    <g class="st13">
      <g class="st13">
        <text class="st1" transform="translate(-479.1 868.1)"><tspan x="0" y="0">sortIndex</tspan></text>
      </g>
    </g>
    <g class="st13">
      <g class="st13">
        <text class="st12" transform="translate(-297.3 868.1)"><tspan x="0" y="0">TINYINT</tspan></text>
      </g>
    </g>
    <rect class="st24" x="-489.1" y="880.8" width="250.2" height="32"/>
    <g class="st13">
      <g class="st13">
        <text class="st1" transform="translate(-479.1 900.1)"><tspan x="0" y="0">createdAt</tspan></text>
      </g>
    </g>
    <g class="st13">
      <g class="st13">
        <text class="st12" transform="translate(-320.6 900.1)"><tspan x="0" y="0">TIMESTAMP</tspan></text>
      </g>
    </g>
    <rect class="st24" x="-489.1" y="912.8" width="250.2" height="32"/>
    <g class="st13">
      <g class="st13">
        <text class="st1" transform="translate(-479.1 932.1)"><tspan x="0" y="0">updatedAt</tspan></text>
      </g>
    </g>
    <g class="st13">
      <g class="st13">
        <text class="st12" transform="translate(-320.6 932.1)"><tspan x="0" y="0">TIMESTAMP</tspan></text>
      </g>
    </g>
    <rect class="st20" x="-489.1" y="402.8" width="250.2" height="32"/>
    <g class="st13">
      <g class="st13">
        <text class="st14" transform="translate(-479.1 422.1)"><tspan x="0" y="0">favs</tspan></text>
      </g>
    </g>
    <rect class="st24" x="-489.1" y="434.8" width="250.2" height="32"/>
    <g class="st13">
      <g class="st13">
        <text class="st4" transform="translate(-479.1 454.1)"><tspan x="0" y="0">id</tspan></text>
      </g>
    </g>
    <path class="st0" d="M-456.3,445.1c1.6,0,3,1.3,3,3s-1.3,3-3,3-.8,0-1.1-.2l-.9.9h-.7v1h-1v1h-2v-2l2.8-2.8v-.9c0-1.6,1.3-3,3-3h0ZM-456.3,444.1c-2.2,0-3.9,1.8-3.9,3.9s0,.4,0,.5l-2.5,2.5v3c0,.3.2.5.5.5h3c.3,0,.5-.2.5-.5v-.5h.5c.3,0,.5-.2.5-.5v-.4l.8-.8h.8c2.2,0,3.9-1.8,3.9-3.9s-1.8-3.9-3.9-3.9h-.2ZM-456.3,447c0,.5.4,1,1,1s1-.4,1-1-.4-1-1-1-1,.4-1,1Z"/>
    <g class="st13">
      <g class="st13">
        <text class="st9" transform="translate(-321.8 454.1)"><tspan x="0" y="0">BINARY(16)</tspan></text>
      </g>
    </g>
    <rect class="st24" x="-489.1" y="466.8" width="250.2" height="32"/>
    <g class="st13">
      <g class="st13">
        <text class="st1" transform="translate(-479.1 486.1)"><tspan x="0" y="0">userId</tspan></text>
      </g>
    </g>
    <path class="st25" d="M-270.9,473.3h20s2,0,2,2v12s0,2-2,2h-20s-2,0-2-2v-12s0-2,2-2"/>
    <path class="st0" d="M-262,485.8h-1.2l-4.7-7.6h0v7.6h-.9v-9h1.2l4.7,7.5h0v-7.6h1v9h0Z"/>
    <path class="st0" d="M-252.9,485.8h-1.2l-4.7-7.6h0v7.6h-.9v-9h1.2l4.7,7.5h0v-7.6h1v9h0Z"/>
    <g class="st13">
      <g class="st13">
        <text class="st12" transform="translate(-344.7 486.1)"><tspan x="0" y="0">BINARY(16)</tspan></text>
      </g>
    </g>
    <rect class="st24" x="-489.1" y="498.8" width="250.2" height="32"/>
    <g class="st13">
      <g class="st13">
        <text class="st1" transform="translate(-479.1 518.1)"><tspan x="0" y="0">propertyId</tspan></text>
      </g>
    </g>
    <path class="st25" d="M-270.9,505.3h20s2,0,2,2v12s0,2-2,2h-20s-2,0-2-2v-12s0-2,2-2"/>
    <path class="st0" d="M-262,517.8h-1.2l-4.7-7.6h0v7.6h-.9v-9h1.2l4.7,7.5h0v-7.6h1v9h0Z"/>
    <path class="st0" d="M-252.9,517.8h-1.2l-4.7-7.6h0v7.6h-.9v-9h1.2l4.7,7.5h0v-7.6h1v9h0Z"/>
    <g class="st13">
      <g class="st13">
        <text class="st12" transform="translate(-344.7 518.1)"><tspan x="0" y="0">BINARY(16)</tspan></text>
      </g>
    </g>
    <rect class="st24" x="-489.1" y="530.8" width="250.2" height="32"/>
    <g class="st13">
      <g class="st13">
        <text class="st1" transform="translate(-479.1 550.1)"><tspan x="0" y="0">createdAt</tspan></text>
      </g>
    </g>
    <g class="st13">
      <g class="st13">
        <text class="st12" transform="translate(-320.6 550.1)"><tspan x="0" y="0">TIMESTAMP</tspan></text>
      </g>
    </g>
    <rect class="st20" x="-1348.6" y="16.8" width="288" height="32"/>
    <g class="st13">
      <g class="st13">
        <text class="st14" transform="translate(-1338.6 36.1)"><tspan x="0" y="0">notifications</tspan></text>
      </g>
    </g>
    <rect class="st24" x="-1348.6" y="48.8" width="288" height="32"/>
    <g class="st13">
      <g class="st13">
        <text class="st4" transform="translate(-1338.6 68.1)"><tspan x="0" y="0">id</tspan></text>
      </g>
    </g>
    <path class="st0" d="M-1315.9,59.1c1.6,0,3,1.3,3,3s-1.3,3-3,3-.8,0-1.1-.2l-.9.9h-.7v1h-1v1h-2v-2l2.8-2.8v-.9c0-1.6,1.3-3,3-3h0ZM-1315.9,58.1c-2.2,0-3.9,1.8-3.9,3.9s0,.4,0,.5l-2.5,2.5v3c0,.3.2.5.5.5h3c.3,0,.5-.2.5-.5v-.5h.5c.3,0,.5-.2.5-.5v-.4l.8-.8h.8c2.2,0,3.9-1.8,3.9-3.9s-1.8-3.9-3.9-3.9h-.2ZM-1315.9,61c0,.5.4,1,1,1s1-.4,1-1-.4-1-1-1-1,.4-1,1Z"/>
    <g class="st13">
      <g class="st13">
        <text class="st9" transform="translate(-1143.6 68.1)"><tspan x="0" y="0">BINARY(16)</tspan></text>
      </g>
    </g>
    <rect class="st24" x="-1348.6" y="80.8" width="288" height="32"/>
    <g class="st13">
      <g class="st13">
        <text class="st1" transform="translate(-1338.6 100.1)"><tspan x="0" y="0">userId</tspan></text>
      </g>
    </g>
    <path class="st25" d="M-1092.6,87.3h20s2,0,2,2v12s0,2-2,2h-20s-2,0-2-2v-12s0-2,2-2"/>
    <path class="st0" d="M-1083.8,99.8h-1.2l-4.7-7.6h0v7.6h-.9v-9h1.2l4.7,7.5h0v-7.6h1v9h-.1Z"/>
    <path class="st0" d="M-1074.6,99.8h-1.2l-4.7-7.6h0v7.6h-.9v-9h1.2l4.7,7.5h0v-7.6h1v9h-.1Z"/>
    <g class="st13">
      <g class="st13">
        <text class="st12" transform="translate(-1166.5 100.1)"><tspan x="0" y="0">BINARY(16)</tspan></text>
      </g>
    </g>
    <rect class="st24" x="-1348.6" y="112.8" width="288" height="32"/>
    <g class="st13">
      <g class="st13">
        <text class="st1" transform="translate(-1338.6 132.1)"><tspan x="0" y="0">propertyId</tspan></text>
      </g>
    </g>
    <path class="st25" d="M-1092.6,119.3h20s2,0,2,2v12s0,2-2,2h-20s-2,0-2-2v-12s0-2,2-2"/>
    <path class="st0" d="M-1083.8,131.8h-1.2l-4.7-7.6h0v7.6h-.9v-9h1.2l4.7,7.5h0v-7.6h1v9h-.1Z"/>
    <path class="st0" d="M-1074.6,131.8h-1.2l-4.7-7.6h0v7.6h-.9v-9h1.2l4.7,7.5h0v-7.6h1v9h-.1Z"/>
    <g class="st13">
      <g class="st13">
        <text class="st12" transform="translate(-1166.5 132.1)"><tspan x="0" y="0">BINARY(16)</tspan></text>
      </g>
    </g>
    <rect class="st24" x="-1348.6" y="144.8" width="288" height="32"/>
    <g class="st13">
      <g class="st13">
        <text class="st1" transform="translate(-1338.6 164.1)"><tspan x="0" y="0">message</tspan></text>
      </g>
    </g>
    <path class="st25" d="M-1092.6,151.3h20s2,0,2,2v12s0,2-2,2h-20s-2,0-2-2v-12s0-2,2-2"/>
    <path class="st0" d="M-1083.8,163.8h-1.2l-4.7-7.6h0v7.6h-.9v-9h1.2l4.7,7.5h0v-7.6h1v9h-.1Z"/>
    <path class="st0" d="M-1074.6,163.8h-1.2l-4.7-7.6h0v7.6h-.9v-9h1.2l4.7,7.5h0v-7.6h1v9h-.1Z"/>
    <g class="st13">
      <g class="st13">
        <text class="st12" transform="translate(-1127.7 164.1)"><tspan x="0" y="0">TEXT</tspan></text>
      </g>
    </g>
    <rect class="st24" x="-1348.6" y="176.8" width="288" height="32"/>
    <g class="st13">
      <g class="st13">
        <text class="st1" transform="translate(-1338.6 196.1)"><tspan x="0" y="0">type</tspan></text>
      </g>
    </g>
    <path class="st25" d="M-1092.6,183.3h20s2,0,2,2v12s0,2-2,2h-20s-2,0-2-2v-12s0-2,2-2"/>
    <path class="st0" d="M-1083.8,195.8h-1.2l-4.7-7.6h0v7.6h-.9v-9h1.2l4.7,7.5h0v-7.6h1v9h-.1Z"/>
    <path class="st0" d="M-1074.6,195.8h-1.2l-4.7-7.6h0v7.6h-.9v-9h1.2l4.7,7.5h0v-7.6h1v9h-.1Z"/>
    <path class="st25" d="M-1109.6,183.3h9s2,0,2,2v12s0,2-2,2h-9s-2,0-2-2v-12s0-2,2-2"/>
    <path class="st0" d="M-1102.7,195.8h-5v-8.9h5v.9h-3.9v2.9h3.7v.9h-3.7v3.3h3.9v.9h0Z"/>
    <g class="st13">
      <g class="st13">
        <text class="st12" transform="translate(-1263.4 196.1)"><tspan x="0" y="0">notifications_type_enum</tspan></text>
      </g>
    </g>
    <rect class="st24" x="-1348.6" y="208.8" width="288" height="32"/>
    <g class="st13">
      <g class="st13">
        <text class="st1" transform="translate(-1338.6 228.1)"><tspan x="0" y="0">isRead</tspan></text>
      </g>
    </g>
    <g class="st13">
      <g class="st13">
        <text class="st12" transform="translate(-1131.3 228.1)"><tspan x="0" y="0">BOOLEAN</tspan></text>
      </g>
    </g>
    <rect class="st24" x="-1348.6" y="240.8" width="288" height="32"/>
    <g class="st13">
      <g class="st13">
        <text class="st1" transform="translate(-1338.6 260.1)"><tspan x="0" y="0">createdAt</tspan></text>
      </g>
    </g>
    <g class="st13">
      <g class="st13">
        <text class="st12" transform="translate(-1142.3 260.1)"><tspan x="0" y="0">TIMESTAMP</tspan></text>
      </g>
    </g>
    <rect class="st24" x="-1348.6" y="272.8" width="288" height="32"/>
    <g class="st13">
      <g class="st13">
        <text class="st1" transform="translate(-1338.6 292.1)"><tspan x="0" y="0">readAt</tspan></text>
      </g>
    </g>
    <g class="st13">
      <g class="st13">
        <text class="st12" transform="translate(-1142.3 292.1)"><tspan x="0" y="0">TIMESTAMP</tspan></text>
      </g>
    </g>
  </g>
  <g>
    <rect class="st21" x="-480" y="480" width="980" height="20" transform="translate(-480 500) rotate(-90)"/>
    <rect class="st19" x="-50" y="1030" width="120" height="20" transform="translate(-1030 1050) rotate(-90)"/>
  </g>
  <g>
    <path class="st5" d="M602.6,82.2h60.9c5,0,9,4,9,9v463.3c0,5-4,9-9,9h-63.6,63.6c5,0,9-4,9-9V91.2c0-5-4-9-9-9h-60.9ZM602.6,82.2h-11.7M599.9,563.5h-9M602.6,78.6v7.2M590.8,559.9l8.1,3.6-8.1,3.6"/>
    <g class="st13">
      <text class="st18" transform="translate(599 98.2)"><tspan x="0" y="0">1</tspan></text>
    </g>
    <g class="st13">
      <text class="st18" transform="translate(595.5 559)"><tspan x="0" y="0">*</tspan></text>
    </g>
    <path class="st5" d="M605.3,67.7h31.6c6,0,9,3,9,9v115.4c0,6,3,9,9,9h35.6-35.6c-6,0-9-3-9-9v-115.4c0-6-3-9-9-9h-31.6ZM599.9,67.7h-9M690.5,201.2h9M605.3,67.7v.5c0,0-.2.5-.2.5l-.2.5-.3.4-.4.3-.5.2-.5.2h-.5c0,0-.5,0-.5,0l-.5-.2-.5-.2-.4-.3-.3-.4-.2-.5-.2-.5v-.5c0,0,0-.5,0-.5l.2-.5.2-.5.3-.4.4-.3.5-.2.5-.2h.5c0,0,.5,0,.5,0l.5.2.5.2.4.3.3.4.2.5.2.5v.5M699.5,197.5l-8.1,3.6,8.1,3.6"/>
    <g class="st13">
      <text class="st18" transform="translate(592 63.2)"><tspan x="0" y="0">0..1</tspan></text>
    </g>
    <g class="st13">
      <text class="st18" transform="translate(689.9 196.6)"><tspan x="0" y="0">*</tspan></text>
    </g>
    <path class="st5" d="M605.3,534.7h30.7c6,0,9-3,9-9V239c0-6,3-9,9-9h36.5-36.5c-6,0-9,3-9,9v286.7c0,6-3,9-9,9h-30.7ZM599.9,534.7h-9M690.5,230h9M605.3,534.7v.5c0,0-.2.5-.2.5l-.2.5-.3.4-.4.3-.5.2-.5.2h-.5c0,0-.5,0-.5,0l-.5-.2-.5-.2-.4-.3-.3-.4-.2-.5-.2-.5v-.5c0,0,0-.5,0-.5l.2-.5.2-.5.3-.4.4-.3.5-.2.5-.2h.5c0,0,.5,0,.5,0l.5.2.5.2.4.3.3.4.2.5.2.5v.5M699.5,226.4l-8.1,3.6,8.1,3.6"/>
    <g class="st13">
      <text class="st18" transform="translate(592 530.2)"><tspan x="0" y="0">0..1</tspan></text>
    </g>
    <g class="st13">
      <text class="st18" transform="translate(689.9 225.5)"><tspan x="0" y="0">*</tspan></text>
    </g>
    <path class="st5" d="M605.3,67.7h328c5,0,9,4,9,9v684.7c0,5-4,9-9,9h-8.4,9-9,8.4c5,0,9-4,9-9V76.8c0-5-4-9-9-9h-328ZM599.9,67.7h-9M915.9,770.4h9M605.3,67.7v.5c0,0-.2.5-.2.5l-.2.5-.3.4-.4.3-.5.2-.5.2h-.5c0,0-.5,0-.5,0l-.5-.2-.5-.2-.4-.3-.3-.4-.2-.5-.2-.5v-.5c0,0,0-.5,0-.5l.2-.5.2-.5.3-.4.4-.3.5-.2.5-.2h.5c0,0,.5,0,.5,0l.5.2.5.2.4.3.3.4.2.5.2.5v.5M916.8,774.1l8.1-3.6-8.1-3.6"/>
    <g class="st13">
      <text class="st18" transform="translate(592 63.2)"><tspan x="0" y="0">0..1</tspan></text>
    </g>
    <g class="st13">
      <text class="st18" transform="translate(919.1 765.9)"><tspan x="0" y="0">*</tspan></text>
    </g>
    <path class="st5" d="M605.3,67.7h3.6c6,0,9,3,9,9v713.5c0,6,3,9,9,9h63.6-63.6c-6,0-9-3-9-9V76.8c0-6-3-9-9-9h-3.6ZM599.9,67.7h-9M690.5,799.3h9M605.3,67.7v.5c0,0-.2.5-.2.5l-.2.5-.3.4-.4.3-.5.2-.5.2h-.5c0,0-.5,0-.5,0l-.5-.2-.5-.2-.4-.3-.3-.4-.2-.5-.2-.5v-.5c0,0,0-.5,0-.5l.2-.5.2-.5.3-.4.4-.3.5-.2.5-.2h.5c0,0,.5,0,.5,0l.5.2.5.2.4.3.3.4.2.5.2.5v.5M699.5,795.7l-8.1,3.6,8.1,3.6"/>
    <g class="st13">
      <text class="st18" transform="translate(592 63.2)"><tspan x="0" y="0">0..1</tspan></text>
    </g>
    <g class="st13">
      <text class="st18" transform="translate(689.9 794.8)"><tspan x="0" y="0">*</tspan></text>
    </g>
    <path class="st5" d="M930.3,172.3h30.7c5,0,9,4,9,9v637.8c0,5-4,9-9,9h-36.1,36.1c5,0,9-4,9-9V181.4c0-5-4.1-9.1-9.1-9.1h-30.7ZM924.9,172.3h-9M924.9,828.1h-9M930.3,172.3v.5c0,0-.2.5-.2.5l-.2.5-.3.4-.4.3-.5.2-.5.2h-.5c0,0-.5,0-.5,0l-.5-.2-.5-.2-.4-.3-.3-.4-.2-.5-.2-.5v-.5c0,0,0-.5,0-.5l.2-.5.2-.5.3-.4.4-.3.5-.2.5-.2h.5c0,0,.5,0,.5,0l.5.2.5.2.4.3.3.4.2.5.2.5v.5M915.9,824.5l8.1,3.6-8.1,3.6"/>
    <g class="st13">
      <text class="st18" transform="translate(918.6 167.8)"><tspan x="0" y="0">0..1</tspan></text>
    </g>
    <g class="st13">
      <text class="st18" transform="translate(918.6 823.6)"><tspan x="0" y="0">*</tspan></text>
    </g>
    <path class="st5" d="M360.1,534.7h-30.7c-5,0-9,4-9,9v268.8c0,5-4,9-9,9h.1-9,9-.1c5,0,9-4,9-9v-268.8c0-5,4-9,9-9h30.7ZM365.5,534.7h9M302.5,821.5h-9M365.5,534.7v.5c0,0-.2.5-.2.5l-.2.5-.3.4-.4.3-.5.2-.5.2h-.5c0,0-.5,0-.5,0l-.5-.2-.5-.2-.4-.3-.3-.4-.2-.5-.2-.5v-.5c0,0,0-.5,0-.5l.2-.5.2-.5.3-.4.4-.3.5-.2.5-.2h.5c0,0,.5,0,.5,0l.5.2.5.2.4.3.3.4.2.5.2.5v.5M293.5,817.9l8.1,3.6-8.1,3.6"/>
    <g class="st13">
      <text class="st18" transform="translate(352.2 530.2)"><tspan x="0" y="0">0..1</tspan></text>
    </g>
    <g class="st13">
      <text class="st18" transform="translate(296.2 817)"><tspan x="0" y="0">*</tspan></text>
    </g>
    <path class="st5" d="M360.1,74.9h-3.6.1c-5,0-9,4-9,9v108.2c0,5-4,9-9,9h-36.1,36.1c5,0,9-4,9-9v-108.2c0-5,4-9,9-9h-.1,3.6ZM365.5,74.9h9M302.5,201.2h-9M365.5,74.9v.5c0,0-.2.5-.2.5l-.2.5-.3.4-.4.3-.5.2-.5.2h-.5c0,0-.5,0-.5,0l-.5-.2-.5-.2-.4-.3-.3-.4-.2-.5-.2-.5v-.5c0,0,0-.5,0-.5l.2-.5.2-.5.3-.4.4-.3.5-.2.5-.2h.5c0,0,.5,0,.5,0l.5.2.5.2.4.3.3.4.2.5.2.5v.5M293.5,197.5l8.1,3.6-8.1,3.6"/>
    <g class="st13">
      <text class="st18" transform="translate(352.2 70.4)"><tspan x="0" y="0">0..1</tspan></text>
    </g>
    <g class="st13">
      <text class="st18" transform="translate(298.1 196.6)"><tspan x="0" y="0">*</tspan></text>
    </g>
    <path class="st5" d="M360.1,534.7h-4.1.5c-6,0-9-3-9-9V239c0-6-3-9-9-9h-35.9,35.9c6,0,9,3,9,9v286.7c0,6,3,9,9,9h-.5,4.1ZM365.5,534.7h9M302.5,230h-9M365.5,534.7v.5c0,0-.2.5-.2.5l-.2.5-.3.4-.4.3-.5.2-.5.2h-.5c0,0-.5,0-.5,0l-.5-.2-.5-.2-.4-.3-.3-.4-.2-.5-.2-.5v-.5c0,0,0-.5,0-.5l.2-.5.2-.5.3-.4.4-.3.5-.2.5-.2h.5c0,0,.5,0,.5,0l.5.2.5.2.4.3.3.4.2.5.2.5v.5M293.5,226.4l8.1,3.6-8.1,3.6"/>
    <g class="st13">
      <text class="st18" transform="translate(352.2 530.2)"><tspan x="0" y="0">0..1</tspan></text>
    </g>
    <g class="st13">
      <text class="st18" transform="translate(298.1 225.5)"><tspan x="0" y="0">*</tspan></text>
    </g>
    <path class="st5" d="M360.1,74.9H59c-5,0-9,4-9,9v360.3c0,5,4,9,9,9h9.1-9.1c-5,0-9-4-9-9V84c0-5,4-9,9-9h301.1ZM365.5,74.9h9M77.2,453.2h-9M365.5,74.9v.5c0,0-.2.5-.2.5l-.2.5-.3.4-.4.3-.5.2-.5.2h-.5c0,0-.5,0-.5,0l-.5-.2-.5-.2-.4-.3-.3-.4-.2-.5-.2-.5v-.5c0,0,0-.5,0-.5l.2-.5.2-.5.3-.4.4-.3.5-.2.5-.2h.5c0,0,.5,0,.5,0l.5.2.5.2.4.3.3.4.2.5.2.5v.5M77.2,456.8l-8.1-3.6,8.1-3.6"/>
    <g class="st13">
      <text class="st18" transform="translate(352.2 70.4)"><tspan x="0" y="0">0..1</tspan></text>
    </g>
    <g class="st13">
      <text class="st18" transform="translate(65.6 448.7)"><tspan x="0" y="0">*</tspan></text>
    </g>
    <path class="st5" d="M360.1,534.7h-30.5c-5,0-9-4-9-9v-34.6c0-5-4-9-9-9h-9,9c5,0,9,4,9,9v34.6c0,5,4,9,9,9h30.5ZM365.5,534.7h9M302.5,482.1h-9M365.5,534.7v.5c0,0-.2.5-.2.5l-.2.5-.3.4-.4.3-.5.2-.5.2h-.5c0,0-.5,0-.5,0l-.5-.2-.5-.2-.4-.3-.3-.4-.2-.5-.2-.5v-.5c0,0,0-.5,0-.5l.2-.5.2-.5.3-.4.4-.3.5-.2.5-.2h.5c0,0,.5,0,.5,0l.5.2.5.2.4.3.3.4.2.5.2.5v.5M293.5,478.5l8.1,3.6-8.1,3.6"/>
    <g class="st13">
      <text class="st18" transform="translate(352.2 530.2)"><tspan x="0" y="0">0..1</tspan></text>
    </g>
    <g class="st13">
      <text class="st18" transform="translate(298.1 477.6)"><tspan x="0" y="0">*</tspan></text>
    </g>
    <rect class="st19" x="374.5" y="31.7" width="216.3" height="28.8"/>
    <text class="st10" transform="translate(383.5 49)"><tspan x="0" y="0">users</tspan></text>
    <rect class="st23" x="374.5" y="60.5" width="216.3" height="28.8"/>
    <text class="st2" transform="translate(383.5 77.9)"><tspan x="0" y="0">id</tspan></text>
    <path class="st0" d="M404,69.8c1.5,0,2.7,1.2,2.7,2.7s-1.2,2.7-2.7,2.7-.7,0-1-.2l-.8.8h-.6v.9h-.9v.9h-1.8v-1.8l2.5-2.5c0-.3-.1-.5-.1-.8,0-1.5,1.2-2.7,2.7-2.7ZM404,68.9c-2,0-3.5,1.6-3.5,3.5s0,.3,0,.5l-2.3,2.3c0,0-.1.2-.1.3v2.4c0,.2.2.4.4.4h2.7c.2,0,.4-.2.4-.4v-.4h.4c.2,0,.4-.2.4-.4v-.4l.7-.7c.2,0,.5,0,.7,0,2,0,3.5-1.6,3.5-3.5s-1.6-3.5-3.5-3.5ZM404,71.5c0,.5.4.9.9.9s.9-.4.9-.9-.4-.9-.9-.9-.9.4-.9.9Z"/>
    <path class="st25" d="M562,66.4h18s1.8,0,1.8,1.8v10.8s0,1.8-1.8,1.8h-18s-1.8,0-1.8-1.8v-10.8s0-1.8,1.8-1.8"/>
    <path class="st0" d="M569.9,77.7h-1.1l-4.3-6.8h0c0,.2,0,.4,0,.6,0,.2,0,.5,0,.7,0,.3,0,.5,0,.8v4.7h-.8v-8.1h1l4.3,6.8h0c0-.1,0-.3,0-.5,0-.2,0-.5,0-.8,0-.3,0-.5,0-.8v-4.7h.9v8.1Z"/>
    <path class="st0" d="M578.2,77.7h-1.1l-4.3-6.8h0c0,.2,0,.4,0,.6,0,.2,0,.5,0,.7,0,.3,0,.5,0,.8v4.7h-.8v-8.1h1l4.3,6.8h0c0-.1,0-.3,0-.5,0-.2,0-.5,0-.8,0-.3,0-.5,0-.8v-4.7h.9v8.1Z"/>
    <text class="st8" transform="translate(536.4 77.9)"><tspan x="0" y="0">INT</tspan></text>
    <rect class="st23" x="374.5" y="89.4" width="216.3" height="28.8"/>
    <text class="st3" transform="translate(383.5 106.7)"><tspan x="0" y="0">name</tspan></text>
    <text class="st16" transform="translate(502.5 106.7)"><tspan x="0" y="0">VARCHAR(100)</tspan></text>
    <rect class="st23" x="374.5" y="118.2" width="216.3" height="28.8"/>
    <text class="st3" transform="translate(383.5 135.6)"><tspan x="0" y="0">lastName</tspan></text>
    <text class="st16" transform="translate(502.5 135.6)"><tspan x="0" y="0">VARCHAR(100)</tspan></text>
    <rect class="st23" x="374.5" y="147.1" width="216.3" height="28.8"/>
    <text class="st3" transform="translate(383.5 164.4)"><tspan x="0" y="0">legalId</tspan></text>
    <path class="st25" d="M562,152.9h18s1.8,0,1.8,1.8v10.8s0,1.8-1.8,1.8h-18s-1.8,0-1.8-1.8v-10.8s0-1.8,1.8-1.8"/>
    <path class="st0" d="M569.9,164.2h-1.1l-4.3-6.8h0c0,.2,0,.4,0,.6,0,.2,0,.5,0,.7,0,.3,0,.5,0,.8v4.7h-.8v-8.1h1l4.3,6.8h0c0-.1,0-.3,0-.5,0-.2,0-.5,0-.8,0-.3,0-.5,0-.8v-4.7h.9v8.1Z"/>
    <path class="st0" d="M578.2,164.2h-1.1l-4.3-6.8h0c0,.2,0,.4,0,.6,0,.2,0,.5,0,.7,0,.3,0,.5,0,.8v4.7h-.8v-8.1h1l4.3,6.8h0c0-.1,0-.3,0-.5,0-.2,0-.5,0-.8,0-.3,0-.5,0-.8v-4.7h.9v8.1Z"/>
    <text class="st16" transform="translate(484 164.4)"><tspan x="0" y="0">VARCHAR(20)</tspan></text>
    <rect class="st23" x="374.5" y="175.9" width="216.3" height="28.8"/>
    <text class="st3" transform="translate(383.5 193.3)"><tspan x="0" y="0">email</tspan></text>
    <path class="st25" d="M562,181.8h18s1.8,0,1.8,1.8v10.8s0,1.8-1.8,1.8h-18s-1.8,0-1.8-1.8v-10.8s0-1.8,1.8-1.8"/>
    <path class="st0" d="M569.9,193h-1.1l-4.3-6.8h0c0,.2,0,.4,0,.6,0,.2,0,.5,0,.7,0,.3,0,.5,0,.8v4.7h-.8v-8.1h1l4.3,6.8h0c0-.1,0-.3,0-.5,0-.2,0-.5,0-.8,0-.3,0-.5,0-.8v-4.7h.9v8.1Z"/>
    <path class="st0" d="M578.2,193h-1.1l-4.3-6.8h0c0,.2,0,.4,0,.6,0,.2,0,.5,0,.7,0,.3,0,.5,0,.8v4.7h-.8v-8.1h1l4.3,6.8h0c0-.1,0-.3,0-.5,0-.2,0-.5,0-.8,0-.3,0-.5,0-.8v-4.7h.9v8.1Z"/>
    <text class="st16" transform="translate(477.3 193.3)"><tspan x="0" y="0">VARCHAR(100)</tspan></text>
    <rect class="st23" x="374.5" y="204.8" width="216.3" height="28.8"/>
    <text class="st3" transform="translate(383.5 222.1)"><tspan x="0" y="0">password</tspan></text>
    <text class="st16" transform="translate(502.5 222.1)"><tspan x="0" y="0">VARCHAR(255)</tspan></text>
    <rect class="st23" x="374.5" y="233.6" width="216.3" height="28.8"/>
    <text class="st3" transform="translate(383.5 251)"><tspan x="0" y="0">phone</tspan></text>
    <text class="st16" transform="translate(502.5 251)"><tspan x="0" y="0">VARCHAR(255)</tspan></text>
    <rect class="st23" x="374.5" y="262.4" width="216.3" height="28.8"/>
    <text class="st3" transform="translate(383.5 279.8)"><tspan x="0" y="0">avatarUrl</tspan></text>
    <text class="st16" transform="translate(502.5 279.8)"><tspan x="0" y="0">VARCHAR(255)</tspan></text>
    <rect class="st23" x="374.5" y="291.3" width="216.3" height="28.8"/>
    <text class="st3" transform="translate(383.5 308.6)"><tspan x="0" y="0">role</tspan></text>
    <path class="st25" d="M571.9,297.2h8.1s1.8,0,1.8,1.8v10.8s0,1.8-1.8,1.8h-8.1s-1.8,0-1.8-1.8v-10.8s0-1.8,1.8-1.8"/>
    <path class="st0" d="M578.2,308.4h-4.5v-8h4.5v.8h-3.5v2.6h3.3v.8h-3.3v3h3.5v.8Z"/>
    <rect class="st23" x="374.5" y="320.1" width="216.3" height="28.8"/>
    <text class="st3" transform="translate(383.5 337.5)"><tspan x="0" y="0">recoveryCode</tspan></text>
    <text class="st16" transform="translate(502.5 337.5)"><tspan x="0" y="0">VARCHAR(100)</tspan></text>
    <rect class="st23" x="374.5" y="349" width="216.3" height="28.8"/>
    <text class="st3" transform="translate(383.5 366.3)"><tspan x="0" y="0">isEmailVerified</tspan></text>
    <text class="st16" transform="translate(527.2 366.3)"><tspan x="0" y="0">BOOLEAN</tspan></text>
    <rect class="st23" x="374.5" y="377.8" width="216.3" height="28.8"/>
    <text class="st3" transform="translate(383.5 395.2)"><tspan x="0" y="0">isDocsVerified</tspan></text>
    <text class="st16" transform="translate(527.2 395.2)"><tspan x="0" y="0">BOOLEAN</tspan></text>
    <rect class="st23" x="374.5" y="406.7" width="216.3" height="28.8"/>
    <text class="st3" transform="translate(383.5 424)"><tspan x="0" y="0">createdAt</tspan></text>
    <text class="st16" transform="translate(517.2 424)"><tspan x="0" y="0">TIMESTAMP</tspan></text>
    <rect class="st23" x="374.5" y="435.5" width="216.3" height="28.8"/>
    <text class="st3" transform="translate(383.5 452.9)"><tspan x="0" y="0">updatedAt</tspan></text>
    <text class="st16" transform="translate(517.2 452.9)"><tspan x="0" y="0">TIMESTAMP</tspan></text>
    <rect class="st21" x="374.5" y="491.4" width="216.3" height="28.8"/>
    <text class="st17" transform="translate(383.5 508.8)"><tspan x="0" y="0">properties</tspan></text>
    <rect class="st23" x="374.5" y="520.3" width="216.3" height="28.8"/>
    <text class="st2" transform="translate(383.5 537.6)"><tspan x="0" y="0">id</tspan></text>
    <path class="st0" d="M404,529.5c1.5,0,2.7,1.2,2.7,2.7s-1.2,2.7-2.7,2.7-.7,0-1-.2l-.8.8h-.6v.9h-.9v.9h-1.8v-1.8l2.5-2.5c0-.3-.1-.5-.1-.8,0-1.5,1.2-2.7,2.7-2.7ZM404,528.6c-2,0-3.5,1.6-3.5,3.5s0,.3,0,.5l-2.3,2.3c0,0-.1.2-.1.3v2.4c0,.2.2.4.4.4h2.7c.2,0,.4-.2.4-.4v-.4h.4c.2,0,.4-.2.4-.4v-.4l.7-.7c.2,0,.5,0,.7,0,2,0,3.5-1.6,3.5-3.5s-1.6-3.5-3.5-3.5ZM404,531.3c0,.5.4.9.9.9s.9-.4.9-.9-.4-.9-.9-.9-.9.4-.9.9Z"/>
    <path class="st25" d="M562,526.1h18s1.8,0,1.8,1.8v10.8s0,1.8-1.8,1.8h-18s-1.8,0-1.8-1.8v-10.8s0-1.8,1.8-1.8"/>
    <path class="st0" d="M569.9,537.4h-1.1l-4.3-6.8h0c0,.2,0,.4,0,.6,0,.2,0,.5,0,.7,0,.3,0,.5,0,.8v4.7h-.8v-8.1h1l4.3,6.8h0c0-.1,0-.3,0-.5,0-.2,0-.5,0-.8,0-.3,0-.5,0-.8v-4.7h.9v8.1Z"/>
    <path class="st0" d="M578.2,537.4h-1.1l-4.3-6.8h0c0,.2,0,.4,0,.6,0,.2,0,.5,0,.7,0,.3,0,.5,0,.8v4.7h-.8v-8.1h1l4.3,6.8h0c0-.1,0-.3,0-.5,0-.2,0-.5,0-.8,0-.3,0-.5,0-.8v-4.7h.9v8.1Z"/>
    <text class="st8" transform="translate(536.4 537.6)"><tspan x="0" y="0">INT</tspan></text>
    <rect class="st23" x="374.5" y="549.1" width="216.3" height="28.8"/>
    <text class="st3" transform="translate(383.5 566.5)"><tspan x="0" y="0">ownerId</tspan></text>
    <path class="st25" d="M562,555h18s1.8,0,1.8,1.8v10.8s0,1.8-1.8,1.8h-18s-1.8,0-1.8-1.8v-10.8s0-1.8,1.8-1.8"/>
    <path class="st0" d="M569.9,566.2h-1.1l-4.3-6.8h0c0,.2,0,.4,0,.6,0,.2,0,.5,0,.7,0,.3,0,.5,0,.8v4.7h-.8v-8.1h1l4.3,6.8h0c0-.1,0-.3,0-.5,0-.2,0-.5,0-.8,0-.3,0-.5,0-.8v-4.7h.9v8.1Z"/>
    <path class="st0" d="M578.2,566.2h-1.1l-4.3-6.8h0c0,.2,0,.4,0,.6,0,.2,0,.5,0,.7,0,.3,0,.5,0,.8v4.7h-.8v-8.1h1l4.3,6.8h0c0-.1,0-.3,0-.5,0-.2,0-.5,0-.8,0-.3,0-.5,0-.8v-4.7h.9v8.1Z"/>
    <text class="st16" transform="translate(538 566.5)"><tspan x="0" y="0">INT</tspan></text>
    <rect class="st23" x="374.5" y="577.9" width="216.3" height="28.8"/>
    <text class="st3" transform="translate(383.5 595.3)"><tspan x="0" y="0">propertyTitle</tspan></text>
    <path class="st25" d="M562,583.8h18s1.8,0,1.8,1.8v10.8s0,1.8-1.8,1.8h-18s-1.8,0-1.8-1.8v-10.8s0-1.8,1.8-1.8"/>
    <path class="st0" d="M569.9,595.1h-1.1l-4.3-6.8h0c0,.2,0,.4,0,.6,0,.2,0,.5,0,.7,0,.3,0,.5,0,.8v4.7h-.8v-8.1h1l4.3,6.8h0c0-.1,0-.3,0-.5,0-.2,0-.5,0-.8,0-.3,0-.5,0-.8v-4.7h.9v8.1Z"/>
    <path class="st0" d="M578.2,595.1h-1.1l-4.3-6.8h0c0,.2,0,.4,0,.6,0,.2,0,.5,0,.7,0,.3,0,.5,0,.8v4.7h-.8v-8.1h1l4.3,6.8h0c0-.1,0-.3,0-.5,0-.2,0-.5,0-.8,0-.3,0-.5,0-.8v-4.7h.9v8.1Z"/>
    <text class="st16" transform="translate(477.3 595.3)"><tspan x="0" y="0">VARCHAR(255)</tspan></text>
    <rect class="st23" x="374.5" y="606.8" width="216.3" height="28.8"/>
    <text class="st3" transform="translate(383.5 624.1)"><tspan x="0" y="0">propertyType</tspan></text>
    <path class="st25" d="M562,612.6h18s1.8,0,1.8,1.8v10.8s0,1.8-1.8,1.8h-18s-1.8,0-1.8-1.8v-10.8s0-1.8,1.8-1.8"/>
    <path class="st0" d="M569.9,623.9h-1.1l-4.3-6.8h0c0,.2,0,.4,0,.6,0,.2,0,.5,0,.7,0,.3,0,.5,0,.8v4.7h-.8v-8.1h1l4.3,6.8h0c0-.1,0-.3,0-.5,0-.2,0-.5,0-.8,0-.3,0-.5,0-.8v-4.7h.9v8.1Z"/>
    <path class="st0" d="M578.2,623.9h-1.1l-4.3-6.8h0c0,.2,0,.4,0,.6,0,.2,0,.5,0,.7,0,.3,0,.5,0,.8v4.7h-.8v-8.1h1l4.3,6.8h0c0-.1,0-.3,0-.5,0-.2,0-.5,0-.8,0-.3,0-.5,0-.8v-4.7h.9v8.1Z"/>
    <path class="st25" d="M546.7,612.6h8.1s1.8,0,1.8,1.8v10.8s0,1.8-1.8,1.8h-8.1s-1.8,0-1.8-1.8v-10.8s0-1.8,1.8-1.8"/>
    <path class="st0" d="M553,623.9h-4.5v-8h4.5v.8h-3.5v2.6h3.3v.8h-3.3v3h3.5v.8Z"/>
    <rect class="st23" x="374.5" y="635.6" width="216.3" height="28.8"/>
    <text class="st3" transform="translate(383.5 653)"><tspan x="0" y="0">description</tspan></text>
    <path class="st25" d="M562,641.5h18s1.8,0,1.8,1.8v10.8s0,1.8-1.8,1.8h-18s-1.8,0-1.8-1.8v-10.8s0-1.8,1.8-1.8"/>
    <path class="st0" d="M569.9,652.8h-1.1l-4.3-6.8h0c0,.2,0,.4,0,.6,0,.2,0,.5,0,.7,0,.3,0,.5,0,.8v4.7h-.8v-8.1h1l4.3,6.8h0c0-.1,0-.3,0-.5,0-.2,0-.5,0-.8,0-.3,0-.5,0-.8v-4.7h.9v8.1Z"/>
    <path class="st0" d="M578.2,652.8h-1.1l-4.3-6.8h0c0,.2,0,.4,0,.6,0,.2,0,.5,0,.7,0,.3,0,.5,0,.8v4.7h-.8v-8.1h1l4.3,6.8h0c0-.1,0-.3,0-.5,0-.2,0-.5,0-.8,0-.3,0-.5,0-.8v-4.7h.9v8.1Z"/>
    <text class="st16" transform="translate(530.4 653)"><tspan x="0" y="0">TEXT</tspan></text>
    <rect class="st23" x="374.5" y="664.5" width="216.3" height="28.8"/>
    <text class="st3" transform="translate(383.5 681.8)"><tspan x="0" y="0">addressLocality</tspan></text>
    <text class="st16" transform="translate(502.5 681.8)"><tspan x="0" y="0">VARCHAR(255)</tspan></text>
    <rect class="st23" x="374.5" y="693.3" width="216.3" height="28.8"/>
    <text class="st3" transform="translate(383.5 710.7)"><tspan x="0" y="0">addressStreet</tspan></text>
    <text class="st16" transform="translate(502.5 710.7)"><tspan x="0" y="0">VARCHAR(255)</tspan></text>
    <rect class="st23" x="374.5" y="722.2" width="216.3" height="28.8"/>
    <text class="st3" transform="translate(383.5 739.5)"><tspan x="0" y="0">addressNumber</tspan></text>
    <text class="st16" transform="translate(509.2 739.5)"><tspan x="0" y="0">VARCHAR(10)</tspan></text>
    <rect class="st23" x="374.5" y="751" width="216.3" height="28.8"/>
    <text class="st3" transform="translate(383.5 768.4)"><tspan x="0" y="0">addressFloor</tspan></text>
    <text class="st16" transform="translate(509.2 768.4)"><tspan x="0" y="0">VARCHAR(10)</tspan></text>
    <rect class="st23" x="374.5" y="779.9" width="216.3" height="28.8"/>
    <text class="st3" transform="translate(383.5 797.2)"><tspan x="0" y="0">hasEnergyCert</tspan></text>
    <text class="st16" transform="translate(527.2 797.2)"><tspan x="0" y="0">BOOLEAN</tspan></text>
    <rect class="st23" x="374.5" y="808.7" width="216.3" height="28.8"/>
    <text class="st3" transform="translate(383.5 826.1)"><tspan x="0" y="0">zipCode</tspan></text>
    <path class="st25" d="M562,814.6h18s1.8,0,1.8,1.8v10.8s0,1.8-1.8,1.8h-18s-1.8,0-1.8-1.8v-10.8s0-1.8,1.8-1.8"/>
    <path class="st0" d="M569.9,825.8h-1.1l-4.3-6.8h0c0,.2,0,.4,0,.6,0,.2,0,.5,0,.7,0,.3,0,.5,0,.8v4.7h-.8v-8.1h1l4.3,6.8h0c0-.1,0-.3,0-.5,0-.2,0-.5,0-.8,0-.3,0-.5,0-.8v-4.7h.9v8.1Z"/>
    <path class="st0" d="M578.2,825.8h-1.1l-4.3-6.8h0c0,.2,0,.4,0,.6,0,.2,0,.5,0,.7,0,.3,0,.5,0,.8v4.7h-.8v-8.1h1l4.3,6.8h0c0-.1,0-.3,0-.5,0-.2,0-.5,0-.8,0-.3,0-.5,0-.8v-4.7h.9v8.1Z"/>
    <text class="st16" transform="translate(490.7 826.1)"><tspan x="0" y="0">VARCHAR(5)</tspan></text>
    <rect class="st23" x="374.5" y="837.6" width="216.3" height="28.8"/>
    <text class="st3" transform="translate(383.5 854.9)"><tspan x="0" y="0">location</tspan></text>
    <path class="st25" d="M562,843.4h18s1.8,0,1.8,1.8v10.8s0,1.8-1.8,1.8h-18s-1.8,0-1.8-1.8v-10.8s0-1.8,1.8-1.8"/>
    <path class="st0" d="M569.9,854.7h-1.1l-4.3-6.8h0c0,.2,0,.4,0,.6,0,.2,0,.5,0,.7,0,.3,0,.5,0,.8v4.7h-.8v-8.1h1l4.3,6.8h0c0-.1,0-.3,0-.5,0-.2,0-.5,0-.8,0-.3,0-.5,0-.8v-4.7h.9v8.1Z"/>
    <path class="st0" d="M578.2,854.7h-1.1l-4.3-6.8h0c0,.2,0,.4,0,.6,0,.2,0,.5,0,.7,0,.3,0,.5,0,.8v4.7h-.8v-8.1h1l4.3,6.8h0c0-.1,0-.3,0-.5,0-.2,0-.5,0-.8,0-.3,0-.5,0-.8v-4.7h.9v8.1Z"/>
    <text class="st16" transform="translate(521.9 854.9)"><tspan x="0" y="0">POINT</tspan></text>
    <rect class="st23" x="374.5" y="866.4" width="216.3" height="28.8"/>
    <text class="st3" transform="translate(383.5 883.8)"><tspan x="0" y="0">squareMeters</tspan></text>
    <text class="st16" transform="translate(526.7 883.8)"><tspan x="0" y="0">SMALLINT</tspan></text>
    <rect class="st23" x="374.5" y="895.2" width="216.3" height="28.8"/>
    <text class="st3" transform="translate(383.5 912.6)"><tspan x="0" y="0">bedrooms</tspan></text>
    <path class="st25" d="M562,901.1h18s1.8,0,1.8,1.8v10.8s0,1.8-1.8,1.8h-18s-1.8,0-1.8-1.8v-10.8s0-1.8,1.8-1.8"/>
    <path class="st0" d="M569.9,912.4h-1.1l-4.3-6.8h0c0,.2,0,.4,0,.6,0,.2,0,.5,0,.7,0,.3,0,.5,0,.8v4.7h-.8v-8.1h1l4.3,6.8h0c0-.1,0-.3,0-.5,0-.2,0-.5,0-.8,0-.3,0-.5,0-.8v-4.7h.9v8.1Z"/>
    <path class="st0" d="M578.2,912.4h-1.1l-4.3-6.8h0c0,.2,0,.4,0,.6,0,.2,0,.5,0,.7,0,.3,0,.5,0,.8v4.7h-.8v-8.1h1l4.3,6.8h0c0-.1,0-.3,0-.5,0-.2,0-.5,0-.8,0-.3,0-.5,0-.8v-4.7h.9v8.1Z"/>
    <text class="st16" transform="translate(512.9 912.6)"><tspan x="0" y="0">TINYINT</tspan></text>
    <rect class="st23" x="374.5" y="924.1" width="216.3" height="28.8"/>
    <text class="st3" transform="translate(383.5 941.4)"><tspan x="0" y="0">bathrooms</tspan></text>
    <path class="st25" d="M562,930h18s1.8,0,1.8,1.8v10.8s0,1.8-1.8,1.8h-18s-1.8,0-1.8-1.8v-10.8s0-1.8,1.8-1.8"/>
    <path class="st0" d="M569.9,941.2h-1.1l-4.3-6.8h0c0,.2,0,.4,0,.6,0,.2,0,.5,0,.7,0,.3,0,.5,0,.8v4.7h-.8v-8.1h1l4.3,6.8h0c0-.1,0-.3,0-.5,0-.2,0-.5,0-.8,0-.3,0-.5,0-.8v-4.7h.9v8.1Z"/>
    <path class="st0" d="M578.2,941.2h-1.1l-4.3-6.8h0c0,.2,0,.4,0,.6,0,.2,0,.5,0,.7,0,.3,0,.5,0,.8v4.7h-.8v-8.1h1l4.3,6.8h0c0-.1,0-.3,0-.5,0-.2,0-.5,0-.8,0-.3,0-.5,0-.8v-4.7h.9v8.1Z"/>
    <text class="st16" transform="translate(512.9 941.4)"><tspan x="0" y="0">TINYINT</tspan></text>
    <rect class="st23" x="374.5" y="952.9" width="216.3" height="28.8"/>
    <text class="st3" transform="translate(383.5 970.3)"><tspan x="0" y="0">price</tspan></text>
    <path class="st25" d="M562,958.8h18s1.8,0,1.8,1.8v10.8s0,1.8-1.8,1.8h-18s-1.8,0-1.8-1.8v-10.8s0-1.8,1.8-1.8"/>
    <path class="st0" d="M569.9,970.1h-1.1l-4.3-6.8h0c0,.2,0,.4,0,.6,0,.2,0,.5,0,.7,0,.3,0,.5,0,.8v4.7h-.8v-8.1h1l4.3,6.8h0c0-.1,0-.3,0-.5,0-.2,0-.5,0-.8,0-.3,0-.5,0-.8v-4.7h.9v8.1Z"/>
    <path class="st0" d="M578.2,970.1h-1.1l-4.3-6.8h0c0,.2,0,.4,0,.6,0,.2,0,.5,0,.7,0,.3,0,.5,0,.8v4.7h-.8v-8.1h1l4.3,6.8h0c0-.1,0-.3,0-.5,0-.2,0-.5,0-.8,0-.3,0-.5,0-.8v-4.7h.9v8.1Z"/>
    <text class="st16" transform="translate(476.8 970.3)"><tspan x="0" y="0">DECIMAL(10,2)</tspan></text>
    <rect class="st23" x="374.5" y="981.8" width="216.3" height="28.8"/>
    <text class="st3" transform="translate(383.5 999.1)"><tspan x="0" y="0">status</tspan></text>
    <path class="st25" d="M571.9,987.6h8.1s1.8,0,1.8,1.8v10.8s0,1.8-1.8,1.8h-8.1s-1.8,0-1.8-1.8v-10.8s0-1.8,1.8-1.8"/>
    <path class="st0" d="M578.2,998.9h-4.5v-8h4.5v.8h-3.5v2.6h3.3v.8h-3.3v3h3.5v.8Z"/>
    <rect class="st23" x="374.5" y="1010.6" width="216.3" height="28.8"/>
    <text class="st3" transform="translate(383.5 1028)"><tspan x="0" y="0">createdAt</tspan></text>
    <text class="st16" transform="translate(517.2 1028)"><tspan x="0" y="0">TIMESTAMP</tspan></text>
    <rect class="st23" x="374.5" y="1039.5" width="216.3" height="28.8"/>
    <text class="st3" transform="translate(383.5 1056.8)"><tspan x="0" y="0">updatedAt</tspan></text>
    <text class="st16" transform="translate(517.2 1056.8)"><tspan x="0" y="0">TIMESTAMP</tspan></text>
    <rect class="st20" x="699.5" y="129" width="216.3" height="28.8"/>
    <text class="st17" transform="translate(708.5 146.4)"><tspan x="0" y="0">contracts</tspan></text>
    <rect class="st23" x="699.5" y="157.9" width="216.3" height="28.8"/>
    <text class="st2" transform="translate(708.5 175.2)"><tspan x="0" y="0">id</tspan></text>
    <path class="st0" d="M729,167.1c1.5,0,2.7,1.2,2.7,2.7s-1.2,2.7-2.7,2.7-.7,0-1-.2l-.8.8h-.6v.9h-.9v.9h-1.8v-1.8l2.5-2.5c0-.3-.1-.5-.1-.8,0-1.5,1.2-2.7,2.7-2.7ZM729,166.2c-2,0-3.5,1.6-3.5,3.5s0,.3,0,.5l-2.3,2.3c0,0-.1.2-.1.3v2.4c0,.2.2.4.4.4h2.7c.2,0,.4-.2.4-.4v-.4h.4c.2,0,.4-.2.4-.4v-.4l.7-.7c.2,0,.5,0,.7,0,2,0,3.5-1.6,3.5-3.5s-1.6-3.5-3.5-3.5ZM729,168.9c0,.5.4.9.9.9s.9-.4.9-.9-.4-.9-.9-.9-.9.4-.9.9Z"/>
    <path class="st25" d="M887,163.7h18s1.8,0,1.8,1.8v10.8s0,1.8-1.8,1.8h-18s-1.8,0-1.8-1.8v-10.8s0-1.8,1.8-1.8"/>
    <path class="st0" d="M895,175h-1.1l-4.3-6.8h0c0,.2,0,.4,0,.6,0,.2,0,.5,0,.7,0,.3,0,.5,0,.8v4.7h-.8v-8.1h1l4.3,6.8h0c0-.1,0-.3,0-.5,0-.2,0-.5,0-.8,0-.3,0-.5,0-.8v-4.7h.9v8.1Z"/>
    <path class="st0" d="M903.2,175h-1.1l-4.3-6.8h0c0,.2,0,.4,0,.6,0,.2,0,.5,0,.7,0,.3,0,.5,0,.8v4.7h-.8v-8.1h1l4.3,6.8h0c0-.1,0-.3,0-.5,0-.2,0-.5,0-.8,0-.3,0-.5,0-.8v-4.7h.9v8.1Z"/>
    <text class="st8" transform="translate(861.4 175.2)"><tspan x="0" y="0">INT</tspan></text>
    <rect class="st23" x="699.5" y="186.7" width="216.3" height="28.8"/>
    <text class="st3" transform="translate(708.5 204.1)"><tspan x="0" y="0">tenantId</tspan></text>
    <text class="st16" transform="translate(888.3 204.1)"><tspan x="0" y="0">INT</tspan></text>
    <rect class="st23" x="699.5" y="215.6" width="216.3" height="28.8"/>
    <text class="st3" transform="translate(708.5 232.9)"><tspan x="0" y="0">propertyId</tspan></text>
    <text class="st16" transform="translate(888.3 232.9)"><tspan x="0" y="0">INT</tspan></text>
    <rect class="st23" x="699.5" y="244.4" width="216.3" height="28.8"/>
    <text class="st3" transform="translate(708.5 261.8)"><tspan x="0" y="0">startDate</tspan></text>
    <path class="st25" d="M887,250.3h18s1.8,0,1.8,1.8v10.8s0,1.8-1.8,1.8h-18s-1.8,0-1.8-1.8v-10.8s0-1.8,1.8-1.8"/>
    <path class="st0" d="M895,261.5h-1.1l-4.3-6.8h0c0,.2,0,.4,0,.6,0,.2,0,.5,0,.7,0,.3,0,.5,0,.8v4.7h-.8v-8.1h1l4.3,6.8h0c0-.1,0-.3,0-.5,0-.2,0-.5,0-.8,0-.3,0-.5,0-.8v-4.7h.9v8.1Z"/>
    <path class="st0" d="M903.2,261.5h-1.1l-4.3-6.8h0c0,.2,0,.4,0,.6,0,.2,0,.5,0,.7,0,.3,0,.5,0,.8v4.7h-.8v-8.1h1l4.3,6.8h0c0-.1,0-.3,0-.5,0-.2,0-.5,0-.8,0-.3,0-.5,0-.8v-4.7h.9v8.1Z"/>
    <text class="st16" transform="translate(816.9 261.8)"><tspan x="0" y="0">TIMESTAMP</tspan></text>
    <rect class="st23" x="699.5" y="273.3" width="216.3" height="28.8"/>
    <text class="st3" transform="translate(708.5 290.6)"><tspan x="0" y="0">endDate</tspan></text>
    <text class="st16" transform="translate(842.2 290.6)"><tspan x="0" y="0">TIMESTAMP</tspan></text>
    <rect class="st23" x="699.5" y="302.1" width="216.3" height="28.8"/>
    <text class="st3" transform="translate(708.5 319.5)"><tspan x="0" y="0">pdfUrl</tspan></text>
    <text class="st16" transform="translate(827.5 319.5)"><tspan x="0" y="0">VARCHAR(255)</tspan></text>
    <rect class="st23" x="699.5" y="331" width="216.3" height="28.8"/>
    <text class="st3" transform="translate(708.5 348.3)"><tspan x="0" y="0">status</tspan></text>
    <path class="st25" d="M887,336.8h18s1.8,0,1.8,1.8v10.8s0,1.8-1.8,1.8h-18s-1.8,0-1.8-1.8v-10.8s0-1.8,1.8-1.8"/>
    <path class="st0" d="M895,348.1h-1.1l-4.3-6.8h0c0,.2,0,.4,0,.6,0,.2,0,.5,0,.7,0,.3,0,.5,0,.8v4.7h-.8v-8.1h1l4.3,6.8h0c0-.1,0-.3,0-.5,0-.2,0-.5,0-.8,0-.3,0-.5,0-.8v-4.7h.9v8.1Z"/>
    <path class="st0" d="M903.2,348.1h-1.1l-4.3-6.8h0c0,.2,0,.4,0,.6,0,.2,0,.5,0,.7,0,.3,0,.5,0,.8v4.7h-.8v-8.1h1l4.3,6.8h0c0-.1,0-.3,0-.5,0-.2,0-.5,0-.8,0-.3,0-.5,0-.8v-4.7h.9v8.1Z"/>
    <path class="st25" d="M871.7,336.8h8.1s1.8,0,1.8,1.8v10.8s0,1.8-1.8,1.8h-8.1s-1.8,0-1.8-1.8v-10.8s0-1.8,1.8-1.8"/>
    <path class="st0" d="M878,348h-4.5v-8h4.5v.8h-3.5v2.6h3.3v.8h-3.3v3h3.5v.8Z"/>
    <rect class="st23" x="699.5" y="359.8" width="216.3" height="28.8"/>
    <text class="st3" transform="translate(708.5 377.2)"><tspan x="0" y="0">createdAt</tspan></text>
    <text class="st16" transform="translate(842.2 377.2)"><tspan x="0" y="0">TIMESTAMP</tspan></text>
    <rect class="st23" x="699.5" y="388.6" width="216.3" height="28.8"/>
    <text class="st3" transform="translate(708.5 406)"><tspan x="0" y="0">updatedAt</tspan></text>
    <text class="st16" transform="translate(842.2 406)"><tspan x="0" y="0">TIMESTAMP</tspan></text>
    <rect class="st20" x="699.5" y="698.3" width="216.3" height="28.8"/>
    <text class="st17" transform="translate(708.5 715.7)"><tspan x="0" y="0">reviews</tspan></text>
    <rect class="st23" x="699.5" y="727.2" width="216.3" height="28.8"/>
    <text class="st2" transform="translate(708.5 744.5)"><tspan x="0" y="0">id</tspan></text>
    <path class="st0" d="M729,736.4c1.5,0,2.7,1.2,2.7,2.7s-1.2,2.7-2.7,2.7-.7,0-1-.2l-.8.8h-.6v.9h-.9v.9h-1.8v-1.8l2.5-2.5c0-.3-.1-.5-.1-.8,0-1.5,1.2-2.7,2.7-2.7ZM729,735.5c-2,0-3.5,1.6-3.5,3.5s0,.3,0,.5l-2.3,2.3c0,0-.1.2-.1.3v2.4c0,.2.2.4.4.4h2.7c.2,0,.4-.2.4-.4v-.4h.4c.2,0,.4-.2.4-.4v-.4l.7-.7c.2,0,.5,0,.7,0,2,0,3.5-1.6,3.5-3.5s-1.6-3.5-3.5-3.5ZM729,738.2c0,.5.4.9.9.9s.9-.4.9-.9-.4-.9-.9-.9-.9.4-.9.9Z"/>
    <path class="st25" d="M887,733h18s1.8,0,1.8,1.8v10.8s0,1.8-1.8,1.8h-18s-1.8,0-1.8-1.8v-10.8s0-1.8,1.8-1.8"/>
    <path class="st0" d="M895,744.3h-1.1l-4.3-6.8h0c0,.2,0,.4,0,.6,0,.2,0,.5,0,.7,0,.3,0,.5,0,.8v4.7h-.8v-8.1h1l4.3,6.8h0c0-.1,0-.3,0-.5,0-.2,0-.5,0-.8,0-.3,0-.5,0-.8v-4.7h.9v8.1Z"/>
    <path class="st0" d="M903.2,744.3h-1.1l-4.3-6.8h0c0,.2,0,.4,0,.6,0,.2,0,.5,0,.7,0,.3,0,.5,0,.8v4.7h-.8v-8.1h1l4.3,6.8h0c0-.1,0-.3,0-.5,0-.2,0-.5,0-.8,0-.3,0-.5,0-.8v-4.7h.9v8.1Z"/>
    <text class="st8" transform="translate(861.4 744.5)"><tspan x="0" y="0">INT</tspan></text>
    <rect class="st23" x="699.5" y="756" width="216.3" height="28.8"/>
    <text class="st3" transform="translate(708.5 773.4)"><tspan x="0" y="0">reviewerId</tspan></text>
    <text class="st16" transform="translate(888.3 773.4)"><tspan x="0" y="0">INT</tspan></text>
    <rect class="st23" x="699.5" y="784.9" width="216.3" height="28.8"/>
    <text class="st3" transform="translate(708.5 802.2)"><tspan x="0" y="0">reviewedId</tspan></text>
    <text class="st16" transform="translate(888.3 802.2)"><tspan x="0" y="0">INT</tspan></text>
    <rect class="st23" x="699.5" y="813.7" width="216.3" height="28.8"/>
    <text class="st3" transform="translate(708.5 831.1)"><tspan x="0" y="0">contracId</tspan></text>
    <text class="st16" transform="translate(888.3 831.1)"><tspan x="0" y="0">INT</tspan></text>
    <rect class="st23" x="699.5" y="842.6" width="216.3" height="28.8"/>
    <text class="st3" transform="translate(708.5 859.9)"><tspan x="0" y="0">rating</tspan></text>
    <path class="st25" d="M887,848.4h18s1.8,0,1.8,1.8v10.8s0,1.8-1.8,1.8h-18s-1.8,0-1.8-1.8v-10.8s0-1.8,1.8-1.8"/>
    <path class="st0" d="M895,859.7h-1.1l-4.3-6.8h0c0,.2,0,.4,0,.6,0,.2,0,.5,0,.7,0,.3,0,.5,0,.8v4.7h-.8v-8.1h1l4.3,6.8h0c0-.1,0-.3,0-.5,0-.2,0-.5,0-.8,0-.3,0-.5,0-.8v-4.7h.9v8.1Z"/>
    <path class="st0" d="M903.2,859.7h-1.1l-4.3-6.8h0c0,.2,0,.4,0,.6,0,.2,0,.5,0,.7,0,.3,0,.5,0,.8v4.7h-.8v-8.1h1l4.3,6.8h0c0-.1,0-.3,0-.5,0-.2,0-.5,0-.8,0-.3,0-.5,0-.8v-4.7h.9v8.1Z"/>
    <text class="st16" transform="translate(837.9 859.9)"><tspan x="0" y="0">TINYINT</tspan></text>
    <rect class="st23" x="699.5" y="871.4" width="216.3" height="28.8"/>
    <text class="st3" transform="translate(708.5 888.8)"><tspan x="0" y="0">comment</tspan></text>
    <text class="st16" transform="translate(880.7 888.8)"><tspan x="0" y="0">TEXT</tspan></text>
    <rect class="st23" x="699.5" y="900.3" width="216.3" height="28.8"/>
    <text class="st3" transform="translate(708.5 917.6)"><tspan x="0" y="0">createdAt</tspan></text>
    <text class="st16" transform="translate(842.2 917.6)"><tspan x="0" y="0">TIMESTAMP</tspan></text>
    <rect class="st23" x="699.5" y="929.1" width="216.3" height="28.8"/>
    <text class="st3" transform="translate(708.5 946.5)"><tspan x="0" y="0">removedAt</tspan></text>
    <text class="st16" transform="translate(842.2 946.5)"><tspan x="0" y="0">TIMESTAMP</tspan></text>
    <rect class="st20" x="77.2" y="749.4" width="216.3" height="28.8"/>
    <text class="st17" transform="translate(86.2 766.7)"><tspan x="0" y="0">images</tspan></text>
    <rect class="st23" x="77.2" y="778.2" width="216.3" height="28.8"/>
    <text class="st2" transform="translate(86.2 795.6)"><tspan x="0" y="0">id</tspan></text>
    <path class="st0" d="M106.7,787.5c1.5,0,2.7,1.2,2.7,2.7s-1.2,2.7-2.7,2.7-.7,0-1-.2l-.8.8h-.6v.9h-.9v.9h-1.8v-1.8l2.5-2.5c0-.3-.1-.5-.1-.8,0-1.5,1.2-2.7,2.7-2.7ZM106.7,786.6c-2,0-3.5,1.6-3.5,3.5s0,.3,0,.5l-2.3,2.3c0,0-.1.2-.1.3v2.4c0,.2.2.4.4.4h2.7c.2,0,.4-.2.4-.4v-.4h.4c.2,0,.4-.2.4-.4v-.4l.7-.7c.2,0,.5,0,.7,0,2,0,3.5-1.6,3.5-3.5s-1.6-3.5-3.5-3.5ZM106.7,789.2c0,.5.4.9.9.9s.9-.4.9-.9-.4-.9-.9-.9-.9.4-.9.9Z"/>
    <path class="st25" d="M264.7,784.1h18s1.8,0,1.8,1.8v10.8s0,1.8-1.8,1.8h-18s-1.8,0-1.8-1.8v-10.8s0-1.8,1.8-1.8"/>
    <path class="st0" d="M272.6,795.4h-1.1l-4.3-6.8h0c0,.2,0,.4,0,.6,0,.2,0,.5,0,.7,0,.3,0,.5,0,.8v4.7h-.8v-8.1h1l4.3,6.8h0c0-.1,0-.3,0-.5,0-.2,0-.5,0-.8,0-.3,0-.5,0-.8v-4.7h.9v8.1Z"/>
    <path class="st0" d="M280.9,795.4h-1.1l-4.3-6.8h0c0,.2,0,.4,0,.6,0,.2,0,.5,0,.7,0,.3,0,.5,0,.8v4.7h-.8v-8.1h1l4.3,6.8h0c0-.1,0-.3,0-.5,0-.2,0-.5,0-.8,0-.3,0-.5,0-.8v-4.7h.9v8.1Z"/>
    <text class="st8" transform="translate(239.1 795.6)"><tspan x="0" y="0">INT</tspan></text>
    <rect class="st23" x="77.2" y="807.1" width="216.3" height="28.8"/>
    <text class="st3" transform="translate(86.2 824.4)"><tspan x="0" y="0">propertyId</tspan></text>
    <text class="st16" transform="translate(265.9 824.4)"><tspan x="0" y="0">INT</tspan></text>
    <rect class="st23" x="77.2" y="835.9" width="216.3" height="28.8"/>
    <text class="st3" transform="translate(86.2 853.3)"><tspan x="0" y="0">imageUrl</tspan></text>
    <path class="st25" d="M264.7,841.8h18s1.8,0,1.8,1.8v10.8s0,1.8-1.8,1.8h-18s-1.8,0-1.8-1.8v-10.8s0-1.8,1.8-1.8"/>
    <path class="st0" d="M272.6,853.1h-1.1l-4.3-6.8h0c0,.2,0,.4,0,.6,0,.2,0,.5,0,.7,0,.3,0,.5,0,.8v4.7h-.8v-8.1h1l4.3,6.8h0c0-.1,0-.3,0-.5,0-.2,0-.5,0-.8,0-.3,0-.5,0-.8v-4.7h.9v8.1Z"/>
    <path class="st0" d="M280.9,853.1h-1.1l-4.3-6.8h0c0,.2,0,.4,0,.6,0,.2,0,.5,0,.7,0,.3,0,.5,0,.8v4.7h-.8v-8.1h1l4.3,6.8h0c0-.1,0-.3,0-.5,0-.2,0-.5,0-.8,0-.3,0-.5,0-.8v-4.7h.9v8.1Z"/>
    <text class="st16" transform="translate(180 853.3)"><tspan x="0" y="0">VARCHAR(255)</tspan></text>
    <rect class="st23" x="77.2" y="864.8" width="216.3" height="28.8"/>
    <text class="st3" transform="translate(86.2 882.1)"><tspan x="0" y="0">sortIndex</tspan></text>
    <text class="st16" transform="translate(240.8 882.1)"><tspan x="0" y="0">TINYINT</tspan></text>
    <rect class="st23" x="77.2" y="893.6" width="216.3" height="28.8"/>
    <text class="st3" transform="translate(86.2 911)"><tspan x="0" y="0">createdAt</tspan></text>
    <text class="st16" transform="translate(219.8 911)"><tspan x="0" y="0">TIMESTAMP</tspan></text>
    <rect class="st23" x="77.2" y="922.5" width="216.3" height="28.8"/>
    <text class="st3" transform="translate(86.2 939.8)"><tspan x="0" y="0">updatedAt</tspan></text>
    <text class="st16" transform="translate(219.8 939.8)"><tspan x="0" y="0">TIMESTAMP</tspan></text>
    <rect class="st23" x="77.2" y="951.3" width="216.3" height="28.8"/>
    <text class="st3" transform="translate(86.2 968.7)"><tspan x="0" y="0">removedAt</tspan></text>
    <text class="st16" transform="translate(219.8 968.7)"><tspan x="0" y="0">TIMESTAMP</tspan></text>
    <rect class="st20" x="77.2" y="129" width="216.3" height="28.8"/>
    <text class="st17" transform="translate(86.2 146.4)"><tspan x="0" y="0">favs</tspan></text>
    <rect class="st23" x="77.2" y="157.9" width="216.3" height="28.8"/>
    <text class="st2" transform="translate(86.2 175.2)"><tspan x="0" y="0">id</tspan></text>
    <path class="st0" d="M106.7,167.1c1.5,0,2.7,1.2,2.7,2.7s-1.2,2.7-2.7,2.7-.7,0-1-.2l-.8.8h-.6v.9h-.9v.9h-1.8v-1.8l2.5-2.5c0-.3-.1-.5-.1-.8,0-1.5,1.2-2.7,2.7-2.7ZM106.7,166.2c-2,0-3.5,1.6-3.5,3.5s0,.3,0,.5l-2.3,2.3c0,0-.1.2-.1.3v2.4c0,.2.2.4.4.4h2.7c.2,0,.4-.2.4-.4v-.4h.4c.2,0,.4-.2.4-.4v-.4l.7-.7c.2,0,.5,0,.7,0,2,0,3.5-1.6,3.5-3.5s-1.6-3.5-3.5-3.5ZM106.7,168.9c0,.5.4.9.9.9s.9-.4.9-.9-.4-.9-.9-.9-.9.4-.9.9Z"/>
    <path class="st25" d="M264.7,163.7h18s1.8,0,1.8,1.8v10.8s0,1.8-1.8,1.8h-18s-1.8,0-1.8-1.8v-10.8s0-1.8,1.8-1.8"/>
    <path class="st0" d="M272.6,175h-1.1l-4.3-6.8h0c0,.2,0,.4,0,.6,0,.2,0,.5,0,.7,0,.3,0,.5,0,.8v4.7h-.8v-8.1h1l4.3,6.8h0c0-.1,0-.3,0-.5,0-.2,0-.5,0-.8,0-.3,0-.5,0-.8v-4.7h.9v8.1Z"/>
    <path class="st0" d="M280.9,175h-1.1l-4.3-6.8h0c0,.2,0,.4,0,.6,0,.2,0,.5,0,.7,0,.3,0,.5,0,.8v4.7h-.8v-8.1h1l4.3,6.8h0c0-.1,0-.3,0-.5,0-.2,0-.5,0-.8,0-.3,0-.5,0-.8v-4.7h.9v8.1Z"/>
    <text class="st8" transform="translate(239.1 175.2)"><tspan x="0" y="0">INT</tspan></text>
    <rect class="st23" x="77.2" y="186.7" width="216.3" height="28.8"/>
    <text class="st3" transform="translate(86.2 204.1)"><tspan x="0" y="0">userId</tspan></text>
    <text class="st16" transform="translate(265.9 204.1)"><tspan x="0" y="0">INT</tspan></text>
    <rect class="st23" x="77.2" y="215.6" width="216.3" height="28.8"/>
    <text class="st3" transform="translate(86.2 232.9)"><tspan x="0" y="0">propertyId</tspan></text>
    <text class="st16" transform="translate(265.9 232.9)"><tspan x="0" y="0">INT</tspan></text>
    <rect class="st23" x="77.2" y="244.4" width="216.3" height="28.8"/>
    <text class="st3" transform="translate(86.2 261.8)"><tspan x="0" y="0">createdAt</tspan></text>
    <text class="st16" transform="translate(219.8 261.8)"><tspan x="0" y="0">TIMESTAMP</tspan></text>
    <rect class="st23" x="77.2" y="273.3" width="216.3" height="28.8"/>
    <text class="st3" transform="translate(86.2 290.6)"><tspan x="0" y="0">removedAt</tspan></text>
    <text class="st16" transform="translate(219.8 290.6)"><tspan x="0" y="0">TIMESTAMP</tspan></text>
    <rect class="st20" x="77.2" y="381.1" width="216.3" height="28.8"/>
    <text class="st17" transform="translate(86.2 398.5)"><tspan x="0" y="0">notifications</tspan></text>
    <rect class="st23" x="77.2" y="410" width="216.3" height="28.8"/>
    <text class="st2" transform="translate(86.2 427.3)"><tspan x="0" y="0">id</tspan></text>
    <path class="st0" d="M106.7,419.2c1.5,0,2.7,1.2,2.7,2.7s-1.2,2.7-2.7,2.7-.7,0-1-.2l-.8.8h-.6v.9h-.9v.9h-1.8v-1.8l2.5-2.5c0-.3-.1-.5-.1-.8,0-1.5,1.2-2.7,2.7-2.7ZM106.7,418.3c-2,0-3.5,1.6-3.5,3.5s0,.3,0,.5l-2.3,2.3c0,0-.1.2-.1.3v2.4c0,.2.2.4.4.4h2.7c.2,0,.4-.2.4-.4v-.4h.4c.2,0,.4-.2.4-.4v-.4l.7-.7c.2,0,.5,0,.7,0,2,0,3.5-1.6,3.5-3.5s-1.6-3.5-3.5-3.5ZM106.7,421c0,.5.4.9.9.9s.9-.4.9-.9-.4-.9-.9-.9-.9.4-.9.9Z"/>
    <path class="st25" d="M264.7,415.8h18s1.8,0,1.8,1.8v10.8s0,1.8-1.8,1.8h-18s-1.8,0-1.8-1.8v-10.8s0-1.8,1.8-1.8"/>
    <path class="st0" d="M272.6,427.1h-1.1l-4.3-6.8h0c0,.2,0,.4,0,.6,0,.2,0,.5,0,.7,0,.3,0,.5,0,.8v4.7h-.8v-8.1h1l4.3,6.8h0c0-.1,0-.3,0-.5,0-.2,0-.5,0-.8,0-.3,0-.5,0-.8v-4.7h.9v8.1Z"/>
    <path class="st0" d="M280.9,427.1h-1.1l-4.3-6.8h0c0,.2,0,.4,0,.6,0,.2,0,.5,0,.7,0,.3,0,.5,0,.8v4.7h-.8v-8.1h1l4.3,6.8h0c0-.1,0-.3,0-.5,0-.2,0-.5,0-.8,0-.3,0-.5,0-.8v-4.7h.9v8.1Z"/>
    <text class="st8" transform="translate(239.1 427.3)"><tspan x="0" y="0">INT</tspan></text>
    <rect class="st23" x="77.2" y="438.8" width="216.3" height="28.8"/>
    <text class="st3" transform="translate(86.2 456.2)"><tspan x="0" y="0">userId</tspan></text>
    <text class="st16" transform="translate(265.9 456.2)"><tspan x="0" y="0">INT</tspan></text>
    <rect class="st23" x="77.2" y="467.7" width="216.3" height="28.8"/>
    <text class="st3" transform="translate(86.2 485)"><tspan x="0" y="0">propertyId</tspan></text>
    <text class="st16" transform="translate(265.9 485)"><tspan x="0" y="0">INT</tspan></text>
    <rect class="st23" x="77.2" y="496.5" width="216.3" height="28.8"/>
    <text class="st3" transform="translate(86.2 513.9)"><tspan x="0" y="0">message</tspan></text>
    <path class="st25" d="M264.7,502.4h18s1.8,0,1.8,1.8v10.8s0,1.8-1.8,1.8h-18s-1.8,0-1.8-1.8v-10.8s0-1.8,1.8-1.8"/>
    <path class="st0" d="M272.6,513.6h-1.1l-4.3-6.8h0c0,.2,0,.4,0,.6,0,.2,0,.5,0,.7,0,.3,0,.5,0,.8v4.7h-.8v-8.1h1l4.3,6.8h0c0-.1,0-.3,0-.5,0-.2,0-.5,0-.8,0-.3,0-.5,0-.8v-4.7h.9v8.1Z"/>
    <path class="st0" d="M280.9,513.6h-1.1l-4.3-6.8h0c0,.2,0,.4,0,.6,0,.2,0,.5,0,.7,0,.3,0,.5,0,.8v4.7h-.8v-8.1h1l4.3,6.8h0c0-.1,0-.3,0-.5,0-.2,0-.5,0-.8,0-.3,0-.5,0-.8v-4.7h.9v8.1Z"/>
    <text class="st16" transform="translate(233.1 513.9)"><tspan x="0" y="0">TEXT</tspan></text>
    <rect class="st23" x="77.2" y="525.3" width="216.3" height="28.8"/>
    <text class="st3" transform="translate(86.2 542.7)"><tspan x="0" y="0">type</tspan></text>
    <path class="st25" d="M264.7,531.2h18s1.8,0,1.8,1.8v10.8s0,1.8-1.8,1.8h-18s-1.8,0-1.8-1.8v-10.8s0-1.8,1.8-1.8"/>
    <path class="st0" d="M272.6,542.5h-1.1l-4.3-6.8h0c0,.2,0,.4,0,.6,0,.2,0,.5,0,.7,0,.3,0,.5,0,.8v4.7h-.8v-8.1h1l4.3,6.8h0c0-.1,0-.3,0-.5,0-.2,0-.5,0-.8,0-.3,0-.5,0-.8v-4.7h.9v8.1Z"/>
    <path class="st0" d="M280.9,542.5h-1.1l-4.3-6.8h0c0,.2,0,.4,0,.6,0,.2,0,.5,0,.7,0,.3,0,.5,0,.8v4.7h-.8v-8.1h1l4.3,6.8h0c0-.1,0-.3,0-.5,0-.2,0-.5,0-.8,0-.3,0-.5,0-.8v-4.7h.9v8.1Z"/>
    <path class="st25" d="M249.3,531.2h8.1s1.8,0,1.8,1.8v10.8s0,1.8-1.8,1.8h-8.1s-1.8,0-1.8-1.8v-10.8s0-1.8,1.8-1.8"/>
    <path class="st0" d="M255.6,542.4h-4.5v-8h4.5v.8h-3.5v2.6h3.3v.8h-3.3v3h3.5v.8Z"/>
    <rect class="st23" x="77.2" y="554.2" width="216.3" height="28.8"/>
    <text class="st3" transform="translate(86.2 571.5)"><tspan x="0" y="0">status</tspan></text>
    <path class="st25" d="M264.7,560h18s1.8,0,1.8,1.8v10.8s0,1.8-1.8,1.8h-18s-1.8,0-1.8-1.8v-10.8s0-1.8,1.8-1.8"/>
    <path class="st0" d="M272.6,571.3h-1.1l-4.3-6.8h0c0,.2,0,.4,0,.6,0,.2,0,.5,0,.7,0,.3,0,.5,0,.8v4.7h-.8v-8.1h1l4.3,6.8h0c0-.1,0-.3,0-.5,0-.2,0-.5,0-.8,0-.3,0-.5,0-.8v-4.7h.9v8.1Z"/>
    <path class="st0" d="M280.9,571.3h-1.1l-4.3-6.8h0c0,.2,0,.4,0,.6,0,.2,0,.5,0,.7,0,.3,0,.5,0,.8v4.7h-.8v-8.1h1l4.3,6.8h0c0-.1,0-.3,0-.5,0-.2,0-.5,0-.8,0-.3,0-.5,0-.8v-4.7h.9v8.1Z"/>
    <path class="st25" d="M249.3,560h8.1s1.8,0,1.8,1.8v10.8s0,1.8-1.8,1.8h-8.1s-1.8,0-1.8-1.8v-10.8s0-1.8,1.8-1.8"/>
    <path class="st0" d="M255.6,571.3h-4.5v-8h4.5v.8h-3.5v2.6h3.3v.8h-3.3v3h3.5v.8Z"/>
    <rect class="st23" x="77.2" y="583" width="216.3" height="28.8"/>
    <text class="st3" transform="translate(86.2 600.4)"><tspan x="0" y="0">isRead</tspan></text>
    <text class="st16" transform="translate(229.8 600.4)"><tspan x="0" y="0">BOOLEAN</tspan></text>
    <rect class="st23" x="77.2" y="611.9" width="216.3" height="28.8"/>
    <text class="st3" transform="translate(86.2 629.2)"><tspan x="0" y="0">createdAt</tspan></text>
    <text class="st16" transform="translate(219.8 629.2)"><tspan x="0" y="0">TIMESTAMP</tspan></text>
    <rect class="st23" x="77.2" y="640.7" width="216.3" height="28.8"/>
    <text class="st3" transform="translate(86.2 658.1)"><tspan x="0" y="0">readAt</tspan></text>
    <text class="st16" transform="translate(219.8 658.1)"><tspan x="0" y="0">TIMESTAMP</tspan></text>
  </g>
  <g id="logotipo_main">
    <g class="st26">
      <g class="st22">
        <path class="st20" d="M866,1031.8c-3.8,0-7.1,1.8-8.3,4.3h0v-3.8h-7.1v26.2h7.1v-15.8c0-3.4,2.5-5.6,5.7-5.6s5.3,2.2,5.3,5.6v15.9h7.1v-17.1c0-5.5-3.9-9.6-9.7-9.6"/>
        <path class="st20" d="M897.4,1041.2l10.4-8.8h-9.9l-9.8,8.6v-28.4l-25.3-15.6-11,6.7v-3.5h-7.3v8l-7.3,4.4v5.4c-2.8,1.4-4.7,4.3-4.7,7.6s2,6.3,4.9,7.7v25.4h7v-25.3c3-1.3,5.1-4.3,5.1-7.8s-2-6.4-5-7.7v-1.2l18.3-11.1,18,11.1v42h7.3v-9.1l4.2-3.6c1.5,6.4,6.8,13.2,15.3,13.2v-7.4c-4.7.4-8.7-4.9-10.1-10.5"/>
        <path class="st20" d="M721.7,1053.5c-4.5,0-7.6-3.5-7.6-8.4s2.7-8.2,7.1-8.2,5.7,1.9,5.9,4.1l6.2-.8c-.3-4.9-4.4-8.8-11.8-8.8s-14.6,5.7-14.6,13.9,5.7,14.1,14.8,14.1,10.6-3,11.8-7.5l-6.4-1.7c-.5,1.9-2.5,3.3-5.4,3.3"/>
        <path class="st20" d="M761.8,1040.8c0-5.4-5.2-9.2-12.9-9.2s-10.3,2.9-12.2,6.3l5.2,3.3c.9-1.8,3.7-3.6,7.2-3.6s5.6,1.6,5.6,3.6v.8c-1.3,4.1-18.7-.6-18.7,9.8s3.3,7.3,8.7,7.3,8.8-2.2,9.8-4.5h0c0,1.1.3,2.6,1.1,3.8h6.9c-.6-1.2-1-2.7-1-4.6v-13.1ZM754.8,1048.1c0,3.1-3.7,6.2-7.4,6.2s-4-1.4-4-3.1c0-3.9,8-2.7,11.5-4.4v1.3Z"/>
        <path class="st20" d="M772.6,1040c0-1.9,2.4-3.1,4.9-3.1s5.6,1.8,5.9,4.1l6.1-.8c-.3-5-4.4-8.8-11.7-8.8s-12.1,3.6-12.1,9.3c0,10.6,17.7,5.5,17.7,10.1s-2.4,3-5.4,3-6.6-2-7.1-4.9l-6,.8c.4,5.3,5.1,9.6,13.2,9.6s12.2-3.5,12.2-9.1c0-10.6-17.7-5.3-17.7-10.3"/>
        <path class="st20" d="M817.9,1040.8c0-5.4-5.2-9.2-12.9-9.2s-10.3,2.9-12.2,6.3l5.2,3.3c.9-1.8,3.7-3.6,7.2-3.6s5.6,1.6,5.6,3.6v.8c-1.3,4.1-18.7-.6-18.7,9.8s3.3,7.3,8.7,7.3,8.8-2.2,9.8-4.5h0c0,1.1.3,2.6,1.1,3.8h6.9c-.6-1.2-1-2.7-1-4.6v-13.1ZM810.9,1048.1c0,3.1-3.7,6.2-7.4,6.2s-4-1.4-4-3.1c0-3.9,8-2.7,11.5-4.4v1.3Z"/>
        <path class="st20" d="M862.7,1022c2.4,0,4.4-2,4.4-4.4s-2-4.4-4.4-4.4-4.4,2-4.4,4.4,2,4.4,4.4,4.4"/>
        <polygon class="st20" points="830.5 1016.6 823.2 1021 823.2 1058.5 830.5 1058.5 830.5 1058.5 830.5 1021.1 830.5 1021.1 830.5 1016.6"/>
        <path class="st19" d="M837.6,1025.5c0-1.9,1.6-3.5,3.5-3.5s3.5,1.6,3.5,3.5-1.6,3.5-3.5,3.5-3.5-1.6-3.5-3.5"/>
      </g>
    </g>
  </g>
</svg>