<?xml version="1.0" encoding="UTF-8"?>
<svg id="Layer_1" xmlns="http://www.w3.org/2000/svg" version="1.1" viewBox="0 0 1200 1200">
  <!-- Generator: Adobe Illustrator 29.2.1, SVG Export Plug-In . SVG Version: 2.1.0 Build 116)  -->
  <defs>
    <style>
      .st0, .st1, .st2 {
        fill: #6f6f6f;
      }

      .st1, .st3, .st4, .st5, .st6, .st7, .st2, .st8 {
        isolation: isolate;
      }

      .st1, .st3, .st4, .st5, .st7, .st2 {
        font-size: 13px;
      }

      .st1, .st5, .st8 {
        font-family: OpenSans, 'Open Sans';
      }

      .st3, .st4, .st7, .st2 {
        font-family: OpenSans-Bold, 'Open Sans';
        font-weight: 700;
      }

      .st3, .st5 {
        fill: #999;
      }

      .st9 {
        fill: #6ff;
      }

      .st4, .st10 {
        fill: #003;
      }

      .st11, .st12 {
        fill: none;
      }

      .st13 {
        fill: #f66;
      }

      .st12 {
        stroke: #9b9ca4;
      }

      .st7 {
        fill: #fff;
      }

      .st14 {
        fill: #003;
      }

      .st15 {
        fill: #6ff;
      }

      .st16 {
        fill: #eee;
      }

      .st8 {
        font-size: 14px;
      }

      .st17 {
        fill: #dedede;
      }
    </style>
  </defs>
  <path class="st12" d="M762,102.6h78.4c6.7,0,10,3.3,10,10v182c0,6.7,3.3,10,10,10h22.5-22.5c-6.7,0-10-3.3-10-10V112.6c0-6.7-3.3-10-10-10h-78.4ZM762,102.6h20.9M882.8,304.6h10M792,98.6v8M892.8,300.6l-9,4,9,4"/>
  <g class="st6">
    <g class="st6">
      <text class="st8" transform="translate(785.9 97.6)"><tspan x="0" y="0">1</tspan></text>
    </g>
  </g>
  <g class="st6">
    <g class="st6">
      <text class="st8" transform="translate(882.1 299.6)"><tspan x="0" y="0">*</tspan></text>
    </g>
  </g>
  <path class="st12" d="M1156.7,102.6h5c3.3,0,5,1.7,5,5v227.2c0,1.2-.6,1.8-1.8,1.8h-11.8,11.8c1.2,0,1.8-.6,1.8-1.8V107.6c0-3.3-1.7-5-5-5h-5ZM1156.7,102.6h-10M1153,336.6h-10M1156.7,98.6v8M1143,332.6l9,4-9,4"/>
  <g class="st6">
    <g class="st6">
      <text class="st8" transform="translate(1149.7 97.6)"><tspan x="0" y="0">1</tspan></text>
    </g>
  </g>
  <g class="st6">
    <g class="st6">
      <text class="st8" transform="translate(1146 331.6)"><tspan x="0" y="0">*</tspan></text>
    </g>
  </g>
  <path class="st12" d="M772,102.6h30.9c6.7,0,10,3.3,10,10v467.7c0,3.3-1.7,5-5,5h-15,15c3.3,0,5-1.7,5-5V112.6c0-6.7-3.3-10-10-10h-30.9ZM772,102.6h20.9M792.9,585.4h-10M792,98.6v8M782.9,581.4l9,4-9,4"/>
  <g class="st6">
    <g class="st6">
      <text class="st8" transform="translate(785.9 97.6)"><tspan x="0" y="0">1</tspan></text>
    </g>
  </g>
  <g class="st6">
    <g class="st6">
      <text class="st8" transform="translate(785.9 580.4)"><tspan x="0" y="0">*</tspan></text>
    </g>
  </g>
  <path class="st12" d="M463.3,102.6h-22.5c-6.7,0-10,3.3-10,10v710c0,6.7-3.3,10-10,10h-55.9,55.9c6.7,0,10-3.3,10-10V112.6c0-6.7,3.3-10,10-10h22.5ZM463.3,102.6h10M364.9,832.6h-43.6M463.3,98.6v8M321.3,828.6l9,4-9,4"/>
  <g class="st6">
    <g class="st6">
      <text class="st8" transform="translate(462.3 97.6)"><tspan x="0" y="0">1</tspan></text>
    </g>
  </g>
  <g class="st6">
    <g class="st6">
      <text class="st8" transform="translate(324.3 827.6)"><tspan x="0" y="0">*</tspan></text>
    </g>
  </g>
  <path class="st12" d="M463.3,553.4h-49.2c-6.7,0-10,3.3-10,10v291.3c0,6.7-3.3,10-10,10h-29.2,29.2c6.7,0,10-3.3,10-10v-291.3c0-6.7,3.3-10,10-10h49.2ZM463.3,553.4h10M364.9,864.6h-43.6M463.3,549.4v8M321.3,860.6l9,4-9,4"/>
  <g class="st6">
    <g class="st6">
      <text class="st8" transform="translate(462.3 548.4)"><tspan x="0" y="0">1</tspan></text>
    </g>
  </g>
  <g class="st6">
    <g class="st6">
      <text class="st8" transform="translate(324.3 859.6)"><tspan x="0" y="0">*</tspan></text>
    </g>
  </g>
  <path class="st12" d="M463.3,102.6h-99.4c-6.7,0-10,3.3-10,10v372c0,6.7-3.3,10-10,10h-12.6,12.6c6.7,0,10-3.3,10-10V112.6c0-6.7,3.3-10,10-10h99.4ZM463.3,102.6h10M331.3,494.6h-10M463.3,98.6v8M321.3,490.6l9,4-9,4"/>
  <g class="st6">
    <g class="st6">
      <text class="st8" transform="translate(462.3 97.6)"><tspan x="0" y="0">1</tspan></text>
    </g>
  </g>
  <g class="st6">
    <g class="st6">
      <text class="st8" transform="translate(324.3 489.6)"><tspan x="0" y="0">*</tspan></text>
    </g>
  </g>
  <path class="st12" d="M463.3,102.6h-49.4c-6.7,0-10,3.3-10,10v404c0,6.7-3.3,10-10,10h-62.6,62.6c6.7,0,10-3.3,10-10V112.6c0-6.7,3.3-10,10-10h49.4ZM463.3,102.6h10M331.3,526.6h-10M463.3,98.6v8M321.3,522.6l9,4-9,4"/>
  <g class="st6">
    <g class="st6">
      <text class="st8" transform="translate(462.3 97.6)"><tspan x="0" y="0">1</tspan></text>
    </g>
  </g>
  <g class="st6">
    <g class="st6">
      <text class="st8" transform="translate(324.3 521.6)"><tspan x="0" y="0">*</tspan></text>
    </g>
  </g>
  <path class="st12" d="M364.9,800.6h5c3.3,0,5-1.7,5-5v-227c0-6.7-3.3-10-10-10h-33.6,33.6c6.7,0,10,3.3,10,10v227c0,3.3-1.7,5-5,5h-5ZM364.9,800.6h-43.6M331.3,558.6h-10M364.9,796.6v8M321.3,554.6l9,4-9,4"/>
  <g class="st6">
    <g class="st6">
      <text class="st8" transform="translate(324.3 795.6)"><tspan x="0" y="0">1</tspan></text>
    </g>
  </g>
  <g class="st6">
    <g class="st6">
      <text class="st8" transform="translate(324.3 553.6)"><tspan x="0" y="0">*</tspan></text>
    </g>
  </g>
  <path class="st12" d="M792.9,553.4h35.2c6.7,0,10,3.3,10,10v265.3c0,6.7,3.3,10,10,10h34.8-34.8c-6.7,0-10-3.3-10-10v-265.3c0-6.7-3.3-10-10-10h-35.2ZM792.9,553.4h-10M882.8,838.6h10M792.9,549.4v8M892.8,834.6l-9,4,9,4"/>
  <g class="st6">
    <g class="st6">
      <text class="st8" transform="translate(785.9 548.4)"><tspan x="0" y="0">1</tspan></text>
    </g>
  </g>
  <g class="st6">
    <g class="st6">
      <text class="st8" transform="translate(882.1 833.6)"><tspan x="0" y="0">*</tspan></text>
    </g>
  </g>
  <path class="st12" d="M782,102.6h39.6c6.7,0,10,3.3,10,10v398c0,6.7,3.3,10,10,10h41.2-41.2c-6.7,0-10-3.3-10-10V112.6c0-6.7-3.3-10-10-10h-39.6ZM782,102.6h20.9M882.8,520.6h10M792,98.6v8M892.8,516.6l-9,4,9,4"/>
  <g class="st6">
    <g class="st6">
      <text class="st8" transform="translate(785.9 97.6)"><tspan x="0" y="0">1</tspan></text>
    </g>
  </g>
  <g class="st6">
    <g class="st6">
      <text class="st8" transform="translate(882.1 515.6)"><tspan x="0" y="0">*</tspan></text>
    </g>
  </g>
  <path class="st12" d="M792.9,553.4h20l60-.7h10-10l-60,.7h-20ZM792.9,553.4h-10M882.8,552.6h10M792.9,549.4v8M892.8,548.6l-9,4,9,4"/>
  <g class="st6">
    <g class="st6">
      <text class="st8" transform="translate(785.9 548.4)"><tspan x="0" y="0">1</tspan></text>
    </g>
  </g>
  <g class="st6">
    <g class="st6">
      <text class="st8" transform="translate(882.1 547.6)"><tspan x="0" y="0">*</tspan></text>
    </g>
  </g>
  <path class="st12" d="M463.3,102.6h-66.3c-5.3,0-8,2.7-8,8h0v18.5c0,6-2.5,5.5-5.6,5.5h-52.2,52.2c3.1,0,5.6-2.5,5.6-5.5v-18.5h0c0-5.3,2.7-8,8-8,0,0,66.3,0,66.3,0ZM463.3,102.6h10M331.3,134.6h-10M463.3,98.6v8M321.3,130.6l9,4-9,4"/>
  <g class="st6">
    <g class="st6">
      <text class="st8" transform="translate(462.3 97.6)"><tspan x="0" y="0">1</tspan></text>
    </g>
  </g>
  <g class="st6">
    <g class="st6">
      <text class="st8" transform="translate(324.3 129.6)"><tspan x="0" y="0">*</tspan></text>
    </g>
  </g>
  <path class="st12" d="M463.3,553.4h-81c-6.7,0-10-3.3-10-10V176.6c0-6.7-3.3-10-10-10h-31,31c6.7,0,10,3.3,10,10v366.7c0,6.7,3.3,10,10,10h81ZM463.3,553.4h10M331.3,166.6h-10M463.3,549.4v8M321.3,162.6l9,4-9,4"/>
  <g class="st6">
    <g class="st6">
      <text class="st8" transform="translate(462.3 548.4)"><tspan x="0" y="0">1</tspan></text>
    </g>
  </g>
  <g class="st6">
    <g class="st6">
      <text class="st8" transform="translate(324.3 161.6)"><tspan x="0" y="0">*</tspan></text>
    </g>
  </g>
  <rect class="st10" x="892.8" y="54.6" width="253.9" height="32"/>
  <g class="st6">
    <text class="st7" transform="translate(902.8 73.9)"><tspan x="0" y="0">roles</tspan></text>
  </g>
  <rect class="st16" x="892.8" y="86.6" width="253.9" height="32"/>
  <g class="st6">
    <text class="st2" transform="translate(902.8 105.9)"><tspan x="0" y="0">id</tspan></text>
  </g>
  <path class="st0" d="M925.6,96.9c1.6,0,3,1.3,3,3s-1.3,3-3,3-.8,0-1.1-.2l-.9.9h-.7v1h-1v1h-2v-2l2.8-2.8c0-.3,0-.6,0-.9,0-1.6,1.3-3,3-3ZM925.6,95.9c-2.2,0-3.9,1.8-3.9,3.9s0,.4,0,.5l-2.5,2.5s0,.2,0,.3v2.7c0,.3.2.5.5.5h3c.3,0,.5-.2.5-.5v-.5h.5c.3,0,.5-.2.5-.5v-.4l.8-.8h.8c2.2,0,3.9-1.8,3.9-3.9s-1.8-3.9-3.9-3.9h0ZM925.6,98.8c0,.5.4,1,1,1s1-.4,1-1-.4-1-1-1-1,.4-1,1Z"/>
  <g class="st6">
    <text class="st3" transform="translate(1063.8 105.9)"><tspan x="0" y="0">BINARY(16)</tspan></text>
  </g>
  <rect class="st16" x="892.8" y="118.6" width="253.9" height="32"/>
  <g class="st6">
    <text class="st1" transform="translate(902.8 137.9)"><tspan x="0" y="0">name</tspan></text>
  </g>
  <path class="st17" d="M1114.7,125.1h20s2,0,2,2v12s0,2-2,2h-20s-2,0-2-2v-12s0-2,2-2"/>
  <path class="st0" d="M1123.5,137.6h-1.2l-4.7-7.6h0v7.6h-.9v-9h1.2l4.7,7.5h0v-7.6h1v9h0Z"/>
  <path class="st0" d="M1132.7,137.6h-1.2l-4.7-7.6h0v7.6h-.9v-9h1.2l4.7,7.5h0v-7.6h1v9h0Z"/>
  <path class="st17" d="M1097.7,125.1h9s2,0,2,2v12s0,2-2,2h-9s-2,0-2-2v-12s0-2,2-2"/>
  <path class="st0" d="M1104.7,137.6h-5v-8.9h5v.9h-3.9v2.9h3.7v.9h-3.7v3.3h3.9v.9h0Z"/>
  <g class="st6">
    <text class="st5" transform="translate(980.6 137.9)"><tspan x="0" y="0">roles_name_enum</tspan></text>
  </g>
  <rect class="st9" x="473.3" y="54.6" width="309.6" height="32"/>
  <g class="st6">
    <text class="st4" transform="translate(483.3 73.9)"><tspan x="0" y="0">users</tspan></text>
  </g>
  <rect class="st16" x="473.3" y="86.6" width="309.6" height="32"/>
  <g class="st6">
    <text class="st2" transform="translate(483.3 105.9)"><tspan x="0" y="0">id</tspan></text>
  </g>
  <path class="st0" d="M506,96.9c1.6,0,3,1.3,3,3s-1.3,3-3,3-.8,0-1.1-.2l-.9.9h-.7v1h-1v1h-2v-2l2.8-2.8c0-.3-.1-.6-.1-.9,0-1.6,1.3-3,3-3h0ZM506,95.9c-2.2,0-3.9,1.8-3.9,3.9s0,.4,0,.5l-2.5,2.5s-.1.2-.1.3v2.7c0,.3.2.5.5.5h3c.3,0,.5-.2.5-.5v-.5h.5c.3,0,.5-.2.5-.5v-.4l.8-.8h.8c2.2,0,3.9-1.8,3.9-3.9s-1.8-3.9-3.9-3.9h0ZM506,98.8c0,.5.4,1,1,1s1-.4,1-1-.4-1-1-1-1,.4-1,1Z"/>
  <g class="st6">
    <text class="st3" transform="translate(699.9 105.9)"><tspan x="0" y="0">BINARY(16)</tspan></text>
  </g>
  <rect class="st16" x="473.3" y="118.6" width="309.6" height="32"/>
  <g class="st6">
    <text class="st1" transform="translate(483.3 137.9)"><tspan x="0" y="0">name</tspan></text>
  </g>
  <g class="st6">
    <text class="st5" transform="translate(684.9 137.9)"><tspan x="0" y="0">VARCHAR(100)</tspan></text>
  </g>
  <rect class="st16" x="473.3" y="150.6" width="309.6" height="32"/>
  <g class="st6">
    <text class="st1" transform="translate(483.3 169.9)"><tspan x="0" y="0">lastName</tspan></text>
  </g>
  <g class="st6">
    <text class="st5" transform="translate(684.9 169.9)"><tspan x="0" y="0">VARCHAR(100)</tspan></text>
  </g>
  <rect class="st16" x="473.3" y="182.6" width="309.6" height="32"/>
  <g class="st6">
    <text class="st1" transform="translate(483.3 201.9)"><tspan x="0" y="0">legalId</tspan></text>
  </g>
  <g class="st6">
    <text class="st5" transform="translate(692.3 201.9)"><tspan x="0" y="0">VARCHAR(20)</tspan></text>
  </g>
  <rect class="st16" x="473.3" y="214.6" width="309.6" height="32"/>
  <g class="st6">
    <text class="st1" transform="translate(483.3 233.9)"><tspan x="0" y="0">email</tspan></text>
  </g>
  <path class="st17" d="M750.9,221.1h20s2,0,2,2v12s0,2-2,2h-20s-2,0-2-2v-12s0-2,2-2"/>
  <path class="st0" d="M759.7,233.6h-1.2l-4.7-7.6h0v7.6h-.9v-9h1.2l4.7,7.5h0v-7.6h1v9h0Z"/>
  <path class="st0" d="M768.9,233.6h-1.2l-4.7-7.6h0v7.6h-.9v-9h1.2l4.7,7.5h0v-7.6h1v9h0Z"/>
  <g class="st6">
    <text class="st5" transform="translate(656.9 233.9)"><tspan x="0" y="0">VARCHAR(150)</tspan></text>
  </g>
  <rect class="st16" x="473.3" y="246.6" width="309.6" height="32"/>
  <g class="st6">
    <text class="st1" transform="translate(483.3 265.9)"><tspan x="0" y="0">password</tspan></text>
  </g>
  <g class="st6">
    <text class="st5" transform="translate(684.9 265.9)"><tspan x="0" y="0">VARCHAR(255)</tspan></text>
  </g>
  <rect class="st16" x="473.3" y="278.6" width="309.6" height="32"/>
  <g class="st6">
    <text class="st1" transform="translate(483.3 297.9)"><tspan x="0" y="0">phone</tspan></text>
  </g>
  <g class="st6">
    <text class="st5" transform="translate(684.9 297.9)"><tspan x="0" y="0">VARCHAR(255)</tspan></text>
  </g>
  <rect class="st16" x="473.3" y="310.6" width="309.6" height="32"/>
  <g class="st6">
    <text class="st1" transform="translate(483.3 329.9)"><tspan x="0" y="0">avatarUrl</tspan></text>
  </g>
  <g class="st6">
    <text class="st5" transform="translate(684.9 329.9)"><tspan x="0" y="0">VARCHAR(255)</tspan></text>
  </g>
  <rect class="st16" x="473.3" y="342.6" width="309.6" height="32"/>
  <g class="st6">
    <text class="st1" transform="translate(483.3 361.9)"><tspan x="0" y="0">isEmailVerified</tspan></text>
  </g>
  <g class="st6">
    <text class="st5" transform="translate(712.2 361.9)"><tspan x="0" y="0">BOOLEAN</tspan></text>
  </g>
  <rect class="st16" x="473.3" y="374.6" width="309.6" height="32"/>
  <g class="st6">
    <text class="st1" transform="translate(483.3 393.9)"><tspan x="0" y="0">isDocsVerified</tspan></text>
  </g>
  <g class="st6">
    <text class="st5" transform="translate(712.2 393.9)"><tspan x="0" y="0">BOOLEAN</tspan></text>
  </g>
  <rect class="st16" x="473.3" y="406.6" width="309.6" height="32"/>
  <g class="st6">
    <text class="st1" transform="translate(483.3 425.9)"><tspan x="0" y="0">createdAt</tspan></text>
  </g>
  <g class="st6">
    <text class="st5" transform="translate(701.2 425.9)"><tspan x="0" y="0">TIMESTAMP</tspan></text>
  </g>
  <rect class="st16" x="473.3" y="438.6" width="309.6" height="32"/>
  <g class="st6">
    <text class="st1" transform="translate(483.3 457.9)"><tspan x="0" y="0">updatedAt</tspan></text>
  </g>
  <g class="st6">
    <text class="st5" transform="translate(701.2 457.9)"><tspan x="0" y="0">TIMESTAMP</tspan></text>
  </g>
  <rect class="st10" x="892.8" y="224.6" width="250.2" height="32"/>
  <g class="st6">
    <text class="st7" transform="translate(902.8 243.9)"><tspan x="0" y="0">userRoles</tspan></text>
  </g>
  <rect class="st16" x="892.8" y="256.6" width="250.2" height="32"/>
  <g class="st6">
    <text class="st2" transform="translate(902.8 275.9)"><tspan x="0" y="0">id</tspan></text>
  </g>
  <path class="st0" d="M925.6,266.9c1.6,0,3,1.3,3,3s-1.3,3-3,3-.8,0-1.1-.2l-.9.9h-.7v1h-1v1h-2v-2l2.8-2.8c0-.3,0-.6,0-.9,0-1.6,1.3-3,3-3ZM925.6,265.9c-2.2,0-3.9,1.8-3.9,3.9s0,.4,0,.5l-2.5,2.5s0,.2,0,.3v2.7c0,.3.2.5.5.5h3c.3,0,.5-.2.5-.5v-.5h.5c.3,0,.5-.2.5-.5v-.4l.8-.8h.8c2.2,0,3.9-1.8,3.9-3.9s-1.8-3.9-3.9-3.9h0ZM925.6,268.8c0,.5.4,1,1,1s1-.4,1-1-.4-1-1-1-1,.4-1,1Z"/>
  <g class="st6">
    <text class="st3" transform="translate(1060.1 275.9)"><tspan x="0" y="0">BINARY(16)</tspan></text>
  </g>
  <rect class="st16" x="892.8" y="288.6" width="250.2" height="32"/>
  <g class="st6">
    <text class="st1" transform="translate(902.8 307.9)"><tspan x="0" y="0">userId</tspan></text>
  </g>
  <path class="st17" d="M1111,295.1h20s2,0,2,2v12s0,2-2,2h-20s-2,0-2-2v-12s0-2,2-2"/>
  <path class="st0" d="M1119.9,307.6h-1.2l-4.7-7.6h0v7.6h-.9v-9h1.2l4.7,7.5h0v-7.6h1v9h0Z"/>
  <path class="st0" d="M1129,307.6h-1.2l-4.7-7.6h0v7.6h-.9v-9h1.2l4.7,7.5h0v-7.6h1v9h0Z"/>
  <g class="st6">
    <text class="st5" transform="translate(1037.2 307.9)"><tspan x="0" y="0">BINARY(16)</tspan></text>
  </g>
  <rect class="st16" x="892.8" y="320.6" width="250.2" height="32"/>
  <g class="st6">
    <text class="st1" transform="translate(902.8 339.9)"><tspan x="0" y="0">roleId</tspan></text>
  </g>
  <path class="st17" d="M1111,327.1h20s2,0,2,2v12s0,2-2,2h-20s-2,0-2-2v-12s0-2,2-2"/>
  <path class="st0" d="M1119.9,339.6h-1.2l-4.7-7.6h0v7.6h-.9v-9h1.2l4.7,7.5h0v-7.6h1v9h0Z"/>
  <path class="st0" d="M1129,339.6h-1.2l-4.7-7.6h0v7.6h-.9v-9h1.2l4.7,7.5h0v-7.6h1v9h0Z"/>
  <g class="st6">
    <text class="st5" transform="translate(1037.2 339.9)"><tspan x="0" y="0">BINARY(16)</tspan></text>
  </g>
  <rect class="st16" x="892.8" y="352.6" width="250.2" height="32"/>
  <g class="st6">
    <text class="st1" transform="translate(902.8 371.9)"><tspan x="0" y="0">createdAt</tspan></text>
  </g>
  <g class="st6">
    <text class="st5" transform="translate(1061.3 371.9)"><tspan x="0" y="0">TIMESTAMP</tspan></text>
  </g>
  <rect class="st13" x="473.3" y="505.4" width="309.6" height="32"/>
  <g class="st6">
    <text class="st7" transform="translate(483.3 524.6)"><tspan x="0" y="0">properties</tspan></text>
  </g>
  <rect class="st16" x="473.3" y="537.4" width="309.6" height="32"/>
  <g class="st6">
    <text class="st2" transform="translate(483.3 556.6)"><tspan x="0" y="0">id</tspan></text>
  </g>
  <path class="st0" d="M506,547.6c1.6,0,3,1.3,3,3s-1.3,3-3,3-.8,0-1.1-.2l-.9.9h-.7v1h-1v1h-2v-2l2.8-2.8c0-.3-.1-.6-.1-.9,0-1.6,1.3-3,3-3h0ZM506,546.6c-2.2,0-3.9,1.8-3.9,3.9s0,.4,0,.5l-2.5,2.5s-.1.2-.1.3v2.7c0,.3.2.5.5.5h3c.3,0,.5-.2.5-.5v-.5h.5c.3,0,.5-.2.5-.5v-.4l.8-.8h.8c2.2,0,3.9-1.8,3.9-3.9s-1.8-3.9-3.9-3.9h0ZM506,549.6c0,.5.4,1,1,1s1-.4,1-1-.4-1-1-1-1,.4-1,1Z"/>
  <g class="st6">
    <text class="st3" transform="translate(699.9 556.6)"><tspan x="0" y="0">BINARY(16)</tspan></text>
  </g>
  <rect class="st16" x="473.3" y="569.4" width="309.6" height="32"/>
  <g class="st6">
    <text class="st1" transform="translate(483.3 588.6)"><tspan x="0" y="0">ownerId</tspan></text>
  </g>
  <path class="st17" d="M750.9,575.9h20s2,0,2,2v12s0,2-2,2h-20s-2,0-2-2v-12s0-2,2-2"/>
  <path class="st0" d="M759.7,588.4h-1.2l-4.7-7.6h0v7.6h-.9v-9h1.2l4.7,7.5h0v-7.6h1v9h0Z"/>
  <path class="st0" d="M768.9,588.4h-1.2l-4.7-7.6h0v7.6h-.9v-9h1.2l4.7,7.5h0v-7.6h1v9h0Z"/>
  <g class="st6">
    <text class="st5" transform="translate(677 588.6)"><tspan x="0" y="0">BINARY(16)</tspan></text>
  </g>
  <rect class="st16" x="473.3" y="601.4" width="309.6" height="32"/>
  <g class="st6">
    <text class="st1" transform="translate(483.3 620.6)"><tspan x="0" y="0">adTitle</tspan></text>
  </g>
  <path class="st17" d="M750.9,607.9h20s2,0,2,2v12s0,2-2,2h-20s-2,0-2-2v-12s0-2,2-2"/>
  <path class="st0" d="M759.7,620.4h-1.2l-4.7-7.6h0v7.6h-.9v-9h1.2l4.7,7.5h0v-7.6h1v9h0Z"/>
  <path class="st0" d="M768.9,620.4h-1.2l-4.7-7.6h0v7.6h-.9v-9h1.2l4.7,7.5h0v-7.6h1v9h0Z"/>
  <g class="st6">
    <text class="st5" transform="translate(656.9 620.6)"><tspan x="0" y="0">VARCHAR(255)</tspan></text>
  </g>
  <rect class="st16" x="473.3" y="633.4" width="309.6" height="32"/>
  <g class="st6">
    <text class="st1" transform="translate(483.3 652.6)"><tspan x="0" y="0">description</tspan></text>
  </g>
  <path class="st17" d="M750.9,639.9h20s2,0,2,2v12s0,2-2,2h-20s-2,0-2-2v-12s0-2,2-2"/>
  <path class="st0" d="M759.7,652.4h-1.2l-4.7-7.6h0v7.6h-.9v-9h1.2l4.7,7.5h0v-7.6h1v9h0Z"/>
  <path class="st0" d="M768.9,652.4h-1.2l-4.7-7.6h0v7.6h-.9v-9h1.2l4.7,7.5h0v-7.6h1v9h0Z"/>
  <g class="st6">
    <text class="st5" transform="translate(715.8 652.6)"><tspan x="0" y="0">TEXT</tspan></text>
  </g>
  <rect class="st16" x="473.3" y="665.4" width="309.6" height="32"/>
  <g class="st6">
    <text class="st1" transform="translate(483.3 684.6)"><tspan x="0" y="0">formattedAddress</tspan></text>
  </g>
  <path class="st17" d="M750.9,671.9h20s2,0,2,2v12s0,2-2,2h-20s-2,0-2-2v-12s0-2,2-2"/>
  <path class="st0" d="M759.7,684.4h-1.2l-4.7-7.6h0v7.6h-.9v-9h1.2l4.7,7.5h0v-7.6h1v9h0Z"/>
  <path class="st0" d="M768.9,684.4h-1.2l-4.7-7.6h0v7.6h-.9v-9h1.2l4.7,7.5h0v-7.6h1v9h0Z"/>
  <g class="st6">
    <text class="st5" transform="translate(656.9 684.6)"><tspan x="0" y="0">VARCHAR(255)</tspan></text>
  </g>
  <rect class="st16" x="473.3" y="697.4" width="309.6" height="32"/>
  <g class="st6">
    <text class="st1" transform="translate(483.3 716.6)"><tspan x="0" y="0">addressLocality</tspan></text>
  </g>
  <g class="st6">
    <text class="st5" transform="translate(684.9 716.6)"><tspan x="0" y="0">VARCHAR(255)</tspan></text>
  </g>
  <rect class="st16" x="473.3" y="729.4" width="309.6" height="32"/>
  <g class="st6">
    <text class="st1" transform="translate(483.3 748.6)"><tspan x="0" y="0">addressStreetName</tspan></text>
  </g>
  <g class="st6">
    <text class="st5" transform="translate(684.9 748.6)"><tspan x="0" y="0">VARCHAR(255)</tspan></text>
  </g>
  <rect class="st16" x="473.3" y="761.4" width="309.6" height="32"/>
  <g class="st6">
    <text class="st1" transform="translate(483.3 780.6)"><tspan x="0" y="0">addressNumber</tspan></text>
  </g>
  <g class="st6">
    <text class="st5" transform="translate(692.3 780.6)"><tspan x="0" y="0">VARCHAR(10)</tspan></text>
  </g>
  <rect class="st16" x="473.3" y="793.4" width="309.6" height="32"/>
  <g class="st6">
    <text class="st1" transform="translate(483.3 812.6)"><tspan x="0" y="0">addressFloorNumber</tspan></text>
  </g>
  <g class="st6">
    <text class="st5" transform="translate(692.3 812.6)"><tspan x="0" y="0">VARCHAR(10)</tspan></text>
  </g>
  <rect class="st16" x="473.3" y="825.4" width="309.6" height="32"/>
  <g class="st6">
    <text class="st1" transform="translate(483.3 844.6)"><tspan x="0" y="0">hasEnergyCertificate</tspan></text>
  </g>
  <g class="st6">
    <text class="st5" transform="translate(712.2 844.6)"><tspan x="0" y="0">BOOLEAN</tspan></text>
  </g>
  <rect class="st16" x="473.3" y="857.4" width="309.6" height="32"/>
  <g class="st6">
    <text class="st1" transform="translate(483.3 876.6)"><tspan x="0" y="0">zipCode</tspan></text>
  </g>
  <path class="st17" d="M750.9,863.9h20s2,0,2,2v12s0,2-2,2h-20s-2,0-2-2v-12s0-2,2-2"/>
  <path class="st0" d="M759.7,876.4h-1.2l-4.7-7.6h0v7.6h-.9v-9h1.2l4.7,7.5h0v-7.6h1v9h0Z"/>
  <path class="st0" d="M768.9,876.4h-1.2l-4.7-7.6h0v7.6h-.9v-9h1.2l4.7,7.5h0v-7.6h1v9h0Z"/>
  <g class="st6">
    <text class="st5" transform="translate(671.8 876.6)"><tspan x="0" y="0">VARCHAR(5)</tspan></text>
  </g>
  <rect class="st16" x="473.3" y="889.4" width="309.6" height="32"/>
  <g class="st6">
    <text class="st1" transform="translate(483.3 908.6)"><tspan x="0" y="0">location</tspan></text>
  </g>
  <path class="st17" d="M750.9,895.9h20s2,0,2,2v12s0,2-2,2h-20s-2,0-2-2v-12s0-2,2-2"/>
  <path class="st0" d="M759.7,908.4h-1.2l-4.7-7.6h0v7.6h-.9v-9h1.2l4.7,7.5h0v-7.6h1v9h0Z"/>
  <path class="st0" d="M768.9,908.4h-1.2l-4.7-7.6h0v7.6h-.9v-9h1.2l4.7,7.5h0v-7.6h1v9h0Z"/>
  <g class="st6">
    <text class="st5" transform="translate(706.4 908.6)"><tspan x="0" y="0">POINT</tspan></text>
  </g>
  <rect class="st16" x="473.3" y="921.4" width="309.6" height="32"/>
  <g class="st6">
    <text class="st1" transform="translate(483.3 940.6)"><tspan x="0" y="0">squareMeters</tspan></text>
  </g>
  <g class="st6">
    <text class="st5" transform="translate(711.7 940.6)"><tspan x="0" y="0">SMALLINT</tspan></text>
  </g>
  <rect class="st16" x="473.3" y="953.4" width="309.6" height="32"/>
  <g class="st6">
    <text class="st1" transform="translate(483.3 972.6)"><tspan x="0" y="0">bedrooms</tspan></text>
  </g>
  <path class="st17" d="M750.9,959.9h20s2,0,2,2v12s0,2-2,2h-20s-2,0-2-2v-12s0-2,2-2"/>
  <path class="st0" d="M759.7,972.4h-1.2l-4.7-7.6h0v7.6h-.9v-9h1.2l4.7,7.5h0v-7.6h1v9h0Z"/>
  <path class="st0" d="M768.9,972.4h-1.2l-4.7-7.6h0v7.6h-.9v-9h1.2l4.7,7.5h0v-7.6h1v9h0Z"/>
  <g class="st6">
    <text class="st5" transform="translate(696.5 972.6)"><tspan x="0" y="0">TINYINT</tspan></text>
  </g>
  <rect class="st16" x="473.3" y="985.4" width="309.6" height="32"/>
  <g class="st6">
    <text class="st1" transform="translate(483.3 1004.6)"><tspan x="0" y="0">bathrooms</tspan></text>
  </g>
  <path class="st17" d="M750.9,991.9h20s2,0,2,2v12s0,2-2,2h-20s-2,0-2-2v-12s0-2,2-2"/>
  <path class="st0" d="M759.7,1004.4h-1.2l-4.7-7.6h0v7.6h-.9v-9h1.2l4.7,7.5h0v-7.6h1v9h0Z"/>
  <path class="st0" d="M768.9,1004.4h-1.2l-4.7-7.6h0v7.6h-.9v-9h1.2l4.7,7.5h0v-7.6h1v9h0Z"/>
  <g class="st6">
    <text class="st5" transform="translate(696.5 1004.6)"><tspan x="0" y="0">TINYINT</tspan></text>
  </g>
  <rect class="st16" x="473.3" y="1017.4" width="309.6" height="32"/>
  <g class="st6">
    <text class="st1" transform="translate(483.3 1036.6)"><tspan x="0" y="0">price</tspan></text>
  </g>
  <path class="st17" d="M750.9,1023.9h20s2,0,2,2v12s0,2-2,2h-20s-2,0-2-2v-12s0-2,2-2"/>
  <path class="st0" d="M759.7,1036.4h-1.2l-4.7-7.6h0v7.6h-.9v-9h1.2l4.7,7.5h0v-7.6h1v9h0Z"/>
  <path class="st0" d="M768.9,1036.4h-1.2l-4.7-7.6h0v7.6h-.9v-9h1.2l4.7,7.5h0v-7.6h1v9h0Z"/>
  <g class="st6">
    <text class="st5" transform="translate(656.4 1036.6)"><tspan x="0" y="0">DECIMAL(10,2)</tspan></text>
  </g>
  <rect class="st16" x="473.3" y="1049.4" width="309.6" height="32"/>
  <g class="st6">
    <text class="st1" transform="translate(483.3 1068.6)"><tspan x="0" y="0">status</tspan></text>
  </g>
  <path class="st17" d="M761.9,1055.9h9s2,0,2,2v12s0,2-2,2h-9s-2,0-2-2v-12s0-2,2-2"/>
  <path class="st0" d="M768.9,1068.3h-5v-8.9h5v.9h-3.9v2.9h3.7v.9h-3.7v3.3h3.9v.9h0Z"/>
  <g class="st6">
    <text class="st5" transform="translate(609.3 1068.6)"><tspan x="0" y="0">properties_status_enum</tspan></text>
  </g>
  <rect class="st16" x="473.3" y="1081.4" width="309.6" height="32"/>
  <g class="st6">
    <text class="st1" transform="translate(483.3 1100.6)"><tspan x="0" y="0">createdAt</tspan></text>
  </g>
  <g class="st6">
    <text class="st5" transform="translate(701.2 1100.6)"><tspan x="0" y="0">TIMESTAMP</tspan></text>
  </g>
  <rect class="st16" x="473.3" y="1113.4" width="309.6" height="32"/>
  <g class="st6">
    <text class="st1" transform="translate(483.3 1132.6)"><tspan x="0" y="0">updatedAt</tspan></text>
  </g>
  <g class="st6">
    <text class="st5" transform="translate(701.2 1132.6)"><tspan x="0" y="0">TIMESTAMP</tspan></text>
  </g>
  <rect class="st10" x="33.3" y="752.6" width="288" height="32"/>
  <g class="st6">
    <text class="st7" transform="translate(43.3 771.9)"><tspan x="0" y="0">rentalContracts</tspan></text>
  </g>
  <rect class="st16" x="33.3" y="784.6" width="288" height="32"/>
  <g class="st6">
    <text class="st2" transform="translate(43.3 803.9)"><tspan x="0" y="0">id</tspan></text>
  </g>
  <path class="st0" d="M66,794.9c1.6,0,3,1.3,3,3s-1.3,3-3,3-.8,0-1.1-.2l-.9.9h-.7v1h-1v1h-2v-2l2.8-2.8c0-.3,0-.6,0-.9,0-1.6,1.3-3,3-3ZM66,793.9c-2.2,0-3.9,1.8-3.9,3.9s0,.4,0,.5l-2.5,2.5s0,.2,0,.3v2.7c0,.3.2.5.5.5h3c.3,0,.5-.2.5-.5v-.5h.5c.3,0,.5-.2.5-.5v-.4l.8-.8h.8c2.2,0,3.9-1.8,3.9-3.9s-1.8-3.9-3.9-3.9h-.1ZM66,796.8c0,.5.4,1,1,1s1-.4,1-1-.4-1-1-1-1,.4-1,1Z"/>
  <g class="st6">
    <text class="st3" transform="translate(238.3 803.9)"><tspan x="0" y="0">BINARY(16)</tspan></text>
  </g>
  <rect class="st16" x="33.3" y="816.6" width="288" height="32"/>
  <g class="st6">
    <text class="st1" transform="translate(43.3 835.9)"><tspan x="0" y="0">tenantId</tspan></text>
  </g>
  <path class="st17" d="M289.3,823.1h20s2,0,2,2v12s0,2-2,2h-20s-2,0-2-2v-12s0-2,2-2"/>
  <path class="st0" d="M298.1,835.6h-1.2l-4.7-7.6h0v7.6h-.9v-9h1.2l4.7,7.5h0v-7.6h1v9h-.1Z"/>
  <path class="st0" d="M307.3,835.6h-1.2l-4.7-7.6h0v7.6h-.9v-9h1.2l4.7,7.5h0v-7.6h1v9h-.1Z"/>
  <g class="st6">
    <text class="st5" transform="translate(215.4 835.9)"><tspan x="0" y="0">BINARY(16)</tspan></text>
  </g>
  <rect class="st16" x="33.3" y="848.6" width="288" height="32"/>
  <g class="st6">
    <text class="st1" transform="translate(43.3 867.9)"><tspan x="0" y="0">propertyId</tspan></text>
  </g>
  <path class="st17" d="M289.3,855.1h20s2,0,2,2v12s0,2-2,2h-20s-2,0-2-2v-12s0-2,2-2"/>
  <path class="st0" d="M298.1,867.6h-1.2l-4.7-7.6h0v7.6h-.9v-9h1.2l4.7,7.5h0v-7.6h1v9h-.1Z"/>
  <path class="st0" d="M307.3,867.6h-1.2l-4.7-7.6h0v7.6h-.9v-9h1.2l4.7,7.5h0v-7.6h1v9h-.1Z"/>
  <g class="st6">
    <text class="st5" transform="translate(215.4 867.9)"><tspan x="0" y="0">BINARY(16)</tspan></text>
  </g>
  <rect class="st16" x="33.3" y="880.6" width="288" height="32"/>
  <g class="st6">
    <text class="st1" transform="translate(43.3 899.9)"><tspan x="0" y="0">startDate</tspan></text>
  </g>
  <path class="st17" d="M289.3,887.1h20s2,0,2,2v12s0,2-2,2h-20s-2,0-2-2v-12s0-2,2-2"/>
  <path class="st0" d="M298.1,899.6h-1.2l-4.7-7.6h0v7.6h-.9v-9h1.2l4.7,7.5h0v-7.6h1v9h-.1Z"/>
  <path class="st0" d="M307.3,899.6h-1.2l-4.7-7.6h0v7.6h-.9v-9h1.2l4.7,7.5h0v-7.6h1v9h-.1Z"/>
  <g class="st6">
    <text class="st5" transform="translate(211.6 899.9)"><tspan x="0" y="0">TIMESTAMP</tspan></text>
  </g>
  <rect class="st16" x="33.3" y="912.6" width="288" height="32"/>
  <g class="st6">
    <text class="st1" transform="translate(43.3 931.9)"><tspan x="0" y="0">endDate</tspan></text>
  </g>
  <g class="st6">
    <text class="st5" transform="translate(239.6 931.9)"><tspan x="0" y="0">TIMESTAMP</tspan></text>
  </g>
  <rect class="st16" x="33.3" y="944.6" width="288" height="32"/>
  <g class="st6">
    <text class="st1" transform="translate(43.3 963.9)"><tspan x="0" y="0">status</tspan></text>
  </g>
  <path class="st17" d="M289.3,951.1h20s2,0,2,2v12s0,2-2,2h-20s-2,0-2-2v-12s0-2,2-2"/>
  <path class="st0" d="M298.1,963.6h-1.2l-4.7-7.6h0v7.6h-.9v-9h1.2l4.7,7.5h0v-7.6h1v9h-.1Z"/>
  <path class="st0" d="M307.3,963.6h-1.2l-4.7-7.6h0v7.6h-.9v-9h1.2l4.7,7.5h0v-7.6h1v9h-.1Z"/>
  <path class="st17" d="M272.3,951.1h9s2,0,2,2v12s0,2-2,2h-9s-2,0-2-2v-12s0-2,2-2"/>
  <path class="st0" d="M279.2,963.6h-5v-8.9h5v.9h-3.9v2.9h3.7v.9h-3.7v3.3h3.9v.9h0Z"/>
  <g class="st6">
    <text class="st5" transform="translate(88.8 963.9)"><tspan x="0" y="0">rentalContracts_status_enum</tspan></text>
  </g>
  <rect class="st16" x="33.3" y="976.6" width="288" height="32"/>
  <g class="st6">
    <text class="st1" transform="translate(43.3 995.9)"><tspan x="0" y="0">createdAt</tspan></text>
  </g>
  <g class="st6">
    <text class="st5" transform="translate(239.6 995.9)"><tspan x="0" y="0">TIMESTAMP</tspan></text>
  </g>
  <rect class="st16" x="33.3" y="1008.6" width="288" height="32"/>
  <g class="st6">
    <text class="st1" transform="translate(43.3 1027.9)"><tspan x="0" y="0">updatedAt</tspan></text>
  </g>
  <g class="st6">
    <text class="st5" transform="translate(239.6 1027.9)"><tspan x="0" y="0">TIMESTAMP</tspan></text>
  </g>
  <rect class="st16" x="33.3" y="1040.6" width="288" height="32"/>
  <g class="st6">
    <text class="st1" transform="translate(43.3 1059.9)"><tspan x="0" y="0">pdfUrl</tspan></text>
  </g>
  <g class="st6">
    <text class="st5" transform="translate(223.3 1059.9)"><tspan x="0" y="0">VARCHAR(255)</tspan></text>
  </g>
  <rect class="st10" x="33.3" y="414.6" width="288" height="32"/>
  <g class="st6">
    <text class="st7" transform="translate(43.3 433.9)"><tspan x="0" y="0">reviews</tspan></text>
  </g>
  <rect class="st16" x="33.3" y="446.6" width="288" height="32"/>
  <g class="st6">
    <text class="st2" transform="translate(43.3 465.9)"><tspan x="0" y="0">id</tspan></text>
  </g>
  <path class="st0" d="M66,456.9c1.6,0,3,1.3,3,3s-1.3,3-3,3-.8,0-1.1-.2l-.9.9h-.7v1h-1v1h-2v-2l2.8-2.8c0-.3,0-.6,0-.9,0-1.6,1.3-3,3-3ZM66,455.9c-2.2,0-3.9,1.8-3.9,3.9s0,.4,0,.5l-2.5,2.5s0,.2,0,.3v2.7c0,.3.2.5.5.5h3c.3,0,.5-.2.5-.5v-.5h.5c.3,0,.5-.2.5-.5v-.4l.8-.8h.8c2.2,0,3.9-1.8,3.9-3.9s-1.8-3.9-3.9-3.9h-.1ZM66,458.8c0,.5.4,1,1,1s1-.4,1-1-.4-1-1-1-1,.4-1,1Z"/>
  <g class="st6">
    <text class="st3" transform="translate(238.3 465.9)"><tspan x="0" y="0">BINARY(16)</tspan></text>
  </g>
  <rect class="st16" x="33.3" y="478.6" width="288" height="32"/>
  <g class="st6">
    <text class="st1" transform="translate(43.3 497.9)"><tspan x="0" y="0">reviewerId</tspan></text>
  </g>
  <path class="st17" d="M289.3,485.1h20s2,0,2,2v12s0,2-2,2h-20s-2,0-2-2v-12s0-2,2-2"/>
  <path class="st0" d="M298.1,497.6h-1.2l-4.7-7.6h0v7.6h-.9v-9h1.2l4.7,7.5h0v-7.6h1v9h-.1Z"/>
  <path class="st0" d="M307.3,497.6h-1.2l-4.7-7.6h0v7.6h-.9v-9h1.2l4.7,7.5h0v-7.6h1v9h-.1Z"/>
  <g class="st6">
    <text class="st5" transform="translate(215.4 497.9)"><tspan x="0" y="0">BINARY(16)</tspan></text>
  </g>
  <rect class="st16" x="33.3" y="510.6" width="288" height="32"/>
  <g class="st6">
    <text class="st1" transform="translate(43.3 529.9)"><tspan x="0" y="0">reviewedId</tspan></text>
  </g>
  <path class="st17" d="M289.3,517.1h20s2,0,2,2v12s0,2-2,2h-20s-2,0-2-2v-12s0-2,2-2"/>
  <path class="st0" d="M298.1,529.6h-1.2l-4.7-7.6h0v7.6h-.9v-9h1.2l4.7,7.5h0v-7.6h1v9h-.1Z"/>
  <path class="st0" d="M307.3,529.6h-1.2l-4.7-7.6h0v7.6h-.9v-9h1.2l4.7,7.5h0v-7.6h1v9h-.1Z"/>
  <g class="st6">
    <text class="st5" transform="translate(215.4 529.9)"><tspan x="0" y="0">BINARY(16)</tspan></text>
  </g>
  <rect class="st16" x="33.3" y="542.6" width="288" height="32"/>
  <g class="st6">
    <text class="st1" transform="translate(43.3 561.9)"><tspan x="0" y="0">rentalId</tspan></text>
  </g>
  <path class="st17" d="M289.3,549.1h20s2,0,2,2v12s0,2-2,2h-20s-2,0-2-2v-12s0-2,2-2"/>
  <path class="st0" d="M298.1,561.6h-1.2l-4.7-7.6h0v7.6h-.9v-9h1.2l4.7,7.5h0v-7.6h1v9h-.1Z"/>
  <path class="st0" d="M307.3,561.6h-1.2l-4.7-7.6h0v7.6h-.9v-9h1.2l4.7,7.5h0v-7.6h1v9h-.1Z"/>
  <g class="st6">
    <text class="st5" transform="translate(215.4 561.9)"><tspan x="0" y="0">BINARY(16)</tspan></text>
  </g>
  <rect class="st16" x="33.3" y="574.6" width="288" height="32"/>
  <g class="st6">
    <text class="st1" transform="translate(43.3 593.9)"><tspan x="0" y="0">rating</tspan></text>
  </g>
  <path class="st17" d="M289.3,581.1h20s2,0,2,2v12s0,2-2,2h-20s-2,0-2-2v-12s0-2,2-2"/>
  <path class="st0" d="M298.1,593.6h-1.2l-4.7-7.6h0v7.6h-.9v-9h1.2l4.7,7.5h0v-7.6h1v9h-.1Z"/>
  <path class="st0" d="M307.3,593.6h-1.2l-4.7-7.6h0v7.6h-.9v-9h1.2l4.7,7.5h0v-7.6h1v9h-.1Z"/>
  <g class="st6">
    <text class="st5" transform="translate(234.9 593.9)"><tspan x="0" y="0">TINYINT</tspan></text>
  </g>
  <rect class="st16" x="33.3" y="606.6" width="288" height="32"/>
  <g class="st6">
    <text class="st1" transform="translate(43.3 625.9)"><tspan x="0" y="0">comment</tspan></text>
  </g>
  <g class="st6">
    <text class="st5" transform="translate(282.2 625.9)"><tspan x="0" y="0">TEXT</tspan></text>
  </g>
  <rect class="st16" x="33.3" y="638.6" width="288" height="32"/>
  <g class="st6">
    <text class="st1" transform="translate(43.3 657.9)"><tspan x="0" y="0">createdAt</tspan></text>
  </g>
  <g class="st6">
    <text class="st5" transform="translate(239.6 657.9)"><tspan x="0" y="0">TIMESTAMP</tspan></text>
  </g>
  <rect class="st10" x="892.8" y="758.6" width="250.2" height="32"/>
  <g class="st6">
    <text class="st7" transform="translate(902.8 777.9)"><tspan x="0" y="0">images</tspan></text>
  </g>
  <rect class="st16" x="892.8" y="790.6" width="250.2" height="32"/>
  <g class="st6">
    <text class="st2" transform="translate(902.8 809.9)"><tspan x="0" y="0">id</tspan></text>
  </g>
  <path class="st0" d="M925.6,800.9c1.6,0,3,1.3,3,3s-1.3,3-3,3-.8,0-1.1-.2l-.9.9h-.7v1h-1v1h-2v-2l2.8-2.8c0-.3,0-.6,0-.9,0-1.6,1.3-3,3-3ZM925.6,799.9c-2.2,0-3.9,1.8-3.9,3.9s0,.4,0,.5l-2.5,2.5s0,.2,0,.3v2.7c0,.3.2.5.5.5h3c.3,0,.5-.2.5-.5v-.5h.5c.3,0,.5-.2.5-.5v-.4l.8-.8h.8c2.2,0,3.9-1.8,3.9-3.9s-1.8-3.9-3.9-3.9h0ZM925.6,802.8c0,.5.4,1,1,1s1-.4,1-1-.4-1-1-1-1,.4-1,1Z"/>
  <g class="st6">
    <text class="st3" transform="translate(1060.1 809.9)"><tspan x="0" y="0">BINARY(16)</tspan></text>
  </g>
  <rect class="st16" x="892.8" y="822.6" width="250.2" height="32"/>
  <g class="st6">
    <text class="st1" transform="translate(902.8 841.9)"><tspan x="0" y="0">propertyId</tspan></text>
  </g>
  <path class="st17" d="M1111,829.1h20s2,0,2,2v12s0,2-2,2h-20s-2,0-2-2v-12s0-2,2-2"/>
  <path class="st0" d="M1119.9,841.6h-1.2l-4.7-7.6h0v7.6h-.9v-9h1.2l4.7,7.5h0v-7.6h1v9h0Z"/>
  <path class="st0" d="M1129,841.6h-1.2l-4.7-7.6h0v7.6h-.9v-9h1.2l4.7,7.5h0v-7.6h1v9h0Z"/>
  <g class="st6">
    <text class="st5" transform="translate(1037.2 841.9)"><tspan x="0" y="0">BINARY(16)</tspan></text>
  </g>
  <rect class="st16" x="892.8" y="854.6" width="250.2" height="32"/>
  <g class="st6">
    <text class="st1" transform="translate(902.8 873.9)"><tspan x="0" y="0">imageUrl</tspan></text>
  </g>
  <path class="st17" d="M1111,861.1h20s2,0,2,2v12s0,2-2,2h-20s-2,0-2-2v-12s0-2,2-2"/>
  <path class="st0" d="M1119.9,873.6h-1.2l-4.7-7.6h0v7.6h-.9v-9h1.2l4.7,7.5h0v-7.6h1v9h0Z"/>
  <path class="st0" d="M1129,873.6h-1.2l-4.7-7.6h0v7.6h-.9v-9h1.2l4.7,7.5h0v-7.6h1v9h0Z"/>
  <g class="st6">
    <text class="st5" transform="translate(1017.1 873.9)"><tspan x="0" y="0">VARCHAR(255)</tspan></text>
  </g>
  <rect class="st16" x="892.8" y="886.6" width="250.2" height="32"/>
  <g class="st6">
    <text class="st1" transform="translate(902.8 905.9)"><tspan x="0" y="0">sortIndex</tspan></text>
  </g>
  <g class="st6">
    <text class="st5" transform="translate(1084.6 905.9)"><tspan x="0" y="0">TINYINT</tspan></text>
  </g>
  <rect class="st16" x="892.8" y="918.6" width="250.2" height="32"/>
  <g class="st6">
    <text class="st1" transform="translate(902.8 937.9)"><tspan x="0" y="0">createdAt</tspan></text>
  </g>
  <g class="st6">
    <text class="st5" transform="translate(1061.3 937.9)"><tspan x="0" y="0">TIMESTAMP</tspan></text>
  </g>
  <rect class="st16" x="892.8" y="950.6" width="250.2" height="32"/>
  <g class="st6">
    <text class="st1" transform="translate(902.8 969.9)"><tspan x="0" y="0">updatedAt</tspan></text>
  </g>
  <g class="st6">
    <text class="st5" transform="translate(1061.3 969.9)"><tspan x="0" y="0">TIMESTAMP</tspan></text>
  </g>
  <rect class="st10" x="892.8" y="440.6" width="250.2" height="32"/>
  <g class="st6">
    <text class="st7" transform="translate(902.8 459.9)"><tspan x="0" y="0">favs</tspan></text>
  </g>
  <rect class="st16" x="892.8" y="472.6" width="250.2" height="32"/>
  <g class="st6">
    <text class="st2" transform="translate(902.8 491.9)"><tspan x="0" y="0">id</tspan></text>
  </g>
  <path class="st0" d="M925.6,482.9c1.6,0,3,1.3,3,3s-1.3,3-3,3-.8,0-1.1-.2l-.9.9h-.7v1h-1v1h-2v-2l2.8-2.8c0-.3,0-.6,0-.9,0-1.6,1.3-3,3-3ZM925.6,481.9c-2.2,0-3.9,1.8-3.9,3.9s0,.4,0,.5l-2.5,2.5s0,.2,0,.3v2.7c0,.3.2.5.5.5h3c.3,0,.5-.2.5-.5v-.5h.5c.3,0,.5-.2.5-.5v-.4l.8-.8h.8c2.2,0,3.9-1.8,3.9-3.9s-1.8-3.9-3.9-3.9h0ZM925.6,484.8c0,.5.4,1,1,1s1-.4,1-1-.4-1-1-1-1,.4-1,1Z"/>
  <g class="st6">
    <text class="st3" transform="translate(1060.1 491.9)"><tspan x="0" y="0">BINARY(16)</tspan></text>
  </g>
  <rect class="st16" x="892.8" y="504.6" width="250.2" height="32"/>
  <g class="st6">
    <text class="st1" transform="translate(902.8 523.9)"><tspan x="0" y="0">userId</tspan></text>
  </g>
  <path class="st17" d="M1111,511.1h20s2,0,2,2v12s0,2-2,2h-20s-2,0-2-2v-12s0-2,2-2"/>
  <path class="st0" d="M1119.9,523.6h-1.2l-4.7-7.6h0v7.6h-.9v-9h1.2l4.7,7.5h0v-7.6h1v9h0Z"/>
  <path class="st0" d="M1129,523.6h-1.2l-4.7-7.6h0v7.6h-.9v-9h1.2l4.7,7.5h0v-7.6h1v9h0Z"/>
  <g class="st6">
    <text class="st5" transform="translate(1037.2 523.9)"><tspan x="0" y="0">BINARY(16)</tspan></text>
  </g>
  <rect class="st16" x="892.8" y="536.6" width="250.2" height="32"/>
  <g class="st6">
    <text class="st1" transform="translate(902.8 555.9)"><tspan x="0" y="0">propertyId</tspan></text>
  </g>
  <path class="st17" d="M1111,543.1h20s2,0,2,2v12s0,2-2,2h-20s-2,0-2-2v-12s0-2,2-2"/>
  <path class="st0" d="M1119.9,555.6h-1.2l-4.7-7.6h0v7.6h-.9v-9h1.2l4.7,7.5h0v-7.6h1v9h0Z"/>
  <path class="st0" d="M1129,555.6h-1.2l-4.7-7.6h0v7.6h-.9v-9h1.2l4.7,7.5h0v-7.6h1v9h0Z"/>
  <g class="st6">
    <text class="st5" transform="translate(1037.2 555.9)"><tspan x="0" y="0">BINARY(16)</tspan></text>
  </g>
  <rect class="st16" x="892.8" y="568.6" width="250.2" height="32"/>
  <g class="st6">
    <text class="st1" transform="translate(902.8 587.9)"><tspan x="0" y="0">createdAt</tspan></text>
  </g>
  <g class="st6">
    <text class="st5" transform="translate(1061.3 587.9)"><tspan x="0" y="0">TIMESTAMP</tspan></text>
  </g>
  <rect class="st10" x="33.3" y="54.6" width="288" height="32"/>
  <g class="st6">
    <text class="st7" transform="translate(43.3 73.9)"><tspan x="0" y="0">notifications</tspan></text>
  </g>
  <rect class="st16" x="33.3" y="86.6" width="288" height="32"/>
  <g class="st6">
    <text class="st2" transform="translate(43.3 105.9)"><tspan x="0" y="0">id</tspan></text>
  </g>
  <path class="st0" d="M66,96.9c1.6,0,3,1.3,3,3s-1.3,3-3,3-.8,0-1.1-.2l-.9.9h-.7v1h-1v1h-2v-2l2.8-2.8c0-.3,0-.6,0-.9,0-1.6,1.3-3,3-3ZM66,95.9c-2.2,0-3.9,1.8-3.9,3.9s0,.4,0,.5l-2.5,2.5s0,.2,0,.3v2.7c0,.3.2.5.5.5h3c.3,0,.5-.2.5-.5v-.5h.5c.3,0,.5-.2.5-.5v-.4l.8-.8h.8c2.2,0,3.9-1.8,3.9-3.9s-1.8-3.9-3.9-3.9h-.1ZM66,98.8c0,.5.4,1,1,1s1-.4,1-1-.4-1-1-1-1,.4-1,1Z"/>
  <g class="st6">
    <text class="st3" transform="translate(238.3 105.9)"><tspan x="0" y="0">BINARY(16)</tspan></text>
  </g>
  <rect class="st16" x="33.3" y="118.6" width="288" height="32"/>
  <g class="st6">
    <text class="st1" transform="translate(43.3 137.9)"><tspan x="0" y="0">userId</tspan></text>
  </g>
  <path class="st17" d="M289.3,125.1h20s2,0,2,2v12s0,2-2,2h-20s-2,0-2-2v-12s0-2,2-2"/>
  <path class="st0" d="M298.1,137.6h-1.2l-4.7-7.6h0v7.6h-.9v-9h1.2l4.7,7.5h0v-7.6h1v9h-.1Z"/>
  <path class="st0" d="M307.3,137.6h-1.2l-4.7-7.6h0v7.6h-.9v-9h1.2l4.7,7.5h0v-7.6h1v9h-.1Z"/>
  <g class="st6">
    <text class="st5" transform="translate(215.4 137.9)"><tspan x="0" y="0">BINARY(16)</tspan></text>
  </g>
  <rect class="st16" x="33.3" y="150.6" width="288" height="32"/>
  <g class="st6">
    <text class="st1" transform="translate(43.3 169.9)"><tspan x="0" y="0">propertyId</tspan></text>
  </g>
  <path class="st17" d="M289.3,157.1h20s2,0,2,2v12s0,2-2,2h-20s-2,0-2-2v-12s0-2,2-2"/>
  <path class="st0" d="M298.1,169.6h-1.2l-4.7-7.6h0v7.6h-.9v-9h1.2l4.7,7.5h0v-7.6h1v9h-.1Z"/>
  <path class="st0" d="M307.3,169.6h-1.2l-4.7-7.6h0v7.6h-.9v-9h1.2l4.7,7.5h0v-7.6h1v9h-.1Z"/>
  <g class="st6">
    <text class="st5" transform="translate(215.4 169.9)"><tspan x="0" y="0">BINARY(16)</tspan></text>
  </g>
  <rect class="st16" x="33.3" y="182.6" width="288" height="32"/>
  <g class="st6">
    <text class="st1" transform="translate(43.3 201.9)"><tspan x="0" y="0">message</tspan></text>
  </g>
  <path class="st17" d="M289.3,189.1h20s2,0,2,2v12s0,2-2,2h-20s-2,0-2-2v-12s0-2,2-2"/>
  <path class="st0" d="M298.1,201.6h-1.2l-4.7-7.6h0v7.6h-.9v-9h1.2l4.7,7.5h0v-7.6h1v9h-.1Z"/>
  <path class="st0" d="M307.3,201.6h-1.2l-4.7-7.6h0v7.6h-.9v-9h1.2l4.7,7.5h0v-7.6h1v9h-.1Z"/>
  <g class="st6">
    <text class="st5" transform="translate(254.2 201.9)"><tspan x="0" y="0">TEXT</tspan></text>
  </g>
  <rect class="st16" x="33.3" y="214.6" width="288" height="32"/>
  <g class="st6">
    <text class="st1" transform="translate(43.3 233.9)"><tspan x="0" y="0">type</tspan></text>
  </g>
  <path class="st17" d="M289.3,221.1h20s2,0,2,2v12s0,2-2,2h-20s-2,0-2-2v-12s0-2,2-2"/>
  <path class="st0" d="M298.1,233.6h-1.2l-4.7-7.6h0v7.6h-.9v-9h1.2l4.7,7.5h0v-7.6h1v9h-.1Z"/>
  <path class="st0" d="M307.3,233.6h-1.2l-4.7-7.6h0v7.6h-.9v-9h1.2l4.7,7.5h0v-7.6h1v9h-.1Z"/>
  <path class="st17" d="M272.3,221.1h9s2,0,2,2v12s0,2-2,2h-9s-2,0-2-2v-12s0-2,2-2"/>
  <path class="st0" d="M279.2,233.6h-5v-8.9h5v.9h-3.9v2.9h3.7v.9h-3.7v3.3h3.9v.9h0Z"/>
  <g class="st6">
    <text class="st5" transform="translate(118.5 233.9)"><tspan x="0" y="0">notifications_type_enum</tspan></text>
  </g>
  <rect class="st16" x="33.3" y="246.6" width="288" height="32"/>
  <g class="st6">
    <text class="st1" transform="translate(43.3 265.9)"><tspan x="0" y="0">isRead</tspan></text>
  </g>
  <g class="st6">
    <text class="st5" transform="translate(250.6 265.9)"><tspan x="0" y="0">BOOLEAN</tspan></text>
  </g>
  <rect class="st16" x="33.3" y="278.6" width="288" height="32"/>
  <g class="st6">
    <text class="st1" transform="translate(43.3 297.9)"><tspan x="0" y="0">createdAt</tspan></text>
  </g>
  <g class="st6">
    <text class="st5" transform="translate(239.6 297.9)"><tspan x="0" y="0">TIMESTAMP</tspan></text>
  </g>
  <rect class="st16" x="33.3" y="310.6" width="288" height="32"/>
  <g class="st6">
    <text class="st1" transform="translate(43.3 329.9)"><tspan x="0" y="0">readAt</tspan></text>
  </g>
  <g class="st6">
    <text class="st5" transform="translate(239.6 329.9)"><tspan x="0" y="0">TIMESTAMP</tspan></text>
  </g>
  <rect class="st13" x="33.3" y="1184.3" width="1166.7" height="15.7"/>
  <rect class="st9" y="1184.3" width="33.3" height="15.7"/>
  <g>
    <rect class="st11" x="892.8" y="1060.9" width="250.3" height="92.7"/>
    <g>
      <g>
        <path class="st14" d="M1085.5,1111.6c-4.4,0-8.2,2.1-9.6,4.9h-.1v-4.4h-8.2v30.2h8.2v-18.2c0-3.9,2.9-6.5,6.6-6.5s6.2,2.5,6.2,6.4v18.3h8.2v-19.7c0-6.4-4.5-11.1-11.2-11.1Z"/>
        <path class="st14" d="M1121.9,1122.3l12-10.2h-11.4l-11.3,9.9v-32.8l-29.1-18-12.7,7.7v-4.1h-8.4v9.2l-8.4,5.1v6.3c-3.2,1.6-5.4,4.9-5.4,8.7s2.3,7.3,5.6,8.8v29.3h8.1v-29.2c3.4-1.5,5.9-5,5.9-9s-2.4-7.4-5.7-8.9v-1.4l21.1-12.9,20.7,12.8v48.4h8.4v-10.5l4.8-4.1c1.8,7.4,7.9,15.3,17.6,15.3v-8.5c-5.5.5-10.1-5.6-11.7-12.1Z"/>
        <path class="st14" d="M919.2,1136.6c-5.2,0-8.7-4-8.7-9.7s3.1-9.5,8.2-9.5,6.6,2.2,6.8,4.7l7.1-.9c-.4-5.6-5.1-10.1-13.6-10.1s-16.9,6.6-16.9,16.1,6.6,16.2,17,16.2,12.2-3.5,13.6-8.6l-7.4-2c-.6,2.2-2.9,3.8-6.2,3.8Z"/>
        <path class="st14" d="M965.4,1121.9c0-6.2-6-10.6-14.8-10.6s-11.9,3.3-14,7.3l6,3.9c1.1-2.1,4.3-4.1,8.3-4.1s6.5,1.9,6.5,4.1v.9c-1.5,4.8-21.5-.7-21.5,11.3s3.8,8.4,10.1,8.4,10.1-2.5,11.3-5.2h.1c.1,1.3.3,3.1,1.3,4.4h7.9c-.7-1.4-1.2-3.2-1.2-5.4v-15.1ZM957.3,1130.3c0,3.6-4.3,7.2-8.6,7.2s-4.7-1.6-4.7-3.6c0-4.5,9.2-3.1,13.2-5.1v1.5Z"/>
        <path class="st14" d="M977.9,1121c0-2.2,2.8-3.6,5.7-3.6s6.5,2.1,6.8,4.8l7.1-.9c-.4-5.8-5.1-10.2-13.5-10.2s-14,4.2-14,10.7c0,12.3,20.4,6.3,20.4,11.7s-2.8,3.5-6.2,3.5-7.7-2.4-8.2-5.7l-6.9,1c.5,6.2,5.9,11.1,15.2,11.1s14-4.1,14-10.5c0-12.3-20.4-6.1-20.4-11.9Z"/>
        <path class="st14" d="M1030.1,1121.9c0-6.2-6-10.6-14.8-10.6s-11.9,3.3-14,7.3l6,3.9c1.1-2.1,4.3-4.1,8.3-4.1s6.5,1.9,6.5,4.1v.9c-1.5,4.8-21.5-.7-21.5,11.3s3.8,8.4,10.1,8.4,10.1-2.5,11.3-5.2h.1c.1,1.3.3,3.1,1.3,4.4h7.9c-.7-1.4-1.2-3.2-1.2-5.4v-15.1ZM1022,1130.3c0,3.6-4.3,7.2-8.6,7.2s-4.7-1.6-4.7-3.6c0-4.5,9.2-3.1,13.2-5.1v1.5Z"/>
        <path class="st14" d="M1081.8,1100.2c2.8,0,5.1-2.3,5.1-5.1s-2.3-5.1-5.1-5.1-5.1,2.3-5.1,5.1,2.3,5.1,5.1,5.1Z"/>
        <polygon class="st14" points="1044.6 1094 1036.2 1099.1 1036.2 1142.4 1044.6 1142.4 1044.6 1142.4 1044.6 1142.4 1044.6 1099.2 1044.6 1099.2 1044.6 1094"/>
      </g>
      <circle class="st15" cx="1056.8" cy="1104.2" r="4"/>
    </g>
  </g>
</svg>