<?xml version="1.0" encoding="UTF-8"?>
<svg id="Layer_1" xmlns="http://www.w3.org/2000/svg" version="1.1" xmlns:xlink="http://www.w3.org/1999/xlink" viewBox="0 0 1800 1200">
  <!-- Generator: Adobe Illustrator 29.3.1, SVG Export Plug-In . SVG Version: 2.1.0 Build 151)  -->
  <defs>
    <style>
      .st0, .st1, .st2, .st3, .st4 {
        fill: #6f6f6f;
      }

      .st5, .st6, .st7, .st8, .st9, .st2, .st10, .st4 {
        font-size: 12px;
      }

      .st5, .st6, .st11, .st1, .st12, .st9, .st13, .st14, .st2, .st3, .st4 {
        isolation: isolate;
      }

      .st5, .st15, .st8, .st13, .st14, .st2, .st3 {
        font-family: OpenSans-Bold, 'Open Sans';
        font-weight: 700;
      }

      .st5, .st14 {
        fill: #fff;
      }

      .st6, .st7, .st11, .st1, .st16, .st4, .st17 {
        font-family: OpenSans, 'Open Sans';
      }

      .st6, .st11, .st9, .st13 {
        fill: #999;
      }

      .st18 {
        fill: #6ff;
      }

      .st7, .st8, .st19, .st10 {
        fill: #003;
      }

      .st11, .st1, .st13, .st14, .st3 {
        font-size: 14.8px;
      }

      .st20, .st21 {
        fill: none;
      }

      .st22 {
        fill: #316896;
      }

      .st23 {
        fill: #f66;
      }

      .st24 {
        clip-path: url(#clippath-1);
      }

      .st25 {
        fill: #f2f2f2;
      }

      .st16 {
        font-size: 15.9px;
      }

      .st21 {
        stroke: #9b9ca4;
        stroke-width: 1.1px;
      }

      .st26 {
        fill: #dedede;
      }

      .st27 {
        clip-path: url(#clippath);
      }
    </style>
    <clipPath id="clippath">
      <rect class="st20" x="1495" y="1039.6" width="217" height="80.4"/>
    </clipPath>
    <clipPath id="clippath-1">
      <rect class="st20" x="1495" y="1039.6" width="217" height="80.4"/>
    </clipPath>
  </defs>
  <g>
    <rect class="st23" width="25" height="1050"/>
    <rect class="st18" y="1050" width="25" height="150"/>
  </g>
  <g id="logotipo_main">
    <g class="st27">
      <g class="st24">
        <g>
          <path class="st19" d="M1662.2,1083.5c-3.8,0-7.1,1.8-8.3,4.3h0v-3.8h-7.1v26.2h7.1v-15.8c0-3.4,2.5-5.6,5.7-5.6s5.3,2.2,5.3,5.6v15.9h7.1v-17.1c0-5.5-3.9-9.6-9.7-9.6"/>
          <path class="st19" d="M1693.6,1092.9l10.4-8.8h-9.9l-9.8,8.6v-28.4l-25.3-15.6-11,6.7v-3.5h-7.3v8l-7.3,4.4v5.4c-2.8,1.4-4.7,4.3-4.7,7.6s2,6.3,4.9,7.7v25.4h7v-25.3c3-1.3,5.1-4.3,5.1-7.8s-2-6.4-5-7.7v-1.2l18.3-11.1,18,11.1v42h7.3v-9.1l4.2-3.6c1.5,6.4,6.8,13.2,15.3,13.2v-7.4c-4.7.4-8.7-4.9-10.1-10.5"/>
          <path class="st19" d="M1517.9,1105.2c-4.5,0-7.6-3.5-7.6-8.4s2.7-8.2,7.1-8.2,5.7,1.9,5.9,4.1l6.2-.8c-.3-4.9-4.4-8.8-11.8-8.8s-14.6,5.7-14.6,13.9,5.7,14.1,14.8,14.1,10.6-3,11.8-7.5l-6.4-1.7c-.5,1.9-2.5,3.3-5.4,3.3"/>
          <path class="st19" d="M1558,1092.5c0-5.4-5.2-9.2-12.9-9.2s-10.3,2.9-12.2,6.3l5.2,3.3c.9-1.8,3.7-3.6,7.2-3.6s5.6,1.6,5.6,3.6v.8c-1.3,4.1-18.7-.6-18.7,9.8s3.3,7.3,8.7,7.3,8.8-2.2,9.8-4.5h0c0,1.1.3,2.6,1.1,3.8h6.9c-.6-1.2-1-2.7-1-4.6v-13.1h.3ZM1551,1099.8c0,3.1-3.7,6.2-7.4,6.2s-4-1.4-4-3.1c0-3.9,8-2.7,11.5-4.4v1.3h0Z"/>
          <path class="st19" d="M1568.8,1091.7c0-1.9,2.4-3.1,4.9-3.1s5.6,1.8,5.9,4.1l6.1-.8c-.3-5-4.4-8.8-11.7-8.8s-12.1,3.6-12.1,9.3c0,10.6,17.7,5.5,17.7,10.1s-2.4,3-5.4,3-6.6-2-7.1-4.9l-6,.8c.4,5.3,5.1,9.6,13.2,9.6s12.2-3.5,12.2-9.1c0-10.6-17.7-5.3-17.7-10.3"/>
          <path class="st19" d="M1614.1,1092.5c0-5.4-5.2-9.2-12.9-9.2s-10.3,2.9-12.2,6.3l5.2,3.3c.9-1.8,3.7-3.6,7.2-3.6s5.6,1.6,5.6,3.6v.8c-1.3,4.1-18.7-.6-18.7,9.8s3.3,7.3,8.7,7.3,8.8-2.2,9.8-4.5h0c0,1.1.3,2.6,1.1,3.8h6.9c-.6-1.2-1-2.7-1-4.6v-13.1h.3ZM1607.1,1099.8c0,3.1-3.7,6.2-7.4,6.2s-4-1.4-4-3.1c0-3.9,8-2.7,11.5-4.4v1.3h0Z"/>
          <path class="st19" d="M1658.9,1073.7c2.4,0,4.4-2,4.4-4.4s-2-4.4-4.4-4.4-4.4,2-4.4,4.4,2,4.4,4.4,4.4"/>
          <polygon class="st19" points="1626.7 1068.3 1619.4 1072.7 1619.4 1110.2 1626.7 1110.2 1626.7 1110.2 1626.7 1072.8 1626.7 1072.8 1626.7 1068.3"/>
          <path class="st18" d="M1633.8,1077.2c0-1.9,1.6-3.5,3.5-3.5s3.5,1.6,3.5,3.5-1.6,3.5-3.5,3.5-3.5-1.6-3.5-3.5"/>
        </g>
      </g>
    </g>
  </g>
  <g>
    <g>
      <rect class="st18" x="100" y="100" width="250" height="25"/>
      <text class="st8" transform="translate(111.4 117.3)"><tspan x="0" y="0">users</tspan></text>
      <rect class="st25" x="100" y="125" width="250" height="25"/>
      <text class="st8" transform="translate(111.4 142.3)"><tspan x="0" y="0">id</tspan></text>
      <path class="st0" d="M137.2,133.4c1.9,0,3.4,1.5,3.4,3.4s-1.5,3.4-3.4,3.4-.9,0-1.3-.2l-1,1h-.7v1.1h-1.1v1.1h-2.2v-2.2l3.1-3.1c0-.3-.1-.6-.1-1,0-1.9,1.5-3.4,3.4-3.4ZM137.2,132.2c-2.5,0-4.5,2-4.5,4.5s0,.4,0,.6l-2.9,2.9c-.1.1-.2.2-.2.4v3c0,.3.3.6.6.6h3.4c.3,0,.6-.3.6-.6v-.6h.6c.3,0,.6-.3.6-.6v-.5l.9-.9c.3,0,.6,0,.9,0,2.5,0,4.5-2,4.5-4.5s-2-4.5-4.5-4.5ZM137.2,135.6c0,.6.5,1.1,1.1,1.1s1.1-.5,1.1-1.1-.5-1.1-1.1-1.1-1.1.5-1.1,1.1Z"/>
      <text class="st10" transform="translate(295.5 142.3)"><tspan class="st15" x="0" y="0">INT</tspan><tspan class="st17" x="20.7" y="0"> </tspan><tspan class="st15" x="23.8" y="0">NN</tspan></text>
      <rect class="st25" x="100" y="150" width="250" height="25"/>
      <text class="st7" transform="translate(111.4 167.2)"><tspan x="0" y="0">name</tspan></text>
      <text class="st7" transform="translate(257.6 167.2)"><tspan x="0" y="0">VARCHAR(100)</tspan></text>
      <rect class="st25" x="100" y="175" width="250" height="25"/>
      <text class="st7" transform="translate(111.4 192.2)"><tspan x="0" y="0">lastName</tspan></text>
      <text class="st7" transform="translate(257.6 192.2)"><tspan x="0" y="0">VARCHAR(100)</tspan></text>
      <rect class="st25" x="100" y="200" width="250" height="25"/>
      <text class="st7" transform="translate(111.4 217.2)"><tspan x="0" y="0">legalId</tspan></text>
      <text class="st7" transform="translate(264.4 217.2)"><tspan x="0" y="0">VARCHAR(20)</tspan></text>
      <rect class="st25" x="100" y="225" width="250" height="25"/>
      <text class="st7" transform="translate(111.4 242.2)"><tspan x="0" y="0">email</tspan></text>
      <text class="st10" transform="translate(234.9 242.2)"><tspan class="st17" x="0" y="0">VARCHAR(100) </tspan><tspan class="st15" x="84.4" y="0">NN</tspan></text>
      <rect class="st25" x="100" y="250" width="250" height="25"/>
      <text class="st7" transform="translate(111.4 267.2)"><tspan x="0" y="0">password</tspan></text>
      <text class="st7" transform="translate(257.6 267.2)"><tspan x="0" y="0">VARCHAR(255)</tspan></text>
      <rect class="st25" x="100" y="275" width="250" height="25"/>
      <text class="st7" transform="translate(111.4 292.2)"><tspan x="0" y="0">phone</tspan></text>
      <text class="st7" transform="translate(257.6 292.2)"><tspan x="0" y="0">VARCHAR(255)</tspan></text>
      <rect class="st25" x="100" y="300" width="250" height="25"/>
      <text class="st7" transform="translate(111.4 317.2)"><tspan x="0" y="0">avatarUrl</tspan></text>
      <text class="st7" transform="translate(257.6 317.2)"><tspan x="0" y="0">VARCHAR(255)</tspan></text>
      <rect class="st25" x="100" y="325" width="250" height="25"/>
      <text class="st7" transform="translate(111.4 342.2)"><tspan x="0" y="0">bio</tspan></text>
      <text class="st7" transform="translate(312 342.2)"><tspan x="0" y="0">TEXT</tspan></text>
      <rect class="st25" x="100" y="350" width="250" height="25"/>
      <text class="st7" transform="translate(111.4 367.2)"><tspan x="0" y="0">role</tspan></text>
      <rect class="st25" x="100" y="375" width="250" height="25"/>
      <text class="st7" transform="translate(111.4 392.2)"><tspan x="0" y="0">recoveryCode</tspan></text>
      <text class="st7" transform="translate(257.6 392.2)"><tspan x="0" y="0">VARCHAR(100)</tspan></text>
      <rect class="st25" x="100" y="400" width="250" height="25"/>
      <text class="st7" transform="translate(111.4 417.2)"><tspan x="0" y="0">isEmailVerified</tspan></text>
      <text class="st7" transform="translate(282.8 417.2)"><tspan x="0" y="0">BOOLEAN</tspan></text>
      <rect class="st25" x="100" y="425" width="250" height="25"/>
      <text class="st7" transform="translate(111.4 442.2)"><tspan x="0" y="0">isDocsVerified</tspan></text>
      <text class="st7" transform="translate(282.8 442.2)"><tspan x="0" y="0">BOOLEAN</tspan></text>
      <rect class="st25" x="100" y="450" width="250" height="25"/>
      <text class="st7" transform="translate(111.4 467.2)"><tspan x="0" y="0">isOwner</tspan></text>
      <text class="st7" transform="translate(282.8 467.2)"><tspan x="0" y="0">BOOLEAN</tspan></text>
      <rect class="st25" x="100" y="475" width="250" height="25"/>
      <text class="st7" transform="translate(111.4 492.2)"><tspan x="0" y="0">createdAt</tspan></text>
      <text class="st7" transform="translate(272.5 492.2)"><tspan x="0" y="0">TIMESTAMP</tspan></text>
      <rect class="st25" x="100" y="500" width="250" height="25"/>
      <text class="st7" transform="translate(111.4 517.2)"><tspan x="0" y="0">updatedAt</tspan></text>
      <text class="st7" transform="translate(272.5 517.2)"><tspan x="0" y="0">TIMESTAMP</tspan></text>
      <rect class="st25" x="100" y="525" width="250" height="25"/>
      <text class="st7" transform="translate(111.4 542.2)"><tspan x="0" y="0">averageRating</tspan></text>
      <text class="st7" transform="translate(264.1 542.2)"><tspan x="0" y="0">DECIMAL(2,1)</tspan></text>
      <rect class="st25" x="100" y="550" width="250" height="25"/>
      <text class="st7" transform="translate(111.4 567.2)"><tspan x="0" y="0">totalReviews</tspan></text>
      <text class="st7" transform="translate(319.8 567.2)"><tspan x="0" y="0">INT</tspan></text>
      <text class="st7" transform="translate(303.5 367.2)"><tspan x="0" y="0">ENUM</tspan></text>
    </g>
    <g>
      <rect class="st23" x="500" y="100" width="250" height="25"/>
      <text class="st5" transform="translate(511.4 117.3)"><tspan x="0" y="0">properties</tspan></text>
      <rect class="st25" x="500" y="125" width="250" height="25"/>
      <text class="st2" transform="translate(511.4 142.3)"><tspan x="0" y="0">id</tspan></text>
      <path class="st0" d="M537.3,133.4c1.9,0,3.4,1.5,3.4,3.4s-1.5,3.4-3.4,3.4-.9,0-1.3-.2l-1,1h-.7v1.1h-1.1v1.1h-2.2v-2.2l3.1-3.1c0-.3-.1-.6-.1-1,0-1.9,1.5-3.4,3.4-3.4ZM537.3,132.2c-2.5,0-4.5,2-4.5,4.5s0,.4,0,.6l-2.9,2.9c-.1.1-.2.2-.2.4v3c0,.3.3.6.6.6h3.4c.3,0,.6-.3.6-.6v-.6h.6c.3,0,.6-.3.6-.6v-.5l.9-.9c.3,0,.6,0,.9,0,2.5,0,4.5-2,4.5-4.5s-2-4.5-4.5-4.5ZM537.3,135.6c0,.6.5,1.1,1.1,1.1s1.1-.5,1.1-1.1-.5-1.1-1.1-1.1-1.1.5-1.1,1.1Z"/>
      <text class="st9" transform="translate(695.5 142.3)"><tspan class="st15" x="0" y="0">INT</tspan><tspan class="st17" x="20.7" y="0"> </tspan><tspan class="st15" x="23.8" y="0">NN</tspan></text>
      <rect class="st25" x="500" y="150" width="250" height="25"/>
      <text class="st4" transform="translate(511.4 167.2)"><tspan x="0" y="0">ownerId</tspan></text>
      <text class="st9" transform="translate(697.2 167.2)"><tspan class="st17" x="0" y="0">INT </tspan><tspan class="st15" x="22.1" y="0">NN</tspan></text>
      <rect class="st25" x="500" y="175" width="250" height="25"/>
      <text class="st4" transform="translate(511.4 192.2)"><tspan x="0" y="0">propertyTitle</tspan></text>
      <text class="st9" transform="translate(634.9 192.2)"><tspan class="st17" x="0" y="0">VARCHAR(255) </tspan><tspan class="st15" x="84.4" y="0">NN</tspan></text>
      <rect class="st25" x="500" y="200" width="250" height="25"/>
      <text class="st4" transform="translate(511.4 217.2)"><tspan x="0" y="0">propertyType</tspan></text>
      <rect class="st25" x="500" y="225" width="250" height="25"/>
      <text class="st4" transform="translate(511.4 242.2)"><tspan x="0" y="0">description</tspan></text>
      <text class="st9" transform="translate(689.3 242.2)"><tspan class="st17" x="0" y="0">TEXT </tspan><tspan class="st15" x="30" y="0">NN</tspan></text>
      <text class="st9" transform="translate(680.9 217.2)"><tspan class="st17" x="0" y="0">ENUM </tspan><tspan class="st15" x="38.4" y="0">NN</tspan></text>
      <rect class="st25" x="500" y="250" width="250" height="25"/>
      <text class="st4" transform="translate(511.4 267.2)"><tspan x="0" y="0">addressLocality</tspan></text>
      <text class="st6" transform="translate(657.5 267.2)"><tspan x="0" y="0">VARCHAR(255)</tspan></text>
      <rect class="st25" x="500" y="275" width="250" height="25"/>
      <text class="st4" transform="translate(511.4 292.2)"><tspan x="0" y="0">addressStreet</tspan></text>
      <text class="st6" transform="translate(657.5 292.2)"><tspan x="0" y="0">VARCHAR(255)</tspan></text>
      <rect class="st25" x="500" y="300" width="250" height="25"/>
      <text class="st4" transform="translate(511.4 317.2)"><tspan x="0" y="0">addressNumber</tspan></text>
      <text class="st6" transform="translate(664.4 317.2)"><tspan x="0" y="0">VARCHAR(10)</tspan></text>
      <rect class="st25" x="500" y="325" width="250" height="25"/>
      <text class="st4" transform="translate(511.4 342.2)"><tspan x="0" y="0">addressFloor</tspan></text>
      <text class="st6" transform="translate(664.4 342.2)"><tspan x="0" y="0">VARCHAR(10)</tspan></text>
      <rect class="st25" x="500" y="350" width="250" height="25"/>
      <text class="st4" transform="translate(511.4 367.2)"><tspan x="0" y="0">hasEnergyCert</tspan></text>
      <text class="st6" transform="translate(682.8 367.2)"><tspan x="0" y="0">BOOLEAN</tspan></text>
      <rect class="st25" x="500" y="375" width="250" height="25"/>
      <text class="st4" transform="translate(511.4 392.2)"><tspan x="0" y="0">zipCode</tspan></text>
      <text class="st9" transform="translate(648.6 392.2)"><tspan class="st17" x="0" y="0">VARCHAR(5) </tspan><tspan class="st15" x="70.7" y="0">NN</tspan></text>
      <rect class="st25" x="500" y="400" width="250" height="25"/>
      <text class="st4" transform="translate(511.4 417.2)"><tspan x="0" y="0">location</tspan></text>
      <text class="st6" transform="translate(703.2 417.2)"><tspan x="0" y="0">POINT</tspan></text>
      <rect class="st25" x="500" y="425" width="250" height="25"/>
      <text class="st4" transform="translate(511.4 442.2)"><tspan x="0" y="0">squareMeters</tspan></text>
      <text class="st6" transform="translate(682.3 442.2)"><tspan x="0" y="0">SMALLINT</tspan></text>
      <rect class="st25" x="500" y="450" width="250" height="25"/>
      <text class="st4" transform="translate(511.4 467.2)"><tspan x="0" y="0">bedrooms</tspan></text>
      <text class="st9" transform="translate(671.4 467.2)"><tspan class="st17" x="0" y="0">TINYINT </tspan><tspan class="st15" x="47.9" y="0">NN</tspan></text>
      <rect class="st25" x="500" y="475" width="250" height="25"/>
      <text class="st4" transform="translate(511.4 492.2)"><tspan x="0" y="0">bathrooms</tspan></text>
      <text class="st9" transform="translate(671.4 492.2)"><tspan class="st17" x="0" y="0">TINYINT </tspan><tspan class="st15" x="47.9" y="0">NN</tspan></text>
      <rect class="st25" x="500" y="500" width="250" height="25"/>
      <text class="st4" transform="translate(511.4 517.2)"><tspan x="0" y="0">price</tspan></text>
      <text class="st9" transform="translate(634.6 517.2)"><tspan class="st17" x="0" y="0">DECIMAL(10,2) </tspan><tspan class="st15" x="84.7" y="0">NN</tspan></text>
      <rect class="st25" x="500" y="525" width="250" height="25"/>
      <text class="st4" transform="translate(511.4 542.2)"><tspan x="0" y="0">status</tspan></text>
      <rect class="st25" x="500" y="550" width="250" height="25"/>
      <text class="st4" transform="translate(511.4 567.2)"><tspan x="0" y="0">createdAt</tspan></text>
      <text class="st6" transform="translate(672.4 567.2)"><tspan x="0" y="0">TIMESTAMP</tspan></text>
      <rect class="st25" x="500" y="575" width="250" height="25"/>
      <text class="st4" transform="translate(511.4 592.2)"><tspan x="0" y="0">updatedAt</tspan></text>
      <text class="st6" transform="translate(672.4 592.2)"><tspan x="0" y="0">TIMESTAMP</tspan></text>
      <text class="st6" transform="translate(703.5 542.7)"><tspan x="0" y="0">ENUM</tspan></text>
    </g>
    <g>
      <rect class="st19" x="900" y="100" width="250" height="25"/>
      <text class="st5" transform="translate(911.4 117.3)"><tspan x="0" y="0">contracts</tspan></text>
      <rect class="st25" x="900" y="125" width="250" height="25"/>
      <text class="st2" transform="translate(911.4 142.3)"><tspan x="0" y="0">id</tspan></text>
      <path class="st0" d="M937.3,133.4c1.9,0,3.4,1.5,3.4,3.4s-1.5,3.4-3.4,3.4-.9,0-1.3-.2l-1,1h-.7v1.1h-1.1v1.1h-2.2v-2.2l3.1-3.1c0-.3-.1-.6-.1-1,0-1.9,1.5-3.4,3.4-3.4ZM937.3,132.2c-2.5,0-4.5,2-4.5,4.5s0,.4,0,.6l-2.9,2.9c-.1.1-.2.2-.2.4v3c0,.3.3.6.6.6h3.4c.3,0,.6-.3.6-.6v-.6h.6c.3,0,.6-.3.6-.6v-.5l.9-.9c.3,0,.6,0,.9,0,2.5,0,4.5-2,4.5-4.5s-2-4.5-4.5-4.5ZM937.3,135.6c0,.6.5,1.1,1.1,1.1s1.1-.5,1.1-1.1-.5-1.1-1.1-1.1-1.1.5-1.1,1.1Z"/>
      <text class="st9" transform="translate(1095.5 142.3)"><tspan class="st15" x="0" y="0">INT</tspan><tspan class="st17" x="20.7" y="0"> </tspan><tspan class="st15" x="23.8" y="0">NN</tspan></text>
      <rect class="st25" x="900" y="150" width="250" height="25"/>
      <text class="st4" transform="translate(911.4 167.2)"><tspan x="0" y="0">tenantId</tspan></text>
      <text class="st6" transform="translate(1119.8 167.2)"><tspan x="0" y="0">INT</tspan></text>
      <rect class="st25" x="900" y="175" width="250" height="25"/>
      <text class="st4" transform="translate(911.4 192.2)"><tspan x="0" y="0">propertyId</tspan></text>
      <text class="st6" transform="translate(1119.8 192.2)"><tspan x="0" y="0">INT</tspan></text>
      <rect class="st25" x="900" y="200" width="250" height="25"/>
      <text class="st4" transform="translate(911.4 217.2)"><tspan x="0" y="0">startDate</tspan></text>
      <text class="st9" transform="translate(1049.8 217.2)"><tspan class="st17" x="0" y="0">TIMESTAMP </tspan><tspan class="st15" x="69.5" y="0">NN</tspan></text>
      <rect class="st25" x="900" y="225" width="250" height="25"/>
      <text class="st4" transform="translate(911.4 242.2)"><tspan x="0" y="0">endDate</tspan></text>
      <text class="st6" transform="translate(1072.4 242.2)"><tspan x="0" y="0">TIMESTAMP</tspan></text>
      <rect class="st25" x="900" y="250" width="250" height="25"/>
      <text class="st4" transform="translate(911.4 267.2)"><tspan x="0" y="0">pdfUrl</tspan></text>
      <text class="st6" transform="translate(1057.5 267.2)"><tspan x="0" y="0">VARCHAR(255)</tspan></text>
      <rect class="st25" x="900" y="275" width="250" height="25"/>
      <text class="st4" transform="translate(911.4 292.2)"><tspan x="0" y="0">status</tspan></text>
      <rect class="st25" x="900" y="300" width="250" height="25"/>
      <text class="st4" transform="translate(911.4 317.2)"><tspan x="0" y="0">createdAt</tspan></text>
      <text class="st6" transform="translate(1072.4 317.2)"><tspan x="0" y="0">TIMESTAMP</tspan></text>
      <rect class="st25" x="900" y="325" width="250" height="25"/>
      <text class="st4" transform="translate(911.4 342.2)"><tspan x="0" y="0">updatedAt</tspan></text>
      <text class="st6" transform="translate(1072.4 342.2)"><tspan x="0" y="0">TIMESTAMP</tspan></text>
      <text class="st9" transform="translate(1080.9 292.9)"><tspan class="st17" x="0" y="0">ENUM </tspan><tspan class="st15" x="38.4" y="0">NN</tspan></text>
    </g>
    <g>
      <rect class="st19" x="1300" y="97.8" width="250" height="25"/>
      <text class="st5" transform="translate(1311.4 115.1)"><tspan x="0" y="0">reviews</tspan></text>
      <rect class="st25" x="1300" y="122.8" width="250" height="25"/>
      <text class="st2" transform="translate(1311.4 140.1)"><tspan x="0" y="0">id</tspan></text>
      <path class="st0" d="M1337.2,131.1c1.9,0,3.4,1.5,3.4,3.4s-1.5,3.4-3.4,3.4-.9,0-1.3-.2l-1,1h-.7v1.1h-1.1v1.1h-2.2v-2.2l3.1-3.1c0-.3-.1-.6-.1-1,0-1.9,1.5-3.4,3.4-3.4ZM1337.2,130c-2.5,0-4.5,2-4.5,4.5s0,.4,0,.6l-2.9,2.9c-.1.1-.2.2-.2.4v3c0,.3.3.6.6.6h3.4c.3,0,.6-.3.6-.6v-.6h.6c.3,0,.6-.3.6-.6v-.5l.9-.9c.3,0,.6,0,.9,0,2.5,0,4.5-2,4.5-4.5s-2-4.5-4.5-4.5ZM1337.2,133.4c0,.6.5,1.1,1.1,1.1s1.1-.5,1.1-1.1-.5-1.1-1.1-1.1-1.1.5-1.1,1.1Z"/>
      <text class="st9" transform="translate(1495.5 140.1)"><tspan class="st15" x="0" y="0">INT</tspan><tspan class="st17" x="20.7" y="0"> </tspan><tspan class="st15" x="23.8" y="0">NN</tspan></text>
      <rect class="st25" x="1300" y="147.8" width="250" height="25"/>
      <text class="st4" transform="translate(1311.4 165)"><tspan x="0" y="0">reviewerId</tspan></text>
      <text class="st6" transform="translate(1519.8 165)"><tspan x="0" y="0">INT</tspan></text>
      <rect class="st25" x="1300" y="172.8" width="250" height="25"/>
      <text class="st4" transform="translate(1311.4 190)"><tspan x="0" y="0">reviewedId</tspan></text>
      <text class="st6" transform="translate(1519.8 190)"><tspan x="0" y="0">INT</tspan></text>
      <rect class="st25" x="1300" y="197.8" width="250" height="25"/>
      <text class="st4" transform="translate(1311.4 215)"><tspan x="0" y="0">contracId</tspan></text>
      <text class="st6" transform="translate(1519.8 215)"><tspan x="0" y="0">INT</tspan></text>
      <rect class="st25" x="1300" y="222.8" width="250" height="25"/>
      <text class="st4" transform="translate(1311.4 240)"><tspan x="0" y="0">rating</tspan></text>
      <text class="st9" transform="translate(1471.4 240)"><tspan class="st17" x="0" y="0">TINYINT </tspan><tspan class="st15" x="47.9" y="0">NN</tspan></text>
      <rect class="st25" x="1300" y="247.8" width="250" height="25"/>
      <text class="st4" transform="translate(1311.4 265)"><tspan x="0" y="0">comment</tspan></text>
      <text class="st6" transform="translate(1512 265)"><tspan x="0" y="0">TEXT</tspan></text>
      <rect class="st25" x="1300" y="272.8" width="250" height="25"/>
      <text class="st4" transform="translate(1311.4 290)"><tspan x="0" y="0">createdAt</tspan></text>
      <text class="st6" transform="translate(1472.5 290)"><tspan x="0" y="0">TIMESTAMP</tspan></text>
      <rect class="st25" x="1300" y="297.8" width="250" height="25"/>
      <text class="st4" transform="translate(1311.4 315)"><tspan x="0" y="0">removedAt</tspan></text>
      <text class="st6" transform="translate(1472.5 315)"><tspan x="0" y="0">TIMESTAMP</tspan></text>
    </g>
    <g>
      <rect class="st19" x="100" y="700" width="250" height="25"/>
      <text class="st5" transform="translate(111.4 717.3)"><tspan x="0" y="0">images</tspan></text>
      <rect class="st25" x="100" y="725" width="250" height="25"/>
      <text class="st2" transform="translate(111.4 742.3)"><tspan x="0" y="0">id</tspan></text>
      <path class="st0" d="M137.2,733.4c1.9,0,3.4,1.5,3.4,3.4s-1.5,3.4-3.4,3.4-.9,0-1.3-.2l-1,1h-.7v1.1h-1.1v1.1h-2.2v-2.2l3.1-3.1c0-.3-.1-.6-.1-1,0-1.9,1.5-3.4,3.4-3.4ZM137.2,732.2c-2.5,0-4.5,2-4.5,4.5s0,.4,0,.6l-2.9,2.9c-.1.1-.2.2-.2.4v3c0,.3.3.6.6.6h3.4c.3,0,.6-.3.6-.6v-.6h.6c.3,0,.6-.3.6-.6v-.5l.9-.9c.3,0,.6,0,.9,0,2.5,0,4.5-2,4.5-4.5s-2-4.5-4.5-4.5ZM137.2,735.6c0,.6.5,1.1,1.1,1.1s1.1-.5,1.1-1.1-.5-1.1-1.1-1.1-1.1.5-1.1,1.1Z"/>
      <text class="st9" transform="translate(295.5 742.3)"><tspan class="st15" x="0" y="0">INT</tspan><tspan class="st17" x="20.7" y="0"> </tspan><tspan class="st15" x="23.8" y="0">NN</tspan></text>
      <rect class="st25" x="100" y="750" width="250" height="25"/>
      <text class="st4" transform="translate(111.4 767.2)"><tspan x="0" y="0">propertyId</tspan></text>
      <text class="st6" transform="translate(319.8 767.2)"><tspan x="0" y="0">INT</tspan></text>
      <rect class="st25" x="100" y="775" width="250" height="25"/>
      <text class="st4" transform="translate(111.4 792.2)"><tspan x="0" y="0">imageUrl</tspan></text>
      <text class="st9" transform="translate(234.9 792.2)"><tspan class="st17" x="0" y="0">VARCHAR(255) </tspan><tspan class="st15" x="84.4" y="0">NN</tspan></text>
      <rect class="st25" x="100" y="800" width="250" height="25"/>
      <text class="st4" transform="translate(111.4 817.2)"><tspan x="0" y="0">sortIndex</tspan></text>
      <text class="st6" transform="translate(294 817.2)"><tspan x="0" y="0">TINYINT</tspan></text>
      <rect class="st25" x="100" y="825" width="250" height="25"/>
      <text class="st4" transform="translate(111.4 842.2)"><tspan x="0" y="0">createdAt</tspan></text>
      <text class="st6" transform="translate(272.5 842.2)"><tspan x="0" y="0">TIMESTAMP</tspan></text>
      <rect class="st25" x="100" y="850" width="250" height="25"/>
      <text class="st4" transform="translate(111.4 867.2)"><tspan x="0" y="0">updatedAt</tspan></text>
      <text class="st6" transform="translate(272.5 867.2)"><tspan x="0" y="0">TIMESTAMP</tspan></text>
      <rect class="st25" x="100" y="875" width="250" height="25"/>
      <text class="st4" transform="translate(111.4 892.2)"><tspan x="0" y="0">removedAt</tspan></text>
      <text class="st6" transform="translate(272.5 892.2)"><tspan x="0" y="0">TIMESTAMP</tspan></text>
    </g>
    <g>
      <rect class="st19" x="500" y="750" width="250" height="25"/>
      <text class="st5" transform="translate(511.4 767.3)"><tspan x="0" y="0">favs</tspan></text>
      <rect class="st25" x="500" y="775" width="250" height="25"/>
      <text class="st2" transform="translate(511.4 792.3)"><tspan x="0" y="0">id</tspan></text>
      <path class="st0" d="M537.2,783.4c1.9,0,3.4,1.5,3.4,3.4s-1.5,3.4-3.4,3.4-.9,0-1.3-.2l-1,1h-.7v1.1h-1.1v1.1h-2.2v-2.2l3.1-3.1c0-.3-.1-.6-.1-1,0-1.9,1.5-3.4,3.4-3.4ZM537.2,782.2c-2.5,0-4.5,2-4.5,4.5s0,.4,0,.6l-2.9,2.9c-.1.1-.2.2-.2.4v3c0,.3.3.6.6.6h3.4c.3,0,.6-.3.6-.6v-.6h.6c.3,0,.6-.3.6-.6v-.5l.9-.9c.3,0,.6,0,.9,0,2.5,0,4.5-2,4.5-4.5s-2-4.5-4.5-4.5ZM537.2,785.6c0,.6.5,1.1,1.1,1.1s1.1-.5,1.1-1.1-.5-1.1-1.1-1.1-1.1.5-1.1,1.1Z"/>
      <text class="st9" transform="translate(695.5 792.3)"><tspan class="st15" x="0" y="0">INT</tspan><tspan class="st17" x="20.7" y="0"> </tspan><tspan class="st15" x="23.8" y="0">NN </tspan></text>
      <rect class="st25" x="500" y="800" width="250" height="25"/>
      <text class="st4" transform="translate(511.4 817.2)"><tspan x="0" y="0">userId</tspan></text>
      <text class="st6" transform="translate(719.8 817.2)"><tspan x="0" y="0">INT</tspan></text>
      <rect class="st25" x="500" y="825" width="250" height="25"/>
      <text class="st4" transform="translate(511.4 842.2)"><tspan x="0" y="0">propertyId</tspan></text>
      <text class="st6" transform="translate(719.8 842.2)"><tspan x="0" y="0">INT</tspan></text>
      <rect class="st25" x="500" y="850" width="250" height="25"/>
      <text class="st4" transform="translate(511.4 867.2)"><tspan x="0" y="0">createdAt</tspan></text>
      <text class="st6" transform="translate(672.5 867.2)"><tspan x="0" y="0">TIMESTAMP</tspan></text>
      <rect class="st25" x="500" y="875" width="250" height="25"/>
      <text class="st4" transform="translate(511.4 892.2)"><tspan x="0" y="0">removedAt</tspan></text>
      <text class="st6" transform="translate(672.5 892.2)"><tspan x="0" y="0">TIMESTAMP</tspan></text>
    </g>
    <g>
      <rect class="st19" x="900" y="650" width="250" height="25"/>
      <text class="st5" transform="translate(911.4 667.3)"><tspan x="0" y="0">notifications</tspan></text>
      <rect class="st25" x="900" y="675" width="250" height="25"/>
      <text class="st2" transform="translate(911.4 692.3)"><tspan x="0" y="0">id</tspan></text>
      <path class="st0" d="M937.3,683.4c1.9,0,3.4,1.5,3.4,3.4s-1.5,3.4-3.4,3.4-.9,0-1.3-.2l-1,1h-.7v1.1h-1.1v1.1h-2.2v-2.2l3.1-3.1c0-.3-.1-.6-.1-1,0-1.9,1.5-3.4,3.4-3.4ZM937.3,682.2c-2.5,0-4.5,2-4.5,4.5s0,.4,0,.6l-2.9,2.9c-.1.1-.2.2-.2.4v3c0,.3.3.6.6.6h3.4c.3,0,.6-.3.6-.6v-.6h.6c.3,0,.6-.3.6-.6v-.5l.9-.9c.3,0,.6,0,.9,0,2.5,0,4.5-2,4.5-4.5s-2-4.5-4.5-4.5ZM937.3,685.6c0,.6.5,1.1,1.1,1.1s1.1-.5,1.1-1.1-.5-1.1-1.1-1.1-1.1.5-1.1,1.1Z"/>
      <text class="st9" transform="translate(1095.5 692.3)"><tspan class="st15" x="0" y="0">INT</tspan><tspan class="st17" x="20.7" y="0"> </tspan><tspan class="st15" x="23.8" y="0">NN</tspan></text>
      <rect class="st25" x="900" y="700" width="250" height="25"/>
      <text class="st4" transform="translate(911.4 717.2)"><tspan x="0" y="0">userId</tspan></text>
      <text class="st6" transform="translate(1119.8 717.2)"><tspan x="0" y="0">INT</tspan></text>
      <rect class="st25" x="900" y="725" width="250" height="25"/>
      <text class="st4" transform="translate(911.4 742.2)"><tspan x="0" y="0">propertyId</tspan></text>
      <text class="st6" transform="translate(1119.8 742.2)"><tspan x="0" y="0">INT</tspan></text>
      <rect class="st25" x="900" y="750" width="250" height="25"/>
      <text class="st4" transform="translate(911.4 767.2)"><tspan x="0" y="0">message</tspan></text>
      <text class="st6" transform="translate(1111.9 767.2)"><tspan x="0" y="0">TEXT</tspan></text>
      <rect class="st25" x="900" y="775" width="250" height="25"/>
      <text class="st4" transform="translate(911.4 792.2)"><tspan x="0" y="0">type</tspan></text>
      <rect class="st25" x="900" y="800" width="250" height="25"/>
      <text class="st4" transform="translate(911.4 817.2)"><tspan x="0" y="0">status</tspan></text>
      <rect class="st25" x="900" y="825" width="250" height="25"/>
      <text class="st4" transform="translate(911.4 842.2)"><tspan x="0" y="0">isRead</tspan></text>
      <text class="st6" transform="translate(1082.8 842.2)"><tspan x="0" y="0">BOOLEAN</tspan></text>
      <rect class="st25" x="900" y="850" width="250" height="25"/>
      <text class="st4" transform="translate(911.4 867.2)"><tspan x="0" y="0">createdAt</tspan></text>
      <text class="st6" transform="translate(1072.4 867.2)"><tspan x="0" y="0">TIMESTAMP</tspan></text>
      <rect class="st25" x="900" y="875" width="250" height="25"/>
      <text class="st4" transform="translate(911.4 892.2)"><tspan x="0" y="0">readAt</tspan></text>
      <text class="st6" transform="translate(1072.4 892.2)"><tspan x="0" y="0">TIMESTAMP</tspan></text>
      <text class="st9" transform="translate(1080.9 792.2)"><tspan class="st17" x="0" y="0">ENUM </tspan><tspan class="st15" x="38.4" y="0">NN</tspan></text>
      <text class="st9" transform="translate(1080.9 817.2)"><tspan class="st17" x="0" y="0">ENUM </tspan><tspan class="st15" x="38.4" y="0">NN</tspan></text>
    </g>
    <g>
      <rect class="st19" x="1300" y="750" width="250" height="25"/>
      <text class="st5" transform="translate(1311.4 767.3)"><tspan x="0" y="0">blocks</tspan></text>
      <rect class="st25" x="1300" y="775" width="250" height="25"/>
      <text class="st2" transform="translate(1311.4 792.3)"><tspan x="0" y="0">id</tspan></text>
      <path class="st0" d="M1337.2,783.4c1.9,0,3.4,1.5,3.4,3.4s-1.5,3.4-3.4,3.4-.9,0-1.3-.2l-1,1h-.7v1.1h-1.1v1.1h-2.2v-2.2l3.1-3.1c0-.3-.1-.6-.1-1,0-1.9,1.5-3.4,3.4-3.4ZM1337.2,782.2c-2.5,0-4.5,2-4.5,4.5s0,.4,0,.6l-2.9,2.9c-.1.1-.2.2-.2.4v3c0,.3.3.6.6.6h3.4c.3,0,.6-.3.6-.6v-.6h.6c.3,0,.6-.3.6-.6v-.5l.9-.9c.3,0,.6,0,.9,0,2.5,0,4.5-2,4.5-4.5s-2-4.5-4.5-4.5ZM1337.2,785.6c0,.6.5,1.1,1.1,1.1s1.1-.5,1.1-1.1-.5-1.1-1.1-1.1-1.1.5-1.1,1.1Z"/>
      <text class="st9" transform="translate(1495.5 792.3)"><tspan class="st15" x="0" y="0">INT</tspan><tspan class="st17" x="20.7" y="0"> </tspan><tspan class="st15" x="23.8" y="0">NN</tspan></text>
      <rect class="st25" x="1300" y="800" width="250" height="25"/>
      <text class="st4" transform="translate(1311.4 817.2)"><tspan x="0" y="0">userId</tspan></text>
      <text class="st6" transform="translate(1519.8 817.2)"><tspan x="0" y="0">INT</tspan></text>
      <rect class="st25" x="1300" y="825" width="250" height="25"/>
      <text class="st4" transform="translate(1311.4 842.2)"><tspan x="0" y="0">propertyId</tspan></text>
      <text class="st6" transform="translate(1519.8 842.2)"><tspan x="0" y="0">INT</tspan></text>
      <rect class="st25" x="1300" y="850" width="250" height="25"/>
      <text class="st4" transform="translate(1311.4 867.2)"><tspan x="0" y="0">createdAt</tspan></text>
      <text class="st6" transform="translate(1472.5 867.2)"><tspan x="0" y="0">TIMESTAMP</tspan></text>
      <rect class="st25" x="1300" y="875" width="250" height="25"/>
      <text class="st4" transform="translate(1311.4 892.2)"><tspan x="0" y="0">removedAt</tspan></text>
      <text class="st6" transform="translate(1472.5 892.2)"><tspan x="0" y="0">TIMESTAMP</tspan></text>
    </g>
  </g>
  <g>
    <path class="st21" d="M2191.4,25.1h36.8c1.9,0,2.8.9,2.8,2.8v21.6c0,1.9.9,2.8,2.8,2.8h14.2-14.2c-1.9,0-2.8-.9-2.8-2.8v-21.6c0-1.9-.9-2.8-2.8-2.8h-36.8ZM2191.4,25.1h-11.4M2248,52.4h11.4M2191.4,20.6v9.1M2259.4,47.8l-10.2,4.5,10.2,4.5"/>
    <g class="st12">
      <text class="st16" transform="translate(2183.4 19.4)"><tspan x="0" y="0">1</tspan></text>
    </g>
    <g class="st12">
      <text class="st16" transform="translate(2247.2 46.7)"><tspan x="0" y="0">*</tspan></text>
    </g>
    <path class="st21" d="M2198.2,6.9h289.1c7.6,0,11.4,3.8,11.4,11.4v22.7c0,7.6,3.8,11.4,11.4,11.4h273.4-273.4c-7.6,0-11.4-3.8-11.4-11.4v-22.7c0-7.6-3.8-11.4-11.4-11.4h-289.1ZM2191.4,6.9h-11.4M2783.4,52.4h11.4M2198.2,6.9v.7c0,0-.3.6-.3.6l-.3.6-.4.5-.5.4-.6.3-.6.2h-.7c0,0-.7,0-.7,0l-.6-.2-.6-.3-.5-.4-.4-.5-.3-.6-.2-.6v-.7c0,0,0-.7,0-.7l.2-.6.3-.6.4-.5.5-.4.6-.3.6-.2h.7c0,0,.7,0,.7,0l.6.2.6.3.5.4.4.5.3.6.2.6v.7M2794.8,47.8l-10.2,4.5,10.2,4.5"/>
    <g class="st12">
      <text class="st16" transform="translate(2183.4 1.3)"><tspan x="0" y="0">0..1</tspan></text>
    </g>
    <g class="st12">
      <text class="st16" transform="translate(2782.6 46.7)"><tspan x="0" y="0">*</tspan></text>
    </g>
    <path class="st21" d="M2756.1,16h7.4c1.9,0,2.8.9,2.8,2.8v67c0,1.9.9,2.8,2.8,2.8h14.2-14.2c-1.9,0-2.8-.9-2.8-2.8V18.9c0-1.9-.9-2.8-2.8-2.8h-7.4ZM2749.3,16h-11.4M2783.4,88.8h11.4M2756.1,16v.7c0,0-.3.6-.3.6l-.3.6-.4.5-.5.4-.6.3-.6.2h-.7c0,0-.7,0-.7,0l-.6-.2-.6-.3-.5-.4-.4-.5-.3-.6-.2-.6v-.7c0,0,0-.7,0-.7l.2-.6.3-.6.4-.5.5-.4.6-.3.6-.2h.7c0,0,.7,0,.7,0l.6.2.6.3.5.4.4.5.3.6.2.6v.7M2794.8,84.2l-10.2,4.5,10.2,4.5"/>
    <g class="st12">
      <text class="st16" transform="translate(2741.4 10.4)"><tspan x="0" y="0">0..1</tspan></text>
    </g>
    <g class="st12">
      <text class="st16" transform="translate(2782.6 83.1)"><tspan x="0" y="0">*</tspan></text>
    </g>
    <path class="st21" d="M2198.2,6.9h511.5c7.6,0,11.4,3.8,11.4,11.4v22.7c0,7.6,3.8,11.4,11.4,11.4h495.7-495.7c-7.6,0-11.4-3.8-11.4-11.4v-22.7c0-7.6-3.8-11.4-11.4-11.4h-511.5ZM2191.4,6.9h-11.4M3228.1,52.4h11.4M2198.2,6.9v.7c0,0-.3.6-.3.6l-.3.6-.4.5-.5.4-.6.3-.6.2h-.7c0,0-.7,0-.7,0l-.6-.2-.6-.3-.5-.4-.4-.5-.3-.6-.2-.6v-.7c0,0,0-.7,0-.7l.2-.6.3-.6.4-.5.5-.4.6-.3.6-.2h.7c0,0,.7,0,.7,0l.6.2.6.3.5.4.4.5.3.6.2.6v.7M3239.4,47.8l-10.2,4.5,10.2,4.5"/>
    <g class="st12">
      <text class="st16" transform="translate(2183.4 1.3)"><tspan x="0" y="0">0..1</tspan></text>
    </g>
    <g class="st12">
      <text class="st16" transform="translate(3227.2 46.7)"><tspan x="0" y="0">*</tspan></text>
    </g>
    <path class="st21" d="M2198.2,6.9h511.5c7.6,0,11.4,3.8,11.4,11.4v59.1c0,7.6,3.8,11.4,11.4,11.4h495.7-495.7c-7.6,0-11.4-3.8-11.4-11.4V18.3c0-7.6-3.8-11.4-11.4-11.4h-511.5ZM2191.4,6.9h-11.4M3228.1,88.8h11.4M2198.2,6.9v.7c0,0-.3.6-.3.6l-.3.6-.4.5-.5.4-.6.3-.6.2h-.7c0,0-.7,0-.7,0l-.6-.2-.6-.3-.5-.4-.4-.5-.3-.6-.2-.6v-.7c0,0,0-.7,0-.7l.2-.6.3-.6.4-.5.5-.4.6-.3.6-.2h.7c0,0,.7,0,.7,0l.6.2.6.3.5.4.4.5.3.6.2.6v.7M3239.4,84.2l-10.2,4.5,10.2,4.5"/>
    <g class="st12">
      <text class="st16" transform="translate(2183.4 1.3)"><tspan x="0" y="0">0..1</tspan></text>
    </g>
    <g class="st12">
      <text class="st16" transform="translate(3227.2 83.1)"><tspan x="0" y="0">*</tspan></text>
    </g>
    <path class="st21" d="M3177,16h13.3c5.9,0,8.8,2.9,8.8,8.8v91.5c0,5.9,2.9,8.8,8.8,8.8h20.1-20.1c-5.9,0-8.8-2.9-8.8-8.8V24.8c0-5.9-2.9-8.8-8.8-8.8h-13.3ZM3170.2,16h-11.4M3228.1,125.1h11.4M3177,16v.7c0,0-.3.6-.3.6l-.3.6-.4.5-.5.4-.6.3-.6.2h-.7c0,0-.7,0-.7,0l-.6-.2-.6-.3-.5-.4-.4-.5-.3-.6-.2-.6v-.7c0,0,0-.7,0-.7l.2-.6.3-.6.4-.5.5-.4.6-.3.6-.2h.7c0,0,.7,0,.7,0l.6.2.6.3.5.4.4.5.3.6.2.6v.7M3239.4,120.6l-10.2,4.5,10.2,4.5"/>
    <g class="st12">
      <text class="st16" transform="translate(3162.2 10.4)"><tspan x="0" y="0">0..1</tspan></text>
    </g>
    <g class="st12">
      <text class="st16" transform="translate(3227.2 119.4)"><tspan x="0" y="0">*</tspan></text>
    </g>
    <path class="st21" d="M2241.2,16h-12c-4.9,0-7.4,2.5-7.4,7.4v769.1c0,4.9-2.5,7.4-7.4,7.4h-23.1,23.1c4.9,0,7.4-2.5,7.4-7.4V23.5c0-4.9,2.5-7.4,7.4-7.4h12ZM2248,16h11.4M2191.4,800h-11.4M2248,16v.7c0,0-.3.6-.3.6l-.3.6-.4.5-.5.4-.6.3-.6.2h-.7c0,0-.7,0-.7,0l-.6-.2-.6-.3-.5-.4-.4-.5-.3-.6-.2-.6v-.7c0,0,0-.7,0-.7l.2-.6.3-.6.4-.5.5-.4.6-.3.6-.2h.7c0,0,.7,0,.7,0l.6.2.6.3.5.4.4.5.3.6.2.6v.7M2180,795.5l10.2,4.5-10.2,4.5"/>
    <g class="st12">
      <text class="st16" transform="translate(2229.5 10.4)"><tspan x="0" y="0">0..1</tspan></text>
    </g>
    <g class="st12">
      <text class="st16" transform="translate(2183.4 794.3)"><tspan x="0" y="0">*</tspan></text>
    </g>
    <path class="st21" d="M2198.2,6.9h30c1.9,0,2.8.9,2.8,2.8v823.8c0,1.9.9,2.8,2.8,2.8h14.2-14.2c-1.9,0-2.8-.9-2.8-2.8V9.8c0-1.9-.9-2.8-2.8-2.8h-30ZM2191.4,6.9h-11.4M2248,836.4h11.4M2198.2,6.9v.7c0,0-.3.6-.3.6l-.3.6-.4.5-.5.4-.6.3-.6.2h-.7c0,0-.7,0-.7,0l-.6-.2-.6-.3-.5-.4-.4-.5-.3-.6-.2-.6v-.7c0,0,0-.7,0-.7l.2-.6.3-.6.4-.5.5-.4.6-.3.6-.2h.7c0,0,.7,0,.7,0l.6.2.6.3.5.4.4.5.3.6.2.6v.7M2259.4,831.8l-10.2,4.5,10.2,4.5"/>
    <g class="st12">
      <text class="st16" transform="translate(2183.4 1.3)"><tspan x="0" y="0">0..1</tspan></text>
    </g>
    <g class="st12">
      <text class="st16" transform="translate(2247.2 830.7)"><tspan x="0" y="0">*</tspan></text>
    </g>
    <path class="st21" d="M2756.1,16h2.3c1.5,0,2.3.8,2.3,2.3v843.1c0,7.6-3.8,11.4-11.4,11.4h-214.7,214.7c7.6,0,11.4-3.8,11.4-11.4V18.3c0-1.5-.8-2.3-2.3-2.3h-2.3ZM2749.3,16h-11.4M2534.7,872.7h-11.4M2756.1,16v.7c0,0-.3.6-.3.6l-.3.6-.4.5-.5.4-.6.3-.6.2h-.7c0,0-.7,0-.7,0l-.6-.2-.6-.3-.5-.4-.4-.5-.3-.6-.2-.6v-.7c0,0,0-.7,0-.7l.2-.6.3-.6.4-.5.5-.4.6-.3.6-.2h.7c0,0,.7,0,.7,0l.6.2.6.3.5.4.4.5.3.6.2.6v.7M2523.3,868.2l10.2,4.5-10.2,4.5"/>
    <g class="st12">
      <text class="st16" transform="translate(2741.4 10.4)"><tspan x="0" y="0">0..1</tspan></text>
    </g>
    <g class="st12">
      <text class="st16" transform="translate(2526.7 867.1)"><tspan x="0" y="0">*</tspan></text>
    </g>
    <path class="st21" d="M2198.2,6.9h289.1c7.6,0,11.4,3.8,11.4,11.4v443.1c0,7.6,3.8,11.4,11.4,11.4h273.4-273.4c-7.6,0-11.4-3.8-11.4-11.4V18.3c0-7.6-3.8-11.4-11.4-11.4h-289.1ZM2191.4,6.9h-11.4M2783.4,472.8h11.4M2198.2,6.9v.7c0,0-.3.6-.3.6l-.3.6-.4.5-.5.4-.6.3-.6.2h-.7c0,0-.7,0-.7,0l-.6-.2-.6-.3-.5-.4-.4-.5-.3-.6-.2-.6v-.7c0,0,0-.7,0-.7l.2-.6.3-.6.4-.5.5-.4.6-.3.6-.2h.7c0,0,.7,0,.7,0l.6.2.6.3.5.4.4.5.3.6.2.6v.7M2794.8,468.2l-10.2,4.5,10.2,4.5"/>
    <g class="st12">
      <text class="st16" transform="translate(2183.4 1.3)"><tspan x="0" y="0">0..1</tspan></text>
    </g>
    <g class="st12">
      <text class="st16" transform="translate(2782.6 467.1)"><tspan x="0" y="0">*</tspan></text>
    </g>
    <path class="st21" d="M2756.1,16h7.4c1.9,0,2.8.9,2.8,2.8v487.4c0,1.9.9,2.8,2.8,2.8h14.2-14.2c-1.9,0-2.8-.9-2.8-2.8V18.9c0-1.9-.9-2.8-2.8-2.8h-7.4ZM2749.3,16h-11.4M2783.4,509.2h11.4M2756.1,16v.7c0,0-.3.6-.3.6l-.3.6-.4.5-.5.4-.6.3-.6.2h-.7c0,0-.7,0-.7,0l-.6-.2-.6-.3-.5-.4-.4-.5-.3-.6-.2-.6v-.7c0,0,0-.7,0-.7l.2-.6.3-.6.4-.5.5-.4.6-.3.6-.2h.7c0,0,.7,0,.7,0l.6.2.6.3.5.4.4.5.3.6.2.6v.7M2794.8,504.6l-10.2,4.5,10.2,4.5"/>
    <g class="st12">
      <text class="st16" transform="translate(2741.4 10.4)"><tspan x="0" y="0">0..1</tspan></text>
    </g>
    <g class="st12">
      <text class="st16" transform="translate(2782.6 503.5)"><tspan x="0" y="0">*</tspan></text>
    </g>
    <path class="st21" d="M2198.2,6.9h511.5c7.6,0,11.4,3.8,11.4,11.4v406.8c0,7.6,3.8,11.4,11.4,11.4h495.7-495.7c-7.6,0-11.4-3.8-11.4-11.4V18.3c0-7.6-3.8-11.4-11.4-11.4h-511.5ZM2191.4,6.9h-11.4M3228.1,436.4h11.4M2198.2,6.9v.7c0,0-.3.6-.3.6l-.3.6-.4.5-.5.4-.6.3-.6.2h-.7c0,0-.7,0-.7,0l-.6-.2-.6-.3-.5-.4-.4-.5-.3-.6-.2-.6v-.7c0,0,0-.7,0-.7l.2-.6.3-.6.4-.5.5-.4.6-.3.6-.2h.7c0,0,.7,0,.7,0l.6.2.6.3.5.4.4.5.3.6.2.6v.7M3239.4,431.9l-10.2,4.5,10.2,4.5"/>
    <g class="st12">
      <text class="st16" transform="translate(2183.4 1.3)"><tspan x="0" y="0">0..1</tspan></text>
    </g>
    <g class="st12">
      <text class="st16" transform="translate(3227.2 430.8)"><tspan x="0" y="0">*</tspan></text>
    </g>
    <path class="st21" d="M2756.1,16h221.2c7.6,0,11.4,3.8,11.4,11.4v434c0,7.6,3.8,11.4,11.4,11.4h228-228c-7.6,0-11.4-3.8-11.4-11.4V27.4c0-7.6-3.8-11.4-11.4-11.4h-221.2ZM2749.3,16h-11.4M3228.1,472.8h11.4M2756.1,16v.7c0,0-.3.6-.3.6l-.3.6-.4.5-.5.4-.6.3-.6.2h-.7c0,0-.7,0-.7,0l-.6-.2-.6-.3-.5-.4-.4-.5-.3-.6-.2-.6v-.7c0,0,0-.7,0-.7l.2-.6.3-.6.4-.5.5-.4.6-.3.6-.2h.7c0,0,.7,0,.7,0l.6.2.6.3.5.4.4.5.3.6.2.6v.7M3239.4,468.2l-10.2,4.5,10.2,4.5"/>
    <g class="st12">
      <text class="st16" transform="translate(2741.4 10.4)"><tspan x="0" y="0">0..1</tspan></text>
    </g>
    <g class="st12">
      <text class="st16" transform="translate(3227.2 467.1)"><tspan x="0" y="0">*</tspan></text>
    </g>
    <g>
      <rect class="st22" x="1900" y="-38.5" width="280" height="36.4"/>
      <text class="st14" transform="translate(1911.4 -16.6)"><tspan x="0" y="0">users</tspan></text>
      <rect class="st25" x="1900" y="-2.1" width="280" height="36.4"/>
      <text class="st3" transform="translate(1911.4 19.7)"><tspan x="0" y="0">id</tspan></text>
      <path class="st0" d="M1937.2,9.5c1.9,0,3.4,1.5,3.4,3.4s-1.5,3.4-3.4,3.4-.9,0-1.3-.2l-1,1h-.7v1.1h-1.1v1.1h-2.2v-2.2l3.1-3.1c0-.3-.1-.6-.1-1,0-1.9,1.5-3.4,3.4-3.4ZM1937.2,8.4c-2.5,0-4.5,2-4.5,4.5s0,.4,0,.6l-2.9,2.9c-.1.1-.2.2-.2.4v3c0,.3.3.6.6.6h3.4c.3,0,.6-.3.6-.6v-.6h.6c.3,0,.6-.3.6-.6v-.5l.9-.9c.3,0,.6,0,.9,0,2.5,0,4.5-2,4.5-4.5s-2-4.5-4.5-4.5ZM1937.2,11.7c0,.6.5,1.1,1.1,1.1s1.1-.5,1.1-1.1-.5-1.1-1.1-1.1-1.1.5-1.1,1.1Z"/>
      <path class="st26" d="M2143.6,5.2h22.7s2.3,0,2.3,2.3v13.6s0,2.3-2.3,2.3h-22.7s-2.3,0-2.3-2.3V7.5s0-2.3,2.3-2.3"/>
      <path class="st0" d="M2153.7,19.4h-1.3l-5.4-8.6h0c0,.2,0,.5,0,.8,0,.3,0,.6,0,.9,0,.3,0,.7,0,1v5.9h-1.1v-10.2h1.3l5.4,8.6h0c0-.2,0-.4,0-.7,0-.3,0-.6,0-1,0-.3,0-.7,0-1v-5.9h1.1v10.2Z"/>
      <path class="st0" d="M2164.1,19.4h-1.3l-5.4-8.6h0c0,.2,0,.5,0,.8,0,.3,0,.6,0,.9,0,.3,0,.7,0,1v5.9h-1.1v-10.2h1.3l5.4,8.6h0c0-.2,0-.4,0-.7,0-.3,0-.6,0-1,0-.3,0-.7,0-1v-5.9h1.1v10.2Z"/>
      <text class="st13" transform="translate(2111.4 19.7)"><tspan x="0" y="0">INT</tspan></text>
      <rect class="st25" x="1900" y="34.2" width="280" height="36.4"/>
      <text class="st1" transform="translate(1911.4 56.1)"><tspan x="0" y="0">name</tspan></text>
      <text class="st11" transform="translate(2068.7 56.1)"><tspan x="0" y="0">VARCHAR(100)</tspan></text>
      <rect class="st25" x="1900" y="70.6" width="280" height="36.4"/>
      <text class="st1" transform="translate(1911.4 92.4)"><tspan x="0" y="0">lastName</tspan></text>
      <text class="st11" transform="translate(2068.7 92.4)"><tspan x="0" y="0">VARCHAR(100)</tspan></text>
      <rect class="st25" x="1900" y="106.9" width="280" height="36.4"/>
      <text class="st1" transform="translate(1911.4 128.8)"><tspan x="0" y="0">legalId</tspan></text>
      <text class="st11" transform="translate(2077.1 128.8)"><tspan x="0" y="0">VARCHAR(20)</tspan></text>
      <rect class="st25" x="1900" y="143.3" width="280" height="36.4"/>
      <text class="st1" transform="translate(1911.4 165.2)"><tspan x="0" y="0">email</tspan></text>
      <path class="st26" d="M2143.6,150.7h22.7s2.3,0,2.3,2.3v13.6s0,2.3-2.3,2.3h-22.7s-2.3,0-2.3-2.3v-13.6s0-2.3,2.3-2.3"/>
      <path class="st0" d="M2153.7,164.9h-1.3l-5.4-8.6h0c0,.2,0,.5,0,.8,0,.3,0,.6,0,.9,0,.3,0,.7,0,1v5.9h-1.1v-10.2h1.3l5.4,8.6h0c0-.2,0-.4,0-.7,0-.3,0-.6,0-1,0-.3,0-.7,0-1v-5.9h1.1v10.2Z"/>
      <path class="st0" d="M2164.1,164.9h-1.3l-5.4-8.6h0c0,.2,0,.5,0,.8,0,.3,0,.6,0,.9,0,.3,0,.7,0,1v5.9h-1.1v-10.2h1.3l5.4,8.6h0c0-.2,0-.4,0-.7,0-.3,0-.6,0-1,0-.3,0-.7,0-1v-5.9h1.1v10.2Z"/>
      <text class="st11" transform="translate(2036.9 165.2)"><tspan x="0" y="0">VARCHAR(100)</tspan></text>
      <rect class="st25" x="1900" y="179.7" width="280" height="36.4"/>
      <text class="st1" transform="translate(1911.4 201.5)"><tspan x="0" y="0">password</tspan></text>
      <text class="st11" transform="translate(2068.7 201.5)"><tspan x="0" y="0">VARCHAR(255)</tspan></text>
      <rect class="st25" x="1900" y="216" width="280" height="36.4"/>
      <text class="st1" transform="translate(1911.4 237.9)"><tspan x="0" y="0">phone</tspan></text>
      <text class="st11" transform="translate(2068.7 237.9)"><tspan x="0" y="0">VARCHAR(255)</tspan></text>
      <rect class="st25" x="1900" y="252.4" width="280" height="36.4"/>
      <text class="st1" transform="translate(1911.4 274.2)"><tspan x="0" y="0">avatarUrl</tspan></text>
      <text class="st11" transform="translate(2068.7 274.2)"><tspan x="0" y="0">VARCHAR(255)</tspan></text>
      <rect class="st25" x="1900" y="288.7" width="280" height="36.4"/>
      <text class="st1" transform="translate(1911.4 310.6)"><tspan x="0" y="0">bio</tspan></text>
      <text class="st11" transform="translate(2135.6 310.6)"><tspan x="0" y="0">TEXT</tspan></text>
      <rect class="st25" x="1900" y="325.1" width="280" height="36.4"/>
      <text class="st1" transform="translate(1911.4 347)"><tspan x="0" y="0">role</tspan></text>
      <path class="st26" d="M2156.1,332.5h10.2s2.3,0,2.3,2.3v13.6s0,2.3-2.3,2.3h-10.2s-2.3,0-2.3-2.3v-13.6s0-2.3,2.3-2.3"/>
      <path class="st0" d="M2164.1,346.6h-5.6v-10.1h5.6v1h-4.5v3.3h4.2v1h-4.2v3.8h4.5v1Z"/>
      <rect class="st25" x="1900" y="361.4" width="280" height="36.4"/>
      <text class="st1" transform="translate(1911.4 383.3)"><tspan x="0" y="0">recoveryCode</tspan></text>
      <text class="st11" transform="translate(2068.7 383.3)"><tspan x="0" y="0">VARCHAR(100)</tspan></text>
      <rect class="st25" x="1900" y="397.8" width="280" height="36.4"/>
      <text class="st1" transform="translate(1911.4 419.7)"><tspan x="0" y="0">isEmailVerified</tspan></text>
      <text class="st11" transform="translate(2099.7 419.7)"><tspan x="0" y="0">BOOLEAN</tspan></text>
      <rect class="st25" x="1900" y="434.2" width="280" height="36.4"/>
      <text class="st1" transform="translate(1911.4 456)"><tspan x="0" y="0">isDocsVerified</tspan></text>
      <text class="st11" transform="translate(2099.7 456)"><tspan x="0" y="0">BOOLEAN</tspan></text>
      <rect class="st25" x="1900" y="470.5" width="280" height="36.4"/>
      <text class="st1" transform="translate(1911.4 492.4)"><tspan x="0" y="0">isOwner</tspan></text>
      <text class="st11" transform="translate(2099.7 492.4)"><tspan x="0" y="0">BOOLEAN</tspan></text>
      <rect class="st25" x="1900" y="506.9" width="280" height="36.4"/>
      <text class="st1" transform="translate(1911.4 528.8)"><tspan x="0" y="0">createdAt</tspan></text>
      <text class="st11" transform="translate(2087.1 528.8)"><tspan x="0" y="0">TIMESTAMP</tspan></text>
      <rect class="st25" x="1900" y="543.2" width="280" height="36.4"/>
      <text class="st1" transform="translate(1911.4 565.1)"><tspan x="0" y="0">updatedAt</tspan></text>
      <text class="st11" transform="translate(2087.1 565.1)"><tspan x="0" y="0">TIMESTAMP</tspan></text>
      <rect class="st25" x="1900" y="579.6" width="280" height="36.4"/>
      <text class="st1" transform="translate(1911.4 601.5)"><tspan x="0" y="0">averageRating</tspan></text>
      <text class="st11" transform="translate(2076.5 601.5)"><tspan x="0" y="0">DECIMAL(2,1)</tspan></text>
      <rect class="st25" x="1900" y="616" width="280" height="36.4"/>
      <text class="st1" transform="translate(1911.4 637.8)"><tspan x="0" y="0">totalReviews</tspan></text>
      <text class="st11" transform="translate(2145.3 637.8)"><tspan x="0" y="0">INT</tspan></text>
    </g>
    <g>
      <rect class="st22" x="2259.4" y="-38.5" width="478.6" height="36.4"/>
      <text class="st14" transform="translate(2270.8 -16.6)"><tspan x="0" y="0">properties</tspan></text>
      <rect class="st25" x="2259.4" y="-2.1" width="478.6" height="36.4"/>
      <text class="st3" transform="translate(2270.8 19.7)"><tspan x="0" y="0">id</tspan></text>
      <path class="st0" d="M2296.6,9.5c1.9,0,3.4,1.5,3.4,3.4s-1.5,3.4-3.4,3.4-.9,0-1.3-.2l-1,1h-.7v1.1h-1.1v1.1h-2.2v-2.2l3.1-3.1c0-.3-.1-.6-.1-1,0-1.9,1.5-3.4,3.4-3.4ZM2296.6,8.4c-2.5,0-4.5,2-4.5,4.5s0,.4,0,.6l-2.9,2.9c-.1.1-.2.2-.2.4v3c0,.3.3.6.6.6h3.4c.3,0,.6-.3.6-.6v-.6h.6c.3,0,.6-.3.6-.6v-.5l.9-.9c.3,0,.6,0,.9,0,2.5,0,4.5-2,4.5-4.5s-2-4.5-4.5-4.5ZM2296.6,11.7c0,.6.5,1.1,1.1,1.1s1.1-.5,1.1-1.1-.5-1.1-1.1-1.1-1.1.5-1.1,1.1Z"/>
      <path class="st26" d="M2701.6,5.2h22.7s2.3,0,2.3,2.3v13.6s0,2.3-2.3,2.3h-22.7s-2.3,0-2.3-2.3V7.5s0-2.3,2.3-2.3"/>
      <path class="st0" d="M2711.6,19.4h-1.3l-5.4-8.6h0c0,.2,0,.5,0,.8,0,.3,0,.6,0,.9,0,.3,0,.7,0,1v5.9h-1.1v-10.2h1.3l5.4,8.6h0c0-.2,0-.4,0-.7,0-.3,0-.6,0-1,0-.3,0-.7,0-1v-5.9h1.1v10.2Z"/>
      <path class="st0" d="M2722.1,19.4h-1.3l-5.4-8.6h0c0,.2,0,.5,0,.8,0,.3,0,.6,0,.9,0,.3,0,.7,0,1v5.9h-1.1v-10.2h1.3l5.4,8.6h0c0-.2,0-.4,0-.7,0-.3,0-.6,0-1,0-.3,0-.7,0-1v-5.9h1.1v10.2Z"/>
      <text class="st13" transform="translate(2669.3 19.7)"><tspan x="0" y="0">INT</tspan></text>
      <rect class="st25" x="2259.4" y="34.2" width="478.6" height="36.4"/>
      <text class="st1" transform="translate(2270.8 56.1)"><tspan x="0" y="0">ownerId</tspan></text>
      <path class="st26" d="M2701.6,41.6h22.7s2.3,0,2.3,2.3v13.6s0,2.3-2.3,2.3h-22.7s-2.3,0-2.3-2.3v-13.6s0-2.3,2.3-2.3"/>
      <path class="st0" d="M2711.6,55.8h-1.3l-5.4-8.6h0c0,.2,0,.5,0,.8,0,.3,0,.6,0,.9,0,.3,0,.7,0,1v5.9h-1.1v-10.2h1.3l5.4,8.6h0c0-.2,0-.4,0-.7,0-.3,0-.6,0-1,0-.3,0-.7,0-1v-5.9h1.1v10.2Z"/>
      <path class="st0" d="M2722.1,55.8h-1.3l-5.4-8.6h0c0,.2,0,.5,0,.8,0,.3,0,.6,0,.9,0,.3,0,.7,0,1v5.9h-1.1v-10.2h1.3l5.4,8.6h0c0-.2,0-.4,0-.7,0-.3,0-.6,0-1,0-.3,0-.7,0-1v-5.9h1.1v10.2Z"/>
      <text class="st11" transform="translate(2671.4 56.1)"><tspan x="0" y="0">INT</tspan></text>
      <rect class="st25" x="2259.4" y="70.6" width="478.6" height="36.4"/>
      <text class="st1" transform="translate(2270.8 92.4)"><tspan x="0" y="0">propertyTitle</tspan></text>
      <path class="st26" d="M2701.6,78h22.7s2.3,0,2.3,2.3v13.6s0,2.3-2.3,2.3h-22.7s-2.3,0-2.3-2.3v-13.6s0-2.3,2.3-2.3"/>
      <path class="st0" d="M2711.6,92.2h-1.3l-5.4-8.6h0c0,.2,0,.5,0,.8,0,.3,0,.6,0,.9,0,.3,0,.7,0,1v5.9h-1.1v-10.2h1.3l5.4,8.6h0c0-.2,0-.4,0-.7,0-.3,0-.6,0-1,0-.3,0-.7,0-1v-5.9h1.1v10.2Z"/>
      <path class="st0" d="M2722.1,92.2h-1.3l-5.4-8.6h0c0,.2,0,.5,0,.8,0,.3,0,.6,0,.9,0,.3,0,.7,0,1v5.9h-1.1v-10.2h1.3l5.4,8.6h0c0-.2,0-.4,0-.7,0-.3,0-.6,0-1,0-.3,0-.7,0-1v-5.9h1.1v10.2Z"/>
      <text class="st11" transform="translate(2594.8 92.4)"><tspan x="0" y="0">VARCHAR(255)</tspan></text>
      <rect class="st25" x="2259.4" y="106.9" width="478.6" height="36.4"/>
      <text class="st1" transform="translate(2270.8 128.8)"><tspan x="0" y="0">propertyType</tspan></text>
      <path class="st26" d="M2701.6,114.3h22.7s2.3,0,2.3,2.3v13.6s0,2.3-2.3,2.3h-22.7s-2.3,0-2.3-2.3v-13.6s0-2.3,2.3-2.3"/>
      <path class="st0" d="M2711.6,128.5h-1.3l-5.4-8.6h0c0,.2,0,.5,0,.8,0,.3,0,.6,0,.9,0,.3,0,.7,0,1v5.9h-1.1v-10.2h1.3l5.4,8.6h0c0-.2,0-.4,0-.7,0-.3,0-.6,0-1,0-.3,0-.7,0-1v-5.9h1.1v10.2Z"/>
      <path class="st0" d="M2722.1,128.5h-1.3l-5.4-8.6h0c0,.2,0,.5,0,.8,0,.3,0,.6,0,.9,0,.3,0,.7,0,1v5.9h-1.1v-10.2h1.3l5.4,8.6h0c0-.2,0-.4,0-.7,0-.3,0-.6,0-1,0-.3,0-.7,0-1v-5.9h1.1v10.2Z"/>
      <path class="st26" d="M2682.3,114.3h10.2s2.3,0,2.3,2.3v13.6s0,2.3-2.3,2.3h-10.2s-2.3,0-2.3-2.3v-13.6s0-2.3,2.3-2.3"/>
      <path class="st0" d="M2690.2,128.5h-5.6v-10.1h5.6v1h-4.5v3.3h4.2v1h-4.2v3.8h4.5v1Z"/>
      <rect class="st25" x="2259.4" y="143.3" width="478.6" height="36.4"/>
      <text class="st1" transform="translate(2270.8 165.2)"><tspan x="0" y="0">description</tspan></text>
      <path class="st26" d="M2701.6,150.7h22.7s2.3,0,2.3,2.3v13.6s0,2.3-2.3,2.3h-22.7s-2.3,0-2.3-2.3v-13.6s0-2.3,2.3-2.3"/>
      <path class="st0" d="M2711.6,164.9h-1.3l-5.4-8.6h0c0,.2,0,.5,0,.8,0,.3,0,.6,0,.9,0,.3,0,.7,0,1v5.9h-1.1v-10.2h1.3l5.4,8.6h0c0-.2,0-.4,0-.7,0-.3,0-.6,0-1,0-.3,0-.7,0-1v-5.9h1.1v10.2Z"/>
      <path class="st0" d="M2722.1,164.9h-1.3l-5.4-8.6h0c0,.2,0,.5,0,.8,0,.3,0,.6,0,.9,0,.3,0,.7,0,1v5.9h-1.1v-10.2h1.3l5.4,8.6h0c0-.2,0-.4,0-.7,0-.3,0-.6,0-1,0-.3,0-.7,0-1v-5.9h1.1v10.2Z"/>
      <text class="st11" transform="translate(2661.8 165.2)"><tspan x="0" y="0">TEXT</tspan></text>
      <rect class="st25" x="2259.4" y="179.7" width="478.6" height="36.4"/>
      <text class="st1" transform="translate(2270.8 201.5)"><tspan x="0" y="0">addressLocality</tspan></text>
      <text class="st11" transform="translate(2626.6 201.5)"><tspan x="0" y="0">VARCHAR(255)</tspan></text>
      <rect class="st25" x="2259.4" y="216" width="478.6" height="36.4"/>
      <text class="st1" transform="translate(2270.8 237.9)"><tspan x="0" y="0">addressStreet</tspan></text>
      <text class="st11" transform="translate(2626.6 237.9)"><tspan x="0" y="0">VARCHAR(255)</tspan></text>
      <rect class="st25" x="2259.4" y="252.4" width="478.6" height="36.4"/>
      <text class="st1" transform="translate(2270.8 274.2)"><tspan x="0" y="0">addressNumber</tspan></text>
      <text class="st11" transform="translate(2635.1 274.2)"><tspan x="0" y="0">VARCHAR(10)</tspan></text>
      <rect class="st25" x="2259.4" y="288.7" width="478.6" height="36.4"/>
      <text class="st1" transform="translate(2270.8 310.6)"><tspan x="0" y="0">addressFloor</tspan></text>
      <text class="st11" transform="translate(2635.1 310.6)"><tspan x="0" y="0">VARCHAR(10)</tspan></text>
      <rect class="st25" x="2259.4" y="325.1" width="478.6" height="36.4"/>
      <text class="st1" transform="translate(2270.8 347)"><tspan x="0" y="0">hasEnergyCert</tspan></text>
      <text class="st11" transform="translate(2657.7 347)"><tspan x="0" y="0">BOOLEAN</tspan></text>
      <rect class="st25" x="2259.4" y="361.4" width="478.6" height="36.4"/>
      <text class="st1" transform="translate(2270.8 383.3)"><tspan x="0" y="0">zipCode</tspan></text>
      <path class="st26" d="M2701.6,368.8h22.7s2.3,0,2.3,2.3v13.6s0,2.3-2.3,2.3h-22.7s-2.3,0-2.3-2.3v-13.6s0-2.3,2.3-2.3"/>
      <path class="st0" d="M2711.6,383h-1.3l-5.4-8.6h0c0,.2,0,.5,0,.8,0,.3,0,.6,0,.9,0,.3,0,.7,0,1v5.9h-1.1v-10.2h1.3l5.4,8.6h0c0-.2,0-.4,0-.7,0-.3,0-.6,0-1,0-.3,0-.7,0-1v-5.9h1.1v10.2Z"/>
      <path class="st0" d="M2722.1,383h-1.3l-5.4-8.6h0c0,.2,0,.5,0,.8,0,.3,0,.6,0,.9,0,.3,0,.7,0,1v5.9h-1.1v-10.2h1.3l5.4,8.6h0c0-.2,0-.4,0-.7,0-.3,0-.6,0-1,0-.3,0-.7,0-1v-5.9h1.1v10.2Z"/>
      <text class="st11" transform="translate(2611.7 383.3)"><tspan x="0" y="0">VARCHAR(5)</tspan></text>
      <rect class="st25" x="2259.4" y="397.8" width="478.6" height="36.4"/>
      <text class="st1" transform="translate(2270.8 419.7)"><tspan x="0" y="0">location</tspan></text>
      <text class="st11" transform="translate(2682.8 419.7)"><tspan x="0" y="0">POINT</tspan></text>
      <rect class="st25" x="2259.4" y="434.2" width="478.6" height="36.4"/>
      <text class="st1" transform="translate(2270.8 456)"><tspan x="0" y="0">squareMeters</tspan></text>
      <text class="st11" transform="translate(2657.1 456)"><tspan x="0" y="0">SMALLINT</tspan></text>
      <rect class="st25" x="2259.4" y="470.5" width="478.6" height="36.4"/>
      <text class="st1" transform="translate(2270.8 492.4)"><tspan x="0" y="0">bedrooms</tspan></text>
      <path class="st26" d="M2701.6,477.9h22.7s2.3,0,2.3,2.3v13.6s0,2.3-2.3,2.3h-22.7s-2.3,0-2.3-2.3v-13.6s0-2.3,2.3-2.3"/>
      <path class="st0" d="M2711.6,492.1h-1.3l-5.4-8.6h0c0,.2,0,.5,0,.8,0,.3,0,.6,0,.9,0,.3,0,.7,0,1v5.9h-1.1v-10.2h1.3l5.4,8.6h0c0-.2,0-.4,0-.7,0-.3,0-.6,0-1,0-.3,0-.7,0-1v-5.9h1.1v10.2Z"/>
      <path class="st0" d="M2722.1,492.1h-1.3l-5.4-8.6h0c0,.2,0,.5,0,.8,0,.3,0,.6,0,.9,0,.3,0,.7,0,1v5.9h-1.1v-10.2h1.3l5.4,8.6h0c0-.2,0-.4,0-.7,0-.3,0-.6,0-1,0-.3,0-.7,0-1v-5.9h1.1v10.2Z"/>
      <text class="st11" transform="translate(2639.8 492.4)"><tspan x="0" y="0">TINYINT</tspan></text>
      <rect class="st25" x="2259.4" y="506.9" width="478.6" height="36.4"/>
      <text class="st1" transform="translate(2270.8 528.8)"><tspan x="0" y="0">bathrooms</tspan></text>
      <path class="st26" d="M2701.6,514.3h22.7s2.3,0,2.3,2.3v13.6s0,2.3-2.3,2.3h-22.7s-2.3,0-2.3-2.3v-13.6s0-2.3,2.3-2.3"/>
      <path class="st0" d="M2711.6,528.5h-1.3l-5.4-8.6h0c0,.2,0,.5,0,.8,0,.3,0,.6,0,.9,0,.3,0,.7,0,1v5.9h-1.1v-10.2h1.3l5.4,8.6h0c0-.2,0-.4,0-.7,0-.3,0-.6,0-1,0-.3,0-.7,0-1v-5.9h1.1v10.2Z"/>
      <path class="st0" d="M2722.1,528.5h-1.3l-5.4-8.6h0c0,.2,0,.5,0,.8,0,.3,0,.6,0,.9,0,.3,0,.7,0,1v5.9h-1.1v-10.2h1.3l5.4,8.6h0c0-.2,0-.4,0-.7,0-.3,0-.6,0-1,0-.3,0-.7,0-1v-5.9h1.1v10.2Z"/>
      <text class="st11" transform="translate(2639.8 528.8)"><tspan x="0" y="0">TINYINT</tspan></text>
      <rect class="st25" x="2259.4" y="543.2" width="478.6" height="36.4"/>
      <text class="st1" transform="translate(2270.8 565.1)"><tspan x="0" y="0">price</tspan></text>
      <path class="st26" d="M2701.6,550.6h22.7s2.3,0,2.3,2.3v13.6s0,2.3-2.3,2.3h-22.7s-2.3,0-2.3-2.3v-13.6s0-2.3,2.3-2.3"/>
      <path class="st0" d="M2711.6,564.8h-1.3l-5.4-8.6h0c0,.2,0,.5,0,.8,0,.3,0,.6,0,.9,0,.3,0,.7,0,1v5.9h-1.1v-10.2h1.3l5.4,8.6h0c0-.2,0-.4,0-.7,0-.3,0-.6,0-1,0-.3,0-.7,0-1v-5.9h1.1v10.2Z"/>
      <path class="st0" d="M2722.1,564.8h-1.3l-5.4-8.6h0c0,.2,0,.5,0,.8,0,.3,0,.6,0,.9,0,.3,0,.7,0,1v5.9h-1.1v-10.2h1.3l5.4,8.6h0c0-.2,0-.4,0-.7,0-.3,0-.6,0-1,0-.3,0-.7,0-1v-5.9h1.1v10.2Z"/>
      <text class="st11" transform="translate(2594.2 565.1)"><tspan x="0" y="0">DECIMAL(10,2)</tspan></text>
      <rect class="st25" x="2259.4" y="579.6" width="478.6" height="36.4"/>
      <text class="st1" transform="translate(2270.8 601.5)"><tspan x="0" y="0">status</tspan></text>
      <path class="st26" d="M2714.1,587h10.2s2.3,0,2.3,2.3v13.6s0,2.3-2.3,2.3h-10.2s-2.3,0-2.3-2.3v-13.6s0-2.3,2.3-2.3"/>
      <path class="st0" d="M2722,601.1h-5.6v-10.1h5.6v1h-4.5v3.3h4.2v1h-4.2v3.8h4.5v1Z"/>
      <rect class="st25" x="2259.4" y="616" width="478.6" height="36.4"/>
      <text class="st1" transform="translate(2270.8 637.8)"><tspan x="0" y="0">createdAt</tspan></text>
      <text class="st11" transform="translate(2645.1 637.8)"><tspan x="0" y="0">TIMESTAMP</tspan></text>
      <rect class="st25" x="2259.4" y="652.3" width="478.6" height="36.4"/>
      <text class="st1" transform="translate(2270.8 674.2)"><tspan x="0" y="0">updatedAt</tspan></text>
      <text class="st11" transform="translate(2645.1 674.2)"><tspan x="0" y="0">TIMESTAMP</tspan></text>
    </g>
    <rect class="st22" x="2794.8" y="-38.5" width="364" height="36.4"/>
    <text class="st14" transform="translate(2806.1 -16.6)"><tspan x="0" y="0">contracts</tspan></text>
    <rect class="st25" x="2794.8" y="-2.1" width="364" height="36.4"/>
    <text class="st3" transform="translate(2806.1 19.7)"><tspan x="0" y="0">id</tspan></text>
    <path class="st0" d="M2832,9.5c1.9,0,3.4,1.5,3.4,3.4s-1.5,3.4-3.4,3.4-.9,0-1.3-.2l-1,1h-.7v1.1h-1.1v1.1h-2.2v-2.2l3.1-3.1c0-.3-.1-.6-.1-1,0-1.9,1.5-3.4,3.4-3.4ZM2832,8.4c-2.5,0-4.5,2-4.5,4.5s0,.4,0,.6l-2.9,2.9c-.1.1-.2.2-.2.4v3c0,.3.3.6.6.6h3.4c.3,0,.6-.3.6-.6v-.6h.6c.3,0,.6-.3.6-.6v-.5l.9-.9c.3,0,.6,0,.9,0,2.5,0,4.5-2,4.5-4.5s-2-4.5-4.5-4.5ZM2832,11.7c0,.6.5,1.1,1.1,1.1s1.1-.5,1.1-1.1-.5-1.1-1.1-1.1-1.1.5-1.1,1.1Z"/>
    <path class="st26" d="M3122.5,5.2h22.7s2.3,0,2.3,2.3v13.6s0,2.3-2.3,2.3h-22.7s-2.3,0-2.3-2.3V7.5s0-2.3,2.3-2.3"/>
    <path class="st0" d="M3132.5,19.4h-1.3l-5.4-8.6h0c0,.2,0,.5,0,.8,0,.3,0,.6,0,.9,0,.3,0,.7,0,1v5.9h-1.1v-10.2h1.3l5.4,8.6h0c0-.2,0-.4,0-.7,0-.3,0-.6,0-1,0-.3,0-.7,0-1v-5.9h1.1v10.2Z"/>
    <path class="st0" d="M3142.9,19.4h-1.3l-5.4-8.6h0c0,.2,0,.5,0,.8,0,.3,0,.6,0,.9,0,.3,0,.7,0,1v5.9h-1.1v-10.2h1.3l5.4,8.6h0c0-.2,0-.4,0-.7,0-.3,0-.6,0-1,0-.3,0-.7,0-1v-5.9h1.1v10.2Z"/>
    <text class="st13" transform="translate(3090.2 19.7)"><tspan x="0" y="0">INT</tspan></text>
    <rect class="st25" x="2794.8" y="34.2" width="364" height="36.4"/>
    <text class="st1" transform="translate(2806.1 56.1)"><tspan x="0" y="0">tenantId</tspan></text>
    <text class="st11" transform="translate(3124.1 56.1)"><tspan x="0" y="0">INT</tspan></text>
    <rect class="st25" x="2794.8" y="70.6" width="364" height="36.4"/>
    <text class="st1" transform="translate(2806.1 92.4)"><tspan x="0" y="0">propertyId</tspan></text>
    <text class="st11" transform="translate(3124.1 92.4)"><tspan x="0" y="0">INT</tspan></text>
    <rect class="st25" x="2794.8" y="106.9" width="364" height="36.4"/>
    <text class="st1" transform="translate(2806.1 128.8)"><tspan x="0" y="0">startDate</tspan></text>
    <path class="st26" d="M3122.5,114.3h22.7s2.3,0,2.3,2.3v13.6s0,2.3-2.3,2.3h-22.7s-2.3,0-2.3-2.3v-13.6s0-2.3,2.3-2.3"/>
    <path class="st0" d="M3132.5,128.5h-1.3l-5.4-8.6h0c0,.2,0,.5,0,.8,0,.3,0,.6,0,.9,0,.3,0,.7,0,1v5.9h-1.1v-10.2h1.3l5.4,8.6h0c0-.2,0-.4,0-.7,0-.3,0-.6,0-1,0-.3,0-.7,0-1v-5.9h1.1v10.2Z"/>
    <path class="st0" d="M3142.9,128.5h-1.3l-5.4-8.6h0c0,.2,0,.5,0,.8,0,.3,0,.6,0,.9,0,.3,0,.7,0,1v5.9h-1.1v-10.2h1.3l5.4,8.6h0c0-.2,0-.4,0-.7,0-.3,0-.6,0-1,0-.3,0-.7,0-1v-5.9h1.1v10.2Z"/>
    <text class="st11" transform="translate(3034.1 128.8)"><tspan x="0" y="0">TIMESTAMP</tspan></text>
    <rect class="st25" x="2794.8" y="143.3" width="364" height="36.4"/>
    <text class="st1" transform="translate(2806.1 165.2)"><tspan x="0" y="0">endDate</tspan></text>
    <text class="st11" transform="translate(3066 165.2)"><tspan x="0" y="0">TIMESTAMP</tspan></text>
    <rect class="st25" x="2794.8" y="179.7" width="364" height="36.4"/>
    <text class="st1" transform="translate(2806.1 201.5)"><tspan x="0" y="0">pdfUrl</tspan></text>
    <text class="st11" transform="translate(3047.5 201.5)"><tspan x="0" y="0">VARCHAR(255)</tspan></text>
    <rect class="st25" x="2794.8" y="216" width="364" height="36.4"/>
    <text class="st1" transform="translate(2806.1 237.9)"><tspan x="0" y="0">status</tspan></text>
    <path class="st26" d="M3122.5,223.4h22.7s2.3,0,2.3,2.3v13.6s0,2.3-2.3,2.3h-22.7s-2.3,0-2.3-2.3v-13.6s0-2.3,2.3-2.3"/>
    <path class="st0" d="M3132.5,237.6h-1.3l-5.4-8.6h0c0,.2,0,.5,0,.8,0,.3,0,.6,0,.9,0,.3,0,.7,0,1v5.9h-1.1v-10.2h1.3l5.4,8.6h0c0-.2,0-.4,0-.7,0-.3,0-.6,0-1,0-.3,0-.7,0-1v-5.9h1.1v10.2Z"/>
    <path class="st0" d="M3142.9,237.6h-1.3l-5.4-8.6h0c0,.2,0,.5,0,.8,0,.3,0,.6,0,.9,0,.3,0,.7,0,1v5.9h-1.1v-10.2h1.3l5.4,8.6h0c0-.2,0-.4,0-.7,0-.3,0-.6,0-1,0-.3,0-.7,0-1v-5.9h1.1v10.2Z"/>
    <path class="st26" d="M3103.1,223.4h10.2s2.3,0,2.3,2.3v13.6s0,2.3-2.3,2.3h-10.2s-2.3,0-2.3-2.3v-13.6s0-2.3,2.3-2.3"/>
    <path class="st0" d="M3111.1,237.6h-5.6v-10.1h5.6v1h-4.5v3.3h4.2v1h-4.2v3.8h4.5v1Z"/>
    <rect class="st25" x="2794.8" y="252.4" width="364" height="36.4"/>
    <text class="st1" transform="translate(2806.1 274.2)"><tspan x="0" y="0">createdAt</tspan></text>
    <text class="st11" transform="translate(3066 274.2)"><tspan x="0" y="0">TIMESTAMP</tspan></text>
    <rect class="st25" x="2794.8" y="288.7" width="364" height="36.4"/>
    <text class="st1" transform="translate(2806.1 310.6)"><tspan x="0" y="0">updatedAt</tspan></text>
    <text class="st11" transform="translate(3066 310.6)"><tspan x="0" y="0">TIMESTAMP</tspan></text>
    <rect class="st22" x="3239.4" y="-38.5" width="263.9" height="36.4"/>
    <text class="st14" transform="translate(3250.8 -16.6)"><tspan x="0" y="0">reviews</tspan></text>
    <rect class="st25" x="3239.4" y="-2.1" width="263.9" height="36.4"/>
    <text class="st3" transform="translate(3250.8 19.7)"><tspan x="0" y="0">id</tspan></text>
    <path class="st0" d="M3276.6,9.5c1.9,0,3.4,1.5,3.4,3.4s-1.5,3.4-3.4,3.4-.9,0-1.3-.2l-1,1h-.7v1.1h-1.1v1.1h-2.2v-2.2l3.1-3.1c0-.3-.1-.6-.1-1,0-1.9,1.5-3.4,3.4-3.4ZM3276.6,8.4c-2.5,0-4.5,2-4.5,4.5s0,.4,0,.6l-2.9,2.9c-.1.1-.2.2-.2.4v3c0,.3.3.6.6.6h3.4c.3,0,.6-.3.6-.6v-.6h.6c.3,0,.6-.3.6-.6v-.5l.9-.9c.3,0,.6,0,.9,0,2.5,0,4.5-2,4.5-4.5s-2-4.5-4.5-4.5ZM3276.6,11.7c0,.6.5,1.1,1.1,1.1s1.1-.5,1.1-1.1-.5-1.1-1.1-1.1-1.1.5-1.1,1.1Z"/>
    <path class="st26" d="M3467,5.2h22.7s2.3,0,2.3,2.3v13.6s0,2.3-2.3,2.3h-22.7s-2.3,0-2.3-2.3V7.5s0-2.3,2.3-2.3"/>
    <path class="st0" d="M3477,19.4h-1.3l-5.4-8.6h0c0,.2,0,.5,0,.8,0,.3,0,.6,0,.9,0,.3,0,.7,0,1v5.9h-1.1v-10.2h1.3l5.4,8.6h0c0-.2,0-.4,0-.7,0-.3,0-.6,0-1,0-.3,0-.7,0-1v-5.9h1.1v10.2Z"/>
    <path class="st0" d="M3487.4,19.4h-1.3l-5.4-8.6h0c0,.2,0,.5,0,.8,0,.3,0,.6,0,.9,0,.3,0,.7,0,1v5.9h-1.1v-10.2h1.3l5.4,8.6h0c0-.2,0-.4,0-.7,0-.3,0-.6,0-1,0-.3,0-.7,0-1v-5.9h1.1v10.2Z"/>
    <text class="st13" transform="translate(3434.7 19.7)"><tspan x="0" y="0">INT</tspan></text>
    <rect class="st25" x="3239.4" y="34.2" width="263.9" height="36.4"/>
    <text class="st1" transform="translate(3250.8 56.1)"><tspan x="0" y="0">reviewerId</tspan></text>
    <text class="st11" transform="translate(3468.6 56.1)"><tspan x="0" y="0">INT</tspan></text>
    <rect class="st25" x="3239.4" y="70.6" width="263.9" height="36.4"/>
    <text class="st1" transform="translate(3250.8 92.4)"><tspan x="0" y="0">reviewedId</tspan></text>
    <text class="st11" transform="translate(3468.6 92.4)"><tspan x="0" y="0">INT</tspan></text>
    <rect class="st25" x="3239.4" y="106.9" width="263.9" height="36.4"/>
    <text class="st1" transform="translate(3250.8 128.8)"><tspan x="0" y="0">contracId</tspan></text>
    <text class="st11" transform="translate(3468.6 128.8)"><tspan x="0" y="0">INT</tspan></text>
    <rect class="st25" x="3239.4" y="143.3" width="263.9" height="36.4"/>
    <text class="st1" transform="translate(3250.8 165.2)"><tspan x="0" y="0">rating</tspan></text>
    <path class="st26" d="M3467,150.7h22.7s2.3,0,2.3,2.3v13.6s0,2.3-2.3,2.3h-22.7s-2.3,0-2.3-2.3v-13.6s0-2.3,2.3-2.3"/>
    <path class="st0" d="M3477,164.9h-1.3l-5.4-8.6h0c0,.2,0,.5,0,.8,0,.3,0,.6,0,.9,0,.3,0,.7,0,1v5.9h-1.1v-10.2h1.3l5.4,8.6h0c0-.2,0-.4,0-.7,0-.3,0-.6,0-1,0-.3,0-.7,0-1v-5.9h1.1v10.2Z"/>
    <path class="st0" d="M3487.4,164.9h-1.3l-5.4-8.6h0c0,.2,0,.5,0,.8,0,.3,0,.6,0,.9,0,.3,0,.7,0,1v5.9h-1.1v-10.2h1.3l5.4,8.6h0c0-.2,0-.4,0-.7,0-.3,0-.6,0-1,0-.3,0-.7,0-1v-5.9h1.1v10.2Z"/>
    <text class="st11" transform="translate(3405.1 165.2)"><tspan x="0" y="0">TINYINT</tspan></text>
    <rect class="st25" x="3239.4" y="179.7" width="263.9" height="36.4"/>
    <text class="st1" transform="translate(3250.8 201.5)"><tspan x="0" y="0">comment</tspan></text>
    <text class="st11" transform="translate(3458.9 201.5)"><tspan x="0" y="0">TEXT</tspan></text>
    <rect class="st25" x="3239.4" y="216" width="263.9" height="36.4"/>
    <text class="st1" transform="translate(3250.8 237.9)"><tspan x="0" y="0">createdAt</tspan></text>
    <text class="st11" transform="translate(3410.5 237.9)"><tspan x="0" y="0">TIMESTAMP</tspan></text>
    <rect class="st25" x="3239.4" y="252.4" width="263.9" height="36.4"/>
    <text class="st1" transform="translate(3250.8 274.2)"><tspan x="0" y="0">removedAt</tspan></text>
    <text class="st11" transform="translate(3410.5 274.2)"><tspan x="0" y="0">TIMESTAMP</tspan></text>
    <g>
      <rect class="st22" x="1900" y="709.1" width="280" height="36.4"/>
      <text class="st14" transform="translate(1911.4 731)"><tspan x="0" y="0">images</tspan></text>
      <rect class="st25" x="1900" y="745.5" width="280" height="36.4"/>
      <text class="st3" transform="translate(1911.4 767.4)"><tspan x="0" y="0">id</tspan></text>
      <path class="st0" d="M1937.2,757.1c1.9,0,3.4,1.5,3.4,3.4s-1.5,3.4-3.4,3.4-.9,0-1.3-.2l-1,1h-.7v1.1h-1.1v1.1h-2.2v-2.2l3.1-3.1c0-.3-.1-.6-.1-1,0-1.9,1.5-3.4,3.4-3.4ZM1937.2,756c-2.5,0-4.5,2-4.5,4.5s0,.4,0,.6l-2.9,2.9c-.1.1-.2.2-.2.4v3c0,.3.3.6.6.6h3.4c.3,0,.6-.3.6-.6v-.6h.6c.3,0,.6-.3.6-.6v-.5l.9-.9c.3,0,.6,0,.9,0,2.5,0,4.5-2,4.5-4.5s-2-4.5-4.5-4.5ZM1937.2,759.4c0,.6.5,1.1,1.1,1.1s1.1-.5,1.1-1.1-.5-1.1-1.1-1.1-1.1.5-1.1,1.1Z"/>
      <path class="st26" d="M2143.6,752.9h22.7s2.3,0,2.3,2.3v13.6s0,2.3-2.3,2.3h-22.7s-2.3,0-2.3-2.3v-13.6s0-2.3,2.3-2.3"/>
      <path class="st0" d="M2153.7,767.1h-1.3l-5.4-8.6h0c0,.2,0,.5,0,.8,0,.3,0,.6,0,.9,0,.3,0,.7,0,1v5.9h-1.1v-10.2h1.3l5.4,8.6h0c0-.2,0-.4,0-.7,0-.3,0-.6,0-1,0-.3,0-.7,0-1v-5.9h1.1v10.2Z"/>
      <path class="st0" d="M2164.1,767.1h-1.3l-5.4-8.6h0c0,.2,0,.5,0,.8,0,.3,0,.6,0,.9,0,.3,0,.7,0,1v5.9h-1.1v-10.2h1.3l5.4,8.6h0c0-.2,0-.4,0-.7,0-.3,0-.6,0-1,0-.3,0-.7,0-1v-5.9h1.1v10.2Z"/>
      <text class="st13" transform="translate(2111.4 767.4)"><tspan x="0" y="0">INT</tspan></text>
      <rect class="st25" x="1900" y="781.8" width="280" height="36.4"/>
      <text class="st1" transform="translate(1911.4 803.7)"><tspan x="0" y="0">propertyId</tspan></text>
      <text class="st11" transform="translate(2145.3 803.7)"><tspan x="0" y="0">INT</tspan></text>
      <rect class="st25" x="1900" y="818.2" width="280" height="36.4"/>
      <text class="st1" transform="translate(1911.4 840.1)"><tspan x="0" y="0">imageUrl</tspan></text>
      <path class="st26" d="M2143.6,825.6h22.7s2.3,0,2.3,2.3v13.6s0,2.3-2.3,2.3h-22.7s-2.3,0-2.3-2.3v-13.6s0-2.3,2.3-2.3"/>
      <path class="st0" d="M2153.7,839.8h-1.3l-5.4-8.6h0c0,.2,0,.5,0,.8,0,.3,0,.6,0,.9,0,.3,0,.7,0,1v5.9h-1.1v-10.2h1.3l5.4,8.6h0c0-.2,0-.4,0-.7,0-.3,0-.6,0-1,0-.3,0-.7,0-1v-5.9h1.1v10.2Z"/>
      <path class="st0" d="M2164.1,839.8h-1.3l-5.4-8.6h0c0,.2,0,.5,0,.8,0,.3,0,.6,0,.9,0,.3,0,.7,0,1v5.9h-1.1v-10.2h1.3l5.4,8.6h0c0-.2,0-.4,0-.7,0-.3,0-.6,0-1,0-.3,0-.7,0-1v-5.9h1.1v10.2Z"/>
      <text class="st11" transform="translate(2036.9 840.1)"><tspan x="0" y="0">VARCHAR(255)</tspan></text>
      <rect class="st25" x="1900" y="854.6" width="280" height="36.4"/>
      <text class="st1" transform="translate(1911.4 876.4)"><tspan x="0" y="0">sortIndex</tspan></text>
      <text class="st11" transform="translate(2113.6 876.4)"><tspan x="0" y="0">TINYINT</tspan></text>
      <rect class="st25" x="1900" y="890.9" width="280" height="36.4"/>
      <text class="st1" transform="translate(1911.4 912.8)"><tspan x="0" y="0">createdAt</tspan></text>
      <text class="st11" transform="translate(2087.1 912.8)"><tspan x="0" y="0">TIMESTAMP</tspan></text>
      <rect class="st25" x="1900" y="927.3" width="280" height="36.4"/>
      <text class="st1" transform="translate(1911.4 949.2)"><tspan x="0" y="0">updatedAt</tspan></text>
      <text class="st11" transform="translate(2087.1 949.2)"><tspan x="0" y="0">TIMESTAMP</tspan></text>
      <rect class="st25" x="1900" y="963.6" width="280" height="36.4"/>
      <text class="st1" transform="translate(1911.4 985.5)"><tspan x="0" y="0">removedAt</tspan></text>
      <text class="st11" transform="translate(2087.1 985.5)"><tspan x="0" y="0">TIMESTAMP</tspan></text>
    </g>
    <rect class="st22" x="2259.4" y="745.5" width="263.9" height="36.4"/>
    <text class="st14" transform="translate(2270.8 767.4)"><tspan x="0" y="0">favs</tspan></text>
    <rect class="st25" x="2259.4" y="781.8" width="263.9" height="36.4"/>
    <text class="st3" transform="translate(2270.8 803.7)"><tspan x="0" y="0">id</tspan></text>
    <path class="st0" d="M2296.6,793.5c1.9,0,3.4,1.5,3.4,3.4s-1.5,3.4-3.4,3.4-.9,0-1.3-.2l-1,1h-.7v1.1h-1.1v1.1h-2.2v-2.2l3.1-3.1c0-.3-.1-.6-.1-1,0-1.9,1.5-3.4,3.4-3.4ZM2296.6,792.4c-2.5,0-4.5,2-4.5,4.5s0,.4,0,.6l-2.9,2.9c-.1.1-.2.2-.2.4v3c0,.3.3.6.6.6h3.4c.3,0,.6-.3.6-.6v-.6h.6c.3,0,.6-.3.6-.6v-.5l.9-.9c.3,0,.6,0,.9,0,2.5,0,4.5-2,4.5-4.5s-2-4.5-4.5-4.5ZM2296.6,795.7c0,.6.5,1.1,1.1,1.1s1.1-.5,1.1-1.1-.5-1.1-1.1-1.1-1.1.5-1.1,1.1Z"/>
    <path class="st26" d="M2487,789.2h22.7s2.3,0,2.3,2.3v13.6s0,2.3-2.3,2.3h-22.7s-2.3,0-2.3-2.3v-13.6s0-2.3,2.3-2.3"/>
    <path class="st0" d="M2497,803.4h-1.3l-5.4-8.6h0c0,.2,0,.5,0,.8,0,.3,0,.6,0,.9,0,.3,0,.7,0,1v5.9h-1.1v-10.2h1.3l5.4,8.6h0c0-.2,0-.4,0-.7,0-.3,0-.6,0-1,0-.3,0-.7,0-1v-5.9h1.1v10.2Z"/>
    <path class="st0" d="M2507.4,803.4h-1.3l-5.4-8.6h0c0,.2,0,.5,0,.8,0,.3,0,.6,0,.9,0,.3,0,.7,0,1v5.9h-1.1v-10.2h1.3l5.4,8.6h0c0-.2,0-.4,0-.7,0-.3,0-.6,0-1,0-.3,0-.7,0-1v-5.9h1.1v10.2Z"/>
    <text class="st13" transform="translate(2454.7 803.7)"><tspan x="0" y="0">INT</tspan></text>
    <rect class="st25" x="2259.4" y="818.2" width="263.9" height="36.4"/>
    <text class="st1" transform="translate(2270.8 840.1)"><tspan x="0" y="0">userId</tspan></text>
    <text class="st11" transform="translate(2488.6 840.1)"><tspan x="0" y="0">INT</tspan></text>
    <rect class="st25" x="2259.4" y="854.6" width="263.9" height="36.4"/>
    <text class="st1" transform="translate(2270.8 876.4)"><tspan x="0" y="0">propertyId</tspan></text>
    <text class="st11" transform="translate(2488.6 876.4)"><tspan x="0" y="0">INT</tspan></text>
    <rect class="st25" x="2259.4" y="890.9" width="263.9" height="36.4"/>
    <text class="st1" transform="translate(2270.8 912.8)"><tspan x="0" y="0">createdAt</tspan></text>
    <text class="st11" transform="translate(2430.4 912.8)"><tspan x="0" y="0">TIMESTAMP</tspan></text>
    <rect class="st25" x="2259.4" y="927.3" width="263.9" height="36.4"/>
    <text class="st1" transform="translate(2270.8 949.2)"><tspan x="0" y="0">removedAt</tspan></text>
    <text class="st11" transform="translate(2430.4 949.2)"><tspan x="0" y="0">TIMESTAMP</tspan></text>
    <rect class="st22" x="2794.8" y="381.9" width="387.8" height="36.4"/>
    <text class="st14" transform="translate(2806.1 403.8)"><tspan x="0" y="0">notifications</tspan></text>
    <rect class="st25" x="2794.8" y="418.3" width="387.8" height="36.4"/>
    <text class="st3" transform="translate(2806.1 440.1)"><tspan x="0" y="0">id</tspan></text>
    <path class="st0" d="M2832,429.9c1.9,0,3.4,1.5,3.4,3.4s-1.5,3.4-3.4,3.4-.9,0-1.3-.2l-1,1h-.7v1.1h-1.1v1.1h-2.2v-2.2l3.1-3.1c0-.3-.1-.6-.1-1,0-1.9,1.5-3.4,3.4-3.4ZM2832,428.8c-2.5,0-4.5,2-4.5,4.5s0,.4,0,.6l-2.9,2.9c-.1.1-.2.2-.2.4v3c0,.3.3.6.6.6h3.4c.3,0,.6-.3.6-.6v-.6h.6c.3,0,.6-.3.6-.6v-.5l.9-.9c.3,0,.6,0,.9,0,2.5,0,4.5-2,4.5-4.5s-2-4.5-4.5-4.5ZM2832,432.1c0,.6.5,1.1,1.1,1.1s1.1-.5,1.1-1.1-.5-1.1-1.1-1.1-1.1.5-1.1,1.1Z"/>
    <path class="st26" d="M3146.2,425.6h22.7s2.3,0,2.3,2.3v13.6s0,2.3-2.3,2.3h-22.7s-2.3,0-2.3-2.3v-13.6s0-2.3,2.3-2.3"/>
    <path class="st0" d="M3156.3,439.8h-1.3l-5.4-8.6h0c0,.2,0,.5,0,.8,0,.3,0,.6,0,.9,0,.3,0,.7,0,1v5.9h-1.1v-10.2h1.3l5.4,8.6h0c0-.2,0-.4,0-.7,0-.3,0-.6,0-1,0-.3,0-.7,0-1v-5.9h1.1v10.2Z"/>
    <path class="st0" d="M3166.7,439.8h-1.3l-5.4-8.6h0c0,.2,0,.5,0,.8,0,.3,0,.6,0,.9,0,.3,0,.7,0,1v5.9h-1.1v-10.2h1.3l5.4,8.6h0c0-.2,0-.4,0-.7,0-.3,0-.6,0-1,0-.3,0-.7,0-1v-5.9h1.1v10.2Z"/>
    <text class="st13" transform="translate(3114 440.1)"><tspan x="0" y="0">INT</tspan></text>
    <rect class="st25" x="2794.8" y="454.6" width="387.8" height="36.4"/>
    <text class="st1" transform="translate(2806.1 476.5)"><tspan x="0" y="0">userId</tspan></text>
    <text class="st11" transform="translate(3147.9 476.5)"><tspan x="0" y="0">INT</tspan></text>
    <rect class="st25" x="2794.8" y="491" width="387.8" height="36.4"/>
    <text class="st1" transform="translate(2806.1 512.8)"><tspan x="0" y="0">propertyId</tspan></text>
    <text class="st11" transform="translate(3147.9 512.8)"><tspan x="0" y="0">INT</tspan></text>
    <rect class="st25" x="2794.8" y="527.3" width="387.8" height="36.4"/>
    <text class="st1" transform="translate(2806.1 549.2)"><tspan x="0" y="0">message</tspan></text>
    <path class="st26" d="M3146.2,534.7h22.7s2.3,0,2.3,2.3v13.6s0,2.3-2.3,2.3h-22.7s-2.3,0-2.3-2.3v-13.6s0-2.3,2.3-2.3"/>
    <path class="st0" d="M3156.3,548.9h-1.3l-5.4-8.6h0c0,.2,0,.5,0,.8,0,.3,0,.6,0,.9,0,.3,0,.7,0,1v5.9h-1.1v-10.2h1.3l5.4,8.6h0c0-.2,0-.4,0-.7,0-.3,0-.6,0-1,0-.3,0-.7,0-1v-5.9h1.1v10.2Z"/>
    <path class="st0" d="M3166.7,548.9h-1.3l-5.4-8.6h0c0,.2,0,.5,0,.8,0,.3,0,.6,0,.9,0,.3,0,.7,0,1v5.9h-1.1v-10.2h1.3l5.4,8.6h0c0-.2,0-.4,0-.7,0-.3,0-.6,0-1,0-.3,0-.7,0-1v-5.9h1.1v10.2Z"/>
    <text class="st11" transform="translate(3106.4 549.2)"><tspan x="0" y="0">TEXT</tspan></text>
    <rect class="st25" x="2794.8" y="563.7" width="387.8" height="36.4"/>
    <text class="st1" transform="translate(2806.1 585.6)"><tspan x="0" y="0">type</tspan></text>
    <path class="st26" d="M3146.2,571.1h22.7s2.3,0,2.3,2.3v13.6s0,2.3-2.3,2.3h-22.7s-2.3,0-2.3-2.3v-13.6s0-2.3,2.3-2.3"/>
    <path class="st0" d="M3156.3,585.3h-1.3l-5.4-8.6h0c0,.2,0,.5,0,.8,0,.3,0,.6,0,.9,0,.3,0,.7,0,1v5.9h-1.1v-10.2h1.3l5.4,8.6h0c0-.2,0-.4,0-.7,0-.3,0-.6,0-1,0-.3,0-.7,0-1v-5.9h1.1v10.2Z"/>
    <path class="st0" d="M3166.7,585.3h-1.3l-5.4-8.6h0c0,.2,0,.5,0,.8,0,.3,0,.6,0,.9,0,.3,0,.7,0,1v5.9h-1.1v-10.2h1.3l5.4,8.6h0c0-.2,0-.4,0-.7,0-.3,0-.6,0-1,0-.3,0-.7,0-1v-5.9h1.1v10.2Z"/>
    <path class="st26" d="M3126.9,571.1h10.2s2.3,0,2.3,2.3v13.6s0,2.3-2.3,2.3h-10.2s-2.3,0-2.3-2.3v-13.6s0-2.3,2.3-2.3"/>
    <path class="st0" d="M3134.8,585.2h-5.6v-10.1h5.6v1h-4.5v3.3h4.2v1h-4.2v3.8h4.5v1Z"/>
    <rect class="st25" x="2794.8" y="600.1" width="387.8" height="36.4"/>
    <text class="st1" transform="translate(2806.1 621.9)"><tspan x="0" y="0">status</tspan></text>
    <path class="st26" d="M3146.2,607.4h22.7s2.3,0,2.3,2.3v13.6s0,2.3-2.3,2.3h-22.7s-2.3,0-2.3-2.3v-13.6s0-2.3,2.3-2.3"/>
    <path class="st0" d="M3156.3,621.6h-1.3l-5.4-8.6h0c0,.2,0,.5,0,.8,0,.3,0,.6,0,.9,0,.3,0,.7,0,1v5.9h-1.1v-10.2h1.3l5.4,8.6h0c0-.2,0-.4,0-.7,0-.3,0-.6,0-1,0-.3,0-.7,0-1v-5.9h1.1v10.2Z"/>
    <path class="st0" d="M3166.7,621.6h-1.3l-5.4-8.6h0c0,.2,0,.5,0,.8,0,.3,0,.6,0,.9,0,.3,0,.7,0,1v5.9h-1.1v-10.2h1.3l5.4,8.6h0c0-.2,0-.4,0-.7,0-.3,0-.6,0-1,0-.3,0-.7,0-1v-5.9h1.1v10.2Z"/>
    <path class="st26" d="M3126.9,607.4h10.2s2.3,0,2.3,2.3v13.6s0,2.3-2.3,2.3h-10.2s-2.3,0-2.3-2.3v-13.6s0-2.3,2.3-2.3"/>
    <path class="st0" d="M3134.8,621.6h-5.6v-10.1h5.6v1h-4.5v3.3h4.2v1h-4.2v3.8h4.5v1Z"/>
    <rect class="st25" x="2794.8" y="636.4" width="387.8" height="36.4"/>
    <text class="st1" transform="translate(2806.1 658.3)"><tspan x="0" y="0">isRead</tspan></text>
    <text class="st11" transform="translate(3102.3 658.3)"><tspan x="0" y="0">BOOLEAN</tspan></text>
    <rect class="st25" x="2794.8" y="672.8" width="387.8" height="36.4"/>
    <text class="st1" transform="translate(2806.1 694.6)"><tspan x="0" y="0">createdAt</tspan></text>
    <text class="st11" transform="translate(3089.7 694.6)"><tspan x="0" y="0">TIMESTAMP</tspan></text>
    <rect class="st25" x="2794.8" y="709.1" width="387.8" height="36.4"/>
    <text class="st1" transform="translate(2806.1 731)"><tspan x="0" y="0">readAt</tspan></text>
    <text class="st11" transform="translate(3089.7 731)"><tspan x="0" y="0">TIMESTAMP</tspan></text>
    <rect class="st22" x="3239.4" y="345.5" width="263.9" height="36.4"/>
    <text class="st14" transform="translate(3250.8 367.4)"><tspan x="0" y="0">blocks</tspan></text>
    <rect class="st25" x="3239.4" y="381.9" width="263.9" height="36.4"/>
    <text class="st3" transform="translate(3250.8 403.8)"><tspan x="0" y="0">id</tspan></text>
    <path class="st0" d="M3276.6,393.5c1.9,0,3.4,1.5,3.4,3.4s-1.5,3.4-3.4,3.4-.9,0-1.3-.2l-1,1h-.7v1.1h-1.1v1.1h-2.2v-2.2l3.1-3.1c0-.3-.1-.6-.1-1,0-1.9,1.5-3.4,3.4-3.4ZM3276.6,392.4c-2.5,0-4.5,2-4.5,4.5s0,.4,0,.6l-2.9,2.9c-.1.1-.2.2-.2.4v3c0,.3.3.6.6.6h3.4c.3,0,.6-.3.6-.6v-.6h.6c.3,0,.6-.3.6-.6v-.5l.9-.9c.3,0,.6,0,.9,0,2.5,0,4.5-2,4.5-4.5s-2-4.5-4.5-4.5ZM3276.6,395.8c0,.6.5,1.1,1.1,1.1s1.1-.5,1.1-1.1-.5-1.1-1.1-1.1-1.1.5-1.1,1.1Z"/>
    <path class="st26" d="M3467,389.3h22.7s2.3,0,2.3,2.3v13.6s0,2.3-2.3,2.3h-22.7s-2.3,0-2.3-2.3v-13.6s0-2.3,2.3-2.3"/>
    <path class="st0" d="M3477,403.5h-1.3l-5.4-8.6h0c0,.2,0,.5,0,.8,0,.3,0,.6,0,.9,0,.3,0,.7,0,1v5.9h-1.1v-10.2h1.3l5.4,8.6h0c0-.2,0-.4,0-.7,0-.3,0-.6,0-1,0-.3,0-.7,0-1v-5.9h1.1v10.2Z"/>
    <path class="st0" d="M3487.4,403.5h-1.3l-5.4-8.6h0c0,.2,0,.5,0,.8,0,.3,0,.6,0,.9,0,.3,0,.7,0,1v5.9h-1.1v-10.2h1.3l5.4,8.6h0c0-.2,0-.4,0-.7,0-.3,0-.6,0-1,0-.3,0-.7,0-1v-5.9h1.1v10.2Z"/>
    <text class="st13" transform="translate(3434.7 403.8)"><tspan x="0" y="0">INT</tspan></text>
    <rect class="st25" x="3239.4" y="418.3" width="263.9" height="36.4"/>
    <text class="st1" transform="translate(3250.8 440.1)"><tspan x="0" y="0">userId</tspan></text>
    <text class="st11" transform="translate(3468.6 440.1)"><tspan x="0" y="0">INT</tspan></text>
    <rect class="st25" x="3239.4" y="454.6" width="263.9" height="36.4"/>
    <text class="st1" transform="translate(3250.8 476.5)"><tspan x="0" y="0">propertyId</tspan></text>
    <text class="st11" transform="translate(3468.6 476.5)"><tspan x="0" y="0">INT</tspan></text>
    <rect class="st25" x="3239.4" y="491" width="263.9" height="36.4"/>
    <text class="st1" transform="translate(3250.8 512.8)"><tspan x="0" y="0">createdAt</tspan></text>
    <text class="st11" transform="translate(3410.5 512.8)"><tspan x="0" y="0">TIMESTAMP</tspan></text>
    <rect class="st25" x="3239.4" y="527.3" width="263.9" height="36.4"/>
    <text class="st1" transform="translate(3250.8 549.2)"><tspan x="0" y="0">removedAt</tspan></text>
    <text class="st11" transform="translate(3410.5 549.2)"><tspan x="0" y="0">TIMESTAMP</tspan></text>
  </g>
</svg>