<?xml version="1.0" encoding="UTF-8"?>
<svg id="Layer_1" data-name="Layer 1" xmlns="http://www.w3.org/2000/svg" xmlns:xlink="http://www.w3.org/1999/xlink" viewBox="0 0 720 720">
  <defs>
    <style>
      .cls-1 {
        fill: #73e6e6;
      }

      .cls-2 {
        fill: none;
      }

      .cls-3 {
        fill: #f66;
      }

      .cls-4 {
        fill: #003;
      }

      .cls-5 {
        clip-path: url(#clippath);
      }
    </style>
    <clipPath id="clippath">
      <path class="cls-2" d="M160.89,0h398.21c88.8,0,160.89,72.09,160.89,160.89v398.21c0,88.8-72.09,160.89-160.89,160.89H160.89C72.09,720,0,647.91,0,559.11V160.89C0,72.09,72.09,0,160.89,0Z"/>
    </clipPath>
  </defs>
  <g class="cls-5">
    <rect class="cls-3" x="-88.91" y="-71.26" width="918.85" height="918.85"/>
    <g>
      <g>
        <path class="cls-4" d="M954.19,311.2l-399.2-247.1-173.96,106.05v-55.97h-115.65v126.47l-115.31,70.3v85.73c-43.85,22.07-74.02,67.48-74.02,119.82s31.38,99.59,76.66,121.14v401.4h111.18v-399.74c47.24-20.76,80.33-67.98,80.33-122.8s-32.24-100.81-78.51-121.98v-18.63l288.81-176.06,284.02,175.81v663.42h115.65V311.2Z"/>
        <path class="cls-4" d="M552.13,461.26c38.43,0,69.58-31.15,69.58-69.58s-31.15-69.58-69.58-69.58-69.58,31.15-69.58,69.58,31.15,69.58,69.58,69.58Z"/>
      </g>
      <circle class="cls-1" cx="210.14" cy="516.5" r="55.24"/>
    </g>
  </g>
</svg>