<?xml version="1.0" encoding="UTF-8"?>
<svg id="Layer_1" xmlns="http://www.w3.org/2000/svg" version="1.1" xmlns:xlink="http://www.w3.org/1999/xlink" viewBox="0 0 1080 400">
  <!-- Generator: Adobe Illustrator 29.2.1, SVG Export Plug-In . SVG Version: 2.1.0 Build 116)  -->
  <defs>
    <style>
      .st0 {
        fill: none;
      }

      .st1 {
        fill: #003;
      }

      .st2 {
        fill: #6ff;
      }
    </style>
  </defs>
  <rect class="st0" width="1080" height="400"/>
  <g>
    <path class="st1" d="M879.8,266.4v84.9h-35.3v-79c0-16.9-11.2-27.8-26.6-27.8s-28.3,11.2-28.3,28.1v78.7h-35.3v-130.4h35.3v18.9h.5c6.2-12.4,22.6-21.4,41.5-21.4,28.6,0,48.2,20.4,48.2,47.9ZM988.3,264.9l51.7-44h-49.2l-48.8,42.7V122.1l-125.7-77.8-54.8,33.4v-17.6h-36.4v39.8l-36.3,22.1v27c-13.8,7-23.3,21.3-23.3,37.7s9.9,31.4,24.1,38.2v126.4h35v-125.9c14.9-6.5,25.3-21.4,25.3-38.7s-10.2-31.8-24.7-38.4v-5.9l91-55.4,89.4,55.4v208.9h36.4v-45.4l20.7-17.9c7.7,32,34,65.8,76,65.8v-36.8c-23.6,2-43.5-24.3-50.4-52.1ZM113.8,326.5c-22.3,0-37.7-17.4-37.7-41.7s13.4-41,35.3-41,28.3,9.7,29.6,20.4l30.8-4c-1.7-24.3-21.9-43.7-58.9-43.7s-72.8,28.3-72.8,69.3,28.3,70,73.5,70,52.6-15.1,58.9-37.2l-31.8-8.4c-2.7,9.4-12.7,16.4-26.8,16.4ZM313.2,328.2c0,9.4,1.7,16.9,5,23.1h-34.3c-4-6-5-13.7-5.5-19.1h-.5c-5,11.7-24.1,22.6-48.7,22.6s-43.5-13.4-43.5-36.3c0-52.1,86.4-28.3,92.9-48.9v-4c0-9.7-11.7-17.9-28.1-17.9s-31.3,8.9-36,17.9l-26.1-16.6c9.4-17.1,33-31.5,60.6-31.5s64.1,18.9,64.1,45.7v65.1ZM278.4,292.9c-17.4,8.4-57.1,2.5-57.1,21.9s7.9,15.6,20.1,15.6c18.4,0,37-15.6,37-31v-6.5ZM367.3,259.2c0-9.4,11.9-15.4,24.6-15.4s28.1,8.9,29.3,20.6l30.5-4c-1.7-25.1-22.1-44-58.1-44s-60.3,18.1-60.3,46.2c0,52.9,87.9,27.3,87.9,50.4s-12.2,15.1-26.8,15.1-33-10.2-35.3-24.6l-29.8,4.2c2,26.6,25.3,47.9,65.6,47.9s60.6-17.6,60.6-45.4c0-52.9-88.2-26.3-88.2-51.2ZM592.3,328.2c0,9.4,1.7,16.9,5,23.1h-34.3c-4-6-5-13.7-5.5-19.1h-.5c-5,11.7-24.1,22.6-48.7,22.6s-43.5-13.4-43.5-36.3c0-52.1,86.4-28.3,92.9-48.9v-4c0-9.7-11.7-17.9-28.1-17.9s-31.3,8.9-36,17.9l-26.1-16.6c9.4-17.1,33-31.5,60.6-31.5s64.1,18.9,64.1,45.7v65.1ZM557.5,292.9c-17.4,8.4-57.1,2.5-57.1,21.9s7.9,15.6,20.1,15.6c18.4,0,37-15.6,37-31v-6.5ZM815.4,169.3c12.1,0,21.9-9.8,21.9-21.9s-9.8-21.9-21.9-21.9-21.9,9.8-21.9,21.9,9.8,21.9,21.9,21.9ZM655.1,142.5l-36.4,22.2v186.6h36.4s0,0,0,0v-186.2h0v-22.5Z"/>
    <circle class="st2" cx="707.7" cy="186.7" r="17.4"/>
  </g>
</svg>