<?xml version="1.0" encoding="UTF-8"?>
<svg id="Layer_1" data-name="Layer 1" xmlns="http://www.w3.org/2000/svg" viewBox="0 0 1080 400">
  <defs>
    <style>
      .cls-1 {
        fill: #eee;
      }
    </style>
  </defs>
  <path class="cls-1" d="M140.57,310.06l31.79,8.44c-6.21,22.1-28.06,37.25-58.85,37.25-45.2,0-73.51-29.05-73.51-70.03s28.31-69.28,72.76-69.28c37,0,57.12,19.37,58.85,43.71l-30.79,3.97c-1.24-10.68-13.66-20.36-29.55-20.36-21.85,0-35.26,17.88-35.26,40.97,0,24.34,15.4,41.72,37.75,41.72,14.15,0,24.09-6.95,26.82-16.39ZM367.29,259.16c0-9.44,11.92-15.4,24.58-15.4,15.65,0,28.06,8.94,29.3,20.61l30.54-3.97c-1.74-25.08-22.1-43.95-58.11-43.95s-60.34,18.13-60.34,46.19c0,52.89,87.91,27.32,87.91,50.41,0,8.94-12.17,15.15-26.82,15.15-18.38,0-33.03-10.18-35.26-24.58l-29.8,4.22c1.99,26.57,25.33,47.93,65.56,47.93,36.5,0,60.59-17.63,60.59-45.44,0-52.89-88.16-26.32-88.16-51.16ZM313.16,328.19c0,9.44,1.74,16.89,4.97,23.1h-34.27c-3.97-5.96-4.97-13.66-5.46-19.12h-.5c-4.97,11.67-24.09,22.6-48.67,22.6-27.07,0-43.46-13.41-43.46-36.26,0-52.15,86.42-28.31,92.88-48.92v-3.97c0-9.69-11.67-17.88-28.06-17.88-17.63,0-31.29,8.94-36.01,17.88l-26.07-16.64c9.44-17.13,33.03-31.54,60.59-31.54,38.24,0,64.07,18.87,64.07,45.69v65.06ZM278.39,292.93c-17.38,8.44-57.12,2.48-57.12,21.85,0,8.69,7.95,15.64,20.11,15.64,18.38,0,37-15.64,37-31.04v-6.46ZM655.09,142.52l-36.42,22.2v186.57h36.43v-186.25h0v-22.52ZM592.27,328.19c0,9.44,1.74,16.89,4.97,23.1h-34.27c-3.97-5.96-4.97-13.66-5.46-19.12h-.5c-4.97,11.67-24.09,22.6-48.67,22.6-27.07,0-43.46-13.41-43.46-36.26,0-52.15,86.42-28.31,92.88-48.92v-3.97c0-9.69-11.67-17.88-28.06-17.88-17.63,0-31.29,8.94-36.01,17.88l-26.07-16.64c9.44-17.13,33.03-31.54,60.59-31.54,38.24,0,64.07,18.87,64.07,45.69v65.06ZM557.51,292.93c-17.38,8.44-57.12,2.48-57.12,21.85,0,8.69,7.95,15.64,20.11,15.64,18.38,0,37-15.64,37-31.04v-6.46ZM1038.76,317.02v36.75c-41.97,0-68.29-33.77-75.99-65.81l-20.75,17.88v45.44h-36.42v-208.93l-89.45-55.37-90.96,55.45v5.87c14.57,6.67,24.73,21.37,24.73,38.42s-10.42,32.14-25.3,38.67v125.89h-35.01v-126.42c-14.26-6.79-24.14-21.33-24.14-38.15s9.5-30.79,23.31-37.74v-27l36.32-22.14v-39.83h36.42v17.63l54.79-33.4,125.72,77.82v141.56l48.81-42.71h49.17l-51.65,43.95c6.95,27.81,26.82,54.14,50.41,52.15ZM725.09,186.72c0-9.61-7.79-17.4-17.4-17.4s-17.4,7.79-17.4,17.4,7.79,17.4,17.4,17.4,17.4-7.79,17.4-17.4ZM815.4,169.32c12.1,0,21.91-9.81,21.91-21.91s-9.81-21.91-21.91-21.91-21.91,9.81-21.91,21.91,9.81,21.91,21.91,21.91ZM831.66,218.43c-18.87,0-35.26,8.94-41.47,21.36h-.5v-18.87h-35.26v130.37h35.26v-78.72c0-16.89,12.66-28.06,28.31-28.06s26.57,10.93,26.57,27.81v78.97h35.26v-84.93c0-27.56-19.62-47.93-48.18-47.93Z"/>
</svg>