<?xml version="1.0" encoding="UTF-8"?>
<svg id="Layer_1" data-name="Layer 1" xmlns="http://www.w3.org/2000/svg" viewBox="0 0 1080 1080">
  <defs>
    <style>
      .cls-1 {
        fill: #73e6e6;
      }

      .cls-2 {
        fill: none;
      }

      .cls-3 {
        fill: #f66;
      }

      .cls-4 {
        fill: #003;
      }
    </style>
  </defs>
  <rect class="cls-3" x="-10" y="-10" width="1100" height="1100"/>
  <g>
    <g>
      <path class="cls-4" d="M1311.04,476.68L793.02,156.04l-225.74,137.61v-72.63h-150.06v164.11l-149.63,91.22v111.24c-56.9,28.64-96.04,87.56-96.04,155.49s40.72,129.23,99.48,157.2v520.87h144.27v-518.71c61.3-26.94,104.24-88.21,104.24-159.35s-41.84-130.82-101.88-158.28v-24.18l374.77-228.46,368.55,228.13v860.86h150.06V476.68Z"/>
      <path class="cls-4" d="M789.32,671.4c49.86,0,90.29-40.42,90.29-90.29s-40.42-90.29-90.29-90.29-90.29,40.42-90.29,90.29,40.42,90.29,90.29,90.29Z"/>
    </g>
    <circle class="cls-1" cx="345.55" cy="743.08" r="71.68"/>
  </g>
  <path class="cls-2" d="M281.63,72.86h516.73c115.23,0,208.78,93.55,208.78,208.78v516.73c0,115.23-93.55,208.78-208.78,208.78H281.64c-115.23,0-208.78-93.55-208.78-208.78V281.63c0-115.23,93.55-208.78,208.78-208.78Z"/>
</svg>