<?xml version="1.0" encoding="UTF-8"?>
<svg id="Layer_1" data-name="Layer 1" xmlns="http://www.w3.org/2000/svg" xmlns:xlink="http://www.w3.org/1999/xlink" viewBox="0 0 1080 400">
  <defs>
    <style>
      .cls-1 {
        fill: #f66;
      }

      .cls-2 {
        fill: none;
      }

      .cls-3 {
        fill: #003;
      }

      .cls-4 {
        fill: #e6dada;
      }

      .cls-5 {
        clip-path: url(#clippath);
      }
    </style>
    <clipPath id="clippath">
      <path class="cls-2" d="M-759.11-562.42h398.21c88.8,0,160.89,72.09,160.89,160.89V-3.31c0,88.8-72.09,160.89-160.89,160.89h-398.21c-88.8,0-160.89-72.09-160.89-160.89v-398.21c0-88.8,72.09-160.89,160.89-160.89Z"/>
    </clipPath>
  </defs>
  <g class="cls-5">
    <path class="cls-3" d="M34.19-251.21l-399.2-247.1-173.96,106.05v-55.97h-115.65v126.47l-115.31,70.3v85.73c-43.85,22.07-74.02,67.48-74.02,119.82s31.38,99.59,76.66,121.14v401.4h111.18V76.88c47.24-20.76,80.33-67.98,80.33-122.8s-32.24-100.81-78.51-121.98v-18.63l288.81-176.06L-81.45-186.79V476.63H34.19V-251.21Z"/>
  </g>
  <g>
    <g>
      <polygon class="cls-4" points="621.37 349.03 653.64 349.03 653.64 146.03 621.37 165.71 621.37 349.03"/>
      <path class="cls-4" d="M818.62,242.25c16.87,0,28.65,12.29,28.65,29.89v76.89s31.11,0,31.11,0v-82.85c0-27-18.96-45.85-46.1-45.85-17.65,0-33.57,8.12-39.62,20.21l-.57,1.15h-3.85s0-18.87,0-18.87h-31.11s0,126.22,0,126.22h31.11s0-76.65,0-76.65c0-17.46,12.78-30.14,30.38-30.14Z"/>
      <path class="cls-4" d="M965.41,287.3c7.55,31.41,32.65,63.11,71.9,64.19v-32.47c-.16,0-.32,0-.48,0-23.92,0-43.05-26.56-49.87-53.83l-.31-1.25,48.34-41.13h-42.75s-51.66,45.2-51.66,45.2V123.04s-123.66-76.54-123.66-76.54l-56.85,34.66v-19.25s-32.27,0-32.27,0v38.92s-36.32,22.14-36.32,22.14v27.11s-1.14.58-1.14.58c-13.67,6.88-22.17,20.63-22.17,35.88,0,15.4,9.01,29.64,22.96,36.28l1.18.56v125.65s30.86,0,30.86,0v-125.17s1.24-.54,1.24-.54c14.62-6.42,24.06-20.86,24.06-36.78,0-15.66-9.23-29.99-23.51-36.53l-1.21-.56v-8.37s93.04-56.72,93.04-56.72l91.51,56.65v208.01s32.27,0,32.27,0v-44.32s24.04-20.73,24.04-20.73l.8,3.31ZM727.79,186.54c0,10.74-8.73,19.47-19.47,19.47s-19.47-8.74-19.47-19.47c0-10.74,8.73-19.47,19.47-19.47,10.74,0,19.47,8.74,19.47,19.47Z"/>
      <path class="cls-4" d="M556.26,329.91h3.76s.17,1.89.17,1.89c.51,5.66,1.46,12.07,4.54,17.23h29.86c-2.54-6.04-3.78-12.95-3.78-21.02v-65.06c0-25.68-25.49-43.62-61.99-43.62-23.95,0-47.37,11.75-57.8,28.78l22.59,14.42c5.65-8.55,18.92-17.06,36.7-17.06s30.14,8.58,30.14,19.96v4.29s-.1.3-.1.3c-2.88,9.19-17.74,10.64-34.95,12.32-27.11,2.65-57.83,5.65-57.83,35.98,0,21.4,15.47,34.18,41.38,34.18,24.48,0,42.36-10.99,46.76-21.33l.54-1.26ZM521.13,332.32c-12.86,0-22.19-7.45-22.19-17.72,0-14.19,17.39-16.39,34.2-18.52,8.9-1.13,18.09-2.29,24.08-5.2l2.98-1.45v9.77c0,16.4-19.72,33.12-39.08,33.12Z"/>
      <path class="cls-4" d="M816.02,127.39c-10.94,0-19.84,8.9-19.84,19.84,0,10.94,8.9,19.84,19.84,19.84,10.94,0,19.84-8.9,19.84-19.84,0-10.94-8.9-19.84-19.84-19.84Z"/>
      <path class="cls-4" d="M277.14,329.91h3.76s.17,1.89.17,1.89c.51,5.66,1.46,12.07,4.54,17.23h29.86c-2.54-6.04-3.78-12.95-3.78-21.02v-65.06c0-25.68-25.49-43.62-61.99-43.62-23.95,0-47.37,11.75-57.8,28.78l22.59,14.42c5.65-8.55,18.92-17.06,36.7-17.06,17.18,0,30.14,8.58,30.14,19.96v4.29s-.1.3-.1.3c-2.88,9.19-17.74,10.64-34.95,12.32-27.11,2.65-57.83,5.65-57.83,35.98,0,21.4,15.47,34.18,41.38,34.18,24.48,0,42.36-10.99,46.76-21.33l.54-1.26ZM242.01,332.32c-12.86,0-22.19-7.45-22.19-17.72,0-14.19,17.39-16.39,34.2-18.52,8.9-1.13,18.09-2.29,24.08-5.2l2.98-1.45v9.77c0,16.4-19.72,33.12-39.08,33.12Z"/>
      <path class="cls-4" d="M142.53,312.38c-3.86,9.76-14.66,15.96-28.15,15.96-23.45,0-39.82-18.01-39.82-43.8,0-25.35,15.35-43.05,37.34-43.05,15.36,0,28.6,8.69,31.25,20.13l26.84-3.46c-2.78-24.63-24.26-39.83-56.6-39.83-42.28,0-70.69,27.01-70.69,67.21,0,40.65,28.71,67.96,71.43,67.96,27.99,0,49.32-12.86,56.24-33.72l-27.84-7.39Z"/>
      <path class="cls-4" d="M399.55,274.63c-18.09-1.98-33.72-3.7-33.72-15.66,0-11.35,13.74-17.47,26.66-17.47,15.6,0,28.5,8.62,31.03,20.37l26.57-3.46c-2.72-24.78-23.92-40.08-55.87-40.08-34.85,0-58.27,17.73-58.27,44.11,0,29.98,30.71,33.26,55.38,35.89,17.45,1.86,32.53,3.47,32.53,14.52,0,9.82-12.42,17.22-28.9,17.22-18.71,0-33.55-9.9-36.92-24.33l-25.89,3.67c3.07,26.85,27.68,44.08,63.31,44.08,35.55,0,58.52-17.02,58.52-43.37,0-29.53-28.92-32.7-54.44-35.5Z"/>
    </g>
    <path class="cls-1" d="M727.79,186.54c0,10.74-8.73,19.47-19.47,19.47s-19.47-8.74-19.47-19.47c0-10.74,8.73-19.47,19.47-19.47,10.74,0,19.47,8.74,19.47,19.47Z"/>
  </g>
</svg>