<?xml version="1.0" encoding="UTF-8"?>
<svg id="Layer_1" data-name="Layer 1" xmlns="http://www.w3.org/2000/svg" xmlns:xlink="http://www.w3.org/1999/xlink" viewBox="0 0 1080 400">
  <defs>
    <style>
      .cls-1 {
        fill: none;
      }

      .cls-2 {
        fill: #003;
      }

      .cls-3 {
        fill: #003;
      }

      .cls-4 {
        fill: #6ff;
      }

      .cls-5 {
        clip-path: url(#clippath);
      }
    </style>
    <clipPath id="clippath">
      <path class="cls-1" d="M-759.11-162.42h398.21c88.8,0,160.89,72.09,160.89,160.89v398.21c0,88.8-72.09,160.89-160.89,160.89h-398.21c-88.8,0-160.89-72.09-160.89-160.89V-1.53c0-88.8,72.09-160.89,160.89-160.89Z"/>
    </clipPath>
  </defs>
  <g class="cls-5">
    <path class="cls-2" d="M34.19,148.79L-365.01-98.31-538.97,7.74v-55.97h-115.65v126.47l-115.31,70.3v85.73c-43.85,22.07-74.02,67.48-74.02,119.82s31.38,99.59,76.66,121.14v401.4h111.18v-399.74c47.24-20.76,80.33-67.98,80.33-122.8s-32.24-100.81-78.51-121.98v-18.63L-365.47,37.41-81.45,213.21v663.42H34.19V148.79Z"/>
  </g>
  <g>
    <g>
      <path class="cls-3" d="M831.66,218.43c-18.87,0-35.26,8.94-41.47,21.36h-.5v-18.87h-35.26v130.37h35.26v-78.72c0-16.89,12.66-28.06,28.31-28.06s26.57,10.93,26.57,27.81v78.97h35.26v-84.93c0-27.56-19.62-47.93-48.18-47.93Z"/>
      <path class="cls-3" d="M988.35,264.87l51.65-43.95h-49.17l-48.81,42.71V122.06l-125.72-77.82-54.79,33.4v-17.63h-36.42v39.83l-36.32,22.14v27c-13.81,6.95-23.31,21.25-23.31,37.74s9.88,31.37,24.14,38.15v126.41h35.01v-125.89c14.88-6.54,25.3-21.41,25.3-38.68s-10.15-31.75-24.73-38.42v-5.87l90.96-55.45,89.45,55.37v208.93h36.42v-45.44l20.75-17.88c7.7,32.03,34.02,65.81,75.99,65.81v-36.75c-23.59,1.99-43.46-24.34-50.41-52.15Z"/>
      <path class="cls-3" d="M113.75,326.45c-22.35,0-37.75-17.38-37.75-41.72s13.41-40.97,35.26-40.97c15.89,0,28.31,9.69,29.55,20.36l30.79-3.97c-1.74-24.34-21.85-43.71-58.85-43.71-44.45,0-72.76,28.31-72.76,69.28s28.31,70.03,73.51,70.03c30.79,0,52.65-15.15,58.85-37.25l-31.79-8.44c-2.73,9.44-12.66,16.39-26.82,16.39Z"/>
      <path class="cls-3" d="M313.16,263.13c0-26.82-25.83-45.69-64.07-45.69-27.56,0-51.16,14.4-60.59,31.54l26.07,16.64c4.72-8.94,18.38-17.88,36.01-17.88,16.39,0,28.06,8.2,28.06,17.88v3.97c-6.46,20.61-92.88-3.23-92.88,48.92,0,22.85,16.39,36.26,43.46,36.26,24.58,0,43.71-10.93,48.67-22.6h.5c.5,5.46,1.49,13.16,5.46,19.12h34.27c-3.23-6.21-4.97-13.66-4.97-23.1v-65.06ZM278.39,299.38c0,15.4-18.62,31.04-37,31.04-12.17,0-20.11-6.95-20.11-15.64,0-19.37,39.73-13.41,57.12-21.85v6.46Z"/>
      <path class="cls-3" d="M367.29,259.16c0-9.44,11.92-15.4,24.58-15.4,15.65,0,28.06,8.94,29.3,20.61l30.54-3.97c-1.74-25.08-22.1-43.95-58.11-43.95s-60.34,18.13-60.34,46.19c0,52.89,87.91,27.32,87.91,50.41,0,8.94-12.17,15.15-26.82,15.15-18.38,0-33.03-10.18-35.26-24.58l-29.8,4.22c1.99,26.57,25.33,47.93,65.56,47.93,36.5,0,60.59-17.63,60.59-45.44,0-52.89-88.16-26.32-88.16-51.16Z"/>
      <path class="cls-3" d="M592.27,263.13c0-26.82-25.83-45.69-64.07-45.69-27.56,0-51.16,14.4-60.59,31.54l26.07,16.64c4.72-8.94,18.38-17.88,36.01-17.88,16.39,0,28.06,8.2,28.06,17.88v3.97c-6.46,20.61-92.88-3.23-92.88,48.92,0,22.85,16.39,36.26,43.46,36.26,24.58,0,43.71-10.93,48.67-22.6h.5c.5,5.46,1.49,13.16,5.46,19.12h34.27c-3.23-6.21-4.97-13.66-4.97-23.1v-65.06ZM557.51,299.38c0,15.4-18.62,31.04-37,31.04-12.17,0-20.11-6.95-20.11-15.64,0-19.37,39.73-13.41,57.12-21.85v6.46Z"/>
      <path class="cls-3" d="M815.4,169.32c12.1,0,21.91-9.81,21.91-21.91s-9.81-21.91-21.91-21.91-21.91,9.81-21.91,21.91,9.81,21.91,21.91,21.91Z"/>
      <polygon class="cls-3" points="655.09 142.52 618.67 164.72 618.67 351.29 655.09 351.29 655.09 351.29 655.1 351.29 655.1 165.04 655.09 165.04 655.09 142.52"/>
    </g>
    <circle class="cls-4" cx="707.7" cy="186.72" r="17.4"/>
  </g>
</svg>